<svg id="圖層_1" enable-background="new 0 0 512 512" viewBox="0 0 512 512" xmlns="http://www.w3.org/2000/svg"><g><path d="m199 97.1c-5.5 0-10.5-3.8-11.7-9.4-.4-1.8-9.4-45.2 29.3-72.3 5.4-3.8 12.9-2.5 16.6 2.9 3.8 5.4 2.5 12.9-2.9 16.6-25.4 17.8-19.9 46.5-19.6 47.7 1.4 6.4-2.7 12.8-9.1 14.2-.9.2-1.8.3-2.6.3z" fill="#65572c"></path></g><path d="m378.8 296.7c0-9.2-3.8-17.5-10-23.5.8-2.9 1.3-6 1.3-9.1 0-13.6-8.3-25.2-20.1-30.1.4-1.7.6-3.4.6-5.2 0-10.7-6.8-19.7-16.3-23.1 4.8-5.7 7.6-13 7.6-20.9 0-18-14.6-32.6-32.6-32.6-2.6 0-5.2.3-7.6.9 0-.3 0-.6 0-.9 0-12.8-10.1-23.2-22.7-23.9 1-3.6 1.3-7.5.6-11.6-1.9-11.4-11.2-20.4-22.7-21.9-4.1-.5-8.1-.1-11.7 1-12.5-14.3-29.1-23-47.2-23-15 0-29 6-40.5 16.2-4.3-1.1-8.8-1.3-13.6-.5-13.3 2.3-23.9 12.9-26.3 26.1-.9 4.8-.7 9.4.4 13.7-12.2 1.4-21.6 11.7-21.6 24.3v.4c-2.4-.6-5-.9-7.6-.9-18 0-32.6 14.6-32.6 32.6 0 8 2.9 15.3 7.6 20.9-9.5 3.4-16.3 12.4-16.3 23.1 0 1.8.2 3.5.6 5.2-11.8 4.9-20.1 16.5-20.1 30.1 0 3.2.5 6.2 1.3 9.1-6.2 5.9-10 14.3-10 23.5 0 10.7 5.2 20.3 13.2 26.2-7.5 8.3-12.1 19.3-12.1 31.4 0 16.4 8.5 30.8 21.3 39.2 3.7 2.4 5.9 6.5 5.9 10.9v.2c.2 11.8 9.7 21.8 21.5 22.4 3.2.2 6.3-.3 9.1-1.4 1-.4 2 .3 2 1.4 0 23.4 19 42.4 42.4 42.4.8 0 1.6 0 2.3-.1-.1.9-.2 1.8-.2 2.8 0 13.5 10.9 24.4 24.4 24.4 6.3 0 12.1-2.4 16.4-6.4 11 3.3 22.4 5 34.1 4.8 26.1-.4 50.5-9.8 71.4-25.9 1.5.2 3 .2 4.6.2 23.4 0 42.4-19 42.4-42.4 0-.8 0-1.5-.1-2.3 3.3 1.6 7.1 2.4 11.1 2.2 11.8-.6 21.4-10.6 21.6-22.4 0-2.6-.4-5.1-1.1-7.4 16.6-7.2 28.3-23.7 28.3-42.9 0-12.1-4.6-23.1-12.1-31.4 7.9-5.5 13.1-15 13.1-25.8z" fill="#459a3b"></path><g fill="#45843b"><path d="m378.8 296.7c0-9.2-3.8-17.5-10-23.5.8-2.9 1.3-6 1.3-9.1 0-13.6-8.3-25.2-20.1-30.1.4-1.7.6-3.4.6-5.2 0-7.2-3.1-13.7-8.1-18.1-14.3 24.5-32.3 47-51.7 67.6-59.8 60.8-128.2 113-215.1 123.9-9.8 1.2-19.2.7-28.6-.5.2.9.3 1.8.3 2.8v.2c.2 11.8 9.7 21.8 21.5 22.4 3.2.2 6.3-.3 9.1-1.4 1-.4 2 .3 2 1.4 0 23.4 19 42.4 42.4 42.4.8 0 1.6 0 2.3-.1-.1.9-.2 1.8-.2 2.8 0 13.5 10.9 24.4 24.4 24.4 6.3 0 12.1-2.4 16.4-6.4 11 3.3 22.4 5 34.1 4.8 26.1-.4 50.5-9.8 71.4-25.9 1.5.2 3 .2 4.6.2 23.4 0 42.4-19 42.4-42.4 0-.8 0-1.5-.1-2.3 3.3 1.6 7.1 2.4 11.1 2.2 11.8-.6 21.4-10.6 21.6-22.4 0-2.6-.4-5.1-1.1-7.4 16.6-7.2 28.3-23.7 28.3-42.9 0-12.1-4.6-23.1-12.1-31.4 8.1-5.7 13.3-15.2 13.3-26z"></path><path d="m141.4 155.4c-7.8 7.9-18.3 8.6-27.5 2.6-13.5-8.8-26 12.8-12.6 21.6 18.3 12 42.5 9 57.8-6.5 11.2-11.5-6.4-29.2-17.7-17.7z"></path><path d="m196.6 110.2c-2.1 2-5.7 1.8-8.4 1.8-4.3 0-8.1-.1-11-3.5-3.8-4.5-11.5-3.9-15.4 0-4.4 4.4-3.8 10.9 0 15.4 11.3 13.5 37.7 13.4 50.2 1.7 10.2-9.6-5.2-25-15.4-15.4z"></path><path d="m178.6 249.4c-6.5 3.3-13.4 6.3-20.7 7.2-3.5.4-7 .3-10.4-.5-3.6-.9-6.8-2.8-10.4-3.5-5.8-1.1-11.7 1.6-13.4 7.6-2.2 8 4.7 12.5 11.3 14.8 19.1 6.5 37.1 2 54.6-6.7 12.5-6.4 1.5-25.2-11-18.9z"></path><path d="m292.7 237.3c-5.1 1.6-10.3 4.9-14.8 6.1s-9.2 1.7-13.8 1.1-8.5-3.1-13-3.9c-5.8-1.1-11.7 1.6-13.4 7.6-3.1 11.2 9.9 15.5 18.5 17 13.3 2.4 25.5.5 38-4.6 3.2-1.3 6.4-2.8 9.5-4.4 7-3.5 6.9-12.3 1.4-17.2-3.8-3.3-8.1-3.1-12.4-1.7z"></path><path d="m87.9 314.5c-3 4.8-9.2 5.3-14.3 5.2-4.7-.1-13.7 0-17.4-3.5-10.1-9.7-25.5 5.7-15.4 15.4 8.8 8.5 23.1 10.1 34.9 9.9 12.5-.2 24.2-5.1 31-16 7.4-11.9-11.4-22.8-18.8-11z"></path><path d="m225.7 308c-2.7-4.6-10.2-7.5-14.9-3.9-12.8 9.8-30.4 13.5-45.6 6.8-5.4-2.4-11.7-1.6-14.9 3.9-2.7 4.6-1.5 12.5 3.9 14.9 22 9.7 48.1 8.1 67.5-6.8 4.7-3.6 7.2-9.4 4-14.9z"></path><path d="m221.4 214.8c10.3-.5 20.8-4.3 27.4-12.4 3.7-4.6 4.4-10.9 0-15.4-3.4-3.4-9.6-4.4-13.5-1.4-1.9 1.4-3.4 3.2-5.3 4.6-5.7 4.1-13.4 3.2-20.3 2.2s-11.6-7.5-18.7-2.6c-5.6 3.9-6.9 11.6-2 16.6 7.3 7.5 22.4 8.9 32.4 8.4z"></path><path d="m60.1 246.4c16.3 9 37 11.3 52.7-.3 4.7-3.5 7.1-9.4 3.9-14.9-2.7-4.6-10.1-7.4-14.9-3.9-9.6 7.1-20.7 5.9-30.8.3-12.2-6.7-23.2 12-10.9 18.8z"></path></g><path d="m337 506.2c-7.9 0-25.9-.9-35.3-8.9-1.9.5-4 .8-6.5.8-17.6 0-49.5-15.6-56.9-30.9-.1-.2-.2-.4-.3-.6-17.6-3.6-39.5-31.9-43.4-48.7-.6-2.4-.8-4.6-.7-6.5-4.1-3.1-8.5-8.8-12.3-18.6-4.1-10.5-6.7-23.5-6.7-33.8 0-7.5 1.3-12.8 3.2-16.5-1.9-3.7-3.3-9-3.3-16.5 0-10.3 2.6-23.3 6.7-33.8 3.8-9.8 8.2-15.5 12.3-18.6-.1-1.9.1-4.1.7-6.5 3.8-16.9 25.7-45.1 43.4-48.7.1-.2.2-.4.3-.6 7.4-15.3 39.3-30.9 56.9-30.9 2.5 0 4.6.3 6.5.8 9.4-8 27.5-8.9 35.3-8.9 7.9 0 25.9.9 35.3 8.9 1.9-.5 4-.8 6.5-.8 17.6 0 49.5 15.6 56.9 30.9.1.2.2.4.3.6 17.6 3.6 39.5 31.9 43.4 48.7.6 2.4.8 4.6.7 6.5 4.1 3.1 8.5 8.8 12.3 18.6 4.1 10.5 6.7 23.5 6.7 33.8 0 7.5-1.3 12.8-3.2 16.5 1.9 3.7 3.3 9 3.3 16.5 0 10.3-2.6 23.3-6.7 33.8-3.8 9.8-8.2 15.5-12.3 18.6.1 1.9-.1 4.1-.7 6.5-3.8 16.9-25.7 45.1-43.4 48.7-.1.2-.2.4-.3.6-7.4 15.3-39.3 30.9-56.9 30.9-2.5 0-4.6-.3-6.5-.8-9.4 7.9-27.4 8.9-35.3 8.9z" fill="#457c3b"></path><path d="m363.4 196.5c-11.9-6.6-40.9-6.6-52.7 0-4 2.2-8.6 3.3-13.2 3-13.6-.8-39.7 11.8-47.5 22.9-2.7 3.8-6.3 6.7-10.6 8.4-12.5 5.2-30.6 27.9-32.9 41.2-.8 4.6-2.8 8.7-5.9 12.2-9 10.1-15.5 38.4-11.7 51.4 1.3 4.4 1.3 9.1 0 13.5-3.8 13 2.7 41.3 11.7 51.4 3.1 3.4 5.1 7.6 5.9 12.2 2.3 13.4 20.3 36 32.9 41.2 4.3 1.8 7.9 4.7 10.6 8.4 7.9 11.1 34 23.6 47.5 22.9 4.6-.3 9.1.8 13.2 3 11.9 6.6 40.9 6.6 52.7 0 4-2.2 8.6-3.3 13.2-3 13.6.8 39.7-11.8 47.5-22.9 2.7-3.8 6.3-6.7 10.6-8.4 12.5-5.2 30.6-27.9 32.9-41.2.8-4.6 2.8-8.7 5.9-12.2 9-10.1 15.5-38.4 11.7-51.4-1.3-4.4-1.3-9.1 0-13.5 3.8-13-2.7-41.3-11.7-51.4-3.1-3.4-5.1-7.6-5.9-12.2-2.3-13.4-20.3-36-32.9-41.2-4.3-1.8-7.9-4.7-10.6-8.4-7.9-11.1-34-23.6-47.5-22.9-4.6.3-9.2-.7-13.2-3z" fill="#fff"></path><path d="m369.4 221.9c7.2-26.8-71.8-26.8-64.6 0-7.2-26.8-75.6 12.7-56 32.3-19.6-19.6-59.1 48.8-32.3 56-26.8-7.2-26.8 71.8 0 64.6-26.8 7.2 12.7 75.6 32.3 56-19.6 19.6 48.8 59.1 56 32.3-7.2 26.8 71.8 26.8 64.6 0 7.2 26.8 75.6-12.7 56-32.3 19.6 19.6 59.1-48.8 32.3-56 26.8 7.2 26.8-71.8 0-64.6 26.8-7.2-12.7-75.6-32.3-56 19.6-19.6-48.9-59.1-56-32.3z" fill="#ccdc42"></path><g fill="#ffff9a"><path d="m462.2 375.9c-.1 0 0 0 0 0 0-.1 0-.1-.1-.1 0 0 0 0-.1-.1-8.7-3-17.6-5.7-26.4-8.3-11.8-3.6-23.7-7-35.6-10.3-10.4-2.8-20.9-5.5-31.3-8.1-5.2-1.3-10.4-2.7-15.7-3.9-3.7-.9-7.5-1.8-11.3-2.7 3.8-.9 7.5-1.7 11.3-2.7 5.2-1.3 10.5-2.6 15.7-3.9 10.4-2.7 20.9-5.3 31.3-8.1 11.9-3.3 23.7-6.7 35.6-10.2 8.9-2.6 17.7-5.3 26.4-8.3 0 0 .1 0 .1-.1v-.1s0 0 0-.1c0 0 0 0 0-.1 0 0 0 0-.1 0h-.1c-9.1 1.8-18.1 3.8-27 6-12 2.8-24 5.8-35.9 8.9-10.4 2.7-20.8 5.7-31.2 8.6-5.2 1.5-10.4 2.9-15.5 4.4-3.7 1.1-7.4 2.2-11.1 3.3 2.8-2.6 5.6-5.3 8.4-7.9 3.9-3.7 7.8-7.5 11.6-11.2 7.7-7.5 15.5-15 23-22.7 8.2-8.4 16.4-16.8 24.4-25.4 6.8-7.1 13.5-14.3 19.9-21.7v-.1-.1s0 0-.1 0c0 0 0 0-.1 0 0 0 0 0-.1 0h-.1c-7.4 6.5-14.6 13.2-21.7 19.9-8.6 8.1-17 16.2-25.4 24.4-7.7 7.6-15.2 15.3-22.7 23-3.8 3.9-7.5 7.7-11.2 11.6-2.7 2.8-5.3 5.6-7.9 8.4 1.1-3.7 2.2-7.4 3.3-11.1 1.5-5.2 3-10.4 4.4-15.5 2.9-10.4 5.9-20.7 8.6-31.2 3.1-11.9 6.1-23.9 8.9-35.9 2.2-9 4.2-18 6-27.1v-.1s-.1-.1-.1-.1h-.1s0 0-.1 0v.1s0 0-.1.1c-3 8.7-5.7 17.6-8.3 26.4-3.6 11.8-7 23.7-10.3 35.6-2.8 10.4-5.5 20.9-8.1 31.3-1.3 5.2-2.7 10.4-3.9 15.7-.9 3.7-1.8 7.5-2.7 11.3-.9-3.8-1.7-7.5-2.7-11.3-1.3-5.2-2.6-10.5-3.9-15.7-2.7-10.4-5.3-20.9-8.1-31.3-3.3-11.9-6.7-23.7-10.2-35.6-2.6-8.9-5.3-17.7-8.3-26.4 0 0 0-.1-.1-.1h-.1s0 0-.1 0c0 0 0 0-.1 0v.1.1c1.8 9.1 3.8 18.1 6 27 2.8 12 5.8 24 8.9 35.9 2.7 10.4 5.7 20.8 8.6 31.2 1.5 5.2 2.9 10.4 4.4 15.5 1.1 3.7 2.2 7.4 3.3 11.1-2.6-2.8-5.3-5.6-7.9-8.4-3.7-3.9-7.5-7.8-11.2-11.6-7.5-7.7-15-15.5-22.7-23-8.4-8.2-16.8-16.4-25.4-24.4-7.1-6.8-14.3-13.5-21.7-19.9h-.1-.1v.1.1.1.1c6.5 7.4 13.2 14.6 19.9 21.7 8.1 8.6 16.2 17 24.4 25.4 7.6 7.7 15.3 15.2 23 22.7 3.9 3.8 7.7 7.5 11.6 11.2 2.8 2.7 5.6 5.3 8.4 7.9-3.7-1.1-7.4-2.2-11.1-3.3-5.2-1.5-10.4-3-15.5-4.4-10.4-2.9-20.7-5.9-31.2-8.6-11.9-3.1-23.9-6.1-35.9-8.9-9-2.2-18-4.2-27.1-6h-.1s-.1.1-.1.1v.1.1h.1s0 0 .1.1c8.7 3 17.6 5.7 26.4 8.3 11.8 3.6 23.7 7 35.6 10.3 10.4 2.8 20.9 5.5 31.3 8.1 5.2 1.3 10.4 2.7 15.7 3.9 3.7.9 7.5 1.8 11.3 2.7-3.8.9-7.5 1.7-11.3 2.7-5.2 1.3-10.5 2.6-15.7 3.9-10.4 2.7-20.9 5.3-31.3 8.1-11.9 3.3-23.7 6.7-35.6 10.2-8.9 2.6-17.7 5.3-26.4 8.3 0 0-.1 0-.1.1v.1.1.1h.1.1c9.1-1.8 18.1-3.8 27-6 12-2.8 24-5.8 35.9-8.9 10.4-2.7 20.8-5.7 31.2-8.6 5.2-1.5 10.4-2.9 15.5-4.4 3.7-1.1 7.4-2.2 11.1-3.3-2.8 2.6-5.6 5.3-8.4 7.9-3.9 3.7-7.8 7.5-11.6 11.2-7.7 7.5-15.5 15-23 22.7-8.2 8.4-16.4 16.8-24.5 25.4-6.8 7.1-13.5 14.3-19.9 21.7v.1.1s0 0 0 0h.1.1.1.1c7.4-6.5 14.6-13.2 21.7-19.9 8.6-8.1 17-16.2 25.4-24.4 7.7-7.6 15.2-15.3 22.7-23 3.8-3.9 7.5-7.7 11.2-11.6 2.7-2.8 5.3-5.6 7.9-8.4-1.1 3.7-2.2 7.4-3.3 11.1-1.5 5.2-3 10.4-4.4 15.5-2.9 10.4-5.9 20.7-8.6 31.2-3.1 11.9-6.1 23.9-8.9 35.9-2.2 9-4.2 18-6 27.1v.1s.1.1.1.1h.1.1s0 0 0-.1c0 0 0 0 .1-.1 3-8.7 5.7-17.6 8.3-26.4 3.6-11.8 7-23.7 10.2-35.6 2.8-10.4 5.5-20.9 8.1-31.3 1.3-5.2 2.7-10.4 3.9-15.7.9-3.7 1.8-7.5 2.7-11.3.9 3.8 1.7 7.5 2.7 11.3 1.3 5.2 2.6 10.5 3.9 15.7 2.7 10.4 5.3 20.9 8.1 31.3 3.3 11.9 6.7 23.7 10.2 35.6 2.6 8.9 5.3 17.7 8.3 26.4 0 0 0 .1.1.1h.1.1.1s0 0 0-.1c0 0 0 0 0-.1-1.8-9.1-3.8-18.1-6-27.1-2.8-12-5.8-24-8.9-35.9-2.7-10.4-5.7-20.8-8.6-31.2-1.5-5.2-2.9-10.4-4.4-15.5-1.1-3.7-2.2-7.4-3.3-11.1 2.6 2.8 5.3 5.6 7.9 8.4 3.7 3.9 7.5 7.8 11.2 11.6 7.5 7.7 15 15.5 22.7 23 8.4 8.2 16.8 16.4 25.4 24.4 7.1 6.8 14.3 13.5 21.7 19.9h.1.1s0 0 0-.1c0 0 0 0 0-.1 0 0 0 0 0-.1v-.1c-6.5-7.4-13.2-14.6-19.9-21.7-8.1-8.6-16.2-17-24.4-25.4-7.6-7.7-15.3-15.2-23-22.7-3.9-3.8-7.7-7.5-11.6-11.2-2.8-2.7-5.6-5.3-8.4-7.9l11.1 3.3c5.2 1.5 10.4 3 15.5 4.4 10.4 2.9 20.7 5.9 31.2 8.6 11.9 3.1 23.9 6.1 35.9 8.9 9 2.2 18 4.2 27.1 6h.1c.2.1.2.1.3-.1 0 .1 0 .1 0 0z"></path><path d="m346.9 351c.1.1.2.2.3.2 3.7 2.5 7.4 5 11.3 7.4-3.3-3.1-6.8-5.9-10.3-8.7-.1 0-.1-.1-.2-.1-.9-1.6-1.1-2.7-.6-3.6 2.9.7 5.9 1.4 8.9 2 6.6 1.4 13.2 2.8 19.8 4-6.4-2-12.9-3.9-19.4-5.6-2.2-.6-4.5-1.2-6.8-1.8.7-.2 1.6-.4 2.6-.6-2-.8-3.3-1.5-4.1-2.3.6-.1 1.3-.2 1.9-.3 4.4-.8 8.8-1.7 13.2-2.8-4.5.2-9 .6-13.4 1.1-.8.1-1.6.2-2.4.3.1-1.1 1.2-2.5 3.4-4.3-.5.1-1 .2-1.4.2 1.3-.8 2.6-1.6 3.9-2.5 5.3-3.4 10.6-6.9 15.7-10.5-5.6 2.9-11.1 5.9-16.6 9.1-2.2 1.3-4.4 2.6-6.7 3.9-.9-.3-1.3-1-1.3-2.1.3-.5.7-.9 1-1.4 2.5-3.7 5-7.4 7.4-11.3-2.6 2.8-5.1 5.8-7.5 8.8 0-.1.1-.2.1-.3-2.3 2-3.9 2.9-5.1 2.7.7-3 1.4-6 2-9 1.4-6.6 2.8-13.2 4-19.8-2 6.4-3.9 12.9-5.6 19.4-.7 2.6-1.4 5.2-2.1 7.8-.5-.9-.9-2.1-1.3-3.8-.5 1.5-1 2.6-1.4 3.4-.1-.4-.1-.7-.2-1.1-.8-4.4-1.7-8.8-2.8-13.2.2 4.5.6 9 1.1 13.4.1.8.2 1.5.3 2.3-1.1.3-2.4-.4-4.3-2.2-.8-1.2-1.5-2.4-2.3-3.6-3.4-5.3-6.9-10.6-10.5-15.7 2.9 5.6 5.9 11.1 9.1 16.6 1.1 2 2.3 4 3.4 5.9-.1 1.2-.7 1.9-1.7 2.1-.5-.3-1-.7-1.4-1-3.7-2.5-7.4-5-11.3-7.4 3 2.8 6.2 5.5 9.4 8.1-.4-.1-.8-.2-1.3-.3 1.9 2.1 2.7 3.5 2.6 4.6-2.8-.6-5.7-1.3-8.5-1.9-6.6-1.4-13.2-2.8-19.8-4 6.4 2 12.9 3.9 19.4 5.6 2.5.7 5 1.3 7.5 2-.8.5-2 .9-3.5 1.3 1.4.5 2.5 1 3.3 1.5-.3.1-.6.1-.9.2-4.4.8-8.8 1.7-13.2 2.8 4.5-.2 9-.6 13.4-1.1.6-.1 1.3-.1 1.9-.2.2 1.2-.8 2.6-2.8 4.6.2 0 .5-.1.7-.1-1.1.7-2.1 1.3-3.2 2-5.3 3.4-10.6 6.9-15.7 10.5 5.6-2.9 11.1-5.9 16.6-9.1 2-1.1 4.1-2.3 6.1-3.5 1 .3 1.5 1.2 1.4 2.6-.2.2-.3.4-.5.7-2.5 3.7-5 7.4-7.4 11.3 2.8-3 5.4-6.1 8-9.3 2-1.5 3.4-1.9 4.4-1.3-.6 2.8-1.3 5.6-1.9 8.4-1.4 6.6-2.8 13.2-4 19.8 2-6.4 3.9-12.9 5.6-19.4.6-2.2 1.2-4.4 1.7-6.5.2.7.4 1.5.7 2.4.8-1.9 1.6-3.2 2.3-3.9.1.5.2 1.1.3 1.6.8 4.4 1.7 8.8 2.8 13.2-.2-4.5-.6-9-1.1-13.4-.1-.6-.1-1.3-.2-1.9 1 .2 2.3 1.3 3.8 3.1-.1-.9-.2-1.6-.2-2.3 1 1.5 1.9 3 2.9 4.5 3.4 5.3 6.9 10.6 10.5 15.7-2.9-5.6-5.9-11.1-9.1-16.6-1.2-2.2-2.5-4.4-3.8-6.6.5-.9 1.5-1.1 3.1-.7z"></path></g><g fill="#a9c93e"><path d="m324.4 226.3c.4 2.6 2 27.9-.6 28.3s-8.4-24.3-8.8-26.9 1.4-5 4-5.4 5.1 1.4 5.4 4z"></path><path d="m378 258.2c-1.1 2.4-13.8 24.3-16.2 23.2s6.5-24.9 7.6-27.2 4-3.4 6.3-2.3c2.4 1.1 3.5 4 2.3 6.3z"></path><path d="m304.5 270c1.1 2.4 9.7 26.2 7.3 27.3s-14.8-21-15.9-23.4 0-5.2 2.3-6.3c2.4-1.1 5.2 0 6.3 2.4z"></path><path d="m405.1 304c-2.3 1.3-25.4 11.8-26.6 9.5-1.3-2.3 19.7-16.5 22-17.8s5.2-.5 6.5 1.8c1.2 2.3.4 5.2-1.9 6.5z"></path><path d="m449.6 301.2c-2.4 1-26.6 8.6-27.6 6.2s21.6-14 24-15 5.2.2 6.2 2.6-.2 5.2-2.6 6.2z"></path><path d="m245.3 269.2c2.1 1.6 20.6 18.9 19 21s-22.8-11.9-24.8-13.5-2.4-4.6-.8-6.7c1.6-2 4.6-2.4 6.6-.8z"></path><path d="m270.4 341.1c2.6-.1 27.9 1.3 28 3.9s-25.1 5.5-27.7 5.6-4.8-2-4.9-4.6c0-2.7 2-4.8 4.6-4.9z"></path><path d="m214.1 321.1c2.6.6 26.6 8.5 26 11.1s-25.7-1.2-28.2-1.8c-2.6-.6-4.1-3.2-3.5-5.7.6-2.6 3.1-4.2 5.7-3.6z"></path><path d="m219.9 355.9c3.2-.6 34.8-3.6 35.4-.3.6 3.2-30 11.4-33.2 12s-6.3-1.6-6.9-4.8c-.7-3.2 1.4-6.3 4.7-6.9z"></path><path d="m300.5 409.5c1.3-3 15.8-31.2 18.8-29.9s-6.6 31.4-7.9 34.5c-1.3 3-4.7 4.5-7.8 3.2-2.9-1.3-4.3-4.8-3.1-7.8z"></path><path d="m317.7 461.3c.3-3.3 5.8-34.5 9.1-34.2s3.1 32 2.8 35.2c-.3 3.3-3.2 5.7-6.4 5.4-3.4-.2-5.8-3.1-5.5-6.4z"></path><path d="m376.8 422.8c-1.7-2.8-16.3-30.9-13.6-32.7 2.8-1.7 21.9 23.6 23.6 26.3 1.7 2.8.9 6.4-1.9 8.2-2.7 1.8-6.3.9-8.1-1.8z"></path><path d="m445.2 392.4c-3.1-1.1-31.8-14.6-30.6-17.6 1.1-3.1 31.7 5.4 34.8 6.5s4.6 4.5 3.5 7.6c-1.2 3-4.6 4.6-7.7 3.5z"></path><path d="m419.6 351.6c-3.3.1-34.9-1.6-35-4.9s31.4-6.9 34.7-7 6 2.5 6.1 5.8c0 3.2-2.6 6-5.8 6.1z"></path></g><g fill="#f0ffd6"><path d="m443.8 331.8c-2.3.2-25.1.8-25.3-1.6-.2-2.3 22.1-6.6 24.4-6.9 2.3-.2 4.4 1.4 4.7 3.8.2 2.4-1.5 4.5-3.8 4.7z"></path><path d="m461.9 366.9c-2.3-.4-24.4-5.7-24-8s23-.7 25.4-.4c2.3.4 3.9 2.5 3.6 4.9-.5 2.2-2.6 3.8-5 3.5z"></path><path d="m394.8 385c-1.9-1.3-19.6-15.6-18.3-17.6 1.3-1.9 21.1 9.2 23.1 10.5 1.9 1.3 2.5 4 1.1 5.9-1.3 2-3.9 2.5-5.9 1.2z"></path><path d="m374.7 446.3c-.8-2.2-6.9-24.1-4.7-24.9s11.8 19.8 12.6 22-.3 4.7-2.5 5.5c-2.2.7-4.6-.4-5.4-2.6z"></path><path d="m420.6 249.7c-1.5 1.8-17.2 18.3-19 16.8s10.9-20.3 12.4-22.1 4.2-2.1 6-.6c1.8 1.4 2.1 4.1.6 5.9z"></path><path d="m337.1 277.7c.4 2.3 1.8 25-.5 25.4s-7.6-21.8-7.9-24.1c-.4-2.3 1.2-4.5 3.6-4.8 2.3-.4 4.5 1.2 4.8 3.5z"></path><path d="m359.2 220.3c-.3 2.3-4.7 24.6-7.1 24.4-2.3-.3-1.7-23-1.4-25.3s2.4-4 4.7-3.7c2.4.2 4.1 2.3 3.8 4.6z"></path><path d="m266.8 240.8c1.5 2.5 14.4 27.8 11.9 29.4-2.5 1.5-19.4-21.3-20.9-23.8s-.8-5.8 1.7-7.3c2.5-1.6 5.8-.8 7.3 1.7z"></path><path d="m270.8 303c2.7 1.3 27.3 15.5 26 18.1-1.3 2.7-27.9-7.2-30.5-8.5-2.7-1.3-3.8-4.4-2.5-7.1 1.2-2.6 4.3-3.7 7-2.5z"></path><path d="m234.8 386.7c1.9-.7 20.5-6.1 21.2-4.2s-16.7 10.3-18.6 11-4-.2-4.7-2.1.2-4 2.1-4.7z"></path><path d="m266.2 392.4c1.6-1.3 17.6-12.2 18.8-10.6 1.3 1.6-12.7 15-14.3 16.2-1.6 1.3-3.8 1-5.1-.5-1.2-1.5-.9-3.8.6-5.1z"></path><path d="m256.9 435.8c1.8-2.4 20.6-23.6 22.9-21.9 2.4 1.8-12.6 25.9-14.4 28.2-1.8 2.4-5.1 2.8-7.4 1.1s-2.8-5-1.1-7.4z"></path><path d="m337.2 411.3c-.2-2.9-.2-31.3 2.8-31.6 2.9-.2 7.6 27.8 7.9 30.7s-1.9 5.5-4.9 5.7c-3 .3-5.6-1.9-5.8-4.8z"></path></g></svg>