<svg id="Black_Currant" enable-background="new 0 0 450 450" viewBox="0 0 450 450" xmlns="http://www.w3.org/2000/svg"><g><g><g><path d="m225.678 157.883s-6.016-3.283-6.352-4.051c-4.516-10.286 6.349-23.098 19.278-18.293 4.809 1.792 3.274 8.343 5.975 12.672-7.159 3.034-11.923 6.232-18.901 9.672z" fill="#a66b41"></path></g><g><path d="m336.31 125.545c4.51-3.493-28.512 16.013-28.512-3.011 0-27.17-6.016-39.79-19.573-61.383-7.463-11.891-5.814 3.037-9.281 14.464-14.779-6.904-23.388-13.557-29.705-11.967-4.911 1.236-10.327 21.745 3.189 36.159 6.092 6.495 13.832 7.322 15.902 13.543-38.506 11.421 27.729 25.142 29.19 25.595l15.39 4.741z" fill="#70cc42"></path></g><g><g><path d="m310.522 144.908c31.33-8.661 49.526-51.932 70.944-72.955 3.671 1.324 13.747 6.065 17.419 7.393-14.022 16.331-26.519 31.856-40.547 48.191 1.406 3.014 8.6 4.142 14.282 6.969 7.928 3.94-.93 8.959-3.593 9.184-9.141.775-9.655.453-18.796 1.225-3.303 11.257 9.977 1.88 6.668 13.139-4.8-.915-34.025 15.767-38.825 14.852 2.879-5.989 5.753-11.988 8.632-17.98-13.689 4.823-27.375 9.646-41.064 14.469-3.73-3.204-4.385-13.274-8.112-16.481 13.527-.596 17.526-3.733 32.992-8.006z" fill="#70cc42"></path></g></g><g><path d="m141.115 361.616c-9.676 7.957-9.597 12.151-13.692 1.815-10.661 4.718-16.092 11.31-16.092.558-8.103 3.689-10.728 7.816-10.728-.278-6.896 7.501-6.285 11.172-12.985 5.165-13.581 1.049-7.72-.962.564-11.45-7.363-6.875-3.853-5.563 5.647-11.868-4.773-9.448-1.122-8.337 7.623-16.197-9.848-12.125-.816-11.371 14.116-20.944-13.806 0-26.384 4.899-20.327-6.837-8.103 1.356-18.965 6.402-13.975-1.397-17.013 0-12.543.123-.848-12.148-10.129 0-17.34 3.312-12.42-5.028-14.072-.816-13.35-.12-6.352-7.679-10.228-8.652-13.227-6.82-4.376-14.797-6.644-5.3-12.911-6.565-7.624-12.023-12.005-10.862-14.464-8.211-2.824-17.314-4.391-9.336.196-5.671 11.155-4.469-.684-7.933 5.107-4.887 14.116-4.887-1.137-11.272 5.2-5.665 17.504-2.932 2.958-12.967 1.479-10.023 15.808-7.948 5.206-11.502 2.599-9.696 15.39-7.141 3.283-14.7 6.314-6.726 20.322 2.514-3.014-16.922-9.591-23.04 5.799-23.04-5.627-12.371-11.83-15.756 0-18.568-1.836-3.21-3.669-6.422-5.504-9.635 3.891-19.766.804-16.717 20.468-8.655 6.06-9.547 4.277-7.369 12.844 1.675 9.848-6.305 7.372-3.321 12.403 8.796 15.206-6.334 11.289-6.036 17.664 10.333 6.492-1.771 12.987-3.54 19.483-5.305 30.071 149.205 43.526 111.967-83.159 199.684z" fill="#70cc42"></path></g><g><path d="m362.065 339.272c26.823 0 48.702-21.643 48.702-48.176s-21.88-48.176-48.702-48.176-48.702 21.64-48.702 48.176 21.88 48.176 48.702 48.176z" fill="#425161"></path></g><g><path d="m399.996 314.311c-7.913 12.73-22.119 21.225-38.334 21.225-24.838 0-44.978-19.924-44.978-44.49 0-16.054 8.597-30.123 21.485-37.945 12.268 33.432 35.217 53.128 61.827 61.21z" fill="#2b3947"></path></g><g><path d="m259.388 240.035c26.823 0 48.702-21.643 48.702-48.176s-21.88-48.179-48.702-48.179-48.702 21.643-48.702 48.179 21.879 48.176 48.702 48.176z" fill="#425161"></path></g><g><path d="m304.085 175.15c2.09 5.215 3.236 10.9 3.236 16.846 0 9.132-2.704 17.641-7.363 24.782-21.394 5.837-51.067 13.777-60.766 15.589-14.545-7.717-24.437-22.897-24.437-40.371 0-8.094 2.122-15.697 5.849-22.295 31.216 22.71 55.296 19.317 83.481 5.449z" fill="#2b3947"></path></g><g><path d="m187.128 385.776c29.079 0 52.794-23.458 52.794-52.219s-23.715-52.219-52.794-52.219c-29.076 0-52.792 23.458-52.792 52.219s23.713 52.219 52.792 52.219z" fill="#425161"></path></g><g><path d="m219.899 298.544c9.611 8.787 15.63 21.362 15.63 35.332 0 26.565-21.771 48.1-48.632 48.1-10.465 0-20.158-3.271-28.091-8.834l1.482-14.063c33.458-.523 56.627-19.804 59.611-60.535z" fill="#2b3947"></path></g><g><path d="m283.822 385.776c27.6 0 50.111-22.271 50.111-49.573s-22.511-49.57-50.111-49.57-50.114 22.268-50.114 49.57c0 27.301 22.514 49.573 50.114 49.573z" fill="#425161"></path></g><g><path d="m187.128 310.102c27.6 0 50.114-22.271 50.114-49.573s-22.514-49.57-50.114-49.57c-27.603 0-50.114 22.268-50.114 49.57s22.511 49.573 50.114 49.573z" fill="#425161"></path></g><g><path d="m331.934 259.409c28.872 0 52.423-23.294 52.423-51.856 0-28.559-23.549-51.853-52.423-51.853-28.875 0-52.423 23.294-52.423 51.853.002 28.562 23.551 51.856 52.423 51.856z" fill="#425161"></path></g><g><path d="m143.737 354.63c-5.007 7.679-10.012 15.358-15.016 23.04-1.479 5.849 2.941 9.775 11.432 9.775 1.011 7.808 1.961 5.446 10.868 5.446 3.724 2.254 6.527-11.792 15.384-18.363-4.682-11.582-9.517-18.045-22.668-19.898z" fill="#a66b41"></path></g><g><path d="m143.913 383.291c-.64 8.194 2.096 6.25 5.723 5.393 2.607 1.581 7.977-8.208 11.684-14.946 1.999-3.636-3.136-6.881-5.349-9.155z" fill="#91552a"></path></g><g><path d="m290.756 370.473c7.878 2.678 17.963-1.172 19.418-8.521 3.391-17.197-18.685-21.584-28.699-11.406-5.247 5.256.786 17.048 9.281 19.927z" fill="#a66b41"></path></g><g><path d="m368.502 314.408c4.993 5.136 29.997 18.43 34.136 3.347 3.312-12.075-11.391-25.174-15.756-26.659-13.338-4.537-24.82 10.006-18.38 23.312z" fill="#a66b41"></path></g><g><path d="m372.118 311.847c3.844 3.952 23.572 15.709 26.755 4.098.111-.418-.061-1.418 0-1.839-9.401-2.914-18.243-7.588-26.083-14.133-2.145 3.549-2.867 7.332-.672 11.874z" fill="#91552a"></path></g><g><path d="m327.356 218.202c-6.633 16.226 1.634 26.331 18.188 22.222 10.614-2.637 16.516-13.069 10.193-21.339-7.381-9.652-21.325-11.222-28.381-.883z" fill="#a66b41"></path></g><g><path d="m266.441 324.735c32.3 0 58.644-26.057 58.644-58.009 0-31.95-26.343-58.009-58.644-58.009s-58.647 26.06-58.647 58.009c.004 31.952 26.347 58.009 58.647 58.009z" fill="#425161"></path></g><g><path d="m273.387 306.585c28.533-12.45 1.897-48.421-19.971-36.042-22.403 12.687-1.339 45.341 19.971 36.042z" fill="#a66b41"></path></g><g><path d="m166.684 261.654c-14.744 7.153-15.349 19.225-1.324 26.545 8.994 4.697 19.611 1.102 20.409-8.503.935-11.219-7.729-20.863-19.085-18.042z" fill="#a66b41"></path></g><g><path d="m272.708 222.426c8.547 1.33 14.312 8.895 12.876 16.896-1.435 7.998-9.524 13.4-18.074 12.07-8.547-1.33-14.312-8.895-12.876-16.893 1.436-8.001 9.527-13.403 18.074-12.073z" fill="#627180"></path></g><g><path d="m332.621 169.906c8.547 1.33 14.312 8.895 12.876 16.896-1.435 7.998-9.526 13.4-18.074 12.07-8.547-1.33-14.312-8.895-12.879-16.893 1.438-7.998 9.529-13.403 18.077-12.073z" fill="#627180"></path></g><g><path d="m189.259 222.388c7.024 1.096 11.763 7.314 10.585 13.885-1.181 6.571-7.828 11.014-14.852 9.921s-11.76-7.311-10.582-13.882c1.178-6.574 7.828-11.017 14.849-9.924z" fill="#627180"></path></g><g><path d="m176.807 321.654c7.024 1.096 11.763 7.314 10.585 13.885-1.181 6.571-7.828 11.014-14.849 9.921-7.024-1.093-11.76-7.311-10.582-13.882 1.174-6.577 7.821-11.02 14.846-9.924z" fill="#627180"></path></g></g><g fill="#1c1c1c"><path d="m375.555 240.579c7.208-9.562 11.134-21.073 11.134-33.338 0-24.379-12.847-40.918-29.792-49.193 1.067-2.309 1.199-5.007-.108-7.416l-.383-.707c9.936-.216 20.643-1.143 23.54-6.597 2.812-5.291 1.415-9.991-5.817-13.759-2.558-1.339-5.776-2.49-8.986-3.639-.105-.038-.208-.073-.307-.102l34.847-40.579c.821-.827 1.479-1.842 1.906-3.008 1.593-4.355-.681-9.167-5.075-10.745l-10.868-3.92c-3.014-1.14-6.559-.514-8.997 1.885-3.654 3.587-8.81 10.292-15.054 18.424-8.237 10.719-18.468 24.04-28.638 34.674l.018.018c-.006.006-.012.012-.018.018-.117.12-.205.205-.322.324-.056.044-.123.056-.175.099-4.56 4.013-13.166 5.87-17.717 3.876-1.865-.83-2.695-2.187-2.695-4.402 0-28.307-6.478-41.719-20.216-63.604-1.567-2.496-4.519-7.103-8.883-6.247-4.367.883-5.089 5.51-6.08 11.915-.246 1.57-.506 3.248-.824 4.923-2.461-1.236-4.724-2.435-6.82-3.537-8.72-4.607-15.031-7.939-21.035-6.413-3.157.798-5.732 4.043-7.243 9.135-2.604 8.769-1.979 22.926 8.375 33.964 3.031 3.239 6.419 5.25 9.135 6.869 1.122.666 2.087 1.251 2.888 1.806-4.765 2.032-9.032 5.066-8.951 9.813.146 8.758 15.145 14.619 44.282 22.412-1.374.412-2.654.778-4.238 1.292v.003c-1.137.365-2.216.976-3.151 1.836-.427.395-.649.897-.976 1.348-11.821-7.702-26.317-10.284-40.818-6.91-.175-.716-.307-1.479-.55-2.128-1.52-4.049-5.194-6.597-10.091-6.998-7.694-.658-17.033 4.107-20.78 10.567-2.847 4.917-2.523 10.292.889 15.113.023.035.085.105.12.152-.085.058-.187.07-.272.134-2.414 1.868-5.826 3.11-9.389 4.16-.514-1.438-.932-2.707-1.304-3.821-1.5-4.513-2.493-7.498-5.554-8.866-2.982-1.333-5.799-.324-11.032 1.868-.324-.93-.605-1.769-.856-2.523-1.236-3.721-2.216-6.665-5.364-7.77-2.54-.877-5.075.061-7.813 1.646-.614-.702-1.146-1.333-1.625-1.9-2.333-2.768-4.195-5.004-7.296-4.741-2.596.175-4.089 1.733-6.124 4.773-8.711-4.589-14.347-5.425-18.512-2.821-5.379 3.373-5.37 11.207-4.759 17.656.056.59.237 1.158.532 1.675l2.941 5.063c-1.836.909-3.338 2.154-4.154 4.002-1.616 3.666.324 7.097 2.786 11.444.324.573.666 1.181 1.02 1.821-2.336.514-4.379 1.497-5.779 3.303-2.64 3.405-1.666 7.7-.219 13.081-4.203-3.286-7.395-5.51-11.149-4.186-2.73.956-4.285 3.379-5.443 6.989-.345-.079-.678-.155-.988-.231-8.173-1.926-10.219-.848-13.695 7.203l-.208.462c-1.239-.213-2.318-.43-3.262-.614-8.971-1.789-11.099.044-13.131 8.077-1.277-.368-2.467-.745-3.56-1.096-5.098-1.619-9.126-2.9-12.4-.289-1.619 1.298-2.35 3.131-2.625 5.075-.453-.044-.897-.088-1.327-.12-4.06-.377-7.878-.71-10.59 1.961-.816.804-1.345 1.728-1.69 2.672-.851-.155-1.64-.307-2.362-.444-4.06-.786-7.55-1.464-9.813 1.403-1.64 2.078-1.274 4.627-.427 6.992-4.396 3.449-6.603 5.457-6.635 8.65-.029 3.321 2.336 5.229 5.922 8.129.903.728 1.935 1.558 3.101 2.549-.444 1.044-.722 2.26-.57 3.601.409 3.707 3.534 5.767 6.837 7.948.111.079.225.146.342.222-1.874 1.985-2.949 3.8-2.838 6.057.161 3.207 2.604 5.004 5.7 7.29.588.43 1.236.909 1.938 1.438-2.28 2.531-3.657 4.627-2.561 7.325 1.193 2.944 3.701 3.449 9.281 3.8-.02 1.061.219 2.157.88 3.183 1.418 2.207 3.68 2.78 6.41 2.797-2.859 2.806-4.496 4.987-3.318 7.887 1.175 2.9 3.534 3.484 9.731 3.592.143.675.427 1.35.912 2.002 2.523 3.423 7.01 2.353 12.698.883.111 1.044.453 2.078 1.12 3.055 1.599 2.336 4.133 3.157 7.352 3.312-2.423 1.675-4.133 3.557-4.692 6.229-.64 3.072.57 6.042 2.432 8.866-.725.582-1.4 1.096-2.014 1.567-5.335 4.089-7.714 6.922-5.203 13.666-.833.497-1.599.924-2.277 1.298-3.101 1.745-5.779 3.242-6.171 6.46-.272 2.216.731 4.063 2.45 6.007-1.02 1.181-1.961 2.207-2.783 3.107-3.11 3.405-5.569 6.101-3.905 9.453 1.608 3.233 5.434 3.286 10.383 2.952 1.926 1.584 4.008 2.873 6.393 2.873.19 0 .386-.009.579-.026 2.786-.249 4.502-2.026 6.267-4.241.029.018.061.035.091.053 2.914 1.684 5.726.181 8.685-1.479.544 1.12 1.348 2.096 2.526 2.78 3.572 2.07 7.363-.035 11.768-2.473.848-.471 1.754-.973 2.724-1.488.567 1.117 1.28 2.081 2.09 2.891l-2.14 3.286c-.859 1.315-.906 3.005-.126 4.364.959 1.666 1.619 3.046 2.169 4.186 2.216 4.61 3.917 6.922 9.398 7.536 1.301 4.914 3.952 6.247 9.851 5.826.997-.07 2.189-.164 3.628-.187.713.272 1.4.403 2.061.403 4.163 0 7.328-5.066 10.409-10.003.479-.769 1.038-1.611 1.552-2.417 7.273 3.177 15.095 4.858 22.97 4.858 6.849 0 13.718-1.207 20.231-3.645 12.417-4.642 22.458-13.142 29-24.241.839 1.508 1.692 3.017 2.686 4.458 10.272 14.905 26.615 23.461 44.841 23.461 29.468 0 53.476-23.326 54.288-52.277 7.705 3.902 16.039 5.911 24.341 5.911 14.741 0 29.26-6.016 39.462-17.533 1.5-1.128 2.748-2.54 3.642-4.309.032-.05.082-.073.111-.12 6.635-11.166 9.345-20.02 9.345-30.555.013-23.993-16.562-44.496-39.447-50.479zm-114.761-119.161c.012-.018 1.122-1.818 8.752-4.081 1.096-.324 2.017-1.079 2.549-2.084.526-1.008.626-2.186.269-3.265-1.672-5.019-5.668-7.401-9.532-9.705-2.493-1.482-5.072-3.017-7.29-5.381-7.08-7.55-7.632-16.235-7.328-20.74.351-5.3 2.052-8.246 2.072-8.48 2.792-.737 8.167 2.105 14.943 5.68 3.476 1.833 7.41 3.908 11.909 6.01 1.114.526 2.409.535 3.537.038s1.982-1.462 2.341-2.631c1.12-3.698 1.719-7.545 2.245-10.95.061-.377.12-.778.187-1.19 12.581 20.161 18.109 32.143 18.109 57.849 0 5.58 2.739 9.866 7.714 12.078 1.988.88 4.274 1.353 6.688 1.491-2.017 1.307-3.899 2.233-5.84 2.964-.056-.02-.094-.067-.152-.085-1.815-.555-4.776-1.333-8.41-2.286-26.864-7.007-41.235-12.371-42.763-15.232zm78.298 6.924c18.141-18.977 35.881-45.437 43.522-52.935 3.671 1.321 7.34 2.648 11.008 3.973-14.022 16.331-28.05 32.663-42.075 48.994 1.435 3.078 13.081 5.718 18.632 8.617 11.044 5.753-20.018 4.186-27.796 4.841l6.939 12.774c-17.235-5.943-36.121-4.133-48.559 4.25l-5.709-6.054c21.928-7.131 23.448-2.91 44.038-24.46zm-9.067 31.95c12.698 0 24.507 4.171 33.239 11.748 9.769 8.471 14.925 20.646 14.925 35.2 0 13.441-5.478 25.846-15.428 34.952-9.366 8.568-21.827 13.058-34.613 12.593-4.651-23.628-22.862-42.458-46.261-48.34.421-31.686 25.133-46.153 48.138-46.153zm-106.583-13.566c2.341-4.051 8.521-6.808 12.71-6.369 2.318.187 2.686 1.172 2.824 1.535.181.485.322 1.044.471 1.716-5.785 2.295-10.95 5.431-15.396 9.301-.018.003-.105-.061-.111-.05-1.518-2.152-1.676-4.099-.498-6.133zm22.219 3.432c17.889-5.703 36.337-.21 47.96 13.812-11.494 8.878-19.497 22.587-20.146 40.912-2.312-.257-4.654-.415-7.036-.415-15.732 0-30.096 5.785-41.137 15.267-6.6-7.869-10.371-17.574-10.371-27.91-.001-23.517 15.871-36.946 30.73-41.666zm-27.738 76.98c-8.977 10.76-14.376 24.543-14.376 39.55 0 11.523 3.242 22.286 8.784 31.549-7.495 4.914-16.115 7.612-25.203 7.612-25.294 0-45.87-20.345-45.87-45.355 0-25.019 20.576-45.364 45.87-45.364 11.576 0 22.33 4.347 30.795 12.008zm-86.498 134.841c-.398-1.105-1.245-1.994-2.333-2.455-1.093-.462-2.315-.453-3.4.026-2.797 1.242-5.253 2.593-7.36 3.765-.886.488-1.882 1.044-2.742 1.479-.009-.248-.012-.532-.012-.839 0-1.429-.734-2.762-1.953-3.54-1.219-.772-2.757-.874-4.063-.281-1.882.856-3.484 1.736-4.847 2.499-.336-1.298-1.283-2.379-2.578-2.873-1.628-.64-3.493-.187-4.674 1.087-1.707 1.856-2.982 3.49-4.016 4.826-.392.497-.839 1.07-1.213 1.523-.4-.298-.968-.754-1.763-1.465-.789-.719-1.728-.856-2.876-1.096 1.193-1.324 2.526-2.865 3.932-4.645 1.35-1.71 1.166-4.16-.427-5.656-.605-.555-1.079-1.017-1.459-1.394.254-.146.506-.289.742-.421 1.567-.883 3.525-1.985 5.817-3.508 1.774-1.181 2.388-3.484 1.429-5.373-1.663-3.286-1.675-4.195-1.698-4.227.243-.462 1.736-1.602 2.938-2.523 1.502-1.146 3.329-2.549 5.443-4.449 1.663-1.497 1.862-4.013.453-5.75-3.145-3.867-3.183-5.133-3.204-5.133h-.003c.436-.874 3.753-2.61 6.419-4.013 2.824-1.47 6.185-3.242 9.904-5.621 1.581-1.017 2.298-2.935 1.766-4.724s-2.189-3.022-4.072-3.022c-3.601 0-7.121.316-10.281.605-2.315.205-5.273.532-7.053.395.161-.43.409-.991.786-1.719.731-1.421.588-3.122-.362-4.405-.947-1.277-2.517-1.882-4.13-1.657-2.178.368-4.54.973-6.773 1.558-.734.196-1.608.421-2.461.631-.108-.506-.298-1-.552-1.464-.748-1.342-2.417-2.181-3.964-2.181-.807 0-1.584 0-2.336 0 1.464-1.403 3.172-3.072 5.063-5.057 1.16-1.216 1.482-3.005.813-4.554-.672-1.54-2.207-2.54-3.899-2.54-2.695 0-5.2.222-7.346.412-.327.035-.681.061-1.041.094.36-1.079.263-2.277-.289-3.303-.699-1.292-2.02-2.131-3.493-2.216l-2.976-.164c-.298-.018-.596-.035-.894-.053l.398-.43c.78-.839 1.184-1.961 1.111-3.099-.07-1.137-.605-2.198-1.482-2.944-2.315-1.961-4.277-3.405-5.832-4.554-.497-.36-1.02-.745-1.476-1.096.932-.941 2.26-2.14 3.037-2.832.915-.83 1.421-2.011 1.386-3.242-.038-1.225-.614-2.379-1.581-3.148-1.725-1.377-3.42-2.499-4.928-3.49-.889-.59-2.02-1.333-2.716-1.9.111-.129.251-.272.415-.453.795-.813 1.219-1.918 1.184-3.046-.038-1.137-.535-2.207-1.383-2.97-2.476-2.242-4.557-3.917-6.206-5.256-.661-.541-1.365-1.105-1.944-1.602.994-.856 2.479-2.011 3.932-3.139l1.166-.909c1.418-1.114 1.961-2.97 1.4-4.636 1.865.36 4.095.772 6.65 1.052 1.304.129 2.526-.289 3.435-1.172.912-.883 1.377-2.113 1.269-3.37-.035-.377-.044-.675-.044-.909 1.029.018 2.432.12 3.598.222 1.874.172 3.999.36 6.329.36 1.201 0 2.344-.506 3.148-1.386.804-.883 1.196-2.061 1.076-3.242-.088-.856-.111-1.488-.108-1.961 1.122.257 2.713.763 4.072 1.198 2.397.763 5.2 1.652 8.386 2.362 2.262.488 4.551-.918 5.072-3.183l.433-1.918c.386-1.701.778-3.449 1.096-4.493.725.102 1.719.298 2.634.488 1.789.351 4.034.795 6.89 1.207 1.9.324 3.709-.719 4.487-2.438l1.567-3.557c.468-1.087.95-2.198 1.304-2.9.696.129 1.698.36 2.613.582 1.391.324 3.093.728 5.191 1.146 2.268.421 4.493-.973 4.99-3.215.482-2.157.889-3.467 1.193-4.25 1.07.71 2.584 1.9 3.873 2.917 2.353 1.856 5.218 4.107 8.755 6.443 1.412.932 3.248.95 4.677.018 1.421-.915 2.154-2.593 1.856-4.241-.757-4.241-1.725-7.831-2.531-10.821-.731-2.678-1.634-6.016-1.619-6.589.102-.07 1.128-.693 5.77-.693 1.444 0 2.786-.728 3.566-1.926.78-1.199.894-2.713.301-4.013-1.421-3.122-2.873-5.697-4.089-7.851-.751-1.324-1.646-2.906-2.055-3.891.552-.246 1.54-.596 3.265-1.006 1.301-.307 2.371-1.201 2.906-2.412.532-1.21.459-2.602-.199-3.747l-5.048-8.693c-.623-7.799.912-8.857.924-8.869.096-.056 2.45-1.374 13.224 4.958 1.982 1.166 4.54.555 5.759-1.377l.488-.766c.418-.664.842-1.333 1.236-1.938.056.07.111.132.17.202 1.084 1.28 2.452 2.9 4.268 4.817 1.403 1.479 3.671 1.754 5.402.655 1.251-.804 2.262-1.421 3.028-1.85.178.514.368 1.093.55 1.637.623 1.874 1.409 4.233 2.593 7.077.433 1.035 1.26 1.859 2.306 2.289 1.055.424 2.227.43 3.265-.012l2.815-1.184c1.988-.839 4.025-1.698 5.253-2.093.36.874.804 2.216 1.213 3.449.681 2.058 1.54 4.636 2.777 7.805.78 2.011 3.733 2.888 5.832 2.339 1.485-.403 3.09-.865 4.721-1.377-3.137 6.735-4.946 14.198-4.946 22.146 0 7.027 1.406 13.844 4.063 20.149-7.205-3.405-15.124-5.262-23.373-5.262-29.974 0-54.361 24.127-54.361 53.783 0 13.183 4.841 25.256 12.83 34.618-16.086 17.059-20.085 42.426-9.515 63.464l-3.753 5.759c-.263-.605-.553-1.347-.921-2.37zm31.704 9.83c-3.204 3.85-5.759 7.948-7.813 11.234-1.213 1.944-2.795 4.484-3.797 5.63-2.262-.257-4.233.085-5.709.196-.362.026-.757.061-1.12.079-.091-.462-.199-1.128-.324-2.078-.272-2.105-2.072-3.68-4.212-3.68-3.174 0-3.809-.316-3.899-.377-.278-.213-.924-1.558-1.394-2.531-.351-.737-.742-1.549-1.213-2.455l12.745-19.562c4.203-.377 12.511 3.405 16.133 8.36 2.299 3.158 1.115 4.579.603 5.184zm68.857-19.912c-5.174 12.341-15.007 21.754-27.688 26.492-11.412 4.277-24.054 4.069-35.253-.362.228-.284.406-.582.64-.862 3.724-4.484 3.625-10.111-.281-15.46-5.551-7.606-18.91-14.244-27.205-11.038-.082.032-.12.126-.199.161-6.638-16.951-2.952-36.314 9.564-49.76 9.544 8.199 21.961 13.201 35.563 13.201 10.816 0 21.079-3.227 29.985-9.105 4.297 5.381 9.465 10.035 15.303 13.771-3.682 10.767-3.761 22.269-.429 32.962zm-19.947-85.209c0-29.664 24.402-53.8 54.399-53.8s54.393 24.136 54.393 53.8-24.399 53.791-54.393 53.791-54.399-24.124-54.399-53.791zm71.783 114.835c-15.376 0-29.161-7.203-37.825-19.781-7.881-11.435-9.988-25.647-6.01-38.69 8.053 3.712 16.995 5.849 26.451 5.849 20.38 0 38.474-9.681 49.974-24.595 8.46 8.462 13.274 19.851 13.274 31.856 0 25.013-20.57 45.361-45.864 45.361zm114.721-64.917c-.57 2.07-1.608 3.157-3.455 3.619-6.513 1.701-19.073-4.765-23.037-8.316-2.046-4.8-1.26-10.181 2.072-13.888 1.409-1.576 5.346-5.031 11.386-2.987 2.978 1.028 15.597 12.236 13.034 21.572zm6.106-12.862c-4.265-8.594-12.502-15.349-16.387-16.662-7.41-2.505-15.265-.462-20.491 5.346-5.761 6.416-6.98 15.744-3.093 23.759.19.403.45.772.76 1.087 3.043 3.145 12.102 8.673 21.02 10.745-14.507 9.301-33.821 9.67-49.027-.351-.003-.003-.006-.003-.009-.003-1.877-11.605-7.539-22.283-16.25-30.45 5.168-9.03 8.155-19.433 8.155-30.529 0-1.155-.111-2.286-.175-3.426.249.003.497.029.745.029 14.253 0 28.117-5.314 38.62-14.923.216-.196.398-.418.608-.614 21.4 3.4 37.381 21.687 37.381 43.303.008 4.054-.427 8.079-1.857 12.689z"></path><path d="m305.517 343.317c-8.638-4.475-20.278-2.663-27.062 4.227-2.873 2.882-3.85 7.015-2.751 11.652 1.602 6.77 7.226 13.023 13.674 15.212 2.119.719 4.393 1.07 6.676 1.07 3.718 0 7.477-.932 10.652-2.748 4.113-2.353 6.82-5.905 7.632-10.02 1.659-8.413-1.641-15.66-8.821-19.393zm.489 17.779c-.45 2.277-2.414 3.707-3.546 4.347-3.005 1.736-7.056 2.122-10.327 1.008-3.654-1.242-7.238-5.27-8.164-9.182-.234-.991-.479-2.806.544-3.835 2.634-2.678 6.7-4.133 10.661-4.133 2.263 0 4.487.471 6.402 1.465 2.676 1.391 5.616 4.317 4.43 10.33z"></path><path d="m341.212 243.116c2.488 0 5.165-.351 7.989-1.052 7.135-1.771 12.914-6.656 15.083-12.756 1.83-5.159.906-10.696-2.531-15.206-4.75-6.22-11.868-9.822-19.211-9.617-6.548.172-12.257 3.338-16.068 8.924-.164.24-.31.506-.424.778-3.923 9.591-3.429 17.89 1.374 23.359 3.229 3.679 7.991 5.57 13.788 5.57zm-7.457-25.352c2.824-3.891 6.445-4.809 9.018-4.879 4.493-.026 9.106 2.233 12.207 6.299 2.195 2.873 1.918 5.571 1.286 7.325-1.228 3.476-4.724 6.305-9.132 7.393-6.057 1.514-10.927.839-13.303-1.874-2.502-2.858-2.529-8.035-.076-14.264z"></path><path d="m289.996 291.783c.666-8.916-4.715-18.541-13.385-23.958-8.158-5.098-17.372-5.457-25.303-.973-13.058 7.393-13.867 20.579-8.883 30.374 4.253 8.351 13.099 15.189 23.227 15.189 3.063 0 6.241-.623 9.445-2.017 9.003-3.932 14.294-10.547 14.899-18.615zm-39.989 1.654c-3.087-6.065-3.262-14.315 5.516-19.275 2.599-1.47 5.113-2.017 7.41-2.017 3.879 0 7.144 1.549 9.144 2.797 5.995 3.747 9.877 10.424 9.445 16.223-.368 4.896-3.771 8.883-9.848 11.535-9.027 3.938-17.881-1.838-21.667-9.263z"></path><path d="m165.652 257.527c-.289.079-.567.172-.833.307-8.825 4.277-13.739 10.406-13.844 17.258-.099 6.597 4.306 12.561 12.406 16.788 3.21 1.675 6.709 2.514 10.085 2.514 3.072 0 6.048-.693 8.62-2.087 4.586-2.499 7.471-6.983 7.916-12.312.608-7.317-2.151-14.315-7.378-18.714-4.718-3.971-10.76-5.312-16.972-3.754zm12.35 27.404c-2.938 1.593-7.027 1.403-10.661-.497-5.054-2.637-7.922-5.998-7.875-9.217.053-3.388 3.204-6.887 8.667-9.626 4.271-.941 7.235.623 8.997 2.105 3.145 2.645 4.791 6.983 4.405 11.611-.265 3.204-2.065 4.817-3.533 5.624z"></path></g></g></svg>