<svg xmlns:inkscape="http://www.inkscape.org/namespaces/inkscape" xmlns:rdf="http://www.w3.org/1999/02/22-rdf-syntax-ns#" xmlns="http://www.w3.org/2000/svg" xmlns:cc="http://creativecommons.org/ns#" xmlns:dc="http://purl.org/dc/elements/1.1/" xmlns:sodipodi="http://sodipodi.sourceforge.net/DTD/sodipodi-0.dtd" id="svg2" sodipodi:docname="_svgclean2.svg" viewBox="0 0 603.98 662.03" version="1.1" inkscape:version="0.48.3.1 r9886">
  <defs id="defs4">
    <radialGradient id="radialGradient3763" gradientUnits="userSpaceOnUse" cy="669.51" cx="488.57" gradientTransform="matrix(1.355 -.98788 .96406 1.3223 -818.89 266.86)" r="141.43" inkscape:collect="always">
      <stop id="stop3759" style="stop-color:#ffffff" offset="0"/>
      <stop id="stop3761" style="stop-color:#dbd275" offset="1"/>
    </radialGradient>
    <linearGradient id="linearGradient3773" y2="552.24" gradientUnits="userSpaceOnUse" x2="411.18" gradientTransform="matrix(.77464 0 0 .77464 145.46 218.14)" y1="97.959" x1="89.1" inkscape:collect="always">
      <stop id="stop3769" style="stop-color:#76d87e" offset="0"/>
      <stop id="stop3779" style="stop-color:#a7edae" offset=".77871"/>
      <stop id="stop3775" style="stop-color:#beffc3" offset=".89338"/>
      <stop id="stop3777" style="stop-color:#f4f4f4" offset=".97268"/>
      <stop id="stop3771" style="stop-color:#ffffff" offset="1"/>
    </linearGradient>
    <linearGradient id="linearGradient4606" y2="740.63" gradientUnits="userSpaceOnUse" x2="419.97" gradientTransform="matrix(.77464 0 0 .77464 147.67 209.29)" y1="778.41" x1="443.62" inkscape:collect="always">
      <stop id="stop4602" style="stop-color:#d3bc5f" offset="0"/>
      <stop id="stop4604" style="stop-color:#decd87;stop-opacity:0" offset="1"/>
    </linearGradient>
    <linearGradient id="linearGradient4623" y2="740.63" gradientUnits="userSpaceOnUse" y1="781.27" gradientTransform="matrix(.77464 0 0 .77464 239.26 116.92)" x2="419.97" x1="446.48" inkscape:collect="always">
      <stop id="stop4602-1" style="stop-color:#d3bc5f" offset="0"/>
      <stop id="stop4604-5" style="stop-color:#decd87;stop-opacity:0" offset="1"/>
    </linearGradient>
    <linearGradient id="linearGradient4623-4" y2="730.63" gradientUnits="userSpaceOnUse" y1="767.69" gradientTransform="matrix(.77464 0 0 .77464 234.64 209.83)" x2="409.97" x1="430.76" inkscape:collect="always">
      <stop id="stop4602-2" style="stop-color:#d3bc5f" offset="0"/>
      <stop id="stop4604-8" style="stop-color:#decd87;stop-opacity:0" offset="1"/>
    </linearGradient>
    <linearGradient id="linearGradient4623-2" y2="740.63" gradientUnits="userSpaceOnUse" y1="779.12" gradientTransform="matrix(.77464 0 0 .77464 152.41 165.44)" x2="419.97" x1="432.19" inkscape:collect="always">
      <stop id="stop4602-6" style="stop-color:#d3bc5f" offset="0"/>
      <stop id="stop4604-4" style="stop-color:#decd87;stop-opacity:0" offset="1"/>
    </linearGradient>
    <linearGradient id="linearGradient4623-44" y2="737.6" gradientUnits="userSpaceOnUse" y1="757.91" gradientTransform="matrix(.77464 0 0 .77464 290.91 172.48)" x2="423" x1="436.74" inkscape:collect="always">
      <stop id="stop4769" style="stop-color:#d3bc5f" offset="0"/>
      <stop id="stop4771" style="stop-color:#ede8b8" offset="1"/>
    </linearGradient>
    <linearGradient id="linearGradient4623-21" y2="740.63" gradientUnits="userSpaceOnUse" y1="766.27" gradientTransform="matrix(.77464 0 0 .77464 181.36 251.51)" x2="413.54" x1="415.05" inkscape:collect="always">
      <stop id="stop4781" style="stop-color:#d3bc5f" offset="0"/>
      <stop id="stop4783" style="stop-color:#ede8b9" offset="1"/>
    </linearGradient>
    <linearGradient id="linearGradient4623-3" y2="738.49" gradientUnits="userSpaceOnUse" y1="756.98" gradientTransform="matrix(.77464 0 0 .77464 276.04 214.73)" x2="421.4" x1="441.48" inkscape:collect="always">
      <stop id="stop4775" style="stop-color:#d3bc5f" offset="0"/>
      <stop id="stop4777" style="stop-color:#ebe6b2" offset="1"/>
    </linearGradient>
    <linearGradient id="linearGradient4623-1" y2="740.63" gradientUnits="userSpaceOnUse" y1="779.12" gradientTransform="matrix(.77464 0 0 .77464 197.76 167.65)" x2="419.97" x1="432.19" inkscape:collect="always">
      <stop id="stop4602-08" style="stop-color:#d3bc5f" offset="0"/>
      <stop id="stop4604-87" style="stop-color:#decd87;stop-opacity:0" offset="1"/>
    </linearGradient>
    <linearGradient id="linearGradient4623-46" y2="744.46" gradientUnits="userSpaceOnUse" y1="766.45" gradientTransform="matrix(.77464 0 0 .77464 289.34 129.44)" x2="421.97" x1="460.31" inkscape:collect="always">
      <stop id="stop4763" style="stop-color:#d3bc5f" offset="0"/>
      <stop id="stop4765" style="stop-color:#eeeabf" offset="1"/>
    </linearGradient>
    <linearGradient id="linearGradient4800" y2="737.6" gradientUnits="userSpaceOnUse" y1="757.91" gradientTransform="matrix(.63407 .44499 -.44499 .63407 616.85 166.1)" x2="423" x1="436.74" inkscape:collect="always">
      <stop id="stop4769-4" style="stop-color:#d3bc5f" offset="0"/>
      <stop id="stop4771-7" style="stop-color:#ede8b8" offset="1"/>
    </linearGradient>
  </defs>
  <sodipodi:namedview id="base" bordercolor="#666666" inkscape:pageshadow="2" inkscape:window-y="0" pagecolor="#ffffff" inkscape:window-maximized="0" inkscape:zoom="0.7" inkscape:window-x="0" inkscape:window-height="645" showgrid="false" borderopacity="1.0" inkscape:current-layer="layer1" inkscape:cx="-156.33799" inkscape:cy="494.37682" inkscape:window-width="674" inkscape:pageopacity="0.0" inkscape:document-units="px"/>
  <g id="layer1" inkscape:label="Calque 1" inkscape:groupmode="layer" transform="translate(-31.654 -178.25)">
    <path id="path3765" inkscape:connector-curvature="0" sodipodi:nodetypes="cccsssssccc" style="stroke:#5fd82e;stroke-width:.77464px;fill:url(#linearGradient3773)" d="m453.1 650.45c101.81-33.2-116.19-348.59-116.19-348.59l-18.813 11.066s37.099 62.03 70.259 124.76c16.679 31.553-175.68-215.58-166.22-191.48 8.0519 20.51-24.917 11.153-29.087 15.813-6.7625 7.5581-1.1782 14.476-19.887 12.895-15.896-1.3434 190.93 295.01 158.86 270.66-35.187-26.711-82.196-71.804-145.61-145.23-26.559 17.706-17.706 11.066-17.706 11.066s220.22 285.51 284.4 239.03z"/>
    <path id="path4494-5-0" inkscape:connector-curvature="0" sodipodi:nodetypes="cc" style="stroke:#4fcb4f;stroke-width:1.4718;fill:none" d="m206.33 244.32c19.775 37.487 186.46 245.15 221.32 374.04"/>
    <path id="path4507-9-0" inkscape:connector-curvature="0" sodipodi:nodetypes="cc" style="color:#000000;stroke:#4fcb4f;stroke-width:1.4718;fill:none" d="m177.83 244.87c31.183 40.16 179.34 279.28 241.8 348.59"/>
    <path id="path4507-9" inkscape:connector-curvature="0" sodipodi:nodetypes="cc" style="color:#000000;stroke:#4fcb4f;stroke-width:1.4718;fill:none" d="m197.47 274.95c31.183 40.16 183.25 346.56 240.97 346.37"/>
    <path id="path4494-5" inkscape:connector-curvature="0" sodipodi:nodetypes="cc" style="stroke:#4fcb4f;stroke-width:1.4718;fill:none" d="m220.63 255.66c21.44 36.9 205.38 238.72 219.66 374.87"/>
    <path id="path2987" sodipodi:rx="141.42857" sodipodi:ry="141.42857" style="fill:url(#radialGradient3763)" sodipodi:type="arc" d="m630 669.51c0 78.109-63.32 141.43-141.43 141.43-78.109 0-141.43-63.32-141.43-141.43 0-78.109 63.32-141.43 141.43-141.43 78.109 0 141.43 63.32 141.43 141.43z" transform="matrix(.77464 0 0 .77464 143.25 207.08)" sodipodi:cy="669.50507" sodipodi:cx="488.57144"/>
    <path id="path4256" d="m167.62 421.74c-15.863 13.904-15.379 15.161-15.379 15.161l-4.1394-1.0038 2.454-5.0588-5.1343 1.4723-3.229 2.1097 0.27765-6.0248-2.9114-1.1881-2.8825-1.4879 10.364-5.5073-13.32-7.7882 0.88832-2.9402 4.4881 2.0964-1.5789-5.5985 4.9411-1.037-1.6566-6.3624 5.5807 1.7478-0.69946-6.8754 4.6413-1.0659 10.382 11.59 1.126-11.692 2.9114 1.1881 1.6455 3.3355 3.8663-4.015 0.85272 3.7131 4.9789-3.0002-3.5555 7.0708 6.9798-4.9255-0.21991 5.4252 3.9262 0.0755z" sodipodi:nodetypes="ccccccccccccccccccccccccccccccc" style="fill:#00ae00" inkscape:connector-curvature="0"/>
    <path id="path4258" d="m170.83 418.62c-19.556 7.4201-19.541 8.7556-19.541 8.7556l-3.4978-2.3671 4.0329-3.8494-5.2802-0.41146-3.7309 0.84098 2.3458-5.5011-2.293-2.1127-2.1623-2.3812 11.537-1.5249-9.6758-11.852 1.8442-2.4238 3.4431 3.503 0.47328-5.7484 4.9499 0.74889 0.66582-6.485 4.579 3.5577 1.7328-6.6299 4.6814 0.61817 5.6286 14.366 5.098-10.472 2.293 2.1128 0.37285 3.6691 4.9834-2.3903-0.49454 3.7451 5.6653-1.0618-5.7535 5.3369 8.1915-2.1572-2.0844 4.9641 3.6215 1.4308z" sodipodi:nodetypes="ccccccccccccccccccccccccccccccc" style="fill:#00ae00" inkscape:connector-curvature="0"/>
    <path id="path4260" d="m158.79 450.85c-12.704 16.62-11.988 17.747-11.988 17.747l-4.2209-0.16664 1.3968-5.3983-4.7041 2.4353-2.7269 2.6825-0.90801-5.912-3.0629-0.58593-3.0935-0.88308 9-7.3809-14.473-4.968 0.28882-3.0324 4.7735 1.1608-2.6297-5.1345 4.6013-1.9743-2.8546-5.862 5.7676 0.60818-2.0243-6.5479 4.3042-1.9438 12.36 9.2388-1.1912-11.588 3.0629 0.58594 2.252 2.9213 2.9741-4.6596 1.555 3.4434 4.2542-3.8904-2.0744 7.5698 5.8232-6.1536 0.84692 5.3178 3.8321-0.6942z" sodipodi:nodetypes="ccccccccccccccccccccccccccccccc" style="fill:#00ae00" inkscape:connector-curvature="0"/>
    <path id="path4262" d="m190.61 413.01c-16.391 15.298-15.835 16.617-15.835 16.617l-4.431-0.9291 2.4392-5.4559-5.4059 1.7345-3.3604 2.3484 0.0951-6.41-3.1324-1.1656-3.1117-1.4851 10.828-6.1948-14.409-7.8323 0.8462-3.1532 4.8377 2.0783-1.8632-5.8954 5.215-1.2657-1.9711-6.7045 5.9869 1.6717-0.97123-7.2812 4.8956-1.2864 11.414 11.969 0.80835-12.459 3.1325 1.1657 1.8589 3.4891 3.9744-4.3938 1.0291 3.9164 5.19-3.3526-3.5427 7.63 7.2519-5.4644-0.0536 5.7711 4.1738-0.05z" sodipodi:nodetypes="ccccccccccccccccccccccccccccccc" style="fill:#00ae00" inkscape:connector-curvature="0"/>
    <path id="path4264" d="m160.9 467.56c-14.95-15.5-16.2-14.95-16.2-14.95l0.82277-4.2704 5.2785 2.2571-1.7509-5.1649-2.3084-3.1907 6.1581-0.009 1.0704-3.0269 1.3775-3.012 6.12 10.303 7.2963-13.963 3.0418 0.7632-1.9202 4.6791 5.6331-1.8821 1.2976 4.989 6.4084-1.9985-1.5115 5.7765 6.9781-1.0472 1.3125 4.6818-11.316 11.151 11.979 0.58068-1.0704 3.0269-3.322 1.8402 4.2826 3.7482-3.7455 1.05 3.3016 4.9322-7.384-3.2828 5.3623 6.8794-5.5438 0.0392 0.11361 4.008z" sodipodi:nodetypes="ccccccccccccccccccccccccccccccc" style="fill:#00ae00" inkscape:connector-curvature="0"/>
    <path id="path4266" d="m223.02 432.19c-16.801-15.758-18.115-15.098-18.115-15.098l0.64995-4.6057 5.7593 2.128-2.147-5.4232-2.6368-3.2845 6.5774-0.34008 0.98109-3.2906 1.31-3.2912 7.0894 10.677 7.0452-15.306 3.2901 0.6522-1.8003 5.101 5.9162-2.3123 1.6534 5.2595 6.7382-2.4782-1.305 6.2513 7.3976-1.4926 1.6529 4.9306-11.49 12.518 12.827-0.0219-0.98109 3.2906-3.4498 2.1437 4.7754 3.7742-3.9445 1.3223 3.791 5.0914-8.0633-3.1108 6.0966 7.0609-5.9196 0.33896 0.33618 4.2751z" sodipodi:nodetypes="ccccccccccccccccccccccccccccccc" style="fill:#00ae00" inkscape:connector-curvature="0"/>
    <path id="path4268" d="m200.87 493.81c-20.18-5.811-20.973-4.7294-20.973-4.7294l-1.3855-4.0078 5.558-0.66512-3.9951-3.5095-3.5042-1.5704 5.1968-3.008-0.57056-3.0781-0.30388-3.2152 10.188 5.7206-0.63957-15.348 2.941-0.83724 0.65769 4.8876 3.841-4.334 3.5265 3.5818 4.4392-4.81 1.5374 5.6154 5.3838-4.2841 3.3894 3.3151-4.1258 14.932 10.401-5.3455 0.57056 3.0781-1.9094 3.1727 5.4433 1.0795-2.652 2.7115 5.1914 2.5575-7.8361 0.82448 7.8807 3.1982-4.6634 2.7338 2.0485 3.33z" sodipodi:nodetypes="ccccccccccccccccccccccccccccccc" style="fill:#00ae00" inkscape:connector-curvature="0"/>
    <path id="path4270" d="m198.97 479.48c-20.253 3.6235-20.482 4.9172-20.482 4.9172l-2.9519-2.9234 4.5978-2.9894-5.0301-1.3564-3.7597 0.13574 3.2666-4.8925-1.8333-2.4588-1.6582-2.6947 11.431 0.62027-7.2028-13.214 2.223-2.0084 2.6928 4.0117 1.5011-5.4715 4.6495 1.6226 1.821-6.1487 3.781 4.2708 2.8788-6.0951 4.4137 1.4475 2.8338 14.91 6.8298-9.1989 1.8333 2.4588-0.30563 3.6149 5.2518-1.4062-1.158 3.5309 5.6699 0.002-6.5312 4.1152 8.311-0.59846-2.9163 4.4208 3.2414 2.0407z" sodipodi:nodetypes="ccccccccccccccccccccccccccccccc" style="fill:#00ae00" inkscape:connector-curvature="0"/>
    <path id="path4272" d="m204.33 436c-18.052-11.546-19.141-10.718-19.141-10.718l-0.19104-4.3228 5.6299 0.96392-2.8884-4.5934-2.9715-2.554 5.9571-1.4327 0.33604-3.1766 0.63673-3.2332 8.3043 8.5553 3.8327-15.199 3.12 0.0353-0.77643 4.9719 5.0161-3.1236 2.409 4.528 5.7395-3.4155-0.12732 5.9394 6.5107-2.6266 2.3524 4.2273-8.3731 13.407 11.727-2.2075-0.33603 3.1766-2.7893 2.5488 5.0108 2.6372-3.3818 1.882 4.3352 4.0097-7.9045-1.4698 6.7796 5.4176-5.3557 1.3195 1.0365 3.8523z" sodipodi:nodetypes="ccccccccccccccccccccccccccccccc" style="fill:#00ae00" inkscape:connector-curvature="0"/>
    <path id="path4274" d="m173.65 503.8c-20.721 7.8738-20.705 9.2892-20.705 9.2892l-3.7082-2.5068 4.2721-4.0817-5.5962-0.43335-3.9536 0.8932 2.4833-5.8313-2.4312-2.2379-2.2929-2.5225 12.226-1.622-10.26-12.555 1.9532-2.5696 3.6508 3.7107 0.49861-6.0924 5.2463 0.79112 0.70229-6.8732 4.8547 3.7681 1.833-7.0273 4.9616 0.65272 5.9726 15.222 5.3974-11.101 2.4312 2.2379 0.39702 3.8883 5.2802-2.5358-0.52217 3.9693 6.0035-1.1283-6.0948 5.659 8.6802-2.2904-2.2065 5.262 3.8388 1.5145z" sodipodi:nodetypes="ccccccccccccccccccccccccccccccc" style="fill:#00ae00" inkscape:connector-curvature="0"/>
    <path id="path4278" d="m249.88 515.89c-20.059 7.6628-20.041 9.0338-20.041 9.0338l-3.5964-2.4219 4.1313-3.9612-5.4217-0.41016-3.8282 0.87201 2.3955-5.6529-2.359-2.1636-2.2254-2.4396 11.841-1.5922-9.9607-12.144 1.8877-2.4925 3.5428 3.5882 0.47254-5.9024 5.0833 0.75732 0.66849-6.6591 4.7091 3.6418 1.7635-6.8103 4.8074 0.62375 5.8117 14.735 5.2093-10.763 2.359 2.1636 0.39128 3.7659 5.1104-2.4654-0.499 3.8459 5.8136-1.1032-5.8942 5.4923 8.4044-2.2336-2.1283 5.101 3.7211 1.4605z" sodipodi:nodetypes="ccccccccccccccccccccccccccccccc" style="fill:#00ae00" inkscape:connector-curvature="0"/>
    <path id="path4280" d="m176.01 505.61c-20.111 9.6415-19.976 11.059-19.976 11.059l-3.9292-2.2006 3.939-4.4525-5.6472 0.0374-3.8885 1.2289 1.998-6.0558-2.6262-2.0386-2.5115-2.3357 12.121-2.6572-11.346-11.722 1.7416-2.741 3.9732 3.4124-0.0139-6.1502 5.3266 0.35078 0.12453-6.9502 5.1849 3.3685 1.2452-7.2 5.0295 0.23601 7.2716 14.757 4.4753-11.585 2.6262 2.0387 0.72593 3.8649 5.08-2.9876-0.18881 4.0236 5.9239-1.6374-5.6334 6.1876 8.5095-3.0283-1.7685 5.4616 3.9764 1.1947z" sodipodi:nodetypes="ccccccccccccccccccccccccccccccc" style="fill:#00ae00" inkscape:connector-curvature="0"/>
    <path id="path4282" d="m161.76 528.79c-21.635-4.3119-22.37-3.1101-22.37-3.1101l-1.8021-4.0738 5.7598-1.184-4.49-3.3232-3.806-1.3364 5.176-3.6048-0.86739-3.1721-0.60026-3.339 11.167 5.0942-2.0165-16.01 3.0052-1.1345 1.1174 5.0586 3.6404-4.8739 4.0059 3.4399 4.2249-5.4247 2.1022 5.7433 5.2598-4.957 3.839 3.1728-3.0085 15.992 10.419-6.5085 0.8674 3.1721-1.7203 3.4887 5.7928 0.65235-2.5382 3.0712 5.6589 2.2216-8.1305 1.5508 8.5302 2.6563-4.6417 3.271 2.4366 3.306z" sodipodi:nodetypes="ccccccccccccccccccccccccccccccc" style="fill:#00ae00" inkscape:connector-curvature="0"/>
    <path id="path4288" d="m238.42 438.96c-12.53 16.274-11.831 17.383-11.831 17.383l-4.1435-0.17804 1.3898-5.2953-4.6268 2.3749-2.6865 2.6244-0.87128-5.8076-3.0052-0.58575-3.0342-0.87759 8.8615-7.2159-14.193-4.9271 0.29394-2.9762 4.6827 1.156-2.5643-5.0501 4.5244-1.9227-2.7826-5.7652 5.6606 0.61684-1.9651-6.4357 4.2326-1.8937 12.103 9.113-1.1299-11.381 3.0052 0.58577 2.2011 2.8759 2.9359-4.5647 1.515 3.386 4.1901-3.8051-2.0625 7.425 5.7383-6.0217 0.81333 5.2239 3.7648-0.66848z" sodipodi:nodetypes="ccccccccccccccccccccccccccccccc" style="fill:#00ae00" inkscape:connector-curvature="0"/>
    <path id="path4290" d="m218.81 406.63c-19.625-7.9636-20.534-6.9626-20.534-6.9626l-0.96548-4.1662 5.6448-0.0789-3.6354-3.9426-3.3483-1.9458 5.5304-2.4669-0.24651-3.1476 0.0355-3.2568 9.6131 6.8156 0.98267-15.461 3.0383-0.52849 0.14241 4.9716 4.311-3.9403 3.1578 3.9655 4.9613-4.3544 0.94775 5.7947 5.853-3.727 3.0486 3.6835-5.718 14.539 10.997-4.2606 0.2465 3.1476-2.2507 2.98 5.3451 1.6587-2.9468 2.4389 4.9361 3.1144-7.9464-0.002 7.5655 4.0416-4.9664 2.2484 1.7022 3.5565z" sodipodi:nodetypes="ccccccccccccccccccccccccccccccc" style="fill:#00ae00" inkscape:connector-curvature="0"/>
    <path id="path4292" d="m198.8 293.82c-17.539 14.626-17.049 15.999-17.049 15.999l-4.4535-1.1968 2.7908-5.41-5.5963 1.4567-3.551 2.1974 0.46101-6.5135-3.1194-1.3635-3.0802-1.6872 11.364-5.6846-14.209-8.7844 1.0398-3.1587 4.8018 2.3886-1.5597-6.1015 5.3756-0.99079-1.6235-6.9304 5.9936 2.0404-0.57388-7.4601 5.0519-1.03 10.928 12.821 1.5302-12.625 3.1194 1.3635 1.6922 3.654 4.2916-4.2426 0.82401 4.0415 5.4688-3.1145-4.0366 7.5582 7.6857-5.1451-0.38255 5.8661 4.2475 0.18635z" sodipodi:nodetypes="ccccccccccccccccccccccccccccccc" style="fill:#00ae00" inkscape:connector-curvature="0"/>
    <path id="path4294" d="m135.87 296.41c-20.101-6.7136-20.946-5.6566-20.946-5.6566l-1.2273-4.0997 5.6322-0.43526-3.8795-3.7077-3.4667-1.7318 5.3672-2.8128-0.44493-3.1277-0.17024-3.2547 10.031 6.1994 0.005-15.502 3.0008-0.71963 0.45616 4.9559 4.0563-4.2072 3.404 3.7607 4.6796-4.6618 1.3124 5.727 5.6098-4.0915 3.2771 3.486-4.7922 14.88 10.713-4.9493 0.44492 3.1277-2.0595 3.1181 5.4426 1.319-2.7888 2.6217 5.1261 2.7985-7.9358 0.49947 7.8105 3.5584-4.8178 2.559 1.9245 3.4442z" sodipodi:nodetypes="ccccccccccccccccccccccccccccccc" style="fill:#00ae00" inkscape:connector-curvature="0"/>
    <path id="path4296" d="m157.75 341.49c-22.737-3.5021-23.447-2.2164-23.447-2.2164l-2.0638-4.1616 5.9464-1.4971-4.8298-3.2566-4.0263-1.2181 5.2275-3.9924-1.0488-3.265-0.77816-3.4511 11.867 4.7962-2.8335-16.587 3.0789-1.3195 1.3956 5.219 3.5696-5.2443 4.3308 3.4004 4.1532-5.8448 2.4529 5.8872 5.2528-5.405 4.1447 3.1297-2.4024 16.799 10.556-7.2574 1.0488 3.265-1.6325 3.7133 6.0648 0.41452-2.5038 3.3158 5.9971 2.0555-8.3994 1.9877 9.0084 2.377-4.6861 3.6202 2.6898 3.3327z" sodipodi:nodetypes="ccccccccccccccccccccccccccccccc" style="fill:#00ae00" inkscape:connector-curvature="0"/>
    <path id="path4298" d="m183.25 266.28c-14.138-15.336-15.369-14.827-15.369-14.827l0.88965-4.1169 5.0617 2.3004-1.5828-5.039-2.1656-3.1397 5.9627 0.12505 1.1023-2.9075 1.3994-2.8864 5.7013 10.109 7.3687-13.36 2.9286 0.80523-1.9611 4.4887 5.4952-1.6996 1.1477 4.8588 6.2485-1.7954-1.5894 5.5601 6.7793-0.86197 1.1688 4.5618-11.2 10.55 11.586 0.82317-1.1023 2.9075-3.2566 1.7094 4.065 3.7225-3.6494 0.93504 3.0893 4.8475-7.078-3.3394 5.0422 6.7777-5.3686-0.0828 0.0227 3.8832z" sodipodi:nodetypes="ccccccccccccccccccccccccccccccc" style="fill:#00ae00" inkscape:connector-curvature="0"/>
    <path id="path4300" d="m183.24 237.33c-14.181-17.151-15.522-16.679-15.522-16.679l1.1844-4.335 5.2605 2.7416-1.3967-5.4594-2.1268-3.4694 6.3454 0.4758 1.3414-3.0343 1.6567-2.9947 5.4933 11.097 8.6181-13.811 3.0738 1.0261-2.3472 4.6695 5.9522-1.4951 0.94358 5.2425 6.7602-1.5538-2.0127 5.8324 7.2721-0.52882 0.98313 4.9272-12.538 10.597 12.296 1.5426-1.3414 3.0343-3.5677 1.6341 4.1169 4.1994-3.9417 0.78652 3.0128 5.3419-7.3489-3.9644 4.9825 7.5106-5.7148-0.3967-0.19893 4.1384z" sodipodi:nodetypes="ccccccccccccccccccccccccccccccc" style="fill:#00ae00" inkscape:connector-curvature="0"/>
    <path id="path4302" d="m217.63 271.44c-18.215 10.433-17.99 11.755-17.99 11.755l-3.8396-1.7955 3.3913-4.4504-5.2984 0.42344-3.5656 1.4209 1.4591-5.8218-2.6054-1.7331-2.5181-2.0198 11.195-3.3277-11.456-10.224 1.4464-2.6927 3.9642 2.93-0.43587-5.7721 5.0241-0.037-0.361-6.5326 5.0987 2.8054 0.67374-6.8442 4.7374-0.12427 7.8405 13.352 3.4043-11.182 2.6054 1.7331 0.94718 3.578 4.5631-3.1537 0.0994 3.7899 5.4481-1.9444-4.8625 6.1956 7.7795-3.4277-1.2845 5.2484 3.8148 0.84805z" sodipodi:nodetypes="ccccccccccccccccccccccccccccccc" style="fill:#00ae00" inkscape:connector-curvature="0"/>
    <path id="path4304" d="m201.58 246.11c-21.913-0.50554-22.426 0.79679-22.426 0.79679l-2.463-3.6775 5.4336-2.1476-4.9647-2.4814-3.9542-0.65444 4.4467-4.4165-1.3935-2.9555-1.1607-3.1647 11.804 3.0683-4.7221-15.322 2.7463-1.6263 1.962 4.7588 2.726-5.3949 4.511 2.6788 3.2034-6.0343 3.0434 5.2598 4.2965-5.7543 4.3018 2.446-0.19865 16.168 9.0789-8.1583 1.3935 2.9555-1.0846 3.7096 5.7811-0.35609-1.9568 3.4414 5.9195 1.2026-7.6907 2.9135 8.8042 1.1351-3.9811 3.9981 2.9522 2.8171z" sodipodi:nodetypes="ccccccccccccccccccccccccccccccc" style="fill:#00ae00" inkscape:connector-curvature="0"/>
    <path id="path4306" d="m253.75 345.3c-16.444 14.291-15.95 15.592-15.95 15.592l-4.271-1.0548 2.5566-5.2142-5.3093 1.4983-3.3442 2.1649 0.31298-6.2215-3.0018-1.2398-2.9707-1.5493 10.728-5.643-13.723-8.1019 0.93029-3.0329 4.6263 2.1848-1.6064-5.7892 5.1079-1.0496-1.6833-6.5786 5.7563 1.8294-0.6925-7.1042 4.7984-1.0807 10.672 12.016 1.2139-12.071 3.0018 1.2398 1.685 3.4522 4.0108-4.13 0.86456 3.8387 5.1555-3.077-3.703 7.2875 7.2304-5.0569-0.25074 5.6024 4.0548 0.0951z" sodipodi:nodetypes="ccccccccccccccccccccccccccccccc" style="fill:#00ae00" inkscape:connector-curvature="0"/>
    <path id="path4308" d="m295.55 384.99c-21.346-5.5931-22.151-4.4368-22.151-4.4368l-1.5569-4.1749 5.8216-0.83942-4.2855-3.5854-3.7207-1.5609 5.3828-3.2913-0.6773-3.2189-0.40062-3.3697 10.847 5.7512-1.0605-16.106 3.0682-0.95397 0.81463 5.1175 3.925-4.6499 3.7951 3.6732 4.5414-5.1651 1.7572 5.8598 5.5469-4.6365 3.6444 3.3965-3.9558 15.789 10.79-5.8786 0.67729 3.219-1.9253 3.3811 5.7452 0.99615-2.7172 2.9155 5.5181 2.5551-8.2105 1.0645 8.3592 3.16-4.8294 2.9899 2.2362 3.4461z" sodipodi:nodetypes="ccccccccccccccccccccccccccccccc" style="fill:#00ae00" inkscape:connector-curvature="0"/>
    <path id="path4310" d="m234.78 347.85c-20.732-7.7015-21.65-6.6284-21.65-6.6284l-1.1374-4.3187 5.8896-0.25809-3.9174-4.0021-3.5555-1.9268 5.6958-2.7471-0.35528-3.2777-0.0644-3.4006 10.246 6.8149 0.54444-16.169 3.1549-0.64621 0.30341 5.1849 4.3771-4.2471 3.4196 4.0409 5.043-4.6996 1.1696 6.0189 5.9933-4.0724 3.2968 3.7499-5.5159 15.354 11.346-4.7895 0.35529 3.2777-2.2565 3.1805 5.6308 1.565-2.9999 2.6374 5.2492 3.0971-8.2945 0.24495 8.0226 3.9831-5.114 2.5015 1.8874 3.6593z" sodipodi:nodetypes="ccccccccccccccccccccccccccccccc" style="fill:#00ae00" inkscape:connector-curvature="0"/>
    <path id="path4312" d="m172.4 345.27c-15.642-14.73-16.869-14.117-16.869-14.117l0.61476-4.2947 5.3681 1.9956-1.9926-5.0624-2.4534-3.0685 6.1357-0.30509 0.92119-3.0675 1.228-3.0675 6.593 9.9722 6.5997-14.263 3.0676 0.61442-1.6886 4.7546 5.5226-2.1459 1.5325 4.9089 6.2896-2.2991-1.2287 5.8285 6.9029-1.3786 1.5326 4.6021-10.741 11.655 11.964 0.003-0.9212 3.0676-3.2217 1.9932 4.4473 3.5292-3.6817 1.2261 3.5266 4.7561-7.5153-2.9165 5.6736 6.5974-5.5221 0.30524 0.30567 3.9882z" sodipodi:nodetypes="ccccccccccccccccccccccccccccccc" style="fill:#00ae00" inkscape:connector-curvature="0"/>
    <path id="path4314" d="m155.35 291.25c-13.755 16.138-13.09 17.318-13.09 17.318l-4.2635-0.39604 1.7047-5.389-4.8928 2.2117-2.9048 2.5684-0.60063-6.0332-3.0688-0.7581-3.0837-1.0605 9.5076-6.9863-14.382-5.8083 0.4557-3.0539 4.7693 1.4321-2.3852-5.3389 4.7639-1.7506-2.5737-6.0874 5.8053 0.92629-1.6963-6.737 4.4615-1.7357 12.013 10.018-0.58155-11.794 3.0688 0.7581 2.1222 3.0783 3.2614-4.5564 1.3886 3.5692 4.5158-3.7088-2.5075 7.5506 6.2258-5.9151 0.57082 5.4284 3.9164-0.49626z" sodipodi:nodetypes="ccccccccccccccccccccccccccccccc" style="fill:#00ae00" inkscape:connector-curvature="0"/>
    <path id="path4316" d="m267.5 351.26c-18.631 12.81-18.274 14.208-18.274 14.208l-4.2804-1.5881 3.2472-5.0771-5.6503 0.92281-3.702 1.8404 1.0518-6.3786-2.95-1.6302-2.8816-1.9457 11.724-4.5616-13.201-9.9624 1.3147-3.0184 4.5144 2.795-0.97802-6.1577 5.39-0.48372-0.96485-6.9807 5.7212 2.561 0.1184-7.4066 5.0745-0.55208 9.5966 13.641 2.6662-12.305 2.95 1.6302 1.333 3.7572 4.6196-3.7887 0.44167 4.0596 5.6766-2.5687-4.6723 7.0806 8.0482-4.3671-0.91505 5.7475 4.17 0.57323z" sodipodi:nodetypes="ccccccccccccccccccccccccccccccc" style="fill:#00ae00" inkscape:connector-curvature="0"/>
    <path id="path4318" d="m290.49 270.04c-17.529 12.837-17.146 14.17-17.146 14.17l-4.1569-1.4029 2.9737-4.9696-5.4009 1.0481-3.5032 1.8738 0.82771-6.1569-2.8802-1.4814-2.8236-1.7864 11.131-4.7171-12.965-9.1914 1.1764-2.9369 4.4162 2.5554-1.1156-5.8867 5.1634-0.61888-1.1266-6.6776 5.5687 2.2962-0.0983-7.1177 4.8584-0.67553 9.6082 12.828 2.2088-11.896 2.8802 1.4814 1.3879 3.5708 4.3289-3.7714 0.54041 3.8867 5.379-2.6298-4.2852 6.9348 7.6056-4.425-0.71445 5.5469 4.0218 0.43125z" sodipodi:nodetypes="ccccccccccccccccccccccccccccccc" style="fill:#00ae00" inkscape:connector-curvature="0"/>
    <path id="path4320" d="m262.02 264.36c-18.824 9.2507-18.684 10.583-18.684 10.583l-3.7151-2.0335 3.6634-4.2231-5.3102 0.0868-3.6455 1.1912 1.8235-5.7131-2.4883-1.8931-2.3832-2.1735 11.374-2.6096-10.777-10.92 1.6127-2.5935 3.7675 3.1727-0.0692-5.7834 5.0123 0.28115 0.0535-6.537 4.9067 3.1203 1.1051-6.7822 4.7319 0.17595 6.9731 13.811 4.1026-10.935 2.4884 1.8931 0.71802 3.6279 4.7498-2.856-0.14075 3.7855 5.5558-1.594-5.241 5.8703 7.9746-2.9256-1.6131 5.1523 3.7503 1.0871z" sodipodi:nodetypes="ccccccccccccccccccccccccccccccc" style="fill:#00ae00" inkscape:connector-curvature="0"/>
    <path id="path4322" d="m292.16 331.05c-22.42-1.97-23.03-0.67-23.03-0.67l-2.2788-3.9308 5.7088-1.839-4.921-2.8717-4.0072-0.93305 4.8485-4.2289-1.2312-3.1201-0.97877-3.319 11.888 3.9271-3.8195-16.01 2.9213-1.4835 1.6938 5.0052 3.1508-5.3454 4.443 3.0437 3.6823-5.9686 2.7682 5.5902 4.7835-5.6092 4.2442 2.7914-1.2774 16.549 9.8422-7.7542 1.2312 3.1201-1.3575 3.728 5.9458 0.0192-2.2331 3.3954 5.984 1.6252-8.0718 2.4737 8.9435 1.7476-4.3437 3.8312 2.8371 3.0819z" sodipodi:nodetypes="ccccccccccccccccccccccccccccccc" style="fill:#00ae00" inkscape:connector-curvature="0"/>
    <path id="path4324" d="m249.18 265.66c-19.89-8.9351-20.864-7.9397-20.864-7.9397l-0.83587-4.3229 5.8106 0.13214-3.5913-4.1938-3.3714-2.1286 5.7832-2.329-0.13467-3.2477 0.15959-3.3494 9.6329 7.3756 1.5954-15.87 3.146-0.42891-0.0414 5.1204 4.5843-3.8911 3.0991 4.1993 5.269-4.2925 0.75607 5.9977 6.1627-3.6133 2.9974 3.905-6.4325 14.742 11.476-3.9679 0.13464 3.2477-2.4283 2.9809 5.4366 1.9086-3.124 2.3979 4.9608 3.3908-8.1756-0.30272 7.631 4.4441-5.1947 2.1256 1.6169 3.7235z" sodipodi:nodetypes="ccccccccccccccccccccccccccccccc" style="fill:#00ae00" inkscape:connector-curvature="0"/>
    <path id="path4326" d="m204.55 267.9c-15.81-15.8-17.1-15.2-17.1-15.2l0.77175-4.447 5.5205 2.2407-1.9159-5.3257-2.4565-3.2665 6.3896-0.12795 1.0525-3.1614 1.3715-3.1518 6.5481 10.573 7.3028-14.628 3.1709 0.73354-1.9026 4.892 5.8089-2.0611 1.4422 5.1518 6.6112-2.1967-1.4575 6.0229 7.2206-1.2206 1.4517 4.8328-11.528 11.788 12.441 0.37255-1.0525 3.1614-3.4116 1.9732 4.5157 3.8071-3.8663 1.1614 3.5205 5.0544-7.7249-3.2646 5.6962 7.0353-5.7516 0.14705 0.19483 4.1566z" sodipodi:nodetypes="ccccccccccccccccccccccccccccccc" style="fill:#00ae00" inkscape:connector-curvature="0"/>
    <path id="path4328" d="m297.53 337.64c-21.792 7.4279-21.826 8.8976-21.826 8.8976l-3.759-2.7354 4.5812-4.0832-5.7932-0.65105-4.136 0.78498 2.7873-5.9636-2.4432-2.4104-2.2893-2.7008 12.749-1.244-10.199-13.401 2.1199-2.597 3.6561 3.983 0.73663-6.3059 5.4172 1.0098 0.97612-7.1091 4.9036 4.0858 2.1553-7.2284 5.1267 0.85592 5.6522 16.015 6.0017-11.329 2.4432 2.4104 0.2723 4.0504 5.572-2.4423-0.68474 4.1014 6.2722-0.95526-6.5299 5.6549 9.0924-2.0653-2.4795 5.3826 3.9302 1.7101z" sodipodi:nodetypes="ccccccccccccccccccccccccccccccc" style="fill:#00ae00" inkscape:connector-curvature="0"/>
    <path id="path4330" d="m267.59 339.36c-13.045 15.939-12.377 17.072-12.377 17.072l-4.148-0.30206 1.5511-5.2664-4.7087 2.2426-2.7712 2.5504-0.70011-5.8474-2.9948-0.67679-3.0152-0.97017 9.0978-6.9687-14.08-5.3621 0.38342-2.9745 4.6593 1.2984-2.4198-5.1386 4.5925-1.7923-2.6173-5.8619 5.6557 0.78714-1.7778-6.5096 4.2991-1.772 11.86 9.4957-0.79312-11.442 2.9949 0.67679 2.1205 2.9484 3.079-4.488 1.4176 3.4393 4.3136-3.6891-2.2889 7.3811 5.9316-5.8648 0.65944 5.2606 3.7937-0.55776z" sodipodi:nodetypes="ccccccccccccccccccccccccccccccc" style="fill:#00ae00" inkscape:connector-curvature="0"/>
    <path id="path4332" d="m294.33 357.08c-18.475 13.933-18.047 15.347-18.047 15.347l-4.4479-1.4318 3.0925-5.3368-5.7359 1.197-3.7027 2.0479 0.78935-6.5692-3.0894-1.5345-3.0337-1.8602 11.783-5.19-13.945-9.5944 1.2089-3.1452 4.7412 2.6553-1.2762-6.2523 5.4895-0.73633-1.2996-7.0944 5.9647 2.362-0.21112-7.5784 5.1638-0.79209 10.424 13.517 2.1743-12.701 3.0894 1.5345 1.5315 3.7819 4.5536-4.0811 0.63367 4.131 5.689-2.8811-4.4598 7.4493 8.0333-4.8262-0.67786 5.9178 4.2895 0.39909z" sodipodi:nodetypes="ccccccccccccccccccccccccccccccc" style="fill:#00ae00" inkscape:connector-curvature="0"/>
    <path id="path4334" d="m407.6 351.72c-16.993 15.405-16.444 16.762-16.444 16.762l-4.5186-1.016 2.5759-5.5445-5.5552 1.6941-3.4721 2.3524 0.19225-6.5552-3.1868-1.2388-3.1609-1.5652 11.168-6.176-14.623-8.225 0.91229-3.2128 4.9175 2.1976-1.8184-6.0579 5.3531-1.2173-1.9168-6.887 6.0991 1.7986-0.88553-7.4622 5.0266-1.2433 11.498 12.412 1.0115-12.732 3.1868 1.2388 1.8497 3.5964 4.1304-4.4355 0.99463 4.0213 5.3584-3.3523-3.7368 7.752 7.4988-5.482-0.14038 5.9023 4.27 0.0107z" sodipodi:nodetypes="ccccccccccccccccccccccccccccccc" style="fill:#00ae00" inkscape:connector-curvature="0"/>
    <path id="path4336" d="m408.74 341.5c-20.435 4.6528-20.606 5.9801-20.606 5.9801l-3.1431-2.834 4.5359-3.2611-5.183-1.1403-3.8191 0.3174 3.0906-5.1341-1.9827-2.4145-1.8158-2.6629 11.661 0.0861-7.9593-13.103 2.1662-2.1497 2.9313 3.9536 1.2665-5.6391 4.8085 1.4294 1.5597-6.3434 4.051 4.1654 2.6387-6.3393 4.5601 1.2624 3.5945 15.036 6.5109-9.686 1.9827 2.4145-0.1386 3.6929 5.2768-1.6813-1.0099 3.6481 5.7694-0.26845-6.4496 4.4988 8.4282-1.0053-2.7567 4.6374 3.3956 1.9219z" sodipodi:nodetypes="ccccccccccccccccccccccccccccccc" style="fill:#00ae00" inkscape:connector-curvature="0"/>
    <path id="path4338" d="m308.93 352.56c-19.585-6.5155-20.407-5.4851-20.407-5.4851l-1.2-3.9914 5.4849-0.43041-3.7827-3.6066-3.3783-1.6827 5.2241-2.7457-0.43695-3.0457-0.16954-3.1697 9.7763 6.0263-0.0129-15.098 2.9218-0.70433 0.44997 4.8262 3.9458-4.1022 3.3196 3.6588 4.5523-4.5457 1.2848 5.5762 5.4588-3.9914 3.1957 3.3914-4.6502 14.498 10.429-4.8326 0.43694 3.0457-2.0022 3.0392 5.3023 1.2783-2.7131 2.5566 4.9958 2.7197-7.7284 0.4956 7.611 3.4567-4.6893 2.4978 1.8783 3.3523z" sodipodi:nodetypes="ccccccccccccccccccccccccccccccc" style="fill:#00ae00" inkscape:connector-curvature="0"/>
    <path id="path4340" d="m325.58 342.07c-20.45-7.1593-21.33-6.0912-21.33-6.0912l-1.1942-4.2091 5.7641-0.36201-3.9113-3.8475-3.5184-1.8214 5.5282-2.7964-0.40878-3.204-0.12608-3.3297 10.163 6.4853 0.23351-15.847 3.0783-0.69147 0.39332 5.073 4.2087-4.2412 3.4244 3.8946 4.8526-4.6968 1.2573 5.8739 5.795-4.1 3.2988 3.612-5.1182 15.141 11.025-4.9017 0.40877 3.204-2.1513 3.1572 5.5444 1.4285-2.8896 2.639 5.1991 2.9364-8.12 0.39371 7.9321 3.7527-4.9628 2.545 1.9166 3.5493z" sodipodi:nodetypes="ccccccccccccccccccccccccccccccc" style="fill:#00ae00" inkscape:connector-curvature="0"/>
    <path id="path4342" d="m295.32 300.19c-15.49-13.55-16.65-12.92-16.65-12.92l0.43866-4.1341 5.2102 1.7234-2.085-4.7782-2.4566-2.8527 5.8649-0.50647 0.77498-2.9696 1.0688-2.9803 6.6618 9.3191 5.8217-13.889 2.959 0.48121-1.4509 4.612 5.2135-2.2478 1.639 4.6472 5.9426-2.4213-0.97305 5.6243 6.5621-1.5613 1.6284 4.3535-9.878 11.536 11.457-0.41475-0.77498 2.9697-3.0155 2.0212 4.382 3.2242-3.4828 1.3027 3.5432 4.4312-7.2985-2.5303 5.6635 6.1194-5.2773 0.4852 0.43203 3.8084z" sodipodi:nodetypes="ccccccccccccccccccccccccccccccc" style="fill:#00ae00" inkscape:connector-curvature="0"/>
    <path id="path4344" d="m330.85 364.54c-19.831-7.4131-20.712-6.3876-20.712-6.3876l-1.0803-4.1363 5.6383-0.23548-3.7421-3.8388-3.3998-1.8515 5.4578-2.6185-0.33366-3.1384-0.0549-3.2554 9.795 6.5438 0.55296-15.477 3.0214-0.61239 0.28026 4.9639 4.1984-4.057 3.2655 3.8749 4.8367-4.4888 1.1078 5.764 5.7452-3.8866 3.1485 3.5961-5.3103 14.687 10.871-4.5625 0.33366 3.1384-2.1663 3.0402 5.3871 1.5092-2.8769 2.5188 5.0188 2.9751-7.9405 0.21818 7.6719 3.8286-4.9003 2.3845 1.7996 3.5066z" sodipodi:nodetypes="ccccccccccccccccccccccccccccccc" style="fill:#00ae00" inkscape:connector-curvature="0"/>
    <path id="path4346" d="m324.48 313.96c-16.085-15.155-17.347-14.524-17.347-14.524l0.63344-4.4173 5.521 2.054-2.0483-5.2076-2.5227-3.1568 6.3111-0.31219 0.94831-3.155 1.2639-3.1548 6.7788 10.259 6.792-14.669 3.1551 0.63276-1.7381 4.89 5.681-2.2058 1.575 5.0496 6.47-2.3632-1.2654 5.9947 7.1005-1.4162 1.5752 4.734-11.05 11.985 12.306 0.006-0.94831 3.155-3.3143 2.0493 4.5735 3.6312-3.7872 1.2602 3.6262 4.8929-7.7293-3.0018 5.834 6.7873-5.68 0.31253 0.31337 4.1023z" sodipodi:nodetypes="ccccccccccccccccccccccccccccccc" style="fill:#00ae00" inkscape:connector-curvature="0"/>
    <path id="path4348" d="m391.39 372.49c-21.168 6.9149-21.219 8.3359-21.219 8.3359l-3.6018-2.692 4.4812-3.8925-5.5949-0.7012-4.0098 0.70813 2.7694-5.7333-2.3332-2.3613-2.1807-2.6404 12.346-1.0457-9.6984-13.087 2.0823-2.4856 3.4868 3.8973 0.79029-6.0897 5.2268 1.0435 1.0318-6.8635 4.6921 4.0122 2.1738-6.9644 4.9477 0.89111 5.2688 15.559 5.9444-10.883 2.3332 2.3614 0.21335 3.9207 5.4191-2.2933-0.71289 3.9582 6.078-0.84644-6.3852 5.3885 8.8192-1.8852-2.4646 5.1752 3.78 1.7024z" sodipodi:nodetypes="ccccccccccccccccccccccccccccccc" style="fill:#00ae00" inkscape:connector-curvature="0"/>
    <path id="path4350" d="m397.06 341.81c-20.169-8.4667-21.121-7.4442-21.121-7.4442l-0.94567-4.3146 5.8306-0.0119-3.7058-4.1166-3.434-2.0509 5.742-2.4794-0.21572-3.2537 0.0768-3.363 9.8438 7.1576 1.2057-15.955 3.1444-0.50829 0.0857 5.1362 4.5008-4.0162 3.2123 4.1344 5.1776-4.4358 0.90724 5.9962 6.0907-3.7768 3.103 3.8418-6.0848 14.945 11.41-4.2644 0.21572 3.2537-2.3612 3.0498 5.4997 1.779-3.0734 2.4824 5.0593 3.2774-8.2067-0.10049 7.7634 4.2674-5.1569 2.2607 1.714 3.694z" sodipodi:nodetypes="ccccccccccccccccccccccccccccccc" style="fill:#00ae00" inkscape:connector-curvature="0"/>
    <path id="path4352" d="m359.65 352.62c-16.151-16.022-17.467-15.406-17.467-15.406l0.76889-4.529 5.6271 2.26-1.9699-5.4133-2.5124-3.3154 6.5029-0.15409 1.0595-3.2216 1.3842-3.2131 6.7042 10.737 7.3782-14.916 3.2301 0.73475-1.9182 4.9862 5.9047-2.1195 1.4871 5.2382 6.7208-2.2605-1.461 6.1356 7.3446-1.2693 1.4956 4.9135-11.689 12.041 12.664 0.33273-1.0595 3.2216-3.465 2.0211 4.6103 3.858-3.9308 1.1965 3.602 5.1313-7.8746-3.2939 5.8239 7.1393-5.8535 0.17115 0.21382 4.2299z" sodipodi:nodetypes="ccccccccccccccccccccccccccccccc" style="fill:#00ae00" inkscape:connector-curvature="0"/>
    <path id="path4354" d="m345.08 295.03c-20.607 0.62903-21.023 1.878-21.023 1.878l-2.4986-3.3299 4.9952-2.2908-4.788-2.0805-3.7468-0.41548 3.9539-4.3721-1.4577-2.7057-1.2496-2.9139 11.241 2.2872-5.207-14.153 2.4975-1.6658 2.0825 4.3708 2.2885-5.2043 4.3717 2.2887 2.7047-5.8289 3.1234 4.7868 3.7455-5.621 4.1635 2.0806 0.62783 15.195 8.1162-8.1198 1.4577 2.7057-0.83181 3.5388 5.4118-0.62566-1.6645 3.3308 5.6203 0.83137-7.0765 3.1239 8.3263 0.62261-3.5377 3.9557 2.9147 2.4972z" sodipodi:nodetypes="ccccccccccccccccccccccccccccccc" style="fill:#00ae00" inkscape:connector-curvature="0"/>
    <path id="path4356" d="m278.52 367.79c-18.554-10.036-19.564-9.1451-19.564-9.1451l-0.4988-4.2303 5.5968 0.54105-3.1665-4.3018-3.1013-2.2936 5.7455-1.8355 0.10121-3.143 0.39234-3.2202 8.769 7.8016 2.6687-15.198 3.0658-0.18991-0.40434 4.9373 4.6999-3.4279 2.6912 4.272 5.3891-3.7665 0.30262 5.8404 6.203-3.0475 2.614 3.9809-7.2554 13.766 11.354-3.0115-0.10123 3.143-2.555 2.7032 5.1095 2.2284-3.1847 2.0912 4.5449 3.6246-7.8664-0.87392 7.0462 4.8308-5.1632 1.6811 1.295 3.7075z" sodipodi:nodetypes="ccccccccccccccccccccccccccccccc" style="fill:#00ae00" inkscape:connector-curvature="0"/>
    <path id="path4358" d="m312.18 321.45c-13.671 16.804-12.965 17.993-12.965 17.993l-4.3636-0.30489 1.6151-5.5437-4.9454 2.3731-2.9067 2.691-0.75439-6.1478-3.1519-0.70256-3.1742-1.0111 9.5471-7.3574-14.825-5.5962 0.39407-3.1296 4.9044 1.3512-2.5608-5.397 4.8246-1.8992-2.7708-6.1571 5.9508 0.81042-1.8899-6.841 4.5161-1.8769 12.503 9.9505-0.8695-12.032 3.1519 0.70257 2.2394 3.0944 3.2245-4.7297 1.5016 3.6129 4.5254-3.8934-2.3846 7.7702 6.2204-6.1867 0.70981 5.5308 3.9883-0.59834z" sodipodi:nodetypes="ccccccccccccccccccccccccccccccc" style="fill:#00ae00" inkscape:connector-curvature="0"/>
    <path id="path4360" d="m325.98 411.23c-20.898 2.0548-21.235 3.3527-21.235 3.3527l-2.7678-3.2123 4.9188-2.6711-5.0086-1.7853-3.8362-0.16482 3.7177-4.7146-1.6672-2.6494-1.47-2.8753 11.58 1.5521-6.2637-14.025 2.4236-1.8644 2.4165 4.2986 1.9681-5.446 4.5999 2.0255 2.3482-6.1092 3.5029 4.6499 3.4201-5.9694 4.374 1.8283 1.6818 15.398 7.69-8.809 1.6672 2.6494-0.6022 3.6533 5.4566-1.0076-1.4627 3.4992 5.7686 0.45876-6.9767 3.6607 8.5041 0.0607-3.3234 4.2629 3.1335 2.3375z" sodipodi:nodetypes="ccccccccccccccccccccccccccccccc" style="fill:#00ae00" inkscape:connector-curvature="0"/>
    <path id="path4362" d="m316.52 396.2c-16.707 14.263-16.22 15.579-16.22 15.579l-4.2969-1.1014 2.624-5.2346-5.3665 1.4635-3.391 2.1531 0.37084-6.2701-3.0156-1.2767-2.9815-1.5885 10.867-5.5943-13.765-8.2908 0.96492-3.0497 4.6451 2.2439-1.5682-5.8513 5.1594-1.0129-1.6388-6.6478 5.7876 1.8957-0.63511-7.169 4.8476-1.047 10.654 12.21 1.3312-12.16 3.0156 1.2767 1.6683 3.4957 4.0806-4.1285 0.83761 3.8781 5.2254-3.0566-3.7983 7.3148 7.3351-5.0344-0.30259 5.6465 4.0875 0.13192z" sodipodi:nodetypes="ccccccccccccccccccccccccccccccc" style="fill:#00ae00" inkscape:connector-curvature="0"/>
    <path id="path4364" d="m225.22 401.21c-22.64-0.23339-23.153 1.1185-23.153 1.1185l-2.5924-3.7659 5.5838-2.2898-5.1606-2.4975-4.0928-0.62384 4.5346-4.6202-1.4782-3.0342-1.2405-3.2534 12.232 3.0135-5.0792-15.764 2.8151-1.7159 2.0892 4.8893 2.7444-5.6081 4.6945 2.7074 3.2291-6.2748 3.2127 5.3926 4.3619-6 4.4754 2.4697 0.008 16.702 9.2698-8.546 1.4782 3.0342-1.0714 3.8458 5.9664-0.44398-1.9757 3.5803 6.1299 1.1642-7.905 3.1106 9.1085 1.0564-4.0592 4.182 3.0864 2.8708z" sodipodi:nodetypes="ccccccccccccccccccccccccccccccc" style="fill:#00ae00" inkscape:connector-curvature="0"/>
    <path id="path4366" d="m184.03 346.58c-21.077 4.2764-21.285 5.6339-21.285 5.6339l-3.1555-2.9837 4.7325-3.2352-5.2894-1.2958-3.9257 0.23275 3.2954-5.1918-1.9753-2.5252-1.798-2.7759 11.961 0.37181-7.8467-13.635 2.2745-2.1526 2.9111 4.1272 1.4364-5.7542 4.8981 1.5832 1.7543-6.4696 4.0546 4.3717 2.8611-6.4392 4.6474 1.4059 3.3219 15.513 6.9148-9.7783 1.9753 2.5252-0.23198 3.7851 5.4542-1.5965-1.1247 3.7179 5.9252-0.13513-6.7258 4.4584 8.6707-0.82637-2.9408 4.6903 3.4367 2.0542z" sodipodi:nodetypes="ccccccccccccccccccccccccccccccc" style="fill:#00ae00" inkscape:connector-curvature="0"/>
    <path id="path4368" d="m154.73 249.28c-20.715-8.3681-21.672-7.3108-21.672-7.3108l-1.0253-4.3932 5.9544-0.0926-3.8414-4.1529-3.5352-2.0471 5.8298-2.6114-0.26524-3.3198 0.0321-3.4356 10.152 7.1737 1.011-16.311 3.2041-0.5625 0.15844 5.2441 4.541-4.1636 3.3377 4.1778 5.2263-4.6015 1.0093 6.111 6.168-3.9411 3.222 3.8806-6.0077 15.346 11.594-4.5125 0.26525 3.3198-2.3693 3.1472 5.6411 1.7409-3.1044 2.5776 5.2121 3.2771-8.3824 0.0107 7.9872 4.2508-5.2352 2.38 1.8015 3.7488z" sodipodi:nodetypes="ccccccccccccccccccccccccccccccc" style="fill:#00ae00" inkscape:connector-curvature="0"/>
    <path id="path4370" d="m165.03 214.64c-19.59-9.59-20.6-8.63-20.6-8.63l-0.69368-4.3506 5.8065 0.32332-3.4535-4.3121-3.3015-2.2395 5.86-2.1389-0.0278-3.2522 0.26978-3.3443 9.3906 7.6928 2.1176-15.818 3.1602-0.32542-0.20984 5.1192 4.7124-3.7404 2.961 4.3014 5.4104-4.1193 0.55878 6.0228 6.2818-3.4107 2.869 4.0038-6.9178 14.531 11.607-3.5905 0.0278 3.2522-2.5264 2.9011 5.374 2.0875-3.203 2.2952 4.8494 3.5542-8.1659-0.57169 7.4851 4.6953-5.2648 1.9548 1.4944 3.7768z" sodipodi:nodetypes="ccccccccccccccccccccccccccccccc" style="fill:#00ae00" inkscape:connector-curvature="0"/>
    <path id="path4372" d="m312.73 212.98c-14.549 15.822-13.921 17.043-13.921 17.043l-4.3035-0.56389 1.9324-5.3936-5.0404 2.0535-3.0404 2.4907-0.37814-6.1341-3.0795-0.88501-3.0831-1.1919 9.8972-6.7138-14.347-6.4324 0.57815-3.076 4.7763 1.6326-2.2123-5.499 4.8923-1.5914-2.3747-6.2644 5.8451 1.1598-1.4612-6.8888 4.5854-1.5879 11.786 10.606-0.13896-11.968 3.0795 0.88502 2.0322 3.1991 3.4775-4.4908 1.2703 3.6684 4.7157-3.5844-2.8281 7.5525 6.5321-5.754 0.37101 5.5204 3.9859-0.35321z" sodipodi:nodetypes="ccccccccccccccccccccccccccccccc" style="fill:#00ae00" inkscape:connector-curvature="0"/>
    <path id="path4374" d="m209.19 219.55c-12.42 16.835-11.684 17.95-11.684 17.95l-4.2234-0.0946 1.3046-5.4218-4.6622 2.5154-2.681 2.7288-1.0088-5.8962-3.0727-0.53366-3.1083-0.83026 8.8735-7.534-14.557-4.7208 0.23708-3.0371 4.793 1.0793-2.7171-5.0893 4.5674-2.0527-2.9544-5.813 5.7776 0.50977-2.1359-6.513 4.2708-2.0171 12.517 9.0274-1.3888-11.567 3.0727 0.53367 2.3017 2.8827 2.8944-4.71 1.6137 3.4166 4.1876-3.9627-1.9452 7.6047 5.7179-6.2525 0.93756 5.303 3.82-0.75952z" sodipodi:nodetypes="ccccccccccccccccccccccccccccccc" style="fill:#00ae00" inkscape:connector-curvature="0"/>
    <path id="path4376" d="m161.2 364.46c-14.948-16.987-16.295-16.466-16.295-16.466l1.0682-4.4425 5.4318 2.6219-1.59-5.5046-2.2698-3.4594 6.4635 0.28531 1.2685-3.1255 1.5901-3.0952 5.9293 11.106 8.3269-14.305 3.1559 0.94681-2.2395 4.8188 6.0023-1.7053 1.1227 5.2983 6.8216-1.7903-1.8633 5.9901 7.3739-0.76462 1.1531 4.9766-12.411 11.161 12.545 1.1836-1.2685 3.1255-3.5747 1.7721 4.315 4.1391-3.9813 0.92244 3.2287 5.3347-7.5923-3.7993 5.2982 7.4771-5.8202-0.22462-0.0729 4.2119z" sodipodi:nodetypes="ccccccccccccccccccccccccccccccc" style="fill:#00ae00" inkscape:connector-curvature="0"/>
    <path id="path4378" d="m248.76 370.67c-16.712 13.045-16.298 14.334-16.298 14.334l-4.0962-1.2438 2.7515-4.9359-5.2361 1.1839-3.3606 1.9324 0.62294-6.0296-2.8534-1.3586-2.8073-1.6578 10.714-4.9338-12.92-8.5762 1.0594-2.8996 4.3836 2.3601-1.2643-5.7079 5.0174-0.75818-1.2986-6.4789 5.4999 2.0727-0.30891-6.9389 4.7182-0.80429 9.755 12.223 1.7981-11.668 2.8534 1.3586 1.4605 3.441 4.109-3.8078 0.64343 3.7745 5.1674-2.7259-3.9718 6.8918 7.2852-4.5435-0.53074 5.4313 3.9354 0.3002z" sodipodi:nodetypes="ccccccccccccccccccccccccccccccc" style="fill:#00ae00" inkscape:connector-curvature="0"/>
    <path id="path4380" d="m215.93 359.71c-15.764-13.343-16.91-12.692-16.91-12.692l0.37158-4.1537 5.2543 1.6424-2.1703-4.758-2.5111-2.8206 5.874-0.60501 0.72817-2.9914 1.0226-3.0069 6.8359 9.2367 5.6093-14.027 2.9758 0.43369-1.379 4.6498 5.1919-2.3408 1.7208 4.634 5.9204-2.5269-0.88291 5.6572 6.5559-1.6745 1.7053 4.3396-9.7167 11.734 11.485-0.60553-0.72817 2.9914-2.9911 2.0771 4.4485 3.1614-3.4716 1.3642 3.6272 4.3859-7.3622-2.4171 5.7817 6.044-5.2851 0.57395 0.49632 3.8127z" sodipodi:nodetypes="ccccccccccccccccccccccccccccccc" style="fill:#00ae00" inkscape:connector-curvature="0"/>
    <path id="path4382" d="m169.96 309.14c-22.428 4.006-22.682 5.4386-22.682 5.4386l-3.2679-3.2382 5.0922-3.3088-5.5696-1.5035-4.1633 0.14913 3.6187-5.4166-2.0293-2.7233-1.8354-2.9845 12.658 0.69045-7.9718-14.635 2.4622-2.2233 2.9806 4.4431 1.664-6.0583 5.1481 1.7982 2.0184-6.8082 4.1855 4.7304 3.1898-6.7484 4.887 1.6042 3.1332 16.511 7.5658-10.184 2.0294 2.7233-0.33958 4.0028 5.8159-1.5555-1.2834 3.9096 6.2785 0.004-7.2336 4.5548 9.2032-0.66009-3.2308 4.8944 3.5887 2.2608z" sodipodi:nodetypes="ccccccccccccccccccccccccccccccc" style="fill:#00ae00" inkscape:connector-curvature="0"/>
    <path id="path4384" d="m210.47 364.6c-14.038 18.369-13.246 19.615-13.246 19.615l-4.6648-0.18347 1.5428-5.9662-5.1984 2.6922-3.0133 2.965-1.0045-6.5336-3.3851-0.64706-3.4189-0.97543 9.9452-8.1586-15.996-5.488 0.3187-3.3513 5.2756 1.2821-2.9071-5.674 5.0849-2.1827-3.1558-6.478 6.3742 0.67119-2.2383-7.2362 4.7565-2.1489 13.661 10.208-1.3184-12.806 3.3851 0.64707 2.4894 3.2281 3.2861-5.1501 1.7191 3.8052 4.701-4.3002-2.2913 8.3662 6.4346-6.8016 0.93684 5.8768 4.235-0.76781z" sodipodi:nodetypes="ccccccccccccccccccccccccccccccc" style="fill:#00ae00" inkscape:connector-curvature="0"/>
    <path id="path4386" d="m182.86 374.25c-16.19-14.276-17.403-13.62-17.403-13.62l0.476-4.3326 5.4558 1.8272-2.1674-5.0176-2.5644-3.0004 6.1508-0.50817 0.82407-3.1104 1.1321-3.1204 6.9481 9.7962 6.1576-14.539 3.1004 0.51603-1.5391 4.8297 5.4747-2.3364 1.7003 4.8786 6.2398-2.5154-1.042 5.8928 6.8859-1.6113 1.6903 4.5706-10.401 12.056 12.014-0.39025-0.82407 3.1104-3.1694 2.1074 4.5817 3.3974-3.6565 1.3522 3.6976 4.6596-7.6421-2.6812 5.9139 6.4378-5.5347 0.48816 0.43813 3.9945z" sodipodi:nodetypes="ccccccccccccccccccccccccccccccc" style="fill:#00ae00" inkscape:connector-curvature="0"/>
    <path id="path4388" d="m239.14 310.01c-17.843 14.305-17.379 15.689-17.379 15.689l-4.4358-1.2842 2.8987-5.3626-5.6312 1.3503-3.5978 2.1314 0.58746-6.5125-3.0968-1.4254-3.0513-1.7488 11.488-5.4719-14.056-9.0696 1.1021-3.1424 4.7614 2.4843-1.4437-6.139 5.4012-0.88808-1.4915-6.9702 5.9614 2.1586-0.43041-7.4802 5.0779-0.93362 10.693 13.048 1.7761-12.61 3.0968 1.4254 1.6236 3.6912 4.3788-4.1648 0.74691 4.0623 5.5356-3.0126-4.1875 7.4894 7.7944-5.0028-0.49637 5.8658 4.249 0.26867z" sodipodi:nodetypes="ccccccccccccccccccccccccccccccc" style="fill:#00ae00" inkscape:connector-curvature="0"/>
    <path id="path4390" d="m287 245.97c-16.512 13.969-16.038 15.266-16.038 15.266l-4.2256-1.1034 2.6066-5.1421-5.29 1.4172-3.3481 2.1048 0.39283-6.1715-2.9633-1.2703-2.9283-1.5771 10.724-5.4598-13.515-8.2235 0.96348-2.9983 4.5634 2.2298-1.5181-5.7678 5.0841-0.97441-1.584-6.5523 5.6898 1.892-0.59361-7.061 4.7773-1.0094 10.435 12.068 1.3643-11.966 2.9633 1.2703 1.627 3.4491 4.0358-4.0467 0.80751 3.8218 5.1581-2.9863-3.7719 7.1849 7.244-4.9242-0.32286 5.5579 4.0237 0.14795z" sodipodi:nodetypes="ccccccccccccccccccccccccccccccc" style="fill:#00ae00" inkscape:connector-curvature="0"/>
    <path id="path4392" d="m344.4 289.18c-20.043-8.0414-20.966-7.0172-20.966-7.0172l-1.0012-4.2442 5.7554-0.10311-3.7227-4.0055-3.4219-1.9707 5.6292-2.5376-0.26398-3.2084 0.0231-3.321 9.8294 6.911 0.94-15.769 3.0959-0.55106 0.16515 5.0687 4.3799-4.035 3.2358 4.0308 5.0413-4.4599 0.9896 5.9047 5.9531-3.8237 3.1233 3.7437-5.7721 14.848 11.196-4.3884 0.26397 3.2084-2.283 3.0476 5.4568 1.6699-2.9949 2.4986 5.0456 3.1558-8.1026 0.0295 7.7303 4.0907-5.055 2.3125 1.7499 3.6196z" sodipodi:nodetypes="ccccccccccccccccccccccccccccccc" style="fill:#00ae00" inkscape:connector-curvature="0"/>
    <path id="path4394" d="m331.88 330.88c-21.065 7.5754-21.075 9.0048-21.075 9.0048l-3.6989-2.5983 4.3875-4.044-5.6427-0.53883-4.0082 0.83033 2.6129-5.843-2.4144-2.3036-2.2695-2.5886 12.375-1.4165-10.133-12.863 2.0187-2.5593 3.6191 3.8128 0.61371-6.1425 5.2829 0.89373 0.83349-6.9272 4.8336 3.8926 1.978-7.0624 4.998 0.74884 5.7552 15.478 5.6508-11.111 2.4144 2.3036 0.33053 3.9333 5.3773-2.4649-0.59908 3.9984 6.0823-1.0306-6.2564 5.6037 8.806-2.1556-2.3231 5.2732 3.8487 1.5987z" sodipodi:nodetypes="ccccccccccccccccccccccccccccccc" style="fill:#00ae00" inkscape:connector-curvature="0"/>
    <path id="path4396" d="m344.36 260.22c-21.583 3.3784-21.856 4.7464-21.856 4.7464l-3.066-3.1716 4.9498-3.0671-5.3083-1.5561-3.9942 0.0572 3.5806-5.1181-1.8893-2.6525-1.698-2.8988 12.12 0.92263-7.3406-14.194 2.4062-2.0806 2.7658 4.3208 1.7199-5.7735 4.8981 1.8299 2.0752-6.485 3.915 4.621 3.1968-6.4036 4.6518 1.6386 2.6636 15.893 7.4626-9.6071 1.8893 2.6525-0.40798 3.8303 5.6074-1.3714-1.3108 3.7214 6.0187 0.13306-7.0282 4.2174 8.8362-0.4432-3.198 4.6254 3.3937 2.2412z" sodipodi:nodetypes="ccccccccccccccccccccccccccccccc" style="fill:#00ae00" inkscape:connector-curvature="0"/>
    <path id="path4398" d="m340.91 246.54c-21.732 0.92242-22.155 2.2453-22.155 2.2453l-2.6778-3.4816 5.241-2.4795-5.0774-2.1347-3.9581-0.39126 4.1164-4.6621-1.5718-2.8361-1.3549-3.0584 11.888 2.2718-5.671-14.866 2.6139-1.7887 2.2519 4.5849 2.349-5.5192 4.6408 2.3596 2.7802-6.1833 3.3552 5.0108 3.8808-5.977 4.4186 2.1427 0.85319 16.023 8.4604-8.6682 1.5718 2.8361-0.83311 3.7438 5.7015-0.72803-1.7142 3.5348 5.9398 0.80649-7.4264 3.3845 8.7919 0.55227-3.6826 4.2176 3.1063 2.5979z" sodipodi:nodetypes="ccccccccccccccccccccccccccccccc" style="fill:#00ae00" inkscape:connector-curvature="0"/>
    <path id="path4400" d="m398.81 292.89c-22.699-3.6606-23.418-2.3807-23.418-2.3807l-2.0333-4.1738 5.9535-1.4542-4.804-3.2888-4.0153-1.2458 5.2526-3.9532-1.0252-3.2705-0.75333-3.4546 11.827 4.8772-2.7146-16.598 3.0864-1.297 1.3579 5.2258 3.6045-5.216 4.3042 3.429 4.1921-5.8121 2.4099 5.9011 5.2879-5.3647 4.1202 3.1572-2.5196 16.772 10.601-7.1786 1.0252 3.2705-1.6578 3.6996 6.0583 0.45712-2.5257 3.2961 5.9791 2.0967-8.4085 1.9272 8.9863 2.4392-4.7089 3.585 2.6647 3.3498z" sodipodi:nodetypes="ccccccccccccccccccccccccccccccc" style="fill:#00ae00" inkscape:connector-curvature="0"/>
    <path id="path4402" d="m369.15 306.48c-20.136-4.4774-20.848-3.3691-20.848-3.3691l-1.6006-3.8455 5.4089-0.98798-4.1288-3.1992-3.5304-1.3278 4.9131-3.2631-0.7454-2.9833-0.49222-3.1338 10.334 4.9927-1.5546-15.008 2.8328-0.99858 0.94017 4.752 3.5038-4.4811 3.6738 3.2984 4.0615-4.984 1.8467 5.4124 5.0193-4.5254 3.5233 3.0452-3.1425 14.888 9.874-5.8693 0.74539 2.9833-1.6802 3.2258 5.4018 0.72941-2.4362 2.8186 5.2442 2.1936-7.6326 1.2819 7.9194 2.6592-4.4067 2.9621 2.2096 3.1408z" sodipodi:nodetypes="ccccccccccccccccccccccccccccccc" style="fill:#00ae00" inkscape:connector-curvature="0"/>
    <path id="path4404" d="m405.4 335.79c-16.184 15.168-15.632 16.472-15.632 16.472l-4.3856-0.90998 2.4018-5.4027-5.3445 1.7272-3.3197 2.3304 0.0807-6.3417-3.1014-1.1467-3.0816-1.4628 10.7-6.1512-14.272-7.7187 0.8306-3.1213 4.7903 2.0461-1.8555-5.8286 5.1567-1.263-1.964-6.6288 5.9264 1.6414-0.97598-7.2014 4.8406-1.2828 11.317 11.817 0.77383-12.328 3.1014 1.1467 1.8463 3.448 3.9228-4.3552 1.0263 3.8725 5.1276-3.3275-3.489 7.5558 7.1631-5.4212-0.0411 5.7095 4.1291-0.0582z" sodipodi:nodetypes="ccccccccccccccccccccccccccccccc" style="fill:#00ae00" inkscape:connector-curvature="0"/>
    <path id="path4406" d="m435.94 342.06c-21.603 7.8022-21.611 9.2689-21.611 9.2689l-3.7989-2.6608 4.4962-4.1556-5.7905-0.545-4.1115 0.85758 2.6728-5.999-2.4805-2.3603-2.3323-2.6528 12.695-1.4707-10.415-13.184 2.0678-2.6288 3.7188 3.9071 0.62113-6.3035 5.4219 0.90965 0.84554-7.109 4.9651 3.9873 2.0197-7.2492 5.1294 0.76139 5.9268 15.873 5.7825-11.409 2.4805 2.3603 0.34463 4.0354 5.514-2.5366-0.6091 4.1035 6.2394-1.066-6.4117 5.7585 9.0325-2.2241-2.3763 5.4139 3.9512 1.635z" sodipodi:nodetypes="ccccccccccccccccccccccccccccccc" style="fill:#00ae00" inkscape:connector-curvature="0"/>
    <path id="path4408" d="m190.89 299.89c-15.4-16.91-16.76-16.36-16.76-16.36l1.001-4.5085 5.5357 2.5536-1.7042-5.5349-2.355-3.4559 6.5371 0.17406 1.2266-3.1811 1.5522-3.1561 6.1885 11.119 8.1622-14.603 3.2061 0.90105-2.1781 4.9094 6.0358-1.8295 1.2283 5.3346 6.8623-1.9299-1.7771 6.0866 7.4385-0.90309 1.2533 5.009-12.346 11.499 12.699 0.97434-1.2266 3.1811-3.5812 1.8541 4.434 4.1067-4.0072 1.0026 3.3572 5.3342-7.74-3.7053 5.4866 7.4627-5.8859-0.1241 0.00077 4.2578z" sodipodi:nodetypes="ccccccccccccccccccccccccccccccc" style="fill:#00ae00" inkscape:connector-curvature="0"/>
    <path id="path4410" d="m135.5 386.97c-15.578 14.547-15.049 15.801-15.049 15.801l-4.2125-0.88192 2.3172-5.1872-5.1384 1.6504-3.1938 2.2335 0.0885-6.0935-2.9781-1.1072-2.9585-1.4109 10.292-5.8921-13.7-7.4414 0.8035-2.9977 4.5994 1.9743-1.7729-5.6038 4.9572-1.2047-1.8757-6.3728 5.6918 1.5874-0.9254-6.9214 4.6535-1.2243 10.854 11.375 0.76479-11.844 2.9781 1.1072 1.7681 3.3163 3.7768-4.1781 0.97946 3.7228 4.9328-3.1885-3.3656 7.2543 6.8922-5.1968-0.0493 5.4861 3.9677-0.0487z" sodipodi:nodetypes="ccccccccccccccccccccccccccccccc" style="fill:#00ae00" inkscape:connector-curvature="0"/>
    <path id="path4412" d="m82.908 351.28c-17.647 12.28-17.3 13.608-17.3 13.608l-4.0787-1.4872 3.0605-4.8451-5.3678 0.90777-3.5103 1.7699 0.96591-6.0709-2.8138-1.5343-2.7505-1.8347 11.124-4.4004-12.606-9.4023 1.2339-2.8772 4.3076 2.6335-0.96301-5.85 5.1226-0.48886-0.95489-6.6326 5.454 2.4045 0.0729-7.0434 4.8222-0.55218 9.1984 12.919 2.4693-11.715 2.8139 1.5343 1.2877 3.5655 4.3724-3.6274 0.44174 3.8578 5.384-2.473-4.4048 6.7578 7.6295-4.1958-0.83929 5.4701 3.9682 0.52271z" sodipodi:nodetypes="ccccccccccccccccccccccccccccccc" style="fill:#00ae00" inkscape:connector-curvature="0"/>
    <path id="path4414" d="m65.309 336.72c-19.582-12.18-20.743-11.27-20.743-11.27l-0.2646-4.6488 6.0711 0.96034-3.1707-4.9032-3.2323-2.7076 6.3904-1.623 0.31822-3.4228 0.64099-3.4878 9.0524 9.0924 3.9167-16.407 3.3577-0.005-0.76759 5.3605 5.3548-3.4296 2.654 4.8393 6.1293-3.7535-0.0559 6.3927 6.9698-2.9152 2.589 4.5165-8.8267 14.541 12.588-2.5354-0.31823 3.4228-2.9665 2.7806 5.4278 2.7693-3.6132 2.0712 4.7195 4.2554-8.5255-1.4736 7.369 5.7369-5.7449 1.493 1.1679 4.131z" sodipodi:nodetypes="ccccccccccccccccccccccccccccccc" style="fill:#00ae00" inkscape:connector-curvature="0"/>
    <path id="path4416" d="m85.888 424.95c-22.195 2.2215-22.551 3.6008-22.551 3.6008l-2.9461-3.4071 5.2201-2.8465-5.3237-1.8872-4.0753-0.16797 3.9404-5.015-1.7759-2.8113-1.5668-3.0516 12.304 1.6272-6.6797-14.887 2.571-1.9849 2.575 4.5617 2.0806-5.7887 4.89 2.1431 2.483-6.4939 3.7295 4.9329 3.622-6.3474 4.6497 1.9341 1.8151 16.354 8.1524-9.3717 1.7759 2.8113-0.63293 3.8819 5.7945-1.0804-1.5472 3.7198 6.1286 0.47662-7.4043 3.9015 9.0336 0.0487-3.5224 4.5344 3.3329 2.4772z" sodipodi:nodetypes="ccccccccccccccccccccccccccccccc" style="fill:#00ae00" inkscape:connector-curvature="0"/>
    <path id="path4418" d="m152.98 383.3c-20.418-10.801-21.515-9.8149-21.515-9.8149l-0.58914-4.627 6.1338 0.53556-3.5109-4.6782-3.4191-2.4799 6.2725-2.0682 0.0789-3.4425 0.39689-3.53 9.6811 8.4535 2.7678-16.668 3.355-0.2391-0.39259 5.4103 5.1114-3.8012 2.9902 4.6504 5.8627-4.179 0.3907 6.392 6.7612-3.4 2.9026 4.3324-7.8046 15.147 12.402-3.4129-0.0789 3.4425-2.7702 2.9858 5.6174 2.3881-3.466 2.3221 5.0134 3.9226-8.6223-0.87699 7.7644 5.218-5.6365 1.8932 1.4556 4.0465z" sodipodi:nodetypes="ccccccccccccccccccccccccccccccc" style="fill:#00ae00" inkscape:connector-curvature="0"/>
    <path id="path4420" d="m159.59 424.75c-17.889 14.322-17.424 15.71-17.424 15.71l-4.4439-1.2898 2.9081-5.3716-5.6436 1.3494-3.6065 2.1333 0.5929-6.5253-3.1022-1.4304-3.0564-1.7543 11.515-5.4755-14.079-9.0972 1.1064-3.148 4.7694 2.4924-1.4426-6.1524 5.4128-0.88635-1.49-6.9853 5.9721 2.1669-0.42639-7.4957 5.0888-0.9322 10.706 13.081 1.7879-12.635 3.1022 1.4304 1.6245 3.6997 4.3904-4.1704 0.74577 4.0711 5.5488-3.0151-4.2009 7.5018 7.8136-5.0079-0.50123 5.8774 4.2575 0.272z" sodipodi:nodetypes="ccccccccccccccccccccccccccccccc" style="fill:#00ae00" inkscape:connector-curvature="0"/>
    <path id="path4422" d="m152.63 356.91c-21.739 4.9941-21.919 6.4071-21.919 6.4071l-3.351-3.0097 4.8207-3.4801-5.5186-1.2029-4.064 0.34568 3.2787-5.4705-2.1152-2.5656-1.938-2.8303 12.411 0.0676-8.498-13.929 2.301-2.2923 3.1279 4.2017 1.3363-6.0042 5.1205 1.5113 1.6469-6.7544 4.32 4.4248 2.7952-6.7523 4.8558 1.3342 3.8565 15.996 6.9095-10.322 2.1152 2.5657-0.1399 3.9306 5.6126-1.8003-1.0673 3.8847 6.1398-0.29759-6.8549 4.8013 8.9679-1.0873-2.9243 4.9412 3.6178 2.0385z" sodipodi:nodetypes="ccccccccccccccccccccccccccccccc" style="fill:#00ae00" inkscape:connector-curvature="0"/>
    <path id="path4424" d="m209.02 310.44c-22.92 0.10323-23.419 1.4793-23.419 1.4793l-2.6806-3.773 5.6177-2.4015-5.261-2.4506-4.1521-0.57008 4.5207-4.7447-1.5418-3.0491-1.3045-3.2745 12.427 2.867-5.3776-15.88 2.8238-1.7791 2.188 4.9177 2.6939-5.7178 4.7924 2.67 3.1744-6.3998 3.3328 5.4102 4.3252-6.1387 4.567 2.4327 0.25839 16.905 9.2548-8.7894 1.5418 3.0491-1.0268 3.9088 6.0326-0.53886-1.9462 3.6536 6.2222 1.0865-7.9549 3.2672 9.2355 0.93271-4.0461 4.2939 3.1671 2.8596z" sodipodi:nodetypes="ccccccccccccccccccccccccccccccc" style="fill:#00ae00" inkscape:connector-curvature="0"/>
    <path id="path4426" d="m103.88 386.31c-15.847-15.92-17.15-15.32-17.15-15.32l0.78638-4.4661 5.5411 2.2649-1.9118-5.3556-2.4601-3.288 6.4202-0.11277 1.0653-3.1737 1.3858-3.1634 6.553 10.639 7.3735-14.679 3.1841 0.74484-1.9237 4.9105 5.8415-2.0565 1.4363 5.1798 6.648-2.1908-1.4793 6.0478 7.2578-1.2085 1.4467 4.8593-11.612 11.815 12.499 0.40507-1.0653 3.1737-3.4326 1.9741 4.5277 3.8362-3.8874 1.1573 3.5246 5.087-7.7533-3.2991 5.7058 7.0827-5.7792 0.13353 0.18547 4.1768z" sodipodi:nodetypes="ccccccccccccccccccccccccccccccc" style="fill:#00ae00" inkscape:connector-curvature="0"/>
    <path id="path4428" d="m57.888 354.2c-17.807-13.25-18.993-12.47-18.993-12.47l0.11856-4.4802 5.7463 1.4074-2.6485-4.9569-2.8834-2.856 6.2595-1.0448 0.57938-3.2575 0.89417-3.294 7.9545 9.4462 5.0708-15.423 3.221 0.26458-1.1656 5.0801 5.4109-2.8606 2.158 4.8543 6.1796-3.1093-0.56564 6.1272 6.9187-2.2379 2.1215 4.5395-9.6309 13.24 12.277-1.4236-0.57937 3.2575-3.0681 2.4295 4.9844 3.0909-3.6316 1.6972 4.186 4.4596-8.0594-2.0963 6.6086 6.0929-5.6299 0.97184 0.78933 4.0559z" sodipodi:nodetypes="ccccccccccccccccccccccccccccccc" style="fill:#00ae00" inkscape:connector-curvature="0"/>
    <path id="path4430" d="m72.584 321.9c-18.559-12.2-19.699-11.36-19.699-11.36l-0.14129-4.483 5.8227 1.073-2.9335-4.7989-3.0464-2.6862 6.1933-1.4068 0.38999-3.2881 0.70238-3.3429 8.495 8.9765 4.1721-15.703 3.2334 0.0776-0.87002 5.1431 5.2401-3.1718 2.4375 4.7248 5.9938-3.4648-0.2099 6.1545 6.7827-2.637 2.3828 4.4124-8.8546 13.786 12.184-2.1341-0.38999 3.2882-2.9245 2.6052 5.1591 2.7991-3.5299 1.9062 4.4407 4.2129-8.1736-1.6271 6.9559 5.7042-5.5685 1.2974 1.0238 4.0065z" sodipodi:nodetypes="ccccccccccccccccccccccccccccccc" style="fill:#00ae00" inkscape:connector-curvature="0"/>
    <path id="path4432" d="m128.85 377.13c-14.462 17.589-13.726 18.843-13.726 18.843l-4.5852-0.34429 1.728-5.8185-5.2113 2.4676-3.0701 2.8128-0.75946-6.4664-3.3093-0.7557-3.3311-1.0801 10.076-7.6817-15.553-5.9633 0.43129-3.2876 5.1479 1.4471-2.6624-5.6871 5.0818-1.9701-2.879-6.4872 6.2507 0.88434-1.9493-7.2013 4.7574-1.9483 13.089 10.528-0.84834-12.652 3.3093 0.75571 2.337 3.2649 3.4153-4.9541 1.5587 3.8059 4.7782-4.0678-2.5489 8.1546 6.5724-6.4692 0.71594 5.8176 4.1956-0.60719z" sodipodi:nodetypes="ccccccccccccccccccccccccccccccc" style="fill:#00ae00" inkscape:connector-curvature="0"/>
    <path id="path4434" d="m142.42 329.96c-22.045-2.6214-22.688-1.3577-22.688-1.3577l-2.129-3.9452 5.6854-1.6417-4.7666-2.9803-3.9238-1.0409 4.9089-4.0245-1.1202-3.1142-0.86532-3.3026 11.605 4.231-3.2846-15.904 2.9257-1.3751 1.5196 4.9872 3.2683-5.1768 4.29 3.1356 3.8113-5.7754 2.5616 5.5965 4.8864-5.3877 4.1016 2.8807-1.7583 16.282 9.94-7.3507 1.1202 3.1142-1.451 3.6357 5.8632 0.19806-2.3045 3.2812 5.8525 1.783-8.0349 2.1965 8.7674 1.9928-4.3992 3.6475 2.7051 3.1249z" sodipodi:nodetypes="ccccccccccccccccccccccccccccccc" style="fill:#00ae00" inkscape:connector-curvature="0"/>
    <path id="path4436" d="m159.72 349.98c-15.387 16.555-14.734 17.842-14.734 17.842l-4.5219-0.61715 2.0623-5.6605-5.3115 2.1309-3.2109 2.6018-0.36309-6.4521-3.2331-0.94793-3.2352-1.2706 10.445-7.0038-15.049-6.8444 0.62523-3.2311 5.0131 1.7436-2.2953-5.7946 5.1532-1.6458-2.4617-6.6004 6.1395 1.2525-1.4976-7.2518 4.8305-1.6438 12.334 11.218-0.0787-12.586 3.2331 0.94794 2.1188 3.3753 3.6819-4.7025 1.315 3.8644 4.9788-3.7424-3.0163 7.9255 6.9009-6.0135 0.35904 5.8067 4.1932-0.34896z" sodipodi:nodetypes="ccccccccccccccccccccccccccccccc" style="fill:#00ae00" inkscape:connector-curvature="0"/>
    <path id="path4438" d="m190.63 415.77c-21.985-2.9336-22.644-1.6805-22.644-1.6805l-2.0703-3.9714 5.7028-1.5587-4.7189-3.0452-3.9047-1.0958 4.9612-3.95-1.0745-3.1268-0.8172-3.3115 11.533 4.3924-3.0538-15.934 2.9422-1.3318 1.4468 5.0036 3.3388-5.1245 4.2407 3.1935 3.8898-5.7148 2.4789 5.6271 4.9582-5.3122 4.056 2.9362-1.9891 16.239 10.034-7.2008 1.0745 3.1268-1.5014 3.6111 5.8541 0.28164-2.349 3.2448 5.8208 1.8647-8.0578 2.0793 8.7296 2.116-4.4466 3.5808 2.6576 3.1602z" sodipodi:nodetypes="ccccccccccccccccccccccccccccccc" style="fill:#00ae00" inkscape:connector-curvature="0"/>
    <path id="path4440" d="m236.8 519.48c-19.342 11.958-19.051 13.381-19.051 13.381l-4.2224-1.8045 3.51-4.9416-5.7212 0.65103-3.8088 1.668 1.3681-6.3563-2.8839-1.7817-2.7998-2.0953 12-4.0098-12.775-10.653 1.4681-2.9679 4.3985 3.0282-0.68171-6.2336 5.4383-0.22266-0.62828-7.0597 5.6223 2.8521 0.48072-7.4347 5.1246-0.30674 8.9742 14.172 3.2794-12.231 2.8839 1.7817 1.1556 3.8395 4.8258-3.5804 0.2454 4.0997 5.828-2.3032-5.0395 6.8847 8.2983-3.9939-1.2 5.7291 4.161 0.77953z" sodipodi:nodetypes="ccccccccccccccccccccccccccccccc" style="fill:#00ae00" inkscape:connector-curvature="0"/>
    <path id="path4442" d="m187.5 506.92c14.485 17.416 15.847 16.931 15.847 16.931l-1.1928 4.4158-5.3624-2.7751 1.4377 5.5527 2.1749 3.525-6.46-0.46569-1.3564 3.0923-1.6775 3.053-5.6238-11.279-8.7314 14.082-3.1316-1.0354 2.3754-4.7597-6.054 1.5392-0.97578-5.3332-6.8762 1.6014 2.0315-5.9423-7.4003 0.55958-1.0151-5.0122 12.731-10.822-12.52-1.5341 1.3565-3.0923 3.6265-1.6737-4.2026-4.2623 4.0097-0.8121-3.0822-5.4284 7.4916 4.0136-5.0934-7.63 5.8179 0.38702 0.19033-4.2128z" sodipodi:nodetypes="ccccccccccccccccccccccccccccccc" style="fill:#00ae00" inkscape:connector-curvature="0"/>
    <path id="path4444" d="m240.01 483.62c-21.867-2.4454-22.495-1.1885-22.495-1.1885l-2.1372-3.8952 5.6232-1.6664-4.7446-2.9206-3.8959-1.0044 4.8372-4.0225-1.1317-3.0786-0.88044-3.2671 11.531 4.1129-3.3653-15.739 2.89-1.383 1.5406 4.932 3.2033-5.1531 4.2734 3.0778 3.7372-5.7501 2.5775 5.5287 4.8055-5.3734 4.0848 2.8265-1.6299 16.149 9.8002-7.3538 1.1317 3.0786-1.4129 3.6132 5.8121 0.15572-2.2612 3.2679 5.8125 1.7266-7.9479 2.2324 8.7028 1.9144-4.3346 3.6453 2.7026 3.0782z" sodipodi:nodetypes="ccccccccccccccccccccccccccccccc" style="fill:#00ae00" inkscape:connector-curvature="0"/>
    <path id="path4446" d="m207.03 222.45c-15.414-15.84-16.703-15.265-16.703-15.265l0.82464-4.3862 5.4272 2.2919-1.8206-5.2922-2.3836-3.2637 6.3194-0.038 1.0845-3.1112 1.3997-3.0973 6.3279 10.545 7.4231-14.362 3.125 0.76919-1.9489 4.8106 5.772-1.9574 1.3546 5.1138 6.5672-2.0804-1.5245 5.9348 7.1561-1.1068 1.3684 4.7985-11.562 11.495 12.296 0.54066-1.0845 3.1112-3.4005 1.9037 4.4121 3.8267-3.8388 1.0948 3.4108 5.0462-7.5926-3.3348 5.5346 7.0349-5.6889 0.0658 0.13507 4.1125z" sodipodi:nodetypes="ccccccccccccccccccccccccccccccc" style="fill:#00ae00" inkscape:connector-curvature="0"/>
    <path id="path4448" d="m239.08 242.72c-22.113-0.67466-22.64 0.63589-22.64 0.63589l-2.4582-3.73 5.5-2.1267-4.9921-2.5416-3.9859-0.69017 4.521-4.4241-1.3842-2.9933-1.1477-3.2027 11.89 3.1853-4.6509-15.5 2.7839-1.6207 1.9445 4.8176 2.7917-5.4244 4.5326 2.7374 3.2783-6.0662 3.0321 5.3314 4.3795-5.7753 4.3233 2.5009-0.32182 16.316 9.2243-8.1657 1.3842 2.9933-1.1225 3.7358 5.8374-0.31602-2.0007 3.4586 5.9653 1.2582-7.7838 2.8828 8.8772 1.2117-4.048 4.0053 2.9584 2.8654z" sodipodi:nodetypes="ccccccccccccccccccccccccccccccc" style="fill:#00ae00" inkscape:connector-curvature="0"/>
    <path id="path4450" d="m252.93 223.24c-20.995-3.7535-21.682-2.5778-21.682-2.5778l-1.8199-3.9032 5.5447-1.2548-4.4037-3.1262-3.7045-1.2188 4.9341-3.5835-0.89918-3.0495-0.64415-3.216 10.892 4.7102-2.2558-15.437 2.8831-1.1542 1.177 4.8682 3.4255-4.7808 3.9379 3.2483 3.9798-5.3244 2.142 5.5112 4.9891-4.8922 3.7715 2.9932-2.6017 15.516 9.946-6.4906 0.89918 3.0495-1.596 3.4051 5.6118 0.51963-2.3946 3.0172 5.5124 2.039-7.8292 1.6547 8.2961 2.4042-4.424 3.2507 2.4186 3.1489z" sodipodi:nodetypes="ccccccccccccccccccccccccccccccc" style="fill:#00ae00" inkscape:connector-curvature="0"/>
    <path id="path4452" d="m297.02 246.93c-16.593-13.937-17.793-13.25-17.793-13.25l0.37339-4.3597 5.5194 1.7024-2.296-4.9836-2.6459-2.9494 6.1608-0.65813 0.75213-3.1415 1.061-3.159 7.2091 9.6642 5.8297-14.74 3.124 0.44323-1.4284 4.8842 5.4382-2.4767 1.8239 4.8553 6.2017-2.6748-0.9039 5.9392 6.8719-1.783 1.8065 4.5464-10.148 12.35 12.048-0.68095-0.75213 3.1415-3.1301 2.1913 4.68 3.2993-3.6371 1.4452 3.8231 4.5873-7.7342-2.5069 6.0903 6.3186-5.543 0.6232 0.53591 3.9984z" sodipodi:nodetypes="ccccccccccccccccccccccccccccccc" style="fill:#00ae00" inkscape:connector-curvature="0"/>
    <path id="path4454" d="m343.07 264.85c-21.647 4.9608-21.827 6.3675-21.827 6.3675l-3.3348-2.9983 4.8016-3.4624-5.4939-1.2006-4.0465 0.34203 3.2672-5.4449-2.1046-2.5556-1.9281-2.819 12.357 0.0738-8.4535-13.872 2.2922-2.2811 3.112 4.1851 1.3337-5.9773 5.0974 1.5074 1.6433-6.7241 4.2988 4.4078 2.7866-6.7213 4.834 1.3309 3.8312 15.928 6.8848-10.273 2.1046 2.5556-0.14137 3.9134 5.589-1.7894-1.0647 3.8672 6.1131-0.29305-6.8276 4.7767 8.9294-1.0778-2.9142 4.9181 3.601 2.0315z" sodipodi:nodetypes="ccccccccccccccccccccccccccccccc" style="fill:#00ae00" inkscape:connector-curvature="0"/>
    <path id="path4456" d="m344.84 252.2c-21.847-5.0821-22.632-3.8846-22.632-3.8846l-1.6995-4.1983 5.8917-1.0168-4.4554-3.5224-3.8246-1.4813 5.3768-3.4959-0.77883-3.2517-0.50195-3.4126 11.184 5.5384-1.5311-16.336 3.0907-1.0557 0.97184 5.1769 3.8573-4.8353 3.9596 3.6254 4.469-5.3761 1.9505 5.9046 5.5056-4.8673 3.7987 3.3485-3.5749 16.155 10.799-6.277 0.77883 3.2517-1.8611 3.4897 5.8658 0.85041-2.6788 3.0389 5.6789 2.4408-8.3127 1.3128 8.5828 2.9755-4.823 3.174 2.3692 3.4386z" sodipodi:nodetypes="ccccccccccccccccccccccccccccccc" style="fill:#00ae00" inkscape:connector-curvature="0"/>
    <path id="path4460" d="m160.94 302.65c-15.633 14.283-15.121 15.535-15.121 15.535l-4.1754-0.9218 2.3582-5.1281-5.1226 1.584-3.1971 2.1842 0.15395-6.0526-2.9466-1.1322-2.9238-1.4337 10.288-5.742-13.53-7.541 0.83072-2.9694 4.5479 2.0112-1.7006-5.5863 4.9377-1.1431-1.7944-6.3514 5.6373 1.6386-0.84435-6.886 4.6362-1.1659 10.66 11.418 0.88811-11.758 2.9466 1.1322 1.7206 3.3137 3.7974-4.1098 0.9327 3.709 4.935-3.1142-3.4221 7.1702 6.9034-5.088-0.1084 5.4496 3.9422-0.005z" sodipodi:nodetypes="ccccccccccccccccccccccccccccccc" style="fill:#00ae00" inkscape:connector-curvature="0"/>
    <path id="path4462" d="m163.35 246.48c-22.113-4.3399-22.86-3.11-22.86-3.11l-1.853-4.156 5.8801-1.2267-4.5965-3.3812-3.8918-1.3537 5.2765-3.6978-0.89553-3.2377-0.62315-3.409 11.423 5.1704-2.1077-16.348 3.0664-1.1679 1.1566 5.164 3.7041-4.9896 4.1023 3.5019 4.2994-5.554 2.1646 5.8605 5.358-5.0793 3.931 3.2295-3.0254 16.345 10.623-6.6796 0.89553 3.2377-1.7468 3.5689 5.9193 0.64906-2.5836 3.1448 5.7872 2.2524-8.3006 1.6084 8.7215 2.6879-4.7317 3.3552 2.4989 3.3698z" sodipodi:nodetypes="ccccccccccccccccccccccccccccccc" style="fill:#00ae00" inkscape:connector-curvature="0"/>
    <path id="path4464" d="m62.898 293.79c-18.937-9.7054-19.936-8.784-19.936-8.784l-0.59792-4.2551 5.6565 0.42009-3.2899-4.2673-3.1791-2.2435 5.7531-1.98 0.0316-3.172 0.32344-3.2564 9.0185 7.6713 2.3505-15.387 3.0876-0.2603-0.29703 4.9883 4.6629-3.5624 2.8099 4.248 5.3504-3.9194 0.4362 5.8833 6.1874-3.2126 2.7255 3.9561-7.0083 14.046 11.383-3.2918-0.0316 3.172-2.5161 2.7834 5.2029 2.1327-3.1649 2.1804 4.6649 3.5534-7.9528-0.70488 7.2144 4.7138-5.1694 1.8112 1.3892 3.71z" sodipodi:nodetypes="ccccccccccccccccccccccccccccccc" style="fill:#00ae00" inkscape:connector-curvature="0"/>
    <path id="path4466" d="m77.934 297.42c-16.758-12.96-17.904-12.24-17.904-12.24l0.19275-4.2734 5.4587 1.4452-2.4394-4.7775-2.7009-2.7767 5.9921-0.8859 0.61077-3.0984 0.91185-3.1276 7.4232 9.1559 5.1132-14.628 3.0691 0.30971-1.2026 4.8273 5.2145-2.6338 1.9732 4.6708 5.9525-2.8574-0.64867 5.8372 6.6424-2.0127 1.9439 4.3698-9.4261 12.464 11.742-1.1404-0.61079 3.0984-2.9711 2.264 4.7017 3.0382-3.4958 1.5552 3.9155 4.3302-7.6539-2.1437 6.1984 5.9319-5.3899 0.82741 0.68121 3.8846z" sodipodi:nodetypes="ccccccccccccccccccccccccccccccc" style="fill:#00ae00" inkscape:connector-curvature="0"/>
    <path id="path4468" d="m69.418 271.36c-14.075 17.348-13.345 18.574-13.345 18.574l-4.5005-0.30837 1.6579-5.7193-5.0967 2.4542-2.9938 2.7791-0.78649-6.3389-3.2514-0.72016-3.2748-1.0383 9.8353-7.6006-15.296-5.7505 0.40205-3.228 5.0596 1.3866-2.6484-5.5622 4.9728-1.9653-2.866-6.3458 6.1379 0.82752-1.9584-7.0522 4.6546-1.9419 12.908 10.244-0.91331-12.407 3.2514 0.72017 2.3136 3.188 3.3188-4.882 1.5535 3.7237 4.6615-4.0213-2.4484 8.0163 6.4063-6.3887 0.73965 5.7027 4.1121-0.62256z" sodipodi:nodetypes="ccccccccccccccccccccccccccccccc" style="fill:#00ae00" inkscape:connector-curvature="0"/>
    <path id="path4470" d="m64.954 436.04c-20.683 9.59-20.564 11.04-20.564 11.04l-3.987-2.3013 4.0851-4.4988-5.7726-0.0365-3.9908 1.2046 2.1224-6.1633-2.6574-2.1185-2.5361-2.4206 12.425-2.5555-11.441-12.132 1.8164-2.7786 4.0159 3.5405 0.0673-6.2864 5.4398 0.42905 0.21931-7.1023 5.255 3.5116 1.3681-7.3428 5.1376 0.30784 7.2371 15.18 4.7277-11.782 2.6574 2.1185 0.69082 3.96 5.2319-2.9864-0.24627 4.1101 6.0767-1.5952-5.84 6.2499 8.7378-2.9826-1.8799 5.5591 4.0486 1.2738z" sodipodi:nodetypes="ccccccccccccccccccccccccccccccc" style="fill:#00ae00" inkscape:connector-curvature="0"/>
    <path id="path4472" d="m67.805 404.4c-19.444-8.5358-20.384-7.5583-20.384-7.5583l-0.84996-4.2028 5.6597 0.0803-3.5322-4.0541-3.3009-2.0448 5.6125-2.3162-0.15816-3.1616 0.12754-3.2631 9.4422 7.1025 1.4216-15.468 3.06-0.44384 0.002 4.9867 4.4319-3.8274 3.0529 4.0636 5.0954-4.224 0.78619 5.8344 5.9714-3.57 2.9514 3.7779-6.1415 14.41 11.142-3.9595 0.15816 3.1616-2.3399 2.9231 5.3102 1.8134-3.0223 2.3611 4.8592 3.2608-7.9642-0.22678 7.4683 4.2643-5.0411 2.1132 1.6055 3.6126z" sodipodi:nodetypes="ccccccccccccccccccccccccccccccc" style="fill:#00ae00" inkscape:connector-curvature="0"/>
    <path id="path4474" d="m60.101 391.08c-19.202-9.8335-20.214-8.8991-20.214-8.8991l-0.60754-4.3137 5.7348 0.42411-3.3367-4.3252-3.2237-2.2735 5.832-2.0092 0.031-3.2158 0.3269-3.3015 9.1456 7.7744 2.3781-15.6 3.1302-0.26487-0.29956 5.0573 4.7262-3.6131 2.8501 4.3058 5.4231-3.9752 0.44409 5.9644 6.2719-3.2589 2.7644 4.0099-7.1007 14.242 11.539-3.3409-0.03099 3.2158-2.5499 2.8227 5.2754 2.1605-3.2079 2.2115 4.7305 3.601-8.063-0.71211 7.3156 4.7767-5.2402 1.8378 1.4095 3.7608z" sodipodi:nodetypes="ccccccccccccccccccccccccccccccc" style="fill:#00ae00" inkscape:connector-curvature="0"/>
    <path id="path4476" d="m113.26 347.53c-22.564-1.642-23.159-0.32565-23.159-0.32565l-2.351-3.917 5.7111-1.936-4.9911-2.8119-4.0428-0.87688 4.8098-4.3254-1.2853-3.118-1.0347-3.3217 12.011 3.7667-4.0842-16.037 2.9142-1.536 1.7792 5.0061 3.086-5.422 4.5132 2.9922 3.6109-6.0567 2.8683 5.5778 4.7234-5.7121 4.3094 2.7415-1.0317 16.657 9.7764-7.9457 1.2853 3.118-1.3078 3.7686 5.9778-0.0714-2.1932 3.4475 6.0407 1.5425-8.0771 2.6101 9.0179 1.6204-4.3085 3.9179 2.8992 3.0551z" sodipodi:nodetypes="ccccccccccccccccccccccccccccccc" style="fill:#00ae00" inkscape:connector-curvature="0"/>
    <path id="path4478" d="m163.46 460.11c-15.873 15.074-15.319 16.357-15.319 16.357l-4.3338-0.86947 2.3351-5.3471-5.2629 1.7392-3.2608 2.3212 0.0384-6.2587-3.068-1.1114-3.0505-1.4235 10.519-6.1397-14.134-7.5242 0.79937-3.0855 4.7406 1.988-1.869-5.7398 5.0806-1.2799-1.9812-6.5287 5.859 1.5812-1.01-7.1002 4.7685-1.2974 11.245 11.588 0.68348-12.17 3.068 1.1114 1.8444 3.3905 3.8428-4.3233 1.038 3.8148 5.0385-3.317-3.3939 7.479 7.0335-5.3963-0.003 5.6346 4.0743-0.0842z" sodipodi:nodetypes="ccccccccccccccccccccccccccccccc" style="fill:#00ae00" inkscape:connector-curvature="0"/>
    <path id="path4480" d="m99.445 422.69c-21.998-5.55-22.815-4.35-22.815-4.35l-1.6404-4.2771 5.9768-0.9185-4.4398-3.645-3.84-1.5692 5.5023-3.435-0.727-3.3028-0.444-3.4604 11.206 5.809-1.2439-16.548 3.1452-1.01 0.88629 5.2532 3.9907-4.8177 3.9366 3.74 4.6194-5.3532 1.8624 6.0073 5.6582-4.8194 3.779 3.457-3.9161 16.27 11.037-6.1463 0.72699 3.3028-1.9471 3.4943 5.9158 0.96928-2.7656 3.0232 5.6972 2.5741-8.4306 1.1727 8.6238 3.1689-4.9363 3.1198 2.3318 3.5213z" sodipodi:nodetypes="ccccccccccccccccccccccccccccccc" style="fill:#00ae00" inkscape:connector-curvature="0"/>
    <path id="path4482" d="m101.34 433.91c-17.99-13.64-19.204-12.86-19.204-12.86l0.16212-4.5565 5.8325 1.485-2.6483-5.0671-2.9068-2.9321 6.3774-1.0049 0.61957-3.3084 0.94014-3.3426 8.0045 9.6832 5.3014-15.643 3.2742 0.299-1.2328 5.1572 5.5309-2.86 2.1504 4.9582 6.3152-3.1058-0.63221 6.2279 7.059-2.2125 2.1161 4.6376-9.92 13.38 12.503-1.3344-0.61957 3.3084-3.1437 2.443 5.0419 3.1905-3.7101 1.6929 4.217 4.5755-8.1792-2.2072 6.6664 6.2594-5.7362 0.93647 0.76539 4.1333z" sodipodi:nodetypes="ccccccccccccccccccccccccccccccc" style="fill:#00ae00" inkscape:connector-curvature="0"/>
    <path id="path4484" d="m111.41 444.58c3.0369 22.293 4.44 22.602 4.44 22.602l-3.3286 3.0922-3.0569-5.1596-1.711 5.4341-0.0229 4.114-5.1968-3.7918-2.77 1.8911-3.0197 1.689 1.1982-12.461-14.766 7.2681-2.0932-2.5202 4.5057-2.7595-5.9098-1.8892 1.9846-5.0062-6.6352-2.2696 4.8384-3.9367-6.5284-3.4229 1.7825-4.7564 16.42-2.4173-9.7397-7.881 2.77-1.8911 3.9357 0.49852-1.2973-5.8021 3.8051 1.426 0.26024-6.1948 4.1988 7.3234-0.27547-9.1077 4.6973 3.3876 2.3773-3.4486z" sodipodi:nodetypes="ccccccccccccccccccccccccccccccc" style="fill:#00ae00" inkscape:connector-curvature="0"/>
    <path id="path4488" d="m119.01 270.49c-21.027 1.0815-21.425 2.3656-21.425 2.3656l-2.6221-3.3467 5.0514-2.4455-4.9331-2.0222-3.8346-0.34436 3.944-4.5484-1.546-2.7315-1.338-2.9486 11.526 2.0957-5.6182-14.34 2.5145-1.7541 2.2195 4.4183 2.2258-5.3626 4.5125 2.2437 2.6374-6.0092 3.2911 4.821 3.7045-5.8191 4.2955 2.0356 0.96491 15.501 8.1139-8.4636 1.546 2.7315-0.77391 3.631 5.5124-0.75418-1.6285 3.4364 5.7563 0.72907-7.1589 3.3404 8.5148 0.45826-3.5279 4.1143 3.0293 2.4876z" sodipodi:nodetypes="ccccccccccccccccccccccccccccccc" style="fill:#00ae00" inkscape:connector-curvature="0"/>
    <path id="path4490" d="m119.64 303.52c-21.913 3.3463-22.194 4.7334-22.194 4.7334l-3.099-3.2297 5.0341-3.0934-5.3803-1.599-4.053 0.0429 3.6526-5.1796-1.907-2.6986-1.7119-2.9478 12.294 0.98205-7.3947-14.43 2.4494-2.1021 2.79 4.3947 1.767-5.8518 4.9631 1.8753 2.1301-6.5724 3.955 4.7036 3.268-6.4855 4.7139 1.6802 2.6425 16.136 7.6085-9.7199 1.907 2.6986-0.42847 3.885 5.6949-1.3703-1.3442 3.7711 6.1066 0.15778-7.1474 4.2527 8.9676-0.41626-3.2624 4.6812 3.4351 2.287z" sodipodi:nodetypes="ccccccccccccccccccccccccccccccc" style="fill:#00ae00" inkscape:connector-curvature="0"/>
    <path id="path4492" d="m148.08 269.07c-21.538-2.8996-22.186-1.6725-22.186-1.6725l-2.024-3.8937 5.5896-1.5208-4.6202-2.9892-3.8247-1.0782 4.8657-3.8647-1.0492-3.065-0.79692-3.2456 11.295 4.317-2.9739-15.616 2.8844-1.3015 1.4118 4.9043 3.2774-5.0173 4.1515 3.134 3.8178-5.595 2.4225 5.5165 4.8643-5.1993 3.9708 2.8816-1.9676 15.91 9.8403-7.0441 1.0492 3.065-1.4753 3.5365 5.7357 0.28267-2.3053 3.1767 5.7012 1.8338-7.8976 2.0281 8.5512 2.0834-4.3611 3.5034 2.6004 3.0995z" sodipodi:nodetypes="ccccccccccccccccccccccccccccccc" style="fill:#00ae00" inkscape:connector-curvature="0"/>
    <path id="path4494" inkscape:connector-curvature="0" sodipodi:nodetypes="cc" style="stroke:#4fcb4f;stroke-width:1.4718;fill:none" d="m386.71 436.87s84.657 157.69 61.418 195.32"/>
    <path id="path4507" inkscape:connector-curvature="0" sodipodi:nodetypes="cc" style="color:#000000;stroke:#4fcb4f;stroke-width:1.4718;fill:none" d="m335.8 547.53c31.183 40.16 66.224 93.696 129.47 83.55"/>
    <path id="path4598" inkscape:connector-curvature="0" sodipodi:nodetypes="cc" style="stroke:#d3bc5f;stroke-width:.77464px;fill:url(#linearGradient4606)" d="m451.72 783.38c15.978 35.438 50.007 28.519 38.455-11.205"/>
    <path id="path4598-0" inkscape:connector-curvature="0" sodipodi:nodetypes="cc" style="stroke:#d3bc5f;stroke-width:.77464px;fill:url(#linearGradient4623)" d="m547.18 696.55c15.978 35.438 67.713-0.25352 36.242-20.058"/>
    <path id="path4598-08" inkscape:connector-curvature="0" sodipodi:nodetypes="cc" style="stroke:#d3bc5f;stroke-width:.77464px;fill:url(#linearGradient4623-4)" d="m527.62 780.05c15.978 35.438 56.647 18.559 45.095-21.164"/>
    <path id="path4598-7" inkscape:connector-curvature="0" sodipodi:nodetypes="cc" style="stroke:#d3bc5f;stroke-width:.77464px;fill:url(#linearGradient4623-2)" d="m451.47 732.34c15.978 35.438 54.434 39.032 42.882-0.69164"/>
    <path id="path4598-5" inkscape:connector-curvature="0" sodipodi:nodetypes="cc" style="stroke:#d3bc5f;stroke-width:.77464px;fill:url(#linearGradient4623-44)" d="m605.62 746.81c8.5445 31.135 39.957-4.3972 21.363-10.082"/>
    <path id="path4598-4" inkscape:connector-curvature="0" sodipodi:nodetypes="cc" style="stroke:#d3bc5f;stroke-width:.77464px;fill:url(#linearGradient4623-21)" d="m480.42 818.41c-15.007 24.925 58.307 32.392 42.882-0.69164"/>
    <path id="path4598-51" inkscape:connector-curvature="0" sodipodi:nodetypes="cc" style="stroke:#d3bc5f;stroke-width:.77464px;fill:url(#linearGradient4623-3)" d="m588.39 794.91c15.978 35.438 48.347-20.726 27.389-19.504"/>
    <path id="path4598-6" inkscape:connector-curvature="0" sodipodi:nodetypes="cc" style="stroke:#d3bc5f;stroke-width:.77464px;fill:url(#linearGradient4623-1)" d="m523.94 735.66c15.978 35.438 30.088 29.625 18.536-10.098"/>
    <path id="path4598-01" inkscape:connector-curvature="0" sodipodi:nodetypes="cc" style="stroke:#d3bc5f;stroke-width:.77464px;fill:url(#linearGradient4623-46)" d="m599.48 710.73c30.918 32.118 47.794 2.513 25.729-13.971"/>
    <path id="path4598-5-3" inkscape:connector-curvature="0" sodipodi:nodetypes="cc" style="stroke:#d3bc5f;stroke-width:.77464px;fill:url(#linearGradient4800)" d="m544.53 817.01c-10.891 30.393 35.233 19.354 23.278 4.0196"/>
  </g>
  <metadata id="metadata177">
    <rdf:RDF>
      <cc:Work>
        <dc:format>image/svg+xml</dc:format>
        <dc:type rdf:resource="http://purl.org/dc/dcmitype/StillImage"/>
        <cc:license rdf:resource="http://creativecommons.org/licenses/publicdomain/"/>
        <dc:publisher>
          <cc:Agent rdf:about="http://openclipart.org/">
            <dc:title>Openclipart</dc:title>
          </cc:Agent>
        </dc:publisher>
      </cc:Work>
      <cc:License rdf:about="http://creativecommons.org/licenses/publicdomain/">
        <cc:permits rdf:resource="http://creativecommons.org/ns#Reproduction"/>
        <cc:permits rdf:resource="http://creativecommons.org/ns#Distribution"/>
        <cc:permits rdf:resource="http://creativecommons.org/ns#DerivativeWorks"/>
      </cc:License>
    </rdf:RDF>
  </metadata>
</svg>