<svg id="圖層_1" viewBox="0 0 512 512" xmlns="http://www.w3.org/2000/svg"><path id="_x30_6_17_" d="m202.29 154.251c6.12 3.62 87.475-21.865 126.075-29.429 42.351-8.299 102.287 5.91 140.892 43.664 53.923 52.738 36.409 139.149 22.659 168.583-14.969 32.055-41.479 57.947-76.637 69.238-47.337 15.209-108.529.206-153.121-21.016-40.352-19.2-49.209-47.791-73.725-82.66-8.176-11.617-18.406-18.711-28.39-28.679-9.289-9.259-15.356-20.681-23.54-29.958z" fill="#669c4e"></path><path id="_x30_5_33_" d="m190.448 97.376c10.341-.192 14.959 3.058 23.498 7.872 8.244 4.654 21.443-3.616 30.892-1.339 27.435 6.608 49.972 64.046 65.375 87.817 14.668 22.609 40.247 58.857 46.232 97.611 9.459 61.263-21.852 100.399-67.887 128.194-29.74 17.955-59.772 33.83-111.629 17.459-13.168-4.154-6.805-12.309-19.939-17.43-13.385-5.229-28.318-8.996-38.235-20.771-5.825-6.922-3.47-11.353 1.077-19.299 14.256-24.955 25.755-49.175 35.602-76.226 8.041-22.086 15.528-44.104 22.904-66.37 3.309-9.992 10.621-23.51 8.885-34.449z" fill="#91bd00"></path><path id="_x30_4_36_" d="m126.891 407.771c-15.916-5.827-63.584 7.691-94.902-40.894-24.609-38.157-35.135-81.185-16.473-133.458 40.375-113.1 157.276-141.641 168.342-138.983 19.675 4.717 9.647 21.19 23.842 22.479 5.22.471 22.949-6.493 26.66-5.391 25.813 7.662 47.487 88.494 63.542 120.302 25.766 51.037 26.673 87.299.545 135.424-26.766 49.312-90.576 69.642-116.721 67.463-20.894-1.733-38.917-21.115-54.835-26.942z" fill="#ece2ca"></path><path id="_x30_3_37_" d="m474.424 248.212c-7.883 2.849 2.97 14.33-.185 22.208-1.458 3.66-11.063.422-13.109 3.237-5.327 7.368 4.278 11.577 5.788 15.14 4.916 11.549-16.246 24.959-15.029 36.479.828 7.811 7.85 8.507 14.718.923 7.327-8.095 18.605-38.901 18.975-55.243.213-9.751-3.279-25.591-11.158-22.744zm-342.066 121.891c-5.514-.905-17.694-1.401-21.349-1.254-3.604.15-7.79 24.519-8.776 36.526 10.551.647 19.365.451 24.658 2.394 6.903 2.532 14.205 7.604 21.963 12.688 5.834-7.595 12.42-30.021 11.762-32.556-1.055-4.07-10.042-14.795-28.258-17.798zm76.675-298.083c-2.995 4.918-3.858 21.181-6.201 27.338-2.331 6.162-5.478 3.457-5.478 3.457s5.033 18.205 6.293 19.289c1.254 1.084 13.858-1.969 14.771-2.549.917-.574 4.967-12.873 4.967-12.873s.493-23.895-.542-28.813c-1.034-4.914-10.811-10.763-13.81-5.849z" fill="#612600"></path><path id="_x30_2_37_" d="m193.375 136.483c-16.616-2.717-9.078-19.135-31.421-14.305-23.104 4.979-83.377 34.85-115.504 110.018-11.452 26.794-24.734 95.456 25.083 132.374 24.15 17.888 54.652 10.004 65.461 11.138 10.322 1.074 31.515 35.231 77.143 21.673 23.725-7.055 46.508-19.523 60.318-54.992 15.791-40.552 3.899-79.426-7.144-101.907-24.93-50.736-30.29-101.219-48.334-105.637-7.809-1.917-16.006 3.212-25.602 1.638z" fill="#fd7565"></path><path id="_x30_1" d="m212.266 264.968c-3.176 2.895-2.658 8.633 1.16 12.801 3.809 4.181 9.471 5.211 12.641 2.316 3.174-2.9 2.658-8.631-1.156-12.811-3.809-4.17-9.479-5.203-12.645-2.306zm-115.209 47.828c-4.777 3.004-6.8 8.398-4.513 12.041 2.29 3.633 8.024 4.135 12.81 1.123 4.787-3.002 6.804-8.395 4.519-12.033-2.29-3.639-8.019-4.143-12.816-1.131zm36.608-27.746c-3.61-2.324-9.018-.35-12.071 4.398-3.067 4.754-2.61 10.496 1.002 12.82 3.616 2.325 9.019.356 12.079-4.408 3.06-4.744 2.613-10.484-1.01-12.81zm-44.458-11.438c-3.61-2.329-9.024-.361-12.077 4.4-3.057 4.75-2.609 10.493 1.005 12.813 3.613 2.321 9.021.356 12.083-4.402 3.058-4.748 2.605-10.486-1.011-12.811zm3.274-29.365c5.563 1.056 10.711-1.52 11.506-5.747.797-4.224-3.063-8.495-8.625-9.541-5.551-1.046-10.698 1.528-11.493 5.752-.794 4.227 3.067 8.497 8.612 9.536zm33.334-62.87c-3.863 1.896-4.959 7.549-2.459 12.62s7.652 7.64 11.506 5.745c3.856-1.902 4.949-7.555 2.455-12.631-2.502-5.066-7.653-7.636-11.502-5.734zm86.09 138.819c-3.165 2.904-2.65 8.631 1.158 12.805 3.813 4.182 9.481 5.217 12.651 2.32 3.175-2.902 2.657-8.633-1.155-12.812-3.813-4.17-9.476-5.207-12.654-2.313zm13.18-77.258c3.177-2.899 2.66-8.627-1.155-12.804-3.809-4.172-9.476-5.213-12.646-2.313-3.175 2.898-2.655 8.634 1.155 12.805 3.812 4.173 9.477 5.207 12.646 2.312zm-40.733 62.695c3.056-4.764 2.604-10.493-1.009-12.815-3.616-2.328-9.026-.363-12.079 4.395-3.058 4.756-2.606 10.494 1.004 12.816 3.614 2.324 9.02.356 12.084-4.396zm30.539-111.158c-1.25-4.11-6.642-6.115-12.055-4.474-5.404 1.636-8.785 6.304-7.533 10.414 1.242 4.115 6.641 6.12 12.051 4.476 5.408-1.643 8.783-6.305 7.537-10.416zm-22.054 135.901c-3.612-2.332-9.019-.355-12.075 4.398-3.059 4.75-2.611 10.486 1.004 12.811 3.61 2.326 9.019.352 12.08-4.396 3.059-4.758 2.61-10.497-1.009-12.813z" fill="#ece2ca"></path></svg>