<svg class="svg-icon" style="width: 1em; height: 1em;vertical-align: middle;fill: currentColor;overflow: hidden;" viewBox="0 0 1024 1024" version="1.1" xmlns="http://www.w3.org/2000/svg"><path d="M874.1 551.1c0-129-52.3-244.1-134.2-319.6-62.6 14.5-142.3 23.2-229.1 23.2s-166.5-8.7-229.1-23.2C199.9 307 147.6 422.1 147.6 551.1c0 121.7 46.6 231.1 120.7 306.5h0.2c-0.9 2.3-1.5 4.6-1.5 6.9 0 34.8 108.2 63 241.6 63 133.4 0 241.6-28.2 241.6-63 0-2.3-0.5-4.6-1.5-6.9h4.8c74-75.4 120.6-184.8 120.6-306.5z" fill="#EFA131" /><path d="M511.4 311.6c-100.2 0-194-11.3-264.3-31.9-3.7-1.1-5.8-5-4.7-8.7 1.1-3.7 5-5.8 8.7-4.7 69 20.2 161.5 31.3 260.4 31.3 98.1 0 190-11 258.9-30.9 3.7-1.1 7.6 1.1 8.7 4.8 1.1 3.7-1.1 7.6-4.8 8.7-70.2 20.3-163.5 31.4-262.9 31.4z" fill="#A36050" /><path d="M510 278.9c-88.2 0-173.6-9.1-240.6-25.6-6.7-1.7-10.9-8.5-9.2-15.2 1.7-6.7 8.5-10.9 15.2-9.2 65.1 16 148.4 24.9 234.6 24.9 87 0 170.9-9 236.2-25.3 6.7-1.7 13.6 2.4 15.2 9.2 1.7 6.7-2.4 13.6-9.2 15.2-67.2 16.8-153.2 26-242.2 26z m-192.4 575a193.2 30.9 0 1 0 386.4 0 193.2 30.9 0 1 0-386.4 0z" fill="#A36050" /><path d="M741.1 134.2H280.6c-16.1 0-29.3 13.2-29.3 29.3v38.4c0 16.1 13.2 29.3 29.3 29.3h1.9c34.4 13.5 123.6 23.1 228.3 23.1 104.7 0 193.9-9.6 228.3-23.1h1.9c16.1 0 29.3-13.2 29.3-29.3v-38.4c0-16.2-13.1-29.3-29.2-29.3z" fill="#9B9213" /><path d="M867.9 398.2c-7.1-15.2-23.8-23.4-40.3-20.2-81.6 15.9-158.7 32.3-307.6 32.3-163.3 0-240.3-17.6-323.6-35.3-16.5-3.5-33.3 4.5-40.7 19.7-24.2 49.9-30 107-30 166.4 0 41.1 14.6 83.3 29.9 120.2 4.4 10.6 13.6 18.5 24.7 21.5 102.9 27.2 135.5 48.1 328.3 48.1 189.6 0 229.7-20.7 334-48.7 11.1-3 20.2-11 24.6-21.6C882 643.9 896 601.5 896 561c0-57.9-5.2-113.8-28.1-162.8z" fill="#FFF6ED" /><path d="M273.3 331.8a21.5 21.5 0 1 0 43 0 21.5 21.5 0 1 0-43 0z" fill="#FFF1B6" /><path d="M764.6 182.2H257c-6.9 0-12.6-5.6-12.6-12.6 0-6.9 5.6-12.6 12.6-12.6h507.6c6.9 0 12.6 5.6 12.6 12.6 0 6.9-5.6 12.6-12.6 12.6z" fill="#FFF6ED" /><path d="M317 483.1c-0.1-0.8-0.2-1.8-0.3-3.3 0-1.4-0.1-3-0.1-4.8 0-3 0.1-6.4 0.2-10.3 0.1-3.9 0.4-7.8 0.7-11.8 0.3-4 0.7-7.8 1.1-11.5 0.4-3.7 1-6.8 1.6-9.5l7.1 0.4c-0.1 1-0.1 2.1-0.2 3.5 0 1.3-0.1 2.7-0.1 4.1 0 1.8 0 3.6 0.1 5.4 0 1.8 0.1 3.8 0.2 6 2.3-0.6 5-0.9 8.1-0.9 1.5 0 3.1 0.1 4.7 0.4 1.6 0.3 3.1 0.8 4.6 1.4 2.3 1.1 4.5 2.5 6.5 4.3 2 1.8 3.3 4.2 3.9 7.3 0.1 0.8 0.3 1.7 0.4 2.5 0.1 0.8 0.2 1.6 0.2 2.4 0 3.1-0.7 5.8-2 8.1s-3.1 4.2-5.4 5.7c-1.1 0.7-2.5 1.3-4.1 1.9-1.7 0.6-3.6 0.8-5.7 0.8-1.7 0-3.6-0.2-5.5-0.6-2-0.4-4.1-1.1-6.3-2v1l-9.2-0.4-0.5-0.1z m24.5-23.2c-1.1-0.6-2.3-0.9-3.5-1.1-1.2-0.2-2.4-0.3-3.6-0.3-2.6 0-4.9 0.3-7 0.9 0 2.6 0 5.2-0.1 7.7 0 2.5-0.1 5.1-0.3 7.6 1.4 0.6 2.8 1 4.3 1.3 1.5 0.3 2.8 0.5 4 0.5 3.3 0 5.9-0.8 7.8-2.5 1.9-1.7 2.8-4 2.6-6.9-0.1-2.2-0.4-3.8-1-4.7-0.5-1-1.6-1.8-3.2-2.5z m61.7 8.8h0.1c-3.2 0.8-6 1.4-8.5 1.8-2.5 0.4-4.8 0.6-7 0.6-2.5 0-4.7-0.2-6.8-0.5-2-0.3-4.1-0.8-6.1-1.4 0.4 3 1.7 5.1 3.9 6.1s4.6 1.5 7.4 1.5c1.6 0 3.2-0.1 4.8-0.3 1.6-0.2 3.3-0.5 5-0.8 0.3 1.4 0.6 2.7 0.8 3.9 0.3 1.2 0.6 2.5 0.8 3.8-4.5 1.2-8.5 1.8-12 1.8-3.1 0-6-0.5-8.6-1.4-2.6-1-4.8-2.7-6.6-5.1-0.7-0.8-1.5-2.1-2.5-4.1-1-2-1.5-4.6-1.5-7.7 0-2.6 0.6-5.7 1.8-9.4 0.6-1.3 1.5-2.5 2.7-3.7 1.2-1.1 2.7-2.1 4.2-3 1.6-0.8 3.2-1.5 5-2 1.7-0.5 3.4-0.8 5-1 3.4 0.4 6.3 1.2 8.7 2.5 2.4 1.2 4.4 2.7 5.9 4.3 1.5 1.6 2.6 3.3 3.3 5.2 0.7 1.8 1 3.5 1 5 0 2-0.1 3.3-0.4 3.9h-0.4z m-27.4-5.6l-0.1-0.1h-0.1v0.2h0.2v-0.1z m0 0c0.7 0.1 1.8 0.3 3.5 0.4 1.6 0.1 3.5 0.2 5.7 0.2 1.6 0 3.1-0.1 4.6-0.2 1.5-0.1 2.9-0.3 4.3-0.7-0.3-1.7-0.7-3.1-1.4-4-0.7-0.9-1.4-1.6-2.3-2-0.9-0.4-1.8-0.6-2.7-0.7-1 0-1.9-0.1-2.8-0.1-1.4 0-2.7 0.3-3.7 0.8s-1.9 1.1-2.6 1.9c-0.7 0.7-1.3 1.5-1.7 2.2-0.4 0.8-0.7 1.3-0.8 1.8v-0.2c-0.1 0.1-0.1 0.2-0.1 0.3v0.1c0-0.1 0-0.1 0.1-0.2v0.4z m75 5.6h0.1c-3.2 0.8-6 1.4-8.5 1.8-2.5 0.4-4.8 0.6-7 0.6-2.5 0-4.7-0.2-6.8-0.5-2-0.3-4.1-0.8-6.1-1.4 0.4 3 1.7 5.1 3.9 6.1s4.6 1.5 7.4 1.5c1.6 0 3.2-0.1 4.8-0.3 1.6-0.2 3.3-0.5 5-0.8 0.3 1.4 0.6 2.7 0.8 3.9 0.3 1.2 0.6 2.5 0.8 3.8-4.5 1.2-8.5 1.8-12 1.8-3.1 0-6-0.5-8.6-1.4-2.6-1-4.8-2.7-6.6-5.1-0.7-0.8-1.5-2.1-2.5-4.1-1-2-1.5-4.6-1.5-7.7 0-2.6 0.6-5.7 1.8-9.4 0.6-1.3 1.5-2.5 2.7-3.7 1.2-1.1 2.7-2.1 4.2-3 1.6-0.8 3.2-1.5 5-2 1.7-0.5 3.4-0.8 5-1 3.4 0.4 6.3 1.2 8.7 2.5 2.4 1.2 4.4 2.7 5.9 4.3 1.5 1.6 2.6 3.3 3.3 5.2 0.7 1.8 1 3.5 1 5 0 2-0.1 3.3-0.4 3.9h-0.4z m-27.4-5.6l-0.1-0.1h-0.1v0.2h0.2v-0.1z m0 0c0.7 0.1 1.8 0.3 3.5 0.4 1.6 0.1 3.5 0.2 5.7 0.2 1.6 0 3.1-0.1 4.6-0.2 1.5-0.1 2.9-0.3 4.3-0.7-0.3-1.7-0.7-3.1-1.4-4-0.7-0.9-1.4-1.6-2.3-2-0.9-0.4-1.8-0.6-2.7-0.7-1 0-1.9-0.1-2.8-0.1-1.4 0-2.7 0.3-3.7 0.8s-1.9 1.1-2.6 1.9c-0.7 0.7-1.3 1.5-1.7 2.2-0.4 0.8-0.7 1.3-0.8 1.8v-0.2c-0.1 0.1-0.1 0.2-0.1 0.3v0.1c0-0.1 0-0.1 0.1-0.2v0.4z m63.4 21.5c-0.2-1.5-0.4-4-0.5-7.4-0.1-3.4-0.2-7.3-0.2-11.6 0-2.6 0-5.3 0.1-8.1s0.2-5.5 0.3-8.2c0.1-2.7 0.3-5.3 0.6-7.7 0.2-2.4 0.5-4.7 0.9-6.7l7.2 0.1c0 2 0.1 4.5 0.2 7.6 0.1 3.1 0.3 6.5 0.4 10.2 1.4-0.8 3-1.4 4.7-1.9 1.7-0.5 3.5-0.7 5.4-0.7 1.8 0 3.8 0.4 6 1.1 2.2 0.7 4.1 1.7 5.8 2.8 2.1 1.8 3.7 4.1 4.8 7 1.1 2.9 1.7 6.4 1.7 10.6 0 1 0 1.9-0.1 2.7-0.1 0.8-0.2 1.5-0.3 2.2-0.1 0.7-0.2 1.4-0.4 2-0.1 0.7-0.3 1.4-0.5 2.3l-0.9 4-10.7-1.1c0.7-3.3 1.2-6 1.6-7.9 0.4-2 0.6-4 0.6-6.1 0-3.1-0.6-5.7-1.8-7.8-1.2-2.1-3.1-3.2-5.5-3.2-1.8 0-3.6 0.3-5.5 1s-3.3 1.2-4.4 1.7c0.1 2.3 0.2 4.6 0.3 7 0.1 2.4 0.1 4.7 0.1 6.9 0 1.6 0 3.2-0.1 4.9 0 1.7-0.1 3.2-0.3 4.6l-9.3-0.1-0.2-0.2z m65.5-0.3c-2.1-0.1-4.2-0.5-6.3-1.4-2.1-0.9-4-2-5.7-3.5-1.7-1.5-3.1-3.2-4.2-5.2s-1.7-4.1-1.7-6.4c0-3 0.4-5.7 1.2-8.1 0.8-2.4 2-4.6 3.6-6.3 1.6-1.8 3.4-3.1 5.5-4.1 2.1-1 4.5-1.5 7.1-1.5 3.7 0 6.9 0.5 9.6 1.6 2.7 1 4.9 2.5 6.7 4.3 1.8 1.8 3 4 3.8 6.4 0.8 2.5 1.2 5.1 1.1 8 0 2.7-0.6 5.1-1.8 7.1-1.2 2-2.7 3.7-4.6 5.1-1.9 1.4-4.1 2.4-6.6 3.1-2.4 0.5-5 0.9-7.7 0.9z m-0.2-28.4c-1.7 0-3.1 0.4-4.2 1.1-1.1 0.8-2 1.7-2.7 2.9-0.7 1.1-1.1 2.4-1.2 3.8-0.2 1.4-0.2 2.7 0.1 3.9 0.1 1 0.3 1.9 0.8 2.9 0.4 1 1.1 1.9 1.8 2.7 0.8 0.8 1.6 1.5 2.6 2s2.1 0.8 3.3 0.8c3.3 0.1 5.9-0.8 7.7-2.5 1.8-1.7 2.6-3.7 2.4-6-0.2-2.3-0.5-4.3-0.9-5.9-0.4-1.6-1-2.8-1.8-3.6-0.8-0.9-1.8-1.4-3.1-1.8-1.4-0.3-3-0.4-4.8-0.3z m42.3 5c0 0.2 0 0.4 0.1 0.6 0 0.2 0.1 0.4 0.1 0.6 0.1 1.9 0.2 4 0.3 6.3 0.1 2.2 0.1 4.5 0.1 6.7 0 1.4 0 2.9-0.1 4.5 0 1.6-0.1 3.2-0.3 4.7l-9.5-0.2c-0.3-1.4-0.5-3-0.6-4.9-0.1-1.9-0.2-4-0.2-6.2 0-4.1 0.2-8.6 0.5-13.3 0.3-4.7 0.9-9.3 1.6-13.6l7.5 0.2c0 1 0 2.1-0.1 3.1 0 1 0 2.1 0.2 3.3 1.4-0.6 3-1.2 4.9-1.6 1.9-0.4 3.9-0.7 6.1-0.7 1.8 0 3.8 0.3 6.1 1 2.2 0.7 4.3 1.6 6.1 2.7 2 1.7 3.6 4 4.7 6.8s1.7 6.3 1.7 10.3c0 1.2 0 2.2-0.1 3.1 0 0.9-0.1 1.7-0.3 2.4-0.1 0.8-0.3 1.6-0.5 2.4-0.2 0.9-0.5 1.9-0.8 3.2l-0.5 2-10.8-0.9c0.4-1.7 0.8-3.1 1-4.4 0.3-1.3 0.5-2.4 0.7-3.5 0.2-1 0.3-2 0.4-3 0.1-0.9 0.1-1.9 0.1-3.1 0-3.1-0.6-5.7-1.8-7.7-1.2-2-3-3-5.6-3-2.4 0-4.6 0.3-6.6 0.9-2 0.6-3.3 1-3.8 1.2l-0.6 0.1z m76.5 7.8h0.1c-3.2 0.8-6 1.4-8.5 1.8-2.5 0.4-4.8 0.6-7 0.6-2.5 0-4.7-0.2-6.8-0.5-2-0.3-4.1-0.8-6.1-1.4 0.4 3 1.7 5.1 3.9 6.1s4.6 1.5 7.4 1.5c1.6 0 3.2-0.1 4.8-0.3 1.6-0.2 3.3-0.5 5-0.8 0.3 1.4 0.6 2.7 0.8 3.9 0.3 1.2 0.6 2.5 0.8 3.8-4.5 1.2-8.5 1.8-12 1.8-3.1 0-6-0.5-8.6-1.4-2.6-1-4.8-2.7-6.6-5.1-0.7-0.8-1.5-2.1-2.5-4.1-1-2-1.5-4.6-1.5-7.7 0-2.6 0.6-5.7 1.8-9.4 0.6-1.3 1.5-2.5 2.7-3.7 1.2-1.1 2.7-2.1 4.2-3 1.6-0.8 3.2-1.5 5-2 1.7-0.5 3.4-0.8 5-1 3.4 0.4 6.3 1.2 8.7 2.5 2.4 1.2 4.4 2.7 5.9 4.3 1.5 1.6 2.6 3.3 3.3 5.2 0.7 1.8 1 3.5 1 5 0 2-0.1 3.3-0.4 3.9h-0.4z m-27.4-5.6l-0.1-0.1h-0.1v0.2h0.2v-0.1z m0 0c0.7 0.1 1.8 0.3 3.5 0.4 1.6 0.1 3.5 0.2 5.7 0.2 1.6 0 3.1-0.1 4.6-0.2 1.5-0.1 2.9-0.3 4.3-0.7-0.3-1.7-0.7-3.1-1.4-4-0.7-0.9-1.4-1.6-2.3-2-0.9-0.4-1.8-0.6-2.7-0.7-1 0-1.9-0.1-2.8-0.1-1.4 0-2.7 0.3-3.7 0.8s-1.9 1.1-2.6 1.9c-0.7 0.7-1.3 1.5-1.7 2.2-0.4 0.8-0.7 1.3-0.8 1.8v-0.2c-0.1 0.1-0.1 0.2-0.1 0.3v0.1c0-0.1 0-0.1 0.1-0.2v0.4z m77.7-9.9c-2.4 6.5-4.6 12.1-6.7 16.8-2 4.7-4 8.8-5.9 12.4-1.9 3.6-3.8 6.7-5.6 9.4-1.9 2.7-3.8 5.3-5.8 7.8-1-0.3-1.7-0.6-2.3-0.9-0.6-0.3-1.2-0.7-1.7-1.2-0.3-0.1-0.6-0.3-1-0.6-0.4-0.2-1.1-0.6-2.2-1.1l0.7-1.8c1.2-2.1 2.3-4.1 3.3-5.9 1-1.8 2.1-3.7 3.1-5.6-2.1-2.1-3.8-4.2-5.3-6.4-1.4-2.2-2.7-4.4-3.8-6.7-1.1-2.3-2-4.6-2.8-6.9-0.8-2.3-1.6-4.7-2.3-7.1l-1.1-3.7 1.8-0.9c1-0.5 2-1 3.2-1.7 1.1-0.6 2.5-1.2 4-1.8l1.1 3.6c0.8 2.4 1.4 4.6 2.1 6.6 0.6 2 1.3 3.9 2 5.7 0.7 1.8 1.4 3.6 2.3 5.4 0.8 1.8 1.8 3.6 2.9 5.6 1.8-3.7 3.5-7.7 5.2-11.9 1.7-4.2 3.5-8.9 5.4-14.1 0.6 0.3 1.2 0.7 2 1.1s1.4 0.6 1.9 0.8c1 0.3 1.9 0.7 2.8 1.2 0.9 0.5 1.8 0.9 2.6 1.4l0.1 0.5z" fill="#302B2F" /><path d="M543.1 562.9s51.3-45.4 72.1-8.6c20.3 35.8-15.5 84.6-62.9 86.8l-9.2-78.2z" fill="#FFF6ED" /><path d="M478.8 586s-27.6-67 24.4-68.4c51.9-1.5 68.9 51.5 49.8 94.9L478.8 586z" fill="#FFF6ED" /><path d="M599.8 654.9s17 5.3 17 7.9c0 2.6-17 0-17 0v-7.9z" fill="#583026" /><path d="M499.023 718.087a92.5 72.6 8.836 1 0 22.304-143.477 92.5 72.6 8.836 1 0-22.304 143.477z" fill="#F6B71E" /><path d="M462.8 723.4c-1.5 0-3 0-4.6-0.1-5.3-0.2-9.4-4.6-9.2-9.9 0.2-5.3 4.6-9.3 9.9-9.2 1.3 0.1 2.7 0.1 4 0.1 45.2 0 60.5-31.2 65.4-57.8 5.5-30.2-2.3-56.7-21.5-72.6-4-3.4-4.6-9.4-1.2-13.4 3.4-4 9.4-4.6 13.4-1.2 24.6 20.5 34.8 53.5 28 90.7-8.6 46.8-39.1 73.4-84.2 73.4z" fill="#583026" /><path d="M508 734.9c-4.2 0-7.7-3.3-7.9-7.5-0.2-4.4 3.1-8.1 7.5-8.4 24.1-1.4 54.6-12.9 63.3-60.4 5.7-31.5-2.5-59.1-22.6-75.8-3.4-2.8-3.8-7.8-1-11.2 2.8-3.4 7.8-3.8 11.2-1 24.6 20.5 34.8 53.6 28 90.9-8.1 44.3-36.5 71.1-78 73.4h-0.5z m-63.323-103.503a4.2 8 6.039 1 0 1.683-15.911 4.2 8 6.039 1 0-1.683 15.91z m19.453 2.067a4.2 8 6.039 1 0 1.683-15.912 4.2 8 6.039 1 0-1.683 15.912z" fill="#583026" /><path d="M867.9 398.2c-7.1-15.2-23.8-23.4-40.3-20.2-7 1.4-14 2.7-21 4.1 22.9 51 35.6 107.5 35.6 167 0 57.7-12 112.7-33.6 162.5 10.7-3 21.9-6.2 34-9.4 11.1-3 20.2-11 24.6-21.6C882 643.9 896 601.5 896 561c0-57.9-5.2-113.8-28.1-162.8z" fill="#C3D2E0" /></svg>