<svg id="Layer_1" enable-background="new 0 0 80 80" viewBox="0 0 80 80" xmlns="http://www.w3.org/2000/svg"><g id="_x37_8"><g><path d="m46.0780678 14.9405308-23.0107441 4.7501507c-.1601601-.5300446-.3100681-1.06003-.4699841-1.5900764 0-.0199604-.0100117-.0299702-.0100117-.0499897-.1501503-.5199757-.3000584-1.0600319-.4599743-1.5800056-.3300896-1.1400518-1.140173-3.170146.2199764-3.8901396 1.1542454-.6241684 8.3318405-1.4598732 18.2505817-4.1601667 1.1418953-.3069839 3.6660156-1.0863609 4.3299751-.1999578.4786949.5848217.1180229.7324142.7300034 5.2901468.0300294.3700064.4902498 1.0700415.4201776 1.4300383z" fill="#f56357"></path></g><g><path d="m46.0780678 14.9405308-23.0107441 4.7501507c-.1601601-.5300446-.3100681-1.06003-.4699841-1.5900764 0-.0199604-.0100117-.0299702-.0100117-.0499897l22.8806133-6.1101799c.0500488.5200357.120121 1.0500212.189949 1.5700569.0300294.3700065.4902498 1.0700416.4201776 1.4300384z" fill="#e11a17"></path></g><g><path d="m39.8541336 71.77771c-1.4635086-.2878036-13.1006699-5.5664597-13.3406105-6.2622833-.1799526-.5639801-7.3942833-35.0186768-7.4782619-35.4624481-.2758102-1.3436584.1439648-2.2074394.6718292-3.4911118.3411484-.8523369 1.9902039-4.9058781 2.2595921-5.5657997.280035-.6860008.4894218-1.5291519.9208374-2.1274529.118.019268-.3139782-.5147266 5.1454563 6.6135254.6239605.8156738 1.2476826 1.6315861 1.8715229 2.4473782.4680023.6238422 1.2116928 1.3316631 1.3437786 2.0754738.2278233 1.2596798.3556328-.9625378.5836945.2851448.6238422 3.3711452 7.8422069 40.1680316 8.0221614 41.4875736z" fill="#595ab7"></path></g><g><path d="m61.2446976 63.3559723c.1320877.8516617-15.4759483 6.1184464-21.3664513 8.4458542 0-.0241165-8.6179714-41.34095-8.5099983-41.9288025.192831-.8827763 2.8667984-.5661335 3.7430496-.7798004 1.4460258-.3689613 13.702404-3.5178604 19.0870285-4.882761l.1080933-.1439629c0 .0119972 0 .0239944.0119972.0359917.4797592 2.8792705 6.770443 38.2697315 6.926281 39.2534809z" fill="#6f6ecf"></path></g><g><path d="m23.1880074 19.1536293 22.5385513-5.4213018c12.5737724 14.5933237 4.9926872 5.8518057 8.4609718 10.0472078.0761795.0920162.2710114.331356.2076645.4326096-.063343.1013737-.2462959.1605186-.3479118.0976543l-22.7122669 6.2158623z" fill="#6f6ecf"></path></g><g><path d="m19.1776161 29.488472c-.2734375-.0429688-.4599609-.2988281-.4169922-.5717773.0429688-.2734375.3037109-.456543.5712891-.4165039l12.1005859 1.8964844 22.5371094-6.921875c.2626953-.0820313.5439453.0673828.6240234.3310547.0810547.2641602-.0664063.5439453-.3310547.625l-22.6474609 6.9555664c-.2090301.0639895.5113526.1135158-12.4375-1.8979493z" fill="#3f3e89"></path></g><g><path d="m24.0731239 50.7184525c-.1552734.0268555-.3203125-.0039063-.4316406-.1137695-.1943359-.1953125-.2460938-.4609375-.0507813-.65625 0-.0004883.0517578-.0517578.0527344-.0522461.1210938-.1206055.3525391-.2211914.5126953-.184082l12.109375 2.7246094 21.8144531-7.9140625c.2607422-.0922852.546875.0400391.640625.2998047.0947266.2592773-.0400391.5463867-.2988281.640625l-21.9521484 7.9638672c-.2601623.0912856.4365006.1527518-12.3964844-2.7084962z" fill="#3f3e89"></path></g><g><path d="m39.5116005 72.1901321c-.2578125 0-.4765625-.1982422-.4970703-.4599609-.5361328-6.6362305-5.9492188-34.7373047-7.5478516-40.6918945-.0722656-.2670898.0859375-.5410156.3525391-.612793.2705078-.0712891.5410156.0864258.6123047.3530273 1.6054688 5.9785156 7.0410156 34.2011719 7.5791016 40.871582.0224609.2749023-.1826172.5161133-.4580078.5385742-.013672.0009767-.0273438.0014649-.0410157.0014649z" fill="#3f3e89"></path></g><g><path d="m33.360733 23.957058c1.5073547 2.2402496 6.7190628 2.9126987 8.9058533 1.3100948.8932991-.654707 1.517189-1.7461376 1.3538857-2.8751259-2.9267616 3.0153408-7.7405052 2.2563-9.141674-.0083675-.2779465-.4492359-.4526443-.9912167-.8802834-1.3013554-.5854149-.4245605-.725296.7543888-.7485466 1.1016312-.0427285.6382446.1602516 1.2521801.510765 1.7731228z" fill="#3f3e8a"></path></g><g><g><path d="m43.429863 21.7429314c.1722755.432251.2029877.8890953.0741425 1.3371811-.488636 1.7389584-3.1748734 2.728466-6.0015945 2.209959-1.8601303-.3458729-4.9073563-1.7140045-4.2282066-4.1063175.0904579-.3198376.2480965-.6026058.4688416-.8720589 1.8173294 2.4539413 5.1096916 3.530695 8.1148872 2.4488049.6301993-.2267437.9700926-.7394982 1.5719298-1.0175686z" fill="#f4b331"></path></g></g><g><g><path d="m43.8971443 20.9945621c-.4919968 1.7413578-3.1819534 2.729187-6.0083122 2.2062397-1.8571281-.3435936-4.902916-1.7057266-4.2264061-4.0999584.491993-1.7413578 3.1819496-2.7290668 6.008194-2.2061195 2.8262405.5229473 4.7185173 2.3584804 4.2265243 4.0998382z" fill="#f9da58"></path></g></g><g opacity=".5"><path d="m48.6008835 36.8980331c.8542252-.8275528 2.1904869-1.182312 3.2914124-.7322998 2.0165749.824295 2.9595795 4.0962486 1.4569473 6.2227135-.8515587 1.2050972-2.4849129 1.8516769-3.8922501 1.4080467-2.7823982-.8770866-2.6555557-5.1552124-.8561096-6.8984604z" fill="#fff"></path></g><g opacity=".5"><path d="m42.8119926 35.9322968c.3140221-.3042183.8052483-.4346313 1.2099648-.2691994.7413177.3030205 1.0879784 1.5058289.5355911 2.2875481-.3130455.4430084-.9134865.6806984-1.4308395.5176125-1.0228462-.3224259-.9762154-1.8951188-.3147164-2.5359612z" fill="#fff"></path></g></g></svg>