<svg xmlns:rdf="http://www.w3.org/1999/02/22-rdf-syntax-ns#" xmlns="http://www.w3.org/2000/svg" xmlns:x="http://ns.adobe.com/Extensibility/1.0/" xmlns:dc="http://purl.org/dc/elements/1.1/" xmlns:i="http://ns.adobe.com/AdobeIllustrator/10.0/" xmlns:cc="http://web.resource.org/cc/" xmlns:xlink="http://www.w3.org/1999/xlink" xmlns:a="http://ns.adobe.com/AdobeSVGViewerExtensions/3.0/" xmlns:graph="http://ns.adobe.com/Graphs/1.0/" xmlns:svg="http://www.w3.org/2000/svg" xmlns:inkscape="http://www.inkscape.org/namespaces/inkscape" xmlns:sodipodi="http://sodipodi.sourceforge.net/DTD/sodipodi-0.dtd" xmlns:ns1="http://sozi.baierouge.fr" i:rulerOrigin="0 0" i:viewOrigin="75 584" space="preserve" i:pageBounds="0 792 612 0" viewBox="0 0 461.232 377.043" enable-background="new 0 0 461.232 377.043" overflow="visible">
  <g id="Layer_1" i:layer="yes" i:rgbTrio="#4F008000FFFF" i:dimmedPercent="50">
    <g clip-rule="evenodd" fill-rule="evenodd">
      <path d="m194.58 76.32c-0.252 0.468 3.96 3.42 5.148 3.456 1.08-0.036 2.376-2.988 1.548-3.456-0.98-0.612-6.45-0.612-6.7 0z" i:knockout="Off" fill="#D1ECA9"/>
      <path d="m195.44 75.528c-0.252 0.468 3.924 3.42 5.184 3.456 1.08-0.036 2.376-2.988 1.548-3.456-0.89-0.612-6.51-0.612-6.73 0z" i:knockout="Off" fill="#86A338"/>
      <path d="m190.37 86.4c-0.252 0.468 3.924 3.42 5.184 3.456 1.008-0.036 2.34-2.988 1.512-3.456-0.9-0.612-6.55-0.612-6.69 0z" i:knockout="Off" fill="#D1ECA9"/>
      <path d="m191.27 85.608c-0.252 0.468 3.924 3.42 5.184 3.456 1.008-0.036 2.34-2.988 1.512-3.456-0.9-0.612-6.55-0.612-6.69 0z" i:knockout="Off" fill="#86A338"/>
      <path d="m170.24 76.32c-7.236-5.256-14.364-11.592-21.816-19.296-7.56-7.884-17.424-17.244-22.644-26.82-5.256-9.648-7.92-19.44-8.388-30.204 3.132 4.212 5.508 6.408 7.56 6.732 1.908 0.288 3.348-1.44 4.176-5.04 3.384 9.145 7.812 17.676 13.428 25.992 5.544 8.388 13.5 16.812 20.124 23.472 6.624 6.48 12.96 11.376 19.296 15.084-3.89 3.348-7.81 6.696-11.74 10.08z" i:knockout="Off" fill="#7F4008"/>
      <path i:knockout="Off" d="m161.86 63.756c-9.18-6.336-16.308-12.996-21.816-20.124-5.616-7.308-12.168-23.004-10.908-22.644 1.368 0.468 14.328 20.88 18.468 25.128 3.888 3.96 0.252-4.284 5.04-0.828 4.824 3.456 12.456 10.728 23.472 21.816l-6.696 4.176c-2.51-2.484-5.03-5.004-7.55-7.524z"/>
      <path d="m163.51 115.02c-1.152-0.144-3.492 2.052-3.564 2.7-0.216 0.432 1.872-0.036 2.664 0.54 0.648 0.612 0.972 2.88 1.656 3.06 0.72-0.036 2.592-1.548 2.556-2.592-0.22-1.08-2.17-3.57-3.32-3.71z" i:knockout="Off" fill="#D1ECA9"/>
      <path d="m164.41 113.94c-1.152-0.144-3.492 2.052-3.564 2.7-0.216 0.54 1.872-0.108 2.664 0.576 0.648 0.612 0.972 2.88 1.656 3.06 0.72 0.036 2.592-1.62 2.556-2.628-0.22-1.08-2.17-3.57-3.32-3.71z" i:knockout="Off" fill="#86A338"/>
      <path d="m142.56 182.84c-0.252 0.468 3.924 3.42 5.184 3.456 1.08-0.036 2.376-2.988 1.548-3.456-0.9-0.61-6.51-0.61-6.73 0z" i:knockout="Off" fill="#D1ECA9"/>
      <path d="m143.46 182.05c-0.252 0.468 3.924 3.42 5.184 3.456 1.008-0.036 2.34-2.988 1.512-3.456-0.89-0.61-6.55-0.61-6.69 0z" i:knockout="Off" fill="#86A338"/>
      <path d="m146.77 96.444c-0.252 0.468 3.96 3.42 5.148 3.456 1.08-0.036 2.376-2.988 1.548-3.456-0.97-0.612-6.45-0.612-6.7 0z" i:knockout="Off" fill="#D1ECA9"/>
      <path d="m147.64 95.652c-0.252 0.468 3.924 3.42 5.184 3.456 1.08-0.036 2.376-2.988 1.548-3.456-0.9-0.612-6.52-0.612-6.73 0z" i:knockout="Off" fill="#86A338"/>
      <path d="m152.39 139.9c-0.252 0.684 0.252 1.512 1.152 1.872s1.836 0.108 2.124-0.54c0.252-0.684-0.252-1.512-1.152-1.872s-1.87-0.11-2.12 0.54z" i:knockout="Off" fill="#D1ECA9"/>
      <path d="m152.5 139.32c-0.288 0.648 0.216 1.476 1.152 1.836 0.9 0.36 1.836 0.108 2.088-0.54 0.288-0.684-0.216-1.512-1.152-1.872-0.91-0.37-1.84-0.11-2.09 0.57z" i:knockout="Off" fill="#86A338"/>
      <path d="m185.94 109.73c-0.288 0.648 0.216 1.512 1.152 1.872 0.9 0.36 1.836 0.108 2.088-0.576 0.288-0.684-0.216-1.512-1.152-1.872-0.9-0.36-1.84-0.11-2.09 0.58z" i:knockout="Off" fill="#D1ECA9"/>
      <path d="m186.01 109.12c-0.252 0.648 0.252 1.512 1.152 1.872s1.872 0.108 2.124-0.576c0.288-0.648-0.252-1.512-1.152-1.872s-1.83-0.11-2.12 0.58z" i:knockout="Off" fill="#86A338"/>
      <path d="m137.3 159.19c-0.288 0.684 0.216 1.512 1.116 1.872 0.936 0.36 1.872 0.108 2.124-0.576 0.288-0.648-0.216-1.476-1.152-1.872-0.9-0.35-1.83-0.1-2.09 0.58z" i:knockout="Off" fill="#D1ECA9"/>
      <path d="m137.38 158.58c-0.252 0.684 0.252 1.512 1.152 1.872s1.872 0.108 2.124-0.576c0.252-0.648-0.252-1.476-1.152-1.836-0.9-0.35-1.84-0.1-2.12 0.55z" i:knockout="Off" fill="#86A338"/>
      <path d="m123.26 118.26c-5.796 14.184-13.752 26.532-24.3 37.728-10.724 11.16-25.16 26.49-38.588 28.51-13.5 1.656-30.852-13.104-41.076-17.604-10.116-4.5-16.452-7.53-19.296-9.22 7.272 2.916 16.956-1.512 29.34-13.428 12.384-12.06 28.368-44.028 44.46-57.852 16.128-13.752 34.848-22.284 51.156-24.336 16.164-2.16 31.032 1.8 45.288 11.736-7.956 7.2-15.552 14.292-23.472 21.816-7.93 7.526-15.63 14.796-23.52 22.646z" i:knockout="Off" fill="#5F6537"/>
      <path d="m137.52 89.748c-8.64-3.78-17.352-1.872-26.82 5.868-9.468 7.776-14.616 29.844-29.34 40.248-14.832 10.26-34.128 17.064-58.716 20.952 7.488 2.052 16.812 1.26 28.512-2.52 11.7-3.852 30.456-11.016 41.112-20.124 10.548-9.216 14.112-26.928 21.78-34.38 7.63-7.414 15.26-10.762 23.47-10.042z" i:knockout="Off" fill="#7FAE4E"/>
      <path d="m170.24 71.28c-14.292 4.5-25.704 11.952-35.208 22.644-9.504 10.548-17.892 23.328-20.988 41.112-3.132 18-2.16 44.388 2.52 65.411 4.536 20.736 12.096 38.953 25.164 58.682 13.104 19.764 34.74 43.775 52.812 58.715 18.108 14.617 39.852 23.328 54.54 29.34 14.437 5.904 22.933 3.564 31.86 6.732 8.748 3.24 9.396 10.477 20.952 12.564 11.664 1.871 35.244-2.52 47.808-0.828 12.384 1.619 17.208 9.611 25.992 10.908 8.712 1.223 17.244 0.143 25.992-3.385 11.771 3.924 21.744 3.6 30.204-0.828 8.46-4.572 16.596-13.787 20.124-25.992 3.312-12.348 3.312-27.684 0-46.979 6.983-10.656 10.008-25.094 9.216-44.426-0.937-19.33-7.956-45.863-14.256-70.451-6.372-24.804-7.345-53.532-23.473-76.32-16.308-22.752-47.952-45.504-72.972-58.68-25.128-13.032-53.892-17.244-76.284-19.296-22.428-2.124-39.636-0.216-57.06 6.696-17.48 6.86-32.85 18.272-46.93 34.4z" i:knockout="Off" fill="#ABD148"/>
      <path d="m449.5 297.72c5.076 11.088 2.808 17.027 2.521 25.992-0.324 8.818-0.973 19.15-4.177 26.818-3.275 7.633-9.144 14.617-15.12 18.469-6.155 3.637-14.903 2.951-20.951 3.348-6.084 0.18-10.98-1.764-15.084-1.656-4.068 0.037-4.465 2.34-9.252 2.484-5.004 0.037-15.229 0-20.124-1.656-4.933-1.799-3.24-6.408-9.217-8.387-6.155-2.018-17.783-3.457-26.819-3.35-9.036 0-20.305 4.357-26.856 3.35-6.624-1.152-6.731-7.885-12.563-10.08-5.904-2.34-12.528-0.865-22.645-3.35-10.403-2.592-24.84-4.752-38.592-11.734-13.968-7.164-30.96-18.9-43.596-30.205-12.564-11.268-26.1-21.564-31.032-36.863-4.896-15.408-14.184-55.439 1.692-54.541 16.092 1.117 74.052 57.637 93.06 60.408 18.648 2.27 5.868-49.068 18.468-45.287 12.528 4.104 42.444 63.035 56.16 68.76 13.536 5.221 14.328-34.164 25.164-36.072 10.908-1.729 27.432 26.1 39.42 25.164 11.736-1.295 21.061-33.156 31.032-31.859 9.97 1.48 23.18 29.02 28.51 40.25z" i:knockout="Off" fill="#A2C644"/>
      <path d="m424.33 371.52c-4.716 0.504-11.124 0.828-15.912-0.828-4.859-1.871-10.907-4.824-12.6-9.252-1.656-4.463 0.899-16.344 2.52-16.775 1.404-0.396 3.133 10.656 6.732 14.256 3.6 3.527 9.828 5.221 15.084 6.732 5.184 1.295 15.12 0.648 15.912 1.656 0.62 1.01-7.08 3.53-11.73 4.21z" i:knockout="Off" fill="#86A338"/>
      <path d="m450.32 318.67c-0.36-8.568-3.096-16.379-6.696-21.779-3.815-5.365-13.571-12.24-15.084-10.08-1.368 2.195 3.78 12.383 6.696 22.645 2.736 10.188 7.524 36 10.08 37.727 2.56 1.33 5.15-20.02 5-28.52z" i:knockout="Off" fill="#86A338"/>
      <path d="m208.19 245.63c-1.836-0.361-5.22 3.348-5.436 4.176-0.288 0.791 2.916-0.18 4.068 0.828 0.972 1.008 1.44 4.428 2.52 4.715 1.08 0.037 4.068-2.375 3.96-4.031-0.25-1.71-3.38-5.45-5.11-5.7z" i:knockout="Off" fill="#D1ECA9"/>
      <path d="m209.59 244.01c-1.908-0.324-5.22 3.275-5.472 4.141-0.288 0.791 2.916-0.18 4.068 0.828 0.936 1.008 1.512 4.428 2.556 4.715 1.008 0.109 4.068-2.482 3.924-4.031-0.33-1.7-3.31-5.48-5.08-5.66z" i:knockout="Off" fill="#86A338"/>
      <path d="m302.76 122.44c16.309 2.7 27.36 17.208 39.385 31.032 11.952 13.86 24.155 52.165 31.896 51.157 7.452-1.584 4.141-51.733 13.393-58.681 9.359-6.624 35.46 23.724 41.939 18.432 6.192-5.724 3.96-35.64-4.176-51.156-8.352-15.588-31.968-30.852-44.46-41.076-12.456-10.08-16.596-13.464-29.34-19.296-12.889-5.976-43.128-21.384-46.98-15.948-3.672 5.544 33.229 40.176 24.336 48.636-9.396 8.136-64.691-7.776-78.84 0.864-14.004 8.82-13.968 44.892-5.04 51.156 8.89 5.9 41.47-17.79 57.89-15.12z" i:knockout="Off" fill="#D1ECA9"/>
      <path d="m369.65 135.61c-1.765-0.288-4.788 3.096-5.04 3.888-0.216 0.648 2.664-0.072 3.78 0.756 0.972 0.972 1.331 4.104 2.34 4.392 1.044 0.036 3.708-2.232 3.672-3.744-0.25-1.63-3.13-5.01-4.75-5.3z" i:knockout="Off" fill="#D1ECA9"/>
      <path d="m370.94 134.1c-1.764-0.252-4.788 3.024-5.04 3.852-0.216 0.684 2.664-0.072 3.78 0.792 0.972 0.828 1.332 4.176 2.34 4.356 1.044 0.036 3.708-2.232 3.672-3.744-0.25-1.62-3.13-5.04-4.75-5.26z" i:knockout="Off" fill="#86A338"/>
      <path d="m296.71 190.15c-1.728-0.252-4.859 3.023-5.076 3.852-0.216 0.684 2.664-0.072 3.78 0.793 0.973 0.828 1.296 4.176 2.376 4.355 1.08 0.035 3.637-2.232 3.637-3.744-0.29-1.61-3.06-5.03-4.72-5.25z" i:knockout="Off" fill="#D1ECA9"/>
      <path d="m298.01 188.6c-1.728-0.252-4.859 3.025-5.075 3.853-0.217 0.684 2.664-0.072 3.779 0.791 0.973 0.828 1.296 4.176 2.376 4.355 1.08 0.037 3.637-2.23 3.637-3.744-0.3-1.62-3.08-5.04-4.73-5.26z" i:knockout="Off" fill="#86A338"/>
      <path d="m362.92 244.26c-2.268-0.359-6.443 4.033-6.696 5.113-0.252 0.898 3.492-0.109 5.005 1.008 1.332 1.223 1.728 5.471 3.132 5.795 1.368 0.072 4.968-2.916 4.824-4.932-0.39-1.99-4.09-6.77-6.25-6.99z" i:knockout="Off" fill="#D1ECA9"/>
      <path d="m364.64 242.21c-2.196-0.361-6.517 4.031-6.732 5.111-0.252 0.863 3.492-0.037 5.004 1.043 1.332 1.152 1.729 5.58 3.132 5.797 1.368 0 4.933-2.951 4.86-4.969-0.39-2.09-4.1-6.73-6.26-6.98z" i:knockout="Off" fill="#86A338"/>
      <path d="m404.42 212.11c-1.836-0.322-5.22 3.277-5.436 4.141-0.288 0.793 2.916-0.18 4.068 0.828 0.972 1.008 1.439 4.428 2.52 4.717 1.08 0.107 4.068-2.484 3.96-4.033-0.25-1.7-3.38-5.48-5.11-5.66z" i:knockout="Off" fill="#D1ECA9"/>
      <path d="m405.83 210.46c-1.908-0.324-5.22 3.275-5.472 4.139-0.288 0.793 2.916-0.18 4.067 0.828 0.937 1.008 1.513 4.428 2.557 4.717 1.008 0.107 4.067-2.484 3.924-4.033-0.33-1.7-3.32-5.48-5.08-5.66z" i:knockout="Off" fill="#86A338"/>
      <path d="m413.24 269.42c-2.268-0.359-6.444 4.033-6.696 5.113-0.252 0.898 3.492-0.109 5.004 1.008 1.297 1.223 1.729 5.471 3.097 5.795 1.368 0 4.932-2.951 4.859-4.967-0.39-2.01-4.1-6.69-6.26-6.95z" i:knockout="Off" fill="#D1ECA9"/>
      <path d="m414.94 267.37c-2.269-0.361-6.444 4.031-6.696 5.111-0.252 0.863 3.492-0.037 5.004 1.043 1.332 1.08 1.729 5.545 3.132 5.762 1.368 0.07 4.969-2.916 4.824-4.934-0.39-1.97-4.09-6.76-6.25-6.98z" i:knockout="Off" fill="#86A338"/>
      <path d="m356.22 328.1c-2.268-0.359-6.443 4.033-6.695 5.113-0.252 0.863 3.492-0.037 5.004 1.043 1.296 1.08 1.728 5.545 3.096 5.76 1.368 0.072 4.933-2.916 4.86-4.932-0.39-1.97-4.1-6.76-6.26-6.98z" i:knockout="Off" fill="#D1ECA9"/>
      <path d="m357.91 326.09c-2.268-0.359-6.444 4.033-6.696 5.111-0.252 0.9 3.492-0.107 5.004 1.01 1.332 1.223 1.729 5.471 3.133 5.795 1.367 0.072 4.968-2.916 4.823-4.932-0.38-1.98-4.09-6.77-6.25-6.98z" i:knockout="Off" fill="#86A338"/>
      <path d="m285.59 305.68c-2.483-0.359-7.02 4.428-7.344 5.617-0.288 0.936 3.853-0.037 5.472 1.115 1.332 1.295 2.017 6.049 3.456 6.336 1.404 0.107 5.437-3.313 5.292-5.4-0.37-2.32-4.51-7.32-6.88-7.68z" i:knockout="Off" fill="#D1ECA9"/>
      <path d="m287.46 303.44c-2.483-0.359-7.02 4.43-7.344 5.617-0.288 1.008 3.852-0.145 5.472 1.115 1.332 1.225 2.017 6.121 3.456 6.373 1.404 0 5.437-3.205 5.292-5.438-0.36-2.3-4.5-7.31-6.88-7.67z" i:knockout="Off" fill="#86A338"/>
      <path d="m197.89 172.04c-1.188-0.144-3.384 2.052-3.528 2.7-0.216 0.54 1.908-0.108 2.628 0.576 0.648 0.54 0.972 2.844 1.656 3.024 0.72 0.036 2.592-1.656 2.556-2.592-0.22-1.08-2.17-3.56-3.32-3.71z" i:knockout="Off" fill="#D1ECA9"/>
      <path d="m198.79 171c-1.188-0.144-3.384 2.052-3.528 2.7-0.216 0.432 1.908-0.036 2.628 0.54 0.648 0.612 0.972 2.88 1.656 3.06 0.72 0.036 2.592-1.62 2.556-2.628-0.22-1.08-2.17-3.6-3.32-3.67z" i:knockout="Off" fill="#86A338"/>
      <path d="m231.44 120.89c-1.152-0.144-3.492 2.052-3.564 2.7-0.216 0.54 1.872-0.108 2.664 0.576 0.648 0.54 0.972 2.844 1.656 3.024 0.72 0.036 2.592-1.656 2.556-2.592-0.22-1.08-2.16-3.57-3.32-3.71z" i:knockout="Off" fill="#D1ECA9"/>
      <path d="m232.34 119.81c-1.151-0.18-3.492 2.124-3.563 2.736-0.216 0.432 1.872-0.036 2.664 0.54 0.647 0.612 0.972 2.88 1.656 3.06 0.72 0.036 2.592-1.62 2.556-2.628-0.22-1.08-2.16-3.57-3.32-3.71z" i:knockout="Off" fill="#86A338"/>
      <path d="m254.92 68.076c-1.188-0.144-3.384 2.052-3.527 2.7-0.217 0.432 1.907-0.036 2.628 0.54 0.647 0.612 0.972 2.88 1.655 3.06 0.721 0.036 2.593-1.62 2.557-2.628-0.23-1.08-2.17-3.6-3.32-3.672z" i:knockout="Off" fill="#D1ECA9"/>
      <path d="m255.82 66.996c-1.188-0.144-3.384 2.052-3.528 2.7-0.216 0.432 1.908-0.036 2.628 0.54 0.648 0.612 0.973 2.88 1.656 3.06 0.72 0.036 2.592-1.62 2.556-2.628-0.23-1.08-2.17-3.6-3.32-3.672z" i:knockout="Off" fill="#86A338"/>
      <path d="m218.88 198.76c-0.252 0.469 3.924 3.42 5.184 3.457 1.008-0.037 2.34-2.988 1.512-3.457-0.89-0.62-6.55-0.62-6.69 0z" i:knockout="Off" fill="#D1ECA9"/>
      <path d="m219.78 197.96c-0.252 0.467 3.924 3.42 5.184 3.455 1.008-0.035 2.34-2.988 1.512-3.455-0.89-0.61-6.55-0.61-6.69 0z" i:knockout="Off" fill="#86A338"/>
      <path d="m171.07 237.35c-0.252 0.469 3.924 3.42 5.184 3.457 1.08-0.037 2.376-2.988 1.548-3.457-0.9-0.61-6.51-0.61-6.73 0z" i:knockout="Off" fill="#D1ECA9"/>
      <path d="m171.97 236.56c-0.252 0.467 3.924 3.42 5.184 3.455 1.008-0.035 2.34-2.988 1.512-3.455-0.89-0.62-6.54-0.62-6.69 0z" i:knockout="Off" fill="#86A338"/>
      <path d="m296.86 110.7c-0.252 0.468 3.924 3.42 5.184 3.456 1.08-0.036 2.376-2.988 1.548-3.456-0.9-0.61-6.52-0.61-6.73 0z" i:knockout="Off" fill="#D1ECA9"/>
      <path d="m297.76 109.91c-0.252 0.468 3.925 3.42 5.185 3.456 1.08-0.036 2.376-2.988 1.548-3.456-0.9-0.61-6.52-0.61-6.73 0z" i:knockout="Off" fill="#86A338"/>
      <path d="m336.31 201.28c-0.433 1.045 6.66 5.617 8.64 5.797 1.908-0.18 3.924-4.752 2.592-5.797-1.54-1.01-10.8-1.01-11.23 0z" i:knockout="Off" fill="#D1ECA9"/>
      <path d="m337.79 199.94c-0.468 1.045 6.732 5.617 8.676 5.797 1.872-0.18 3.889-4.752 2.557-5.797-1.56-1-10.81-1-11.24 0z" i:knockout="Off" fill="#86A338"/>
      <path d="m293.54 271.73c-0.432 0.936 6.66 5.723 8.641 5.76 1.907-0.037 3.924-4.824 2.592-5.76-1.54-1.01-10.79-1.01-11.23 0z" i:knockout="Off" fill="#D1ECA9"/>
      <path d="m295.02 270.4c-0.469 1.043 6.731 5.615 8.676 5.795 1.872-0.18 3.888-4.752 2.556-5.795-1.56-1.01-10.81-1.01-11.24 0z" i:knockout="Off" fill="#86A338"/>
      <path d="m374.87 308.63c-0.468 1.043 6.732 5.615 8.676 5.795 1.872-0.18 3.889-4.752 2.557-5.795-1.56-1-10.81-1-11.24 0.01z" i:knockout="Off" fill="#D1ECA9"/>
      <path d="m376.38 307.3c-0.432 1.043 6.66 5.615 8.641 5.795 1.908-0.18 3.924-4.752 2.592-5.795-1.55-1.01-10.8-1.01-11.23 0z" i:knockout="Off" fill="#86A338"/>
      <path d="m364 354.74c-0.432 1.045 6.66 5.615 8.64 5.797 1.908-0.182 3.925-4.752 2.593-5.797-1.55-1-10.8-1-11.23 0z" i:knockout="Off" fill="#D1ECA9"/>
      <path d="m365.47 353.41c-0.469 1.045 6.731 5.615 8.676 5.797 1.872-0.182 3.888-4.752 2.556-5.797-1.55-1.01-10.81-1.01-11.24 0z" i:knockout="Off" fill="#86A338"/>
      <path d="m405.07 324.54c-0.468 1.043 6.732 5.615 8.676 5.795 1.872-0.18 3.888-4.752 2.557-5.795-1.55-1.01-10.81-1.01-11.24 0z" i:knockout="Off" fill="#D1ECA9"/>
      <path d="m406.58 323.21c-0.432 1.043 6.66 5.615 8.641 5.795 1.907-0.18 3.924-4.752 2.592-5.795-1.54-1-10.79-1-11.23 0.01z" i:knockout="Off" fill="#86A338"/>
      <path d="m419.33 184.5c-0.468 1.044 6.732 5.615 8.676 5.797 1.872-0.182 3.889-4.753 2.557-5.797-1.56-1.01-10.81-1.01-11.24 0z" i:knockout="Off" fill="#D1ECA9"/>
      <path d="m420.84 183.17c-0.432 1.044 6.66 5.616 8.641 5.796 1.908-0.18 3.924-4.752 2.592-5.796-1.55-1.01-10.8-1.01-11.23 0z" i:knockout="Off" fill="#86A338"/>
      <path d="m249.08 180.32c-0.252 0.468 3.96 3.42 5.148 3.456 1.08-0.036 2.376-2.988 1.548-3.456-0.97-0.61-6.44-0.61-6.7 0z" i:knockout="Off" fill="#D1ECA9"/>
      <path d="m249.95 179.53c-0.252 0.468 3.924 3.42 5.184 3.456 1.08-0.036 2.376-2.988 1.549-3.456-0.9-0.61-6.52-0.61-6.73 0z" i:knockout="Off" fill="#86A338"/>
      <path d="m290.16 73.8c-0.252 0.468 3.924 3.42 5.184 3.456 1.08-0.036 2.376-2.988 1.549-3.456-0.9-0.612-6.51-0.612-6.73 0z" i:knockout="Off" fill="#D1ECA9"/>
      <path d="m291.06 73.008c-0.252 0.468 3.924 3.42 5.184 3.456 1.008-0.036 2.34-2.988 1.512-3.456-0.89-0.612-6.55-0.612-6.69 0z" i:knockout="Off" fill="#86A338"/>
      <path d="m263.34 49.5c-0.252 0.468 3.96 3.42 5.148 3.456 1.08-0.036 2.376-2.988 1.548-3.456-0.98-0.612-6.45-0.612-6.7 0z" i:knockout="Off" fill="#D1ECA9"/>
      <path d="m264.24 48.708c-0.252 0.468 3.96 3.42 5.148 3.456 1.079-0.036 2.376-2.988 1.548-3.456-0.98-0.612-6.45-0.612-6.7 0z" i:knockout="Off" fill="#86A338"/>
      <path d="m222.84 62.748c-0.288 0.684 0.216 1.512 1.152 1.872 0.9 0.36 1.836 0.108 2.088-0.576 0.288-0.648-0.216-1.476-1.152-1.836-0.9-0.36-1.84-0.108-2.09 0.54z" i:knockout="Off" fill="#D1ECA9"/>
      <path d="m222.91 62.136c-0.252 0.684 0.252 1.512 1.152 1.872s1.872 0.108 2.124-0.54c0.252-0.684-0.252-1.512-1.152-1.872s-1.83-0.108-2.12 0.54z" i:knockout="Off" fill="#86A338"/>
      <path d="m231.23 80.352c-0.288 0.684 0.216 1.512 1.152 1.872 0.9 0.36 1.836 0.108 2.088-0.54 0.288-0.684-0.216-1.512-1.151-1.872-0.9-0.36-1.84-0.108-2.09 0.54z" i:knockout="Off" fill="#D1ECA9"/>
      <path d="m231.3 79.74c-0.252 0.684 0.251 1.512 1.152 1.872 0.9 0.36 1.872 0.108 2.124-0.54 0.252-0.684-0.252-1.512-1.152-1.872s-1.83-0.108-2.12 0.54z" i:knockout="Off" fill="#86A338"/>
      <path d="m266.44 96.3c-0.252 0.648 0.252 1.512 1.151 1.872 0.9 0.36 1.836 0.108 2.124-0.576 0.252-0.648-0.252-1.512-1.151-1.872-0.9-0.36-1.87-0.108-2.12 0.576z" i:knockout="Off" fill="#D1ECA9"/>
      <path d="m266.54 95.688c-0.288 0.684 0.252 1.512 1.152 1.872s1.836 0.108 2.124-0.576c0.252-0.648-0.252-1.476-1.188-1.836-0.89-0.396-1.82-0.144-2.08 0.54z" i:knockout="Off" fill="#86A338"/>
      <path d="m207.72 148.28c-0.252 0.684 0.252 1.512 1.152 1.872s1.872 0.108 2.124-0.54c0.288-0.684-0.252-1.512-1.152-1.872s-1.83-0.1-2.12 0.54z" i:knockout="Off" fill="#D1ECA9"/>
      <path d="m207.83 147.67c-0.252 0.684 0.252 1.512 1.152 1.872s1.836 0.108 2.124-0.54c0.252-0.684-0.252-1.512-1.152-1.872s-1.83-0.11-2.12 0.54z" i:knockout="Off" fill="#86A338"/>
      <path d="m183.42 216.22c-0.288 0.684 0.252 1.512 1.152 1.871s1.836 0.107 2.124-0.576c0.252-0.648-0.252-1.477-1.152-1.871-0.9-0.36-1.87-0.11-2.12 0.58z" i:knockout="Off" fill="#D1ECA9"/>
      <path d="m183.49 215.6c-0.252 0.686 0.252 1.512 1.152 1.873 0.9 0.359 1.872 0.107 2.124-0.576 0.288-0.648-0.252-1.477-1.152-1.836s-1.83-0.09-2.12 0.55z" i:knockout="Off" fill="#86A338"/>
      <path d="m198.5 276.59c-0.252 0.684 0.252 1.512 1.152 1.873 0.9 0.359 1.836 0.107 2.124-0.541 0.252-0.684-0.252-1.512-1.152-1.871-0.89-0.36-1.86-0.11-2.12 0.54z" i:knockout="Off" fill="#D1ECA9"/>
      <path d="m198.61 275.98c-0.288 0.684 0.252 1.512 1.152 1.871 0.9 0.361 1.836 0.109 2.088-0.539 0.288-0.684-0.216-1.512-1.152-1.873-0.9-0.36-1.84-0.11-2.09 0.54z" i:knockout="Off" fill="#86A338"/>
      <path d="m320.15 150.16c-0.468 1.188 0.432 2.664 2.052 3.276 1.584 0.648 3.24 0.216 3.744-0.972 0.468-1.188-0.432-2.664-2.052-3.312-1.58-0.62-3.27-0.19-3.74 1z" i:knockout="Off" fill="#D1ECA9"/>
      <path d="m320.33 149.08c-0.468 1.188 0.432 2.664 2.017 3.312 1.619 0.612 3.275 0.18 3.743-1.008 0.469-1.188-0.432-2.664-2.016-3.276-1.58-0.64-3.27-0.21-3.74 0.98z" i:knockout="Off" fill="#86A338"/>
      <path d="m317.63 209.7c-0.468 1.189 0.433 2.664 2.053 3.277 1.584 0.648 3.275 0.215 3.743-0.973 0.469-1.188-0.432-2.664-2.052-3.313-1.58-0.62-3.24-0.19-3.74 1z" i:knockout="Off" fill="#D1ECA9"/>
      <path d="m317.81 208.62c-0.469 1.189 0.432 2.664 2.052 3.313 1.584 0.613 3.24 0.18 3.744-1.008 0.468-1.188-0.433-2.664-2.053-3.275-1.58-0.64-3.27-0.21-3.74 0.98z" i:knockout="Off" fill="#86A338"/>
      <path d="m268.99 271.76c-0.468 1.152 0.432 2.664 2.052 3.277 1.584 0.646 3.276 0.215 3.744-0.973s-0.432-2.664-2.052-3.313c-1.58-0.65-3.23-0.18-3.74 1z" i:knockout="Off" fill="#D1ECA9"/>
      <path d="m269.17 270.68c-0.468 1.189 0.433 2.664 2.053 3.277 1.584 0.646 3.239 0.215 3.743-0.973 0.469-1.188-0.468-2.664-2.052-3.313-1.58-0.62-3.27-0.18-3.74 1z" i:knockout="Off" fill="#86A338"/>
      <path d="m309.24 332.96c-0.468 1.188 0.432 2.664 2.052 3.311 1.584 0.613 3.276 0.182 3.744-1.008 0.468-1.188-0.432-2.664-2.052-3.275-1.58-0.64-3.24-0.2-3.74 0.98z" i:knockout="Off" fill="#D1ECA9"/>
      <path d="m309.42 331.88c-0.468 1.188 0.433 2.664 2.053 3.311 1.584 0.648 3.239 0.182 3.743-1.008 0.469-1.152-0.432-2.627-2.052-3.275-1.58-0.64-3.27-0.2-3.74 0.98z" i:knockout="Off" fill="#86A338"/>
      <path d="m377.17 239.9c-0.468 1.152 0.433 2.627 2.053 3.275 1.584 0.648 3.275 0.18 3.743-0.971 0.469-1.189-0.432-2.664-2.052-3.313-1.58-0.65-3.23-0.18-3.74 1z" i:knockout="Off" fill="#D1ECA9"/>
      <path d="m377.35 238.82c-0.469 1.152 0.432 2.664 2.052 3.275 1.584 0.648 3.24 0.217 3.744-0.971 0.468-1.189-0.433-2.664-2.052-3.313-1.58-0.65-3.27-0.18-3.74 1z" i:knockout="Off" fill="#86A338"/>
      <path d="m403.2 143.46c-0.468 1.152 0.432 2.628 2.016 3.276s3.276 0.216 3.744-0.972c0.469-1.188-0.432-2.664-2.052-3.312-1.59-0.66-3.24-0.19-3.71 1z" i:knockout="Off" fill="#D1ECA9"/>
      <path d="m403.34 142.38c-0.469 1.188 0.432 2.664 2.052 3.276 1.584 0.648 3.275 0.216 3.744-0.972 0.468-1.188-0.433-2.664-2.053-3.312-1.58-0.62-3.27-0.19-3.74 1z" i:knockout="Off" fill="#86A338"/>
      <path d="m375.52 98.172c-0.469 1.152 0.432 2.664 2.016 3.276 1.584 0.648 3.276 0.216 3.744-0.972s-0.432-2.664-2.017-3.312c-1.62-0.652-3.28-0.184-3.74 1.004z" i:knockout="Off" fill="#D1ECA9"/>
      <path d="m375.7 97.092c-0.468 1.188 0.432 2.664 2.016 3.276 1.584 0.648 3.276 0.216 3.744-0.972s-0.432-2.664-2.052-3.312c-1.59-0.614-3.25-0.182-3.71 1.006z" i:knockout="Off" fill="#86A338"/>
      <path d="m426.67 238.21c-0.468 1.188 0.433 2.664 2.017 3.275 1.584 0.648 3.275 0.217 3.744-0.973 0.468-1.188-0.433-2.664-2.053-3.311-1.58-0.61-3.24-0.18-3.71 1.01z" i:knockout="Off" fill="#D1ECA9"/>
      <path d="m426.82 237.13c-0.468 1.188 0.432 2.664 2.052 3.311 1.584 0.613 3.276 0.182 3.744-1.008 0.468-1.188-0.432-2.664-2.052-3.275-1.58-0.65-3.24-0.22-3.74 0.97z" i:knockout="Off" fill="#86A338"/>
    </g>
  </g>
  <metadata>
    <rdf:RDF>
      <cc:Work>
        <dc:format>image/svg+xml</dc:format>
        <dc:type rdf:resource="http://purl.org/dc/dcmitype/StillImage"/>
        <cc:license rdf:resource="http://creativecommons.org/licenses/publicdomain/"/>
        <dc:publisher>
          <cc:Agent rdf:about="http://openclipart.org/">
            <dc:title>Openclipart</dc:title>
          </cc:Agent>
        </dc:publisher>
        <dc:title>Lime variations</dc:title>
        <dc:date>2007-11-16T03:04:52</dc:date>
        <dc:description/>
        <dc:source>https://openclipart.org/detail/8597/lime-variations-by-gerald_g-8597</dc:source>
        <dc:creator>
          <cc:Agent>
            <dc:title>Gerald_G</dc:title>
          </cc:Agent>
        </dc:creator>
        <dc:subject>
          <rdf:Bag>
            <rdf:li>food</rdf:li>
            <rdf:li>fruit</rdf:li>
            <rdf:li>lime</rdf:li>
          </rdf:Bag>
        </dc:subject>
      </cc:Work>
      <cc:License rdf:about="http://creativecommons.org/licenses/publicdomain/">
        <cc:permits rdf:resource="http://creativecommons.org/ns#Reproduction"/>
        <cc:permits rdf:resource="http://creativecommons.org/ns#Distribution"/>
        <cc:permits rdf:resource="http://creativecommons.org/ns#DerivativeWorks"/>
      </cc:License>
    </rdf:RDF>
  </metadata>
</svg>