<?xml version="1.0" encoding="UTF-8"?>
<!DOCTYPE svg PUBLIC "-//W3C//DTD SVG 1.1//EN" "http://www.w3.org/Graphics/SVG/1.1/DTD/svg11.dtd">
<svg version="1.1" xmlns="http://www.w3.org/2000/svg" xmlns:xlink="http://www.w3.org/1999/xlink" x="0" y="0" width="400" height="930" viewBox="0, 0, 400, 930">
  <defs>
    <linearGradient id="Gradient_1" gradientUnits="userSpaceOnUse" x1="1887.074" y1="1418.686" x2="3389.574" y2="1418.686" gradientTransform="matrix(0.072, 0, 0, 0.072, 0, 0)">
      <stop offset="0" stop-color="#EEE5A5"/>
      <stop offset="0.031" stop-color="#EEE5A5"/>
      <stop offset="0.871" stop-color="#B5AF7B"/>
      <stop offset="1" stop-color="#817D55"/>
    </linearGradient>
    <linearGradient id="Gradient_2" gradientUnits="userSpaceOnUse" x1="1685.273" y1="760.626" x2="3587.473" y2="760.626" gradientTransform="matrix(0.072, 0, 0, 0.072, 0, 0)">
      <stop offset="0" stop-color="#ED3237"/>
      <stop offset="0.031" stop-color="#ED3237"/>
      <stop offset="0.51" stop-color="#CF3034"/>
      <stop offset="0.831" stop-color="#B32D30"/>
      <stop offset="1" stop-color="#8E3133"/>
    </linearGradient>
  </defs>
  <g id="ãƒ_x00ac_ã_x201a__x00a4_ãƒ_x00a4_ãƒ_x00bc__x0020_1">
    <g>
      <path d="M382.394,625.823 C379.082,419.544 293.545,226.154 293.545,226.154 C270.073,179.21 258.336,104.259 258.336,104.259 C253.368,103.827 248.472,103.467 243.648,103.107 L244.08,93.963 C252.936,94.107 258.336,94.179 258.336,94.179 L254.952,30.46 C253.296,18.724 244.872,18.724 244.872,18.724 C196.272,12.028 140.903,18.724 140.903,18.724 C122.471,19.3 124.703,37.156 124.703,37.156 L121.319,97.563 C125.423,96.915 130.319,96.411 135.863,95.979 L135.863,104.475 C127.223,105.267 122.471,105.987 122.471,105.987 C116.855,166.899 90.071,228.386 90.071,228.386 C31.894,391.609 18.502,585.647 18.502,585.647 C8.422,662.758 35.278,855.645 35.278,855.645 C40.319,900.932 63.791,904.244 63.791,904.244 C156.024,926.06 322.057,907.556 322.057,907.556 C363.961,902.516 363.961,875.733 363.961,875.733 C397.514,781.845 382.394,625.823 382.394,625.823 z" fill="#343232"/>
      <path d="M382.394,625.823 C379.082,419.544 293.545,226.154 293.545,226.154 C270.073,179.21 258.336,104.259 258.336,104.259 C253.368,103.827 248.472,103.467 243.648,103.107 L244.08,93.963 C252.936,94.107 258.336,94.179 258.336,94.179 L254.952,30.46 C253.296,18.724 244.872,18.724 244.872,18.724 C196.272,12.028 140.903,18.724 140.903,18.724 C122.471,19.3 124.703,37.156 124.703,37.156 L121.319,97.563 C125.423,96.915 130.319,96.411 135.863,95.979 L135.863,104.475 C127.223,105.267 122.471,105.987 122.471,105.987 C116.855,166.899 90.071,228.386 90.071,228.386 C31.894,391.609 18.502,585.647 18.502,585.647 C8.422,662.758 35.278,855.645 35.278,855.645 C40.319,900.932 63.791,904.244 63.791,904.244 C156.024,926.06 322.057,907.556 322.057,907.556 C363.961,902.516 363.961,875.733 363.961,875.733 C397.514,781.845 382.394,625.823 382.394,625.823 z" fill-opacity="0" stroke="#343232" stroke-width="20"/>
    </g>
    <g>
      <g>
        <path d="M382.394,625.823 C379.082,419.544 293.545,226.154 293.545,226.154 C270.073,179.21 258.336,104.259 258.336,104.259 C253.368,103.827 248.472,103.467 243.648,103.107 L244.08,93.963 C252.864,94.107 258.336,94.179 258.336,94.179 L254.952,30.46 C253.296,18.724 244.872,18.724 244.872,18.724 C196.272,12.028 140.903,18.724 140.903,18.724 C122.471,19.3 124.703,37.156 124.703,37.156 L121.319,97.563 C125.423,96.915 130.391,96.411 135.863,95.979 L135.863,104.475 C127.295,105.267 122.471,105.987 122.471,105.987 C116.855,166.899 90.071,228.386 90.071,228.386 C31.894,391.609 18.502,585.647 18.502,585.647 C8.422,662.758 35.278,855.645 35.278,855.645 C40.319,900.932 63.791,904.244 63.791,904.244 C156.024,926.06 322.057,907.556 322.057,907.556 C363.961,902.516 363.961,875.733 363.961,875.733 C397.514,781.845 382.394,625.823 382.394,625.823 z" fill="#343232"/>
        <path d="M382.394,625.823 C379.082,419.544 293.545,226.154 293.545,226.154 C270.073,179.21 258.336,104.259 258.336,104.259 C253.368,103.827 248.472,103.467 243.648,103.107 L244.08,93.963 C252.864,94.107 258.336,94.179 258.336,94.179 L254.952,30.46 C253.296,18.724 244.872,18.724 244.872,18.724 C196.272,12.028 140.903,18.724 140.903,18.724 C122.471,19.3 124.703,37.156 124.703,37.156 L121.319,97.563 C125.423,96.915 130.391,96.411 135.863,95.979 L135.863,104.475 C127.295,105.267 122.471,105.987 122.471,105.987 C116.855,166.899 90.071,228.386 90.071,228.386 C31.894,391.609 18.502,585.647 18.502,585.647 C8.422,662.758 35.278,855.645 35.278,855.645 C40.319,900.932 63.791,904.244 63.791,904.244 C156.024,926.06 322.057,907.556 322.057,907.556 C363.961,902.516 363.961,875.733 363.961,875.733 C397.514,781.845 382.394,625.823 382.394,625.823 z" fill-opacity="0" stroke="#343232" stroke-width="11.577" stroke-linejoin="round"/>
      </g>
      <g>
        <g>
          <path d="M135.863,94.179 L135.863,110.955 L243.216,110.955 L244.08,93.315 z" fill="url(#Gradient_1)"/>
          <path d="M135.863,94.179 L135.863,110.955 L243.216,110.955 L244.08,93.315 z" fill-opacity="0" stroke="#343232" stroke-width="3.354"/>
        </g>
        <g>
          <path d="M122.471,105.915 C122.471,105.915 182.88,97.491 258.336,104.259 C258.336,104.259 270.073,179.139 293.545,226.154 C293.545,226.154 379.082,419.544 382.394,625.823 C382.394,625.823 397.514,781.773 363.961,875.733 C363.961,875.733 363.961,902.588 322.057,907.556 C322.057,907.556 156.024,925.988 63.791,904.244 C63.791,904.244 40.319,900.932 35.278,855.645 C35.278,855.645 8.422,662.758 18.502,585.647 C18.502,585.647 31.894,391.681 90.071,228.386 C90.071,228.386 116.927,166.899 122.471,105.987 z" fill="#FFFAC7"/>
          <path d="M122.471,105.915 C122.471,105.915 182.88,97.491 258.336,104.259 C258.336,104.259 270.073,179.139 293.545,226.154 C293.545,226.154 379.082,419.544 382.394,625.823 C382.394,625.823 397.514,781.773 363.961,875.733 C363.961,875.733 363.961,902.588 322.057,907.556 C322.057,907.556 156.024,925.988 63.791,904.244 C63.791,904.244 40.319,900.932 35.278,855.645 C35.278,855.645 8.422,662.758 18.502,585.647 C18.502,585.647 31.894,391.681 90.071,228.386 C90.071,228.386 116.927,166.899 122.471,105.987 z" fill-opacity="0" stroke="#343232" stroke-width="3.354"/>
        </g>
        <path d="M246.528,116.571 C246.528,116.571 273.385,216.65 281.737,260.21 C281.737,260.21 362.233,582.191 331.489,778.029 C331.489,778.029 303.553,882.357 271.657,890.78 C271.657,890.78 253.224,900.86 222.984,902.516 C222.984,902.516 342.073,914.252 358.849,868.965 C358.849,868.965 407.522,709.63 353.809,443.016 C353.809,443.016 331.993,344.089 293.473,241.778 C293.473,241.778 246.528,132.195 246.528,116.571 z" fill="#D1C880"/>
        <path d="M147.599,131.043 C147.599,131.043 33.55,375.913 38.59,624.095 C38.59,624.095 36.934,699.55 38.59,733.102 L93.959,733.102 C93.959,733.102 87.263,479.88 132.551,365.833 C132.551,365.833 187.92,169.635 174.456,127.659 L147.599,130.971 z" fill="#FEFEFE"/>
        <path d="M251.568,297.073 C251.568,297.073 311.977,476.496 303.553,672.766 C303.553,672.766 363.961,575.495 251.568,297.073 z" fill="#FEFEFE"/>
        <g>
          <path d="M121.319,97.491 L124.703,37.084 C124.703,37.084 122.471,19.228 140.903,18.652 C140.903,18.652 196.272,11.956 244.872,18.652 C244.872,18.652 253.296,18.652 254.952,30.388 L258.336,94.107 C258.336,94.107 157.679,91.875 121.391,97.419 z" fill="url(#Gradient_2)"/>
          <path d="M121.319,97.491 L124.703,37.084 C124.703,37.084 122.471,19.228 140.903,18.652 C140.903,18.652 196.272,11.956 244.872,18.652 C244.872,18.652 253.296,18.652 254.952,30.388 L258.336,94.107 C258.336,94.107 157.679,91.875 121.391,97.419 z" fill-opacity="0" stroke="#343232" stroke-width="3.354"/>
        </g>
        <path d="M185.976,19.3 C186.624,31.396 186.768,43.492 186.84,55.66 C186.84,67.755 186.696,79.851 185.976,92.019 C185.328,79.923 185.184,67.827 185.112,55.66 C185.112,43.564 185.256,31.468 185.976,19.3 z" fill="#343232"/>
        <path d="M195.336,19.3 C195.984,31.396 196.128,43.492 196.2,55.66 C196.2,67.755 196.056,79.851 195.336,92.019 C194.688,79.923 194.544,67.827 194.472,55.66 C194.472,43.564 194.616,31.468 195.336,19.3 z" fill="#343232"/>
        <path d="M204.768,19.3 C205.416,31.396 205.56,43.492 205.632,55.66 C205.632,67.755 205.488,79.851 204.768,92.019 C204.12,79.923 203.976,67.827 203.904,55.66 C203.904,43.564 204.048,31.468 204.768,19.3 z" fill="#343232"/>
        <path d="M214.128,19.3 C214.776,31.396 214.92,43.492 214.992,55.66 C214.992,67.755 214.848,79.851 214.128,92.019 C213.48,79.923 213.336,67.827 213.264,55.66 C213.264,43.564 213.408,31.468 214.128,19.3 z" fill="#343232"/>
        <path d="M223.56,20.956 C224.352,32.764 224.712,44.644 224.856,56.452 C225,68.259 225,80.139 224.496,91.947 C223.704,80.139 223.344,68.259 223.2,56.452 C223.056,44.644 223.056,32.764 223.56,20.956 z" fill="#343232"/>
        <path d="M234,21.964 C234.936,33.628 235.368,45.292 235.656,56.884 C235.944,68.547 236.088,80.211 235.728,91.875 C234.792,80.211 234.36,68.547 234.072,56.956 C233.784,45.292 233.64,33.628 234,21.964 z" fill="#343232"/>
        <path d="M245.232,23.62 C246.168,34.996 246.528,46.372 246.816,57.748 C247.032,69.123 247.176,80.499 246.816,91.947 C245.88,80.571 245.52,69.195 245.232,57.82 C245.016,46.444 244.872,35.068 245.232,23.62 z" fill="#343232"/>
        <path d="M176.544,19.3 C177.192,31.396 177.336,43.492 177.408,55.66 C177.408,67.755 177.264,79.851 176.544,92.019 C175.896,79.923 175.752,67.827 175.68,55.66 C175.68,43.564 175.824,31.468 176.544,19.3 z" fill="#343232"/>
        <path d="M167.184,19.3 C167.832,31.396 167.976,43.492 168.048,55.66 C168.048,67.755 167.904,79.851 167.184,92.019 C166.536,79.923 166.392,67.827 166.32,55.66 C166.32,43.564 166.464,31.468 167.184,19.3 z" fill="#343232"/>
        <path d="M157.752,20.956 C158.256,32.836 158.184,44.644 158.04,56.452 C157.824,68.259 157.536,80.139 156.672,91.947 C156.167,80.067 156.24,68.259 156.383,56.452 C156.6,44.644 156.888,32.764 157.752,20.956 z" fill="#343232"/>
        <path d="M147.455,22.036 C147.815,33.7 147.599,45.364 147.311,57.028 C146.951,68.691 146.519,80.355 145.583,91.947 C145.223,80.283 145.439,68.619 145.727,56.956 C146.087,45.292 146.519,33.628 147.455,22.036 z" fill="#343232"/>
        <path d="M136.295,23.764 C136.655,35.14 136.511,46.588 136.223,57.964 C135.935,69.339 135.431,80.715 134.495,92.091 C134.135,80.715 134.279,69.267 134.567,57.892 C134.927,46.516 135.359,35.14 136.295,23.764 z" fill="#343232"/>
      </g>
    </g>
  </g>
</svg>
