<svg xmlns:inkscape="http://www.inkscape.org/namespaces/inkscape" xmlns:rdf="http://www.w3.org/1999/02/22-rdf-syntax-ns#" xmlns="http://www.w3.org/2000/svg" xmlns:sodipodi="http://sodipodi.sourceforge.net/DTD/sodipodi-0.dtd" xmlns:cc="http://creativecommons.org/ns#" xmlns:xlink="http://www.w3.org/1999/xlink" xmlns:dc="http://purl.org/dc/elements/1.1/" xmlns:svg="http://www.w3.org/2000/svg" xmlns:ns1="http://sozi.baierouge.fr" id="svg2" sodipodi:docname="honeydew.svg" viewBox="0 0 520 350" sodipodi:version="0.32" version="1.0" inkscape:output_extension="org.inkscape.output.svg.inkscape" inkscape:version="0.46" sodipodi:docbase="/home/aj/art/vector">
  <defs id="defs4">
    <linearGradient id="linearGradient2860">
      <stop id="stop2862" style="stop-color:black" offset="0"/>
      <stop id="stop2866" style="stop-color:black;stop-opacity:0" offset="1"/>
    </linearGradient>
    <linearGradient id="linearGradient2780">
      <stop id="stop2782" style="stop-color:#8a8851" offset="0"/>
      <stop id="stop2784" style="stop-color:#cfd772" offset=".5"/>
      <stop id="stop2786" style="stop-color:#b6b45b;stop-opacity:0" offset="1"/>
    </linearGradient>
    <linearGradient id="linearGradient2760">
      <stop id="stop2762" style="stop-color:#fcffba" offset="0"/>
      <stop id="stop2768" style="stop-color:#e6ebb3" offset=".71429"/>
      <stop id="stop2764" style="stop-color:#adbc74" offset="1"/>
    </linearGradient>
    <radialGradient id="radialGradient3091" fx="312.68" fy="489.33" xlink:href="#linearGradient2780" gradientUnits="userSpaceOnUse" cy="483.14" cx="318.05" gradientTransform="matrix(1.2353 0 0 1.7353 -73.682 -355.25)" r="17.173" inkscape:collect="always"/>
    <radialGradient id="radialGradient3093" xlink:href="#linearGradient2780" gradientUnits="userSpaceOnUse" cy="472.89" cx="305.01" gradientTransform="matrix(1 0 0 .98069 0 9.1313)" r="44.257" inkscape:collect="always"/>
    <radialGradient id="radialGradient3145" xlink:href="#linearGradient2780" gradientUnits="userSpaceOnUse" cy="469.44" cx="312.86" gradientTransform="matrix(1 0 0 1.935 -47.382 -433.44)" r="41.299" inkscape:collect="always"/>
    <linearGradient id="linearGradient3148" y2="493.26" xlink:href="#linearGradient2860" gradientUnits="userSpaceOnUse" x2="676.6" gradientTransform="matrix(1.028 0 0 1.028 -389.38 -9.5063)" y1="594.2" x1="625.82" inkscape:collect="always"/>
    <radialGradient id="radialGradient3151" fx="375.89" fy="403.21" xlink:href="#linearGradient2760" spreadMethod="reflect" gradientUnits="userSpaceOnUse" cy="431.97" cx="420.52" gradientTransform="matrix(.98978 -.21231 .099231 .46262 -87.702 344.99)" r="158.77" inkscape:collect="always"/>
    <radialGradient id="radialGradient3156" fx="460.86" fy="405.6" xlink:href="#linearGradient2760" gradientUnits="userSpaceOnUse" cy="454.99" cx="433.98" gradientTransform="matrix(1.1934 -.044537 .035466 .95029 -145.65 52.499)" r="158.77" inkscape:collect="always"/>
    <radialGradient id="radialGradient3204" fx="467.15" fy="649.33" xlink:href="#linearGradient2860" gradientUnits="userSpaceOnUse" cy="602.64" cx="409.41" gradientTransform="matrix(1 0 0 .24215 0 456.71)" r="157.68" inkscape:collect="always"/>
    <radialGradient id="radialGradient3206" fx="637.58" fy="459.58" xlink:href="#linearGradient2760" gradientUnits="userSpaceOnUse" cy="502.93" cx="606.1" gradientTransform="matrix(1.0808 -.15236 .095230 0.699 -174.47 289.38)" r="156.03" inkscape:collect="always"/>
    <linearGradient id="linearGradient3208" y2="602.02" xlink:href="#linearGradient2860" gradientUnits="userSpaceOnUse" x2="606.43" gradientTransform="translate(-47.382 5.4736)" y1="327.52" x1="470.69" inkscape:collect="always"/>
    <radialGradient id="radialGradient3210" fx="574.95" fy="475.74" gradientUnits="userSpaceOnUse" cy="538.28" cx="575.91" gradientTransform="matrix(.99062 -.12073 .052098 .42746 -70.026 383.19)" r="150.85" inkscape:collect="always">
      <stop id="stop2968" style="stop-color:#fdffe0" offset="0"/>
      <stop id="stop2974" style="stop-color:#f4fec0" offset=".74286"/>
      <stop id="stop2970" style="stop-color:#b0d286" offset="1"/>
    </radialGradient>
    <radialGradient id="radialGradient3212" fx="536.03" fy="649.26" xlink:href="#linearGradient2760" gradientUnits="userSpaceOnUse" cy="602.89" cx="567.66" gradientTransform="matrix(.63670 -.048818 .046428 .39878 139.1 354.91)" r="150.85" inkscape:collect="always"/>
    <linearGradient id="linearGradient3214" y2="539.68" spreadMethod="reflect" gradientUnits="userSpaceOnUse" x2="524.59" gradientTransform="matrix(.99952 .031072 -.031072 .99952 -30.398 -12.203)" y1="543.68" x1="518.84" inkscape:collect="always">
      <stop id="stop2806" style="stop-color:white" offset="0"/>
      <stop id="stop2810" style="stop-color:white;stop-opacity:0" offset="1"/>
    </linearGradient>
    <linearGradient id="linearGradient3216" y2="542.64" xlink:href="#linearGradient2860" spreadMethod="reflect" gradientUnits="userSpaceOnUse" x2="526.18" gradientTransform="matrix(.99952 .031072 -.031072 .99952 -30.398 -12.203)" y1="543.68" x1="518.84" inkscape:collect="always"/>
    <linearGradient id="linearGradient3218" y2="519.87" xlink:href="#linearGradient2860" gradientUnits="userSpaceOnUse" x2="623.85" gradientTransform="matrix(.99952 .031072 -.031072 .99952 -30.398 -12.203)" y1="552.52" x1="643.25" inkscape:collect="always"/>
    <linearGradient id="linearGradient3220" y2="527.64" xlink:href="#linearGradient2860" gradientUnits="userSpaceOnUse" x2="626.09" gradientTransform="matrix(.99952 .033713 -.031072 1.0844 -30.398 -61.415)" y1="492.35" x1="620.87" inkscape:collect="always"/>
  </defs>
  <sodipodi:namedview id="base" inkscape:zoom="0.35355339" height="350px" borderopacity="1.0" inkscape:current-layer="g3173" inkscape:cx="278.17593" inkscape:window-y="179" showgrid="false" width="520px" inkscape:guide-bbox="true" showguides="true" bordercolor="#666666" inkscape:window-x="234" guidetolerance="10" objecttolerance="10" inkscape:window-width="1000" inkscape:pageopacity="0.0" inkscape:pageshadow="2" pagecolor="#ffffff" gridtolerance="10000" inkscape:cy="193.58765" inkscape:document-units="px" inkscape:window-height="786"/>
  <g id="layer1" inkscape:label="Layer 1" inkscape:groupmode="layer" transform="translate(-210.93 -339.96)">
    <g id="g3173" transform="translate(44)">
      <path id="path2953" sodipodi:rx="157.68481" sodipodi:ry="38.183765" style="opacity:.36154;color:black;fill-rule:evenodd;fill:url(#radialGradient3204)" sodipodi:type="arc" d="m567.1 602.64a157.68 38.184 0 1 1 -315.37 0 157.68 38.184 0 1 1 315.37 0z" transform="matrix(1.1089 0 0 .77778 -108.23 131.74)" sodipodi:cy="602.64227" sodipodi:cx="409.41483"/>
      <path id="path1872" sodipodi:nodetypes="czzzzzzz" style="stroke-opacity:.19608;fill-rule:evenodd;stroke:black;stroke-width:1px;fill:url(#radialGradient3156)" d="m224.35 475.99c3.03-51.18 45.29-111.79 92.93-123.24 47.65-11.45 115.36-11.79 162.64 25.25 46.79 36.66 51.14 47.15 58.59 75.76 6.39 24.58-2.19 76.27-22.23 102.03-20.03 25.76-52.36 48.32-97.98 52.53-45.63 4.21-102.03-3.37-139.4-30.31-37.38-26.93-57.58-50.92-54.55-102.02z"/>
      <path id="path2770" sodipodi:rx="17.172594" sodipodi:ry="29.7995" style="opacity:.4;fill-rule:evenodd;color:black;fill:url(#radialGradient3091)" sodipodi:type="arc" d="m330.32 483.14a17.173 29.8 0 1 1 -34.35 0 17.173 29.8 0 1 1 34.35 0z" transform="matrix(.99857 .053498 .053498 -.99857 -81.872 946.23)" sodipodi:cy="483.14124" sodipodi:cx="313.14728"/>
      <path id="path2788" style="opacity:.44615;fill-rule:evenodd;fill:url(#radialGradient3093)" sodipodi:type="star" d="m318.22 429.53c3.38 1.38-10.97 32.04-8.02 34.13 2.96 2.09 28.9-16.62 30.71-13.42s-24.09 15.54-23.58 19.17c0.5 3.63 32.28 7.13 31.93 10.78-0.35 3.66-30.79-1.66-32.73 1.44-1.94 3.09 19.89 21.88 17.2 24.27s-22.82-22.37-26.29-21.13c-3.46 1.24 2.7 31.36-0.87 31.53-3.56 0.16-4.52-29.73-7.94-31.08-3.42-1.36-17.59 26.59-20.41 24.44-2.81-2.14 16.63-25.53 14.87-28.7s-31.71 6.13-32.33 2.55c-0.62-3.57 29.28-8.06 29.56-11.59s-27.79-16.49-25.97-19.6c1.82-3.12 28.32 14.21 30.83 11.68 2.52-2.52-9.18-31.71-5.81-33.1 3.36-1.39 12.33 31.93 15.88 31.64 3.55-0.3 9.59-34.39 12.97-33.01z" sodipodi:r1="44.721359" inkscape:flatsided="false" transform="matrix(.57327 .071710 -.12268 .98072 144.32 -7.786)" sodipodi:arg2="-0.89997995" sodipodi:arg1="-1.2490458" inkscape:randomized="0.044" sodipodi:cy="473.54477" sodipodi:cx="304.05591" inkscape:rounded="0.11" sodipodi:r2="12.969194" sodipodi:sides="9"/>
      <path id="path2840" sodipodi:nodetypes="czzzzzzz" style="opacity:.22308;stroke-opacity:.19608;fill-rule:evenodd;stroke:black;stroke-width:1px;fill:url(#radialGradient3151)" d="m224.35 475.99c3.03-51.18 45.29-111.79 92.93-123.24 47.65-11.45 115.36-11.79 162.64 25.25 46.79 36.66 51.14 47.15 58.59 75.76 6.39 24.58-2.19 76.27-22.23 102.03-20.03 25.76-52.36 48.32-97.98 52.53-45.63 4.21-102.03-3.37-139.4-30.31-37.38-26.93-57.58-50.92-54.55-102.02z"/>
      <path id="path3052" sodipodi:nodetypes="czzzzzzz" style="opacity:.38994;fill-rule:evenodd;color:black;fill:url(#linearGradient3148)" d="m224.35 475.99c3.03-51.18 45.29-111.79 92.93-123.24 47.65-11.45 115.36-11.79 162.64 25.25 46.79 36.66 51.14 47.15 58.59 75.76 6.39 24.58-2.19 76.27-22.23 102.03-20.03 25.76-52.36 48.32-97.98 52.53-45.63 4.21-102.03-3.37-139.4-30.31-37.38-26.93-57.58-50.92-54.55-102.02z"/>
      <path id="path2822" style="opacity:.23077;fill-rule:evenodd;fill:url(#radialGradient3145)" d="m264.31 395c-3.19 0.24-4.15 56.01-7.25 57.94-2.69 1.67-8.66-32.38-12.1-39.69-0.52 0.89-1.02 1.8-1.53 2.69 1.72 10.19 11.85 36 9.78 39.6-1.73 3.01-13.21-10.16-20.56-16.6-0.81 2.16-1.61 4.33-2.31 6.5 5.96 9.66 16.6 23.24 15.68 27.03-0.96 3.99-14.22 1.03-21.53 1.41-0.05 0.7-0.11 1.4-0.15 2.09-0.08 1.23-0.11 2.43-0.16 3.63 7.66 2.29 22.51 2.76 22.56 6.84 0.05 3.72-12.66 13.68-20.75 21.38 0.34 1.78 0.71 3.54 1.13 5.25 7.96-6.3 19.43-17.3 20.62-14.5 1.34 3.14-9.01 22.39-13.47 33.5 0.67 1.26 1.34 2.52 2.07 3.75 6.25-9.78 17.71-33.93 19.93-32.53 2.41 1.51-6.35 36.51-7.68 48.84 0.53 0.58 1.07 1.17 1.62 1.75 3.02-10.08 7.04-47.39 9.78-47.94 3.2-0.64 9.26 50.54 12.41 48.85 3.15-1.7-4.94-49.73-2.03-53.04 2.91-3.3 18.19 37.45 20.62 33.35 2.44-4.1-18.54-34.07-16.78-39.13s26.13 12.15 27.6 6.85c1.46-5.31-23.73-14.99-23.22-20.69 0.5-5.7 28.54-17.87 28.18-23.34-0.36-5.48-25.04 11.25-26.15 6.09s21.41-33.62 19.94-38.22c-1.48-4.6-23.63 34.53-26 31.5-2.38-3.03 14.01-54.61 11.34-57.22s-13.23 47.76-16.31 47c-3.09-0.76-2.1-53.17-5.28-52.94z"/>
      <path id="path2943" sodipodi:rx="7.4246211" sodipodi:ry="12.374369" style="opacity:.21538;stroke-linejoin:round;stroke-opacity:.61240;color:black;stroke:black;stroke-linecap:round;fill:none" sodipodi:type="arc" d="m317.49 471.47a7.4246 12.374 0 1 1 -14.85 0 7.4246 12.374 0 1 1 14.85 0z" transform="matrix(.73231 0 0 .73231 34.326 133.8)" sodipodi:cy="471.47397" sodipodi:cx="310.06631"/>
    </g>
    <g id="g3160" transform="translate(44)">
      <path id="path2990" sodipodi:rx="157.68481" sodipodi:ry="38.183765" style="opacity:.36154;fill-rule:evenodd;color:black;fill:url(#radialGradient3204)" sodipodi:type="arc" d="m567.1 602.64a157.68 38.184 0 1 1 -315.37 0 157.68 38.184 0 1 1 315.37 0z" transform="matrix(1.1089 0 0 .77778 27.975 186.06)" sodipodi:cy="602.64227" sodipodi:cx="409.41483"/>
      <path id="path2984" sodipodi:nodetypes="cscssscc" style="fill-rule:evenodd;fill:url(#radialGradient3206)" d="m537.41 530.84c-36.57 4.94-71.58 12.59-101.55 21.07-19.92 5.62-39.27-1.35-56.46 9.03-2.56 43.29 28.41 71.12 62.82 86.95 40.58 18.68 93.69 20.99 136.49 10.79s70.51-36.46 86.14-64.18c9.55-16.94 13.76-42.7 13.45-65.44-44.67-6.43-94.06-4.55-140.89 1.78z"/>
      <path id="path3046" sodipodi:nodetypes="cscssscc" style="fill-rule:evenodd;fill:url(#linearGradient3208)" d="m537.41 530.84c-36.57 4.94-71.58 12.59-101.55 21.07-19.92 5.62-39.27-1.35-56.46 9.03-2.56 43.29 28.41 71.12 62.82 86.95 40.58 18.68 93.69 20.99 136.49 10.79s70.51-36.46 86.14-64.18c9.55-16.94 13.76-42.7 13.45-65.44-44.67-6.43-94.06-4.55-140.89 1.78z"/>
      <path id="path2963" sodipodi:nodetypes="csssz" style="stroke-linejoin:round;stroke-opacity:.19608;fill-rule:evenodd;color:black;stroke:black;stroke-linecap:round;stroke-width:.99062;fill:url(#radialGradient3210)" d="m676.35 520.92c9.62 34.76-43.76 74.09-138.64 84.48-82.25 9.01-150.81-3.56-157.65-38.74-6.58-33.78 56.35-75.76 138.63-84.48 87.96-9.33 148.04 3.99 157.66 38.74z"/>
      <path id="path2994" sodipodi:nodetypes="csssz" style="opacity:.76923;fill-rule:evenodd;color:black;fill:url(#radialGradient3212)" d="m609.2 524.77c5.25 17.06-23.88 36.37-75.66 41.47-44.89 4.42-82.3-1.75-86.04-19.02-3.59-16.58 30.75-37.19 75.66-41.47 48-4.58 80.79 1.96 86.04 19.02z"/>
      <path id="path3004" style="opacity:.71698;fill-rule:evenodd;color:black;fill:url(#linearGradient3214)" d="m574.39 519.97c-14.23-0.37-32.26 1.05-53.06 4.23-34.47 5.26-62.05 16.9-70.6 27.19 10.53 12.5 43.41 17.54 82.07 14.94 0.56-0.04 1.11-0.07 1.66-0.11 0.27-0.04 0.52-0.09 0.79-0.13 51.29-7.95 79.17-24.04 72.92-35.66-3.51-6.54-15.49-9.98-33.78-10.46z"/>
      <path id="path3017" style="stroke-linejoin:round;stroke-opacity:.56329;stroke:white;stroke-linecap:round;stroke-width:3.3;fill:none" d="m461.12 557.84l48.5-4.5 56-13 41.5-14.5"/>
      <path id="path3019" style="opacity:.056604;fill-rule:evenodd;color:black;fill:url(#linearGradient3216)" d="m574.39 519.97c-14.23-0.37-32.26 1.05-53.06 4.23-34.47 5.26-62.05 16.9-70.6 27.19 10.53 12.5 43.41 17.54 82.07 14.94 0.56-0.04 1.11-0.07 1.66-0.11 0.27-0.04 0.52-0.09 0.79-0.13 51.29-7.95 79.17-24.04 72.92-35.66-3.51-6.54-15.49-9.98-33.78-10.46z"/>
      <path id="path3023" style="opacity:.23270;fill-rule:evenodd;color:black;fill:url(#linearGradient3218)" d="m574.39 519.97c-14.23-0.37-32.26 1.05-53.06 4.23-34.47 5.26-62.05 16.9-70.6 27.19 10.53 12.5 43.41 17.54 82.07 14.94 0.56-0.04 1.11-0.07 1.66-0.11 0.27-0.04 0.52-0.09 0.79-0.13 51.29-7.95 79.17-24.04 72.92-35.66-3.51-6.54-15.49-9.98-33.78-10.46z"/>
      <path id="path3027" style="opacity:.23270;fill-rule:evenodd;color:black;fill:url(#linearGradient3220)" d="m574.39 515.98c-14.23-0.41-32.26 1.14-53.06 4.58-34.47 5.71-62.05 18.34-70.6 29.51 10.53 13.55 43.41 19.02 82.07 16.2 0.56-0.04 1.11-0.07 1.66-0.11 0.27-0.05 0.52-0.1 0.79-0.15 51.29-8.62 79.17-26.07 72.92-38.68-3.51-7.1-15.49-10.84-33.78-11.35z"/>
      <path id="path3031" sodipodi:nodetypes="csssssssssssssssssssssssssssssssssssssssssssssss" style="stroke-opacity:.70886;stroke:white;stroke-linecap:round;stroke-dasharray:5.8, 11.6;stroke-width:2.9;fill:none" d="m469.5 557.34c-3.41-2.81-5.89-9.26-9.44-12.98-2.89-3.04 0.31-3.64 2.56-2.44 5.58 2.96 5.29 5.21 7.75 10.44 0.19 0.4 0.31 0.84 0.47 1.26 1.13 3.03 3.24 3.08 6.17 3.15 0.2 0-6.91-12.8-7.39-14.93-0.91-4.05-1.98-6.18 4.09-3.41 8.82 4.04 10.69 12.77 14.26 20.35 0.92 1.95 5.54 8.89 5.69 2.39 0.16-6.38-9.96-14.6-11.19-23.28-1.07-7.57 5.06-6.01 8.77-0.54 5.64 8.35 7.87 17.26 12.87 26.07 3.55 6.26 4.68-1.79 1.16-6.72-3.81-5.36-3.73-11.12-9.8-18.74-0.36-0.46 0.03-1.17 0.05-1.75 0.15-6.3 13.48 7.75 13.56 7.83 5.88 5.4 5.71 17.01 12.49 21.3 7.92 5.02-6.11-19.15-6.28-19.4-3.64-5.1-8.5-10.47-8.35-16.96 0.14-5.77 13.2 11.43 13.47 11.83 3.88 5.71 2.43 9.98 8.12 15.95 2.95 3.09 7.73 10.88 6.46 1.9-0.94-6.57-3.88-15.33-6.74-21.41-1.02-2.16-3.39-7.84-1.02-9.53 7.04-5.02 11.92 14.05 12.59 17.06 1.25 5.56 2.98 9.7 7.7 12.69 4.76 3.01-0.04-8.5-0.52-9.52-2.18-4.63-4.99-10.94-4.87-16.12 0.05-2.09-0.49-4.05 1.36-4.47 3.15-0.71 10.2 13.85 11.1 16.77 2 6.5 5.81 11.41 12.44 13.06 5.62 1.39-8.54-19.8-8.76-20.22-2.13-3.94-5.22-10.58-3.4-14.84 1.28-2.98 12.39 6.41 13.28 9.33 0.97 3.17 3.46 10.8 4.94 12.87 1.69 2.37 3.17 2.81 5.12 5.37 2.22 2.91 2.56-2.23 2.59-3.44 0.1-4.11-1.27-9.25-2.69-13.06-1.48-3.98-3.35-6.29-3.24-10.58 0-0.35 9.56-2.26 13.7 2.08 3.21 3.36 2.79 10.73 5.14 14.87 0.33 0.59 0.64 1.19 0.96 1.78 0.94 1.74 5.04 2.67 5.98 0.89 1.4-2.63-1.79-8.01-3-10.57-0.94-2 0.65-2.88 2.08-3.2 2.41-0.54 4.39 4.64 4.34 6.6-0.01 0.52 1.23 1.49 1.46 1.79"/>
    </g>
  </g>
  <metadata>
    <rdf:RDF>
      <cc:Work>
        <dc:format>image/svg+xml</dc:format>
        <dc:type rdf:resource="http://purl.org/dc/dcmitype/StillImage"/>
        <cc:license rdf:resource="http://creativecommons.org/licenses/publicdomain/"/>
        <dc:publisher>
          <cc:Agent rdf:about="http://openclipart.org/">
            <dc:title>Openclipart</dc:title>
          </cc:Agent>
        </dc:publisher>
        <dc:title>Honeydew Melon</dc:title>
        <dc:date>2008-07-18T20:10:49</dc:date>
        <dc:description/>
        <dc:source>https://openclipart.org/detail/17942/honeydew-melon-by-aj</dc:source>
        <dc:creator>
          <cc:Agent>
            <dc:title>AJ</dc:title>
          </cc:Agent>
        </dc:creator>
        <dc:subject>
          <rdf:Bag>
            <rdf:li>fruit</rdf:li>
            <rdf:li>green</rdf:li>
            <rdf:li>melon</rdf:li>
            <rdf:li>photorealistic</rdf:li>
            <rdf:li>yellow</rdf:li>
          </rdf:Bag>
        </dc:subject>
      </cc:Work>
      <cc:License rdf:about="http://creativecommons.org/licenses/publicdomain/">
        <cc:permits rdf:resource="http://creativecommons.org/ns#Reproduction"/>
        <cc:permits rdf:resource="http://creativecommons.org/ns#Distribution"/>
        <cc:permits rdf:resource="http://creativecommons.org/ns#DerivativeWorks"/>
      </cc:License>
    </rdf:RDF>
  </metadata>
</svg>