<?xml version="1.0" encoding="UTF-8" standalone="no"?>
<!-- Created with Inkscape (http://www.inkscape.org/) -->

<svg
   xmlns:dc="http://purl.org/dc/elements/1.1/"
   xmlns:cc="http://creativecommons.org/ns#"
   xmlns:rdf="http://www.w3.org/1999/02/22-rdf-syntax-ns#"
   xmlns:svg="http://www.w3.org/2000/svg"
   xmlns="http://www.w3.org/2000/svg"
   version="1.1"
   width="512"
   height="512"
   id="svg2"
   xml:space="preserve"><metadata
     id="metadata8"><rdf:RDF><cc:Work
         rdf:about=""><dc:format>image/svg+xml</dc:format><dc:type
           rdf:resource="http://purl.org/dc/dcmitype/StillImage" /><dc:title></dc:title></cc:Work></rdf:RDF></metadata><defs
     id="defs6"><clipPath
       id="clipPath194"><path
         d="m 1602.44,2445.37 c -50.49,0 -91.41,12.08 -91.41,26.96 0,14.9 40.92,26.97 91.41,26.97 50.48,0 91.42,-12.07 91.42,-26.97 0,-14.88 -40.94,-26.96 -91.42,-26.96"
         id="path196" /></clipPath><clipPath
       id="clipPath200"><path
         d="m 1511.03,2499.3 182.83,0 0,-53.93 -182.83,0 0,53.93 z"
         id="path202" /></clipPath><linearGradient
       x1="0"
       y1="0"
       x2="1"
       y2="0"
       id="linearGradient204"
       gradientUnits="userSpaceOnUse"
       gradientTransform="matrix(0.0773356,-5.80016,-5.80016,-0.0773356,160.207,250.019)"
       spreadMethod="pad"><stop
         id="stop206"
         style="stop-color:#c66776;stop-opacity:1"
         offset="0" /><stop
         id="stop208"
         style="stop-color:#c52229;stop-opacity:1"
         offset="1" /></linearGradient><clipPath
       id="clipPath296"><path
         d="m 1219.36,2379.7 c -5.59,0 -9.68,1.43 -11.81,4.46 -8.56,12.19 18.01,45.59 59.32,74.59 31.06,21.8 61.62,34.93 78.52,34.93 5.58,0 9.67,-1.43 11.8,-4.46 8.55,-12.19 -18.01,-45.59 -59.33,-74.61 -31.05,-21.79 -61.6,-34.91 -78.5,-34.91"
         id="path298" /></clipPath><clipPath
       id="clipPath302"><path
         d="m 1198.99,2493.68 166.75,0 0,-113.98 -166.75,0 0,113.98 z"
         id="path304" /></clipPath><linearGradient
       x1="0"
       y1="0"
       x2="1"
       y2="0"
       id="linearGradient306"
       gradientUnits="userSpaceOnUse"
       gradientTransform="matrix(3.39668,-4.70326,-4.70326,-3.39668,126.606,245.927)"
       spreadMethod="pad"><stop
         id="stop308"
         style="stop-color:#c66776;stop-opacity:1"
         offset="0" /><stop
         id="stop310"
         style="stop-color:#c52229;stop-opacity:1"
         offset="1" /></linearGradient><clipPath
       id="clipPath626"><path
         d="m 574.469,1360.27 0,0 c -41.891,0 -81.617,3.46 -117.227,10.46 -47.355,9.29 -87.414,24.8 -115.586,46.6 -26.445,20.49 -42.402,46.54 -44.093,78.23 -0.067,1.2 -0.11,2.41 -0.129,3.63 l -0.016,1.49 -0.008,0.55 c 0,7.18 0.715,14.8 2.102,22.76 8.269,47.53 40.5,106.97 87.859,155.24 28.457,28.99 62.387,53.96 99.84,69.89 27.437,11.67 56.769,18.47 87.258,18.47 73.898,0 141.039,-37.43 190.719,-86.8 53.171,-52.88 86.335,-119.43 86.335,-168.39 l 0,0 c 0,-1.87 -0.046,-3.73 -0.144,-5.57 -0.09,-1.68 -0.215,-3.35 -0.383,-5.01 -3.16,-31.41 -20.406,-58.37 -47.937,-80.08 -49.946,-39.38 -133.696,-61.47 -228.59,-61.47 m -14.02,387.87 c -16.754,0 -28.636,-4.18 -33.183,-12.93 -12.676,-24.36 36.379,-74.97 109.55,-113.03 46.914,-24.39 92.352,-37.71 122.262,-37.71 16.746,0 28.637,4.18 33.184,12.92 12.679,24.37 -36.379,74.97 -109.551,113.03 -46.91,24.4 -92.348,37.72 -122.262,37.72"
         id="path628" /></clipPath><clipPath
       id="clipPath632"><path
         d="m 574.469,1360.27 0,0 c -41.891,0 -81.617,3.46 -117.227,10.46 -47.355,9.29 -87.414,24.8 -115.586,46.6 -26.445,20.49 -42.402,46.54 -44.093,78.23 -0.067,1.2 -0.11,2.41 -0.129,3.63 l -0.016,1.49 -0.008,0.55 c 0,7.18 0.715,14.8 2.102,22.76 8.269,47.53 40.5,106.97 87.859,155.24 28.457,28.99 62.387,53.96 99.84,69.89 27.437,11.67 56.769,18.47 87.258,18.47 73.898,0 141.039,-37.43 190.719,-86.8 53.171,-52.88 86.335,-119.43 86.335,-168.39 l 0,0 c 0,-1.87 -0.046,-3.73 -0.144,-5.57 -0.09,-1.68 -0.215,-3.35 -0.383,-5.01 -3.16,-31.41 -20.406,-58.37 -47.937,-80.08 -49.946,-39.38 -133.696,-61.47 -228.59,-61.47 m -14.02,387.87 c -16.754,0 -28.636,-4.18 -33.183,-12.93 -12.676,-24.36 36.379,-74.97 109.55,-113.03 46.914,-24.39 92.352,-37.71 122.262,-37.71 16.746,0 28.637,4.18 33.184,12.92 12.679,24.37 -36.379,74.97 -109.551,113.03 -46.91,24.4 -92.348,37.72 -122.262,37.72"
         id="path634" /></clipPath><clipPath
       id="clipPath694"><path
         d="m 759.078,1584.47 c -29.91,0 -75.348,13.32 -122.262,37.71 -73.171,38.06 -122.226,88.67 -109.55,113.03 4.547,8.75 16.429,12.93 33.183,12.93 29.914,0 75.352,-13.32 122.262,-37.72 73.172,-38.06 122.23,-88.66 109.551,-113.03 -4.547,-8.74 -16.438,-12.92 -33.184,-12.92"
         id="path696" /></clipPath><clipPath
       id="clipPath762"><path
         d="m 1224.57,1345.98 c -44.8,1.44 -56.59,12.76 -50.36,31.78 0,10.09 0,32.31 0,32.31 l 50.36,-30.71 c 0,0 -0.16,-27.24 0,-33.38 z"
         id="path764" /></clipPath><linearGradient
       x1="0"
       y1="0"
       x2="1"
       y2="0"
       id="linearGradient766"
       gradientUnits="userSpaceOnUse"
       gradientTransform="matrix(5.19092,0,0,-5.19092,117.266,137.802)"
       spreadMethod="pad"><stop
         id="stop768"
         style="stop-color:#b65b25;stop-opacity:1"
         offset="0" /><stop
         id="stop770"
         style="stop-color:#f6834b;stop-opacity:1"
         offset="1" /></linearGradient><clipPath
       id="clipPath780"><path
         d="m 1754.79,1397.47 c -0.57,-18.19 -49.08,-24.91 -77.44,-20.81 0,9.71 0.39,52.98 0.39,52.98 l 77.05,0 c 0,0 -0.17,-26.26 0,-32.17 z"
         id="path782" /></clipPath><linearGradient
       x1="0"
       y1="0"
       x2="1"
       y2="0"
       id="linearGradient784"
       gradientUnits="userSpaceOnUse"
       gradientTransform="matrix(7.74316,0,0,-7.74316,167.735,140.257)"
       spreadMethod="pad"><stop
         id="stop786"
         style="stop-color:#b65b25;stop-opacity:1"
         offset="0" /><stop
         id="stop788"
         style="stop-color:#f6834b;stop-opacity:1"
         offset="1" /></linearGradient><clipPath
       id="clipPath796"><path
         d="m 1724.73,1367.79 c -0.57,-18.19 -49.09,-24.92 -77.44,-20.8 0,9.7 0.4,52.97 0.4,52.97 l 77.04,0 c 0,0 -0.16,-26.27 0,-32.17 z"
         id="path798" /></clipPath><linearGradient
       x1="0"
       y1="0"
       x2="1"
       y2="0"
       id="linearGradient800"
       gradientUnits="userSpaceOnUse"
       gradientTransform="matrix(7.74316,0,0,-7.74316,164.729,137.289)"
       spreadMethod="pad"><stop
         id="stop802"
         style="stop-color:#b65b25;stop-opacity:1"
         offset="0" /><stop
         id="stop804"
         style="stop-color:#f6834b;stop-opacity:1"
         offset="1" /></linearGradient><clipPath
       id="clipPath812"><path
         d="m 1668.27,1343.33 c -0.56,-18.21 -49.07,-24.93 -77.43,-20.81 0,9.71 0.39,52.98 0.39,52.98 l 77.04,0 c 0,0 -0.16,-26.26 0,-32.17 z"
         id="path814" /></clipPath><linearGradient
       x1="0"
       y1="0"
       x2="1"
       y2="0"
       id="linearGradient816"
       gradientUnits="userSpaceOnUse"
       gradientTransform="matrix(7.74316,0,0,-7.74316,159.084,134.843)"
       spreadMethod="pad"><stop
         id="stop818"
         style="stop-color:#b65b25;stop-opacity:1"
         offset="0" /><stop
         id="stop820"
         style="stop-color:#f6834b;stop-opacity:1"
         offset="1" /></linearGradient><clipPath
       id="clipPath828"><path
         d="m 1590.84,1324.26 c -0.57,-18.21 -62.71,-23.77 -94.45,-14.3 0,9.74 0.39,53 0.39,53 l 94.06,-6.54 c 0,0 -0.17,-26.27 0,-32.16 z"
         id="path830" /></clipPath><linearGradient
       x1="0"
       y1="0"
       x2="1"
       y2="0"
       id="linearGradient832"
       gradientUnits="userSpaceOnUse"
       gradientTransform="matrix(9.44531,0,0,-9.44531,149.639,133.419)"
       spreadMethod="pad"><stop
         id="stop834"
         style="stop-color:#b65b25;stop-opacity:1"
         offset="0" /><stop
         id="stop836"
         style="stop-color:#f6834b;stop-opacity:1"
         offset="1" /></linearGradient><clipPath
       id="clipPath844"><path
         d="m 1496.39,1310 c -19.68,-12.9 -78.04,-14.17 -100.52,-0.04 0,9.74 0.4,52.39 0.4,52.39 l 100.12,-20.17 c 0,0 -0.16,-26.27 0,-32.18 z"
         id="path846" /></clipPath><linearGradient
       x1="0"
       y1="0"
       x2="1"
       y2="0"
       id="linearGradient848"
       gradientUnits="userSpaceOnUse"
       gradientTransform="matrix(10.0518,0,0,-10.0518,139.587,133.109)"
       spreadMethod="pad"><stop
         id="stop850"
         style="stop-color:#b65b25;stop-opacity:1"
         offset="0" /><stop
         id="stop852"
         style="stop-color:#f6834b;stop-opacity:1"
         offset="1" /></linearGradient><clipPath
       id="clipPath860"><path
         d="m 1395.87,1310 c -19.97,-10.89 -88.2,-3.14 -94.28,12.59 0,9.71 0.39,28.18 0.39,28.18 l 93.89,-8.59 c 0,0 -0.15,-26.27 0,-32.18 z"
         id="path862" /></clipPath><linearGradient
       x1="0"
       y1="0"
       x2="1"
       y2="0"
       id="linearGradient864"
       gradientUnits="userSpaceOnUse"
       gradientTransform="matrix(9.42773,0,0,-9.42773,130.159,132.784)"
       spreadMethod="pad"><stop
         id="stop866"
         style="stop-color:#b65b25;stop-opacity:1"
         offset="0" /><stop
         id="stop868"
         style="stop-color:#f6834b;stop-opacity:1"
         offset="1" /></linearGradient><clipPath
       id="clipPath876"><path
         d="m 1301.33,1322.72 c -26.75,-5.87 -79.29,2.99 -78.35,23.32 0,10.08 0.04,28.46 1.49,32.32 1.87,-0.54 76.86,-22.26 76.86,-22.26 0,0 -0.16,-27.25 0,-33.38 z"
         id="path878" /></clipPath><linearGradient
       x1="0"
       y1="0"
       x2="1"
       y2="0"
       id="linearGradient880"
       gradientUnits="userSpaceOnUse"
       gradientTransform="matrix(7.83691,0,0,-7.83691,122.296,134.966)"
       spreadMethod="pad"><stop
         id="stop882"
         style="stop-color:#b65b25;stop-opacity:1"
         offset="0" /><stop
         id="stop884"
         style="stop-color:#f6834b;stop-opacity:1"
         offset="1" /></linearGradient><clipPath
       id="clipPath908"><path
         d="m 1224.57,1443.26 c -0.04,0 -0.08,0 -0.12,0 -15.98,0.52 -27.75,2.3 -36,5.24 -10.31,3.68 -15.1,9.17 -15.72,16.29 -0.27,3.12 0.26,6.54 1.48,10.26 0,3.23 0,7.71 0,12.3 0.41,-0.29 0.85,-0.58 1.3,-0.87 10.55,-6.66 29.33,-10.5 48.96,-10.84 -0.67,-1.91 -0.65,-3.85 0.07,-5.76 -0.01,-1.55 -0.02,-3.27 -0.02,-5.09 -0.03,-8.16 -0.04,-18.12 0.05,-21.53"
         id="path910" /></clipPath><linearGradient
       x1="0"
       y1="0"
       x2="1"
       y2="0"
       id="linearGradient912"
       gradientUnits="userSpaceOnUse"
       gradientTransform="matrix(5.19092,0,0,-5.19092,117.266,147.531)"
       spreadMethod="pad"><stop
         id="stop914"
         style="stop-color:#b65b25;stop-opacity:1"
         offset="0" /><stop
         id="stop916"
         style="stop-color:#f6834b;stop-opacity:1"
         offset="1" /></linearGradient><clipPath
       id="clipPath926"><path
         d="m 1754.79,1494.75 c -0.57,-18.2 -49.08,-24.92 -77.44,-20.81 0,9.71 0.39,52.98 0.39,52.98 l 77.05,0 c 0,0 -0.17,-26.27 0,-32.17 z"
         id="path928" /></clipPath><linearGradient
       x1="0"
       y1="0"
       x2="1"
       y2="0"
       id="linearGradient930"
       gradientUnits="userSpaceOnUse"
       gradientTransform="matrix(7.74316,0,0,-7.74316,167.735,149.985)"
       spreadMethod="pad"><stop
         id="stop932"
         style="stop-color:#b65b25;stop-opacity:1"
         offset="0" /><stop
         id="stop934"
         style="stop-color:#f6834b;stop-opacity:1"
         offset="1" /></linearGradient><clipPath
       id="clipPath942"><path
         d="m 1724.73,1465.07 c -0.57,-18.21 -49.09,-24.92 -77.44,-20.81 0,9.71 0.4,52.99 0.4,52.99 l 77.04,0 c 0,0 -0.16,-26.28 0,-32.18 z"
         id="path944" /></clipPath><linearGradient
       x1="0"
       y1="0"
       x2="1"
       y2="0"
       id="linearGradient946"
       gradientUnits="userSpaceOnUse"
       gradientTransform="matrix(7.74316,0,0,-7.74316,164.729,147.017)"
       spreadMethod="pad"><stop
         id="stop948"
         style="stop-color:#b65b25;stop-opacity:1"
         offset="0" /><stop
         id="stop950"
         style="stop-color:#f6834b;stop-opacity:1"
         offset="1" /></linearGradient><clipPath
       id="clipPath958"><path
         d="m 1668.27,1440.59 c -0.56,-18.18 -49.07,-24.91 -77.43,-20.81 0,9.72 0.39,52.99 0.39,52.99 l 77.04,0 c 0,0 -0.16,-26.27 0,-32.18 z"
         id="path960" /></clipPath><linearGradient
       x1="0"
       y1="0"
       x2="1"
       y2="0"
       id="linearGradient962"
       gradientUnits="userSpaceOnUse"
       gradientTransform="matrix(7.74316,0,0,-7.74316,159.084,144.569)"
       spreadMethod="pad"><stop
         id="stop964"
         style="stop-color:#b65b25;stop-opacity:1"
         offset="0" /><stop
         id="stop966"
         style="stop-color:#f6834b;stop-opacity:1"
         offset="1" /></linearGradient><clipPath
       id="clipPath974"><path
         d="m 1590.84,1421.53 c -0.57,-18.19 -62.71,-23.77 -94.45,-14.28 0,9.71 0.39,52.98 0.39,52.98 l 94.06,-6.52 c 0,0 -0.17,-26.28 0,-32.18 z"
         id="path976" /></clipPath><linearGradient
       x1="0"
       y1="0"
       x2="1"
       y2="0"
       id="linearGradient978"
       gradientUnits="userSpaceOnUse"
       gradientTransform="matrix(9.44531,0,0,-9.44531,149.639,143.145)"
       spreadMethod="pad"><stop
         id="stop980"
         style="stop-color:#b65b25;stop-opacity:1"
         offset="0" /><stop
         id="stop982"
         style="stop-color:#f6834b;stop-opacity:1"
         offset="1" /></linearGradient><clipPath
       id="clipPath990"><path
         d="m 1496.39,1407.28 c -19.68,-12.91 -78.04,-14.17 -100.52,-0.03 0,9.71 0.4,52.38 0.4,52.38 l 100.12,-20.18 c 0,0 -0.16,-26.26 0,-32.17 z"
         id="path992" /></clipPath><linearGradient
       x1="0"
       y1="0"
       x2="1"
       y2="0"
       id="linearGradient994"
       gradientUnits="userSpaceOnUse"
       gradientTransform="matrix(10.0518,0,0,-10.0518,139.587,142.838)"
       spreadMethod="pad"><stop
         id="stop996"
         style="stop-color:#b65b25;stop-opacity:1"
         offset="0" /><stop
         id="stop998"
         style="stop-color:#f6834b;stop-opacity:1"
         offset="1" /></linearGradient><clipPath
       id="clipPath1006"><path
         d="m 1395.87,1407.28 c -19.97,-10.88 -88.2,-3.13 -94.28,12.57 0,9.74 0.39,28.19 0.39,28.19 l 93.89,-8.59 c 0,0 -0.15,-26.26 0,-32.17 z"
         id="path1008" /></clipPath><linearGradient
       x1="0"
       y1="0"
       x2="1"
       y2="0"
       id="linearGradient1010"
       gradientUnits="userSpaceOnUse"
       gradientTransform="matrix(9.42773,0,0,-9.42773,130.159,142.513)"
       spreadMethod="pad"><stop
         id="stop1012"
         style="stop-color:#b65b25;stop-opacity:1"
         offset="0" /><stop
         id="stop1014"
         style="stop-color:#f6834b;stop-opacity:1"
         offset="1" /></linearGradient><clipPath
       id="clipPath1022"><path
         d="m 1301.33,1420 c -26.75,-5.87 -79.29,2.99 -78.35,23.32 0,10.09 0.04,28.45 1.49,32.32 1.87,-0.54 76.86,-22.26 76.86,-22.26 0,0 -0.16,-27.26 0,-33.38 z"
         id="path1024" /></clipPath><linearGradient
       x1="0"
       y1="0"
       x2="1"
       y2="0"
       id="linearGradient1026"
       gradientUnits="userSpaceOnUse"
       gradientTransform="matrix(7.83691,0,0,-7.83691,122.296,144.693)"
       spreadMethod="pad"><stop
         id="stop1028"
         style="stop-color:#b65b25;stop-opacity:1"
         offset="0" /><stop
         id="stop1030"
         style="stop-color:#f6834b;stop-opacity:1"
         offset="1" /></linearGradient><clipPath
       id="clipPath1186"><path
         d="m 1325.31,1535.9 c 13.02,-8.48 32.85,-15.46 56.93,-20.04 19.92,-3.81 42.74,-5.96 66.98,-5.96 12.24,0 24.14,0.56 35.47,1.59 38.2,3.48 70.09,12.46 88.43,24.41 10.42,6.77 19.88,17.05 15.73,30.3 -3.2,10.16 -12.98,22.21 -27.57,33.46 -19.36,14.93 -47.19,28.45 -79.29,34.22 -10.51,1.88 -21.48,2.94 -32.77,2.94 -20.71,0 -40.37,-3.56 -58.07,-9.29 -21.41,-6.93 -39.94,-17.03 -54.02,-27.88 -14.57,-11.25 -24.35,-23.3 -27.53,-33.46 -4.16,-13.24 5.3,-23.53 15.71,-30.29 z"
         id="path1188" /></clipPath><clipPath
       id="clipPath1192"><path
         d="m 1325.31,1535.9 c 13.02,-8.48 32.85,-15.46 56.93,-20.04 19.92,-3.81 42.74,-5.96 66.98,-5.96 12.24,0 24.14,0.56 35.47,1.59 38.2,3.48 70.09,12.46 88.43,24.41 10.42,6.77 19.88,17.05 15.73,30.3 -3.2,10.16 -12.98,22.21 -27.57,33.46 -19.36,14.93 -47.19,28.45 -79.29,34.22 -10.51,1.88 -21.48,2.94 -32.77,2.94 -20.71,0 -40.37,-3.56 -58.07,-9.29 -21.41,-6.93 -39.94,-17.03 -54.02,-27.88 -14.57,-11.25 -24.35,-23.3 -27.53,-33.46 -4.16,-13.24 5.3,-23.53 15.71,-30.29"
         id="path1194" /></clipPath><clipPath
       id="clipPath1336"><path
         d="m 2368.11,1552.47 c -5.18,0 -10.6,1.04 -16.03,3.03 3.78,-0.61 7.65,-0.92 11.6,-0.92 8.35,0 16.36,1.41 23.82,4.01 -0.34,-0.26 -0.68,-0.5 -1.04,-0.74 -5.39,-3.65 -11.67,-5.38 -18.35,-5.38"
         id="path1338" /></clipPath><linearGradient
       x1="0"
       y1="0"
       x2="1"
       y2="0"
       id="linearGradient1340"
       gradientUnits="userSpaceOnUse"
       gradientTransform="matrix(7.52946,5.31828,7.52742,-10.8811,231.556,158.355)"
       spreadMethod="pad"><stop
         id="stop1342"
         style="stop-color:#a4a4a7;stop-opacity:1"
         offset="0" /><stop
         id="stop1344"
         style="stop-color:#ffffff;stop-opacity:1"
         offset="1" /></linearGradient><clipPath
       id="clipPath1352"><path
         d="m 2363.68,1554.58 c -3.95,0 -7.82,0.31 -11.6,0.92 -13.01,4.78 -26.03,15.04 -35.86,29.51 -19.18,28.3 -18.86,62.01 0.75,75.3 5.4,3.66 11.69,5.39 18.37,5.39 0.78,0 1.58,-0.03 2.37,-0.08 -2.42,-5.66 -3.76,-11.89 -3.76,-18.44 0,-25.94 21.04,-46.96 46.96,-46.96 6.74,0 13.15,1.43 18.95,3.99 4.09,-18.91 -0.05,-36.5 -12.36,-45.62 -7.46,-2.6 -15.47,-4.01 -23.82,-4.01"
         id="path1354" /></clipPath><linearGradient
       x1="0"
       y1="0"
       x2="1"
       y2="0"
       id="linearGradient1356"
       gradientUnits="userSpaceOnUse"
       gradientTransform="matrix(7.52946,5.31828,7.52742,-10.8811,231.556,158.355)"
       spreadMethod="pad"><stop
         id="stop1358"
         style="stop-color:#9e242a;stop-opacity:1"
         offset="0" /><stop
         id="stop1360"
         style="stop-color:#c52229;stop-opacity:1"
         offset="1" /></linearGradient><clipPath
       id="clipPath1570"><path
         d="m 2421.6,1670.6 c -6.33,8.4 -14.45,15.39 -23.79,20.39 10.06,-3.89 18.46,-11.15 23.79,-20.39"
         id="path1572" /></clipPath><radialGradient
       cx="0"
       cy="0"
       r="1"
       fx="0"
       fy="0"
       id="radialGradient1574"
       gradientUnits="userSpaceOnUse"
       gradientTransform="matrix(4.69507,0,0,-4.69507,238.09,164.717)"
       spreadMethod="pad"><stop
         id="stop1576"
         style="stop-color:#ebd9c8;stop-opacity:1"
         offset="0" /><stop
         id="stop1578"
         style="stop-color:#ebd9c8;stop-opacity:1"
         offset="1" /></radialGradient><clipPath
       id="clipPath1586"><path
         d="m 2399.86,1604.21 c -1.13,5.22 -2.89,10.54 -5.28,15.81 1.46,-0.24 2.9,-0.36 4.3,-0.36 4.51,0 8.68,1.27 12.07,3.95 10.73,8.5 9.47,27.95 -2.79,43.45 -8.4,10.6 -19.8,16.6 -29.59,16.6 -4.5,0 -8.67,-1.27 -12.05,-3.94 -5.73,-4.55 -8.05,-12.21 -7.1,-20.72 -7.22,3.92 -14.65,6.2 -21.71,6.62 4.5,10.52 12.73,19.05 23.02,23.95 0.24,-0.5 0.77,-0.76 1.3,-0.76 0.72,0 1.43,0.47 1.43,1.39 0,0.19 -0.01,0.38 -0.01,0.57 5.4,2.16 11.29,3.35 17.46,3.35 5.96,0 11.65,-1.11 16.9,-3.13 9.34,-5 17.46,-11.99 23.79,-20.39 3.98,-6.89 6.25,-14.89 6.25,-23.42 0,-19.19 -11.51,-35.69 -27.99,-42.97"
         id="path1588" /></clipPath><radialGradient
       cx="0"
       cy="0"
       r="1"
       fx="0"
       fy="0"
       id="radialGradient1590"
       gradientUnits="userSpaceOnUse"
       gradientTransform="matrix(4.69507,0,0,-4.69507,238.09,164.717)"
       spreadMethod="pad"><stop
         id="stop1592"
         style="stop-color:#c66776;stop-opacity:1"
         offset="0" /><stop
         id="stop1594"
         style="stop-color:#c52229;stop-opacity:1"
         offset="1" /></radialGradient><clipPath
       id="clipPath1602"><path
         d="m 2398.88,1619.66 c -1.4,0 -2.84,0.12 -4.3,0.36 -2.01,4.45 -4.46,8.85 -7.36,13.13 -7.79,11.48 -17.59,20.3 -27.8,25.85 -0.95,8.51 1.37,16.17 7.1,20.72 3.38,2.67 7.55,3.94 12.05,3.94 9.79,0 21.19,-6 29.59,-16.6 12.26,-15.5 13.52,-34.95 2.79,-43.45 -3.39,-2.68 -7.56,-3.95 -12.07,-3.95"
         id="path1604" /></clipPath><clipPath
       id="clipPath1614"><path
         d="m 2380.91,1600.22 c -25.92,0 -46.96,21.02 -46.96,46.96 0,6.55 1.34,12.78 3.76,18.44 7.06,-0.42 14.49,-2.7 21.71,-6.62 0.83,-7.43 4.15,-15.51 9.88,-22.73 7.19,-9.09 16.58,-14.8 25.28,-16.25 2.39,-5.27 4.15,-10.59 5.28,-15.81 -5.8,-2.56 -12.21,-3.99 -18.95,-3.99"
         id="path1616" /></clipPath><clipPath
       id="clipPath1626"><path
         d="m 2394.58,1620.02 c -8.7,1.45 -18.09,7.16 -25.28,16.25 -5.73,7.22 -9.05,15.3 -9.88,22.73 10.21,-5.55 20.01,-14.37 27.8,-25.85 2.9,-4.28 5.35,-8.68 7.36,-13.13"
         id="path1628" /></clipPath><clipPath
       id="clipPath1638"><path
         d="m 2362.03,1688.81 c -0.53,0 -1.06,0.26 -1.3,0.76 0.89,0.43 1.8,0.83 2.72,1.2 0,-0.19 0.01,-0.38 0.01,-0.57 0,-0.92 -0.71,-1.39 -1.43,-1.39"
         id="path1640" /></clipPath><radialGradient
       cx="0"
       cy="0"
       r="1"
       fx="0"
       fy="0"
       id="radialGradient1642"
       gradientUnits="userSpaceOnUse"
       gradientTransform="matrix(4.69507,0,0,-4.69507,238.09,164.717)"
       spreadMethod="pad"><stop
         id="stop1644"
         style="stop-color:#75787d;stop-opacity:1"
         offset="0" /><stop
         id="stop1646"
         style="stop-color:#3c1b1d;stop-opacity:1"
         offset="1" /></radialGradient><clipPath
       id="clipPath1978"><path
         d="m 1570.59,423.422 -45.99,-11.703 26.37,17.101 -26.37,10.442 5.67,21.148 -43.2,0 -10.26,4.41 c -0.09,-13.41 -8.01,-20.519 -19.62,-23.129 0.09,-0.543 0.09,-1.171 0,-1.711 -0.09,-0.359 -0.18,-0.718 -0.36,-0.992 2.52,-0.629 5.49,-1.078 9,-1.347 10.17,-0.629 20.07,-0.36 28.62,-0.18 17.55,0.449 30.24,0.988 31.41,-6.301 2.25,-14.039 -19.44,-0.09 -50.49,1.981 -7.29,0.449 -14.85,1.531 -21.87,2.968 -4.59,-2.16 -12.87,-2.609 -21.96,-0.808 -13.14,2.609 -22.86,9 -21.87,14.308 0.54,2.61 3.78,4.5 8.55,5.313 -0.9,1.437 -1.62,3.058 -2.25,4.769 -6.84,-2.339 -16.11,-4.41 -26.37,-5.582 -21.96,-2.609 -40.23,-0.449 -40.86,4.86 -0.36,2.972 4.95,6.301 13.59,9.09 -5.13,3.961 -8.19,9.902 -8.19,18.363 0,12.238 2.61,13.68 11.88,20.43 9,6.386 7.02,18.179 15.75,20.16 8.46,1.886 14.58,-4.41 20.16,-10.352 1.89,3.149 4.77,6.211 8.55,9.09 -31.5,2.609 -38.7,20.25 -31.68,30.059 -3.24,1.261 -6.84,2.25 -10.8,2.882 -4.95,-1.8 -11.61,-3.421 -19.26,-4.589 8.37,-6.032 10.8,-7.832 10.8,-19.622 0,-17.46 -13.32,-24.39 -30.78,-24.39 -17.55,0 -31.68,11.34 -31.68,28.801 0,4.949 2.97,10.8 6.48,15.929 -3.87,1.168 -6.21,2.7 -6.3,4.59 -0.27,2.789 4.5,5.668 12.24,8.012 -5.58,5.039 -8.37,13.047 -8.37,23.039 0,8.367 -0.54,18.809 4.68,24.391 4.14,4.41 7.38,8.73 12.06,10.257 0.36,5.313 18.63,8.282 40.59,6.571 22.05,-1.711 39.6,-7.379 39.15,-12.692 -0.36,-5.308 -18.54,-8.277 -40.59,-6.566 -3.15,0.269 -6.3,0.539 -9.18,0.988 9.18,-6.66 10.08,-15.301 10.08,-27.449 0,-5.492 -1.35,-9.992 -3.69,-13.5 7.2,-0.27 13.32,-1.172 17.37,-2.52 l 0.09,0 c 18.18,3.059 28.98,-0.992 33.66,-6.75 l 5.31,7.918 -3.6,4.68 -0.99,-0.359 0.99,0.449 -18.81,24.48 37.8,1.442 -3.42,15.301 27.54,-6.93 1.17,5.578 13.14,2.52 2.52,-5.129 c 0.36,0 0.63,0.089 0.99,0.089 6.93,0.809 7.02,-4.859 10.89,-10.441 l 1.53,0.992 -0.9,3.149 8.1,5.402 9.81,-5.312 -6.66,-3.782 c 7.65,-2.25 11.07,-7.379 19.44,-13.5 5.76,-4.136 8.73,-7.199 10.17,-11.879 6.3,4.321 16.11,6.75 22.23,7.743 8.37,1.437 17.64,3.148 23.49,-3.872 5.76,-6.839 -2.97,-15.031 0.27,-25.558 1.53,-5.133 2.61,-8.461 2.61,-11.613 l 1.53,-0.45 8.46,2.43 -6.39,-2.969 29.79,-8.011 3.6,-9.899 -16.56,-9.808 0,15.117 -4.5,-1.168 0.09,-3.602 -11.52,-15.211 8.73,13.5 -18.45,0 -3.78,-0.988 c 0.72,-4.859 -1.26,-9.449 -5.13,-12.418 -8.37,-6.391 -14.4,3.418 -26.55,13.137 l -12.24,-14.489 -22.59,10.442 c -7.92,-2.07 -22.32,0.269 -39.24,2.43 -18.45,-3.782 -33.57,-12.872 -43.2,-17.192 3.06,-4.769 5.58,-10.082 5.58,-14.582 0,-1.348 -0.09,-2.699 -0.27,-4.047 l 11.16,1.078 c 3.33,6.93 6.57,16.02 21.69,17.731 8.91,0.988 6.48,-8.641 15.48,-15.121 7.74,-5.578 11.07,-11.071 11.88,-19.891 l 13.86,-5.668 25.65,0 0,6.66 25.92,-6.66 -10.08,-23.039 51.66,-13.949 3.6,-9.902 -16.56,-9.809 0,15.211 m -158.22,52.199 c -0.36,-0.449 -0.72,-0.992 -1.08,-1.441 1.26,-0.09 2.52,-0.18 3.69,-0.36 0.54,1.532 1.44,2.61 2.61,3.512 l -5.22,-1.711 m 87.66,53.551 c 0,-0.363 0,-0.723 0,-1.172 0,-1.621 -0.36,-3.059 -0.99,-4.141 l 21.15,6.032 c -2.7,1.621 -5.58,3.148 -8.82,4.41 -3.42,-1.891 -7.29,-3.692 -11.34,-5.129 m 63.45,3.598 0.63,0 5.67,3.691 -2.97,1.168 c -0.9,-1.438 -1.98,-3.059 -3.33,-4.859 m -152.19,44.281 3.51,-5.129 -8.01,-10.891 c 2.07,-3.961 1.62,-8.461 -1.08,-11.793 -0.09,-0.09 -0.09,-0.179 -0.18,-0.179 6.84,-4.95 15.39,-10.079 27,-12.329 3.33,1.079 6.84,1.981 10.53,2.879 l -8.64,5.039 11.88,-4.41 c 1.44,0.364 2.88,0.633 4.32,0.813 l -4.05,2.789 c -10.44,2.789 -17.91,7.832 -18.09,12.332 l -14.13,9.719 12.06,10.257 c -0.18,0.364 -0.36,0.723 -0.36,1.082 -0.09,0.45 0,0.989 0.27,1.442 -2.07,0.449 -3.96,0.898 -5.67,1.348 l -9.36,-2.969 m 12.42,-11.16 8.19,-5.039 c 1.35,0.718 3.15,1.257 5.13,1.617 -1.8,3.062 -2.97,6.48 -3.51,10.172 -0.18,0.089 -0.27,0.089 -0.36,0.089 l -9.45,-6.839 m -26.1,31.41 13.32,-19.621 5.4,2.429 -1.98,-0.269 3.15,1.082 c -10.08,3.148 -9.81,6.476 9.09,5.937 l -8.73,5.942 7.92,0.719 -2.7,2.609 3.42,3.781 -28.89,-2.609 m 36.45,-2.973 12.24,1.172 c 0.99,1.98 1.98,4.23 3.24,6.391 l -0.99,0.718 0.36,1.711 -14.85,-9.992 m -4.32,9.274 3.69,4.046 7.11,-0.718 -14.49,5.039 3.69,-8.367 m 18.18,2.699 1.35,-0.18 0.72,3.418 -2.07,-3.238 m -127.98,-193.41 10.53,10.168 0.09,12.062 6.66,-5.402 -4.68,-18.719 -10.53,-2.16 -2.07,4.051 m 79.83,4.859 c -41.13,0 -48.6,22.859 -37.8,32.578 13.23,11.883 23.58,-22.5 64.71,-22.5 41.13,0 54.54,10.352 54.54,-7.469 0,-6.57 -5.49,-8.64 -14.49,-8.64 -15.39,0 -41.04,6.031 -66.96,6.031 m -62.55,17.371 0,0 m -17.46,4.41 -3.6,5.219 5.13,0.629 3.87,1.98 9.09,-6.031 2.97,-6.207 -17.46,4.41 m 2.25,7.828 0,0 m -10.89,2.34 -2.7,9.36 2.7,1.89 -1.08,3.961 6.93,-3.238 5.04,-14.313 -10.89,2.34 m 152.28,172.981 7.29,17.82 13.23,2.52 7.29,-15.211 0,-8.098 -12.87,-10.441 -14.94,13.41"
         id="path1980" /></clipPath></defs><g
     transform="matrix(1.25,0,0,-1.25,0,511.99999)"
     id="g10"><g
       transform="matrix(5.2240553,0,0,5.2240553,469.59553,-470.4666)"
       id="g6859"><path
         d="m -52.064157,106.74061 c -20.4,0 -36.938,5.3109 -36.938,11.864 0,4.202 6.807,7.8949 17.075,10.002 0.011,-0.0551 0.022,-0.111 0.034,-0.166 -0.093,-0.4313 -0.141,-0.868 -0.141,-1.309 0,-0.4012 0.039,-0.7973 0.116,-1.1879 -0.077,-0.3922 -0.116,-0.7883 -0.116,-1.1883 0,-0.004 0,-0.009 0,-0.0129 0,-0.004 0,-0.009 0,-0.0129 0,-0.4429 0.048,-0.882 0.142,-1.3152 -0.094,-0.432 -0.142,-0.8707 -0.142,-1.3149 0,-7.38 13.303,-13.3601 29.71,-13.3601 11.241,0 21.024,2.8062 26.071,6.9461 -4.05,-5.141 -18.548,-8.9449 -35.811,-8.9449"
         id="path1872"
         style="fill:#d8ae9b;fill-opacity:1;fill-rule:nonzero;stroke:none" /><path
         d="m -12.612157,122.09951 c 0,-7.38 -13.302,-13.3601 -29.712,-13.3601 -16.407,0 -29.71,5.9801 -29.71,13.3601 0,7.3782 13.303,13.3598 29.71,13.3598 16.41,0 29.712,-5.9816 29.712,-13.3598"
         id="path1874"
         style="fill:#c36524;fill-opacity:1;fill-rule:nonzero;stroke:none" /><path
         d="m -12.612157,124.75541 c 0,-7.3777 -13.302,-13.3609 -29.712,-13.3609 -16.407,0 -29.71,5.9832 -29.71,13.3609 0,7.3789 13.303,13.359 29.71,13.359 16.41,0 29.712,-5.9801 29.712,-13.359"
         id="path1876"
         style="fill:#f3a751;fill-opacity:1;fill-rule:nonzero;stroke:none" /><path
         d="m -12.612157,124.72961 c 0,-7.3781 -13.302,-13.3601 -29.712,-13.3601 -16.407,0 -29.71,5.982 -29.71,13.3601 0,7.3789 13.303,13.3598 29.71,13.3598 16.41,0 29.712,-5.9809 29.712,-13.3598"
         id="path1878"
         style="fill:#b7232a;fill-opacity:1;fill-rule:nonzero;stroke:none" /><path
         d="m -12.612157,127.13161 c 0,-7.3781 -13.302,-13.361 -29.712,-13.361 -16.407,0 -29.71,5.9829 -29.71,13.361 0,7.3777 13.303,13.3597 29.71,13.3597 16.41,0 29.712,-5.982 29.712,-13.3597"
         id="path1880"
         style="fill:#c36524;fill-opacity:1;fill-rule:nonzero;stroke:none" /><path
         d="m -12.612157,129.78861 c 0,-7.3801 -13.302,-13.3609 -29.712,-13.3609 -16.407,0 -29.71,5.9808 -29.71,13.3609 0,7.3777 13.303,13.359 29.71,13.359 16.41,0 29.712,-5.9813 29.712,-13.359"
         id="path1882"
         style="fill:#f3a751;fill-opacity:1;fill-rule:nonzero;stroke:none" /><path
         d="m -12.612157,129.74951 c 0,-7.3789 -13.302,-13.3601 -29.712,-13.3601 -16.407,0 -29.71,5.9812 -29.71,13.3601 0,7.3782 13.303,13.3598 29.71,13.3598 16.41,0 29.712,-5.9816 29.712,-13.3598"
         id="path1884"
         style="fill:#b7232a;fill-opacity:1;fill-rule:nonzero;stroke:none" /><path
         d="m -12.612157,132.54761 c 0,-7.3801 -13.302,-13.3621 -29.712,-13.3621 -16.407,0 -29.71,5.982 -29.71,13.3621 0,7.3777 13.303,13.359 29.71,13.359 16.41,0 29.712,-5.9813 29.712,-13.359"
         id="path1886"
         style="fill:#c36524;fill-opacity:1;fill-rule:nonzero;stroke:none" /><path
         d="m -12.612157,135.20271 c 0,-7.3782 -13.302,-13.3602 -29.712,-13.3602 -16.407,0 -29.71,5.982 -29.71,13.3602 0,7.3777 13.303,13.359 29.71,13.359 16.41,0 29.712,-5.9813 29.712,-13.359"
         id="path1888"
         style="fill:#f3a751;fill-opacity:1;fill-rule:nonzero;stroke:none" /><path
         d="m -14.850157,136.25271 c 0,-3.6133 -0.295,-5.2813 -5.976,-7.4492 -1.622,-0.618 -8.116,-2.0598 -10.042,-2.4879 -3.508,-0.7813 -6.988,-2.8891 -11.168,-2.8891 -7.699,0 -11.084,1.5859 -15.887,3.959 -1.311,0.6461 -7.414,1.5019 -8.382,2.268 -2.171,1.7199 -1.659,4.196 -1.659,6.3152 0,3.4789 0.912,5.5109 5.061,7.5457 3.495,1.7133 8.186,1.4891 10.125,1.9492 3.658,0.8699 6.031,1.825 10.454,1.825 7.005,0 10.873,0.1981 15.581,-1.8101 0.78,-0.3329 4.085,-2.686 5.502,-3.5848 3.046,-1.9281 6.391,-3.0961 6.391,-5.641"
         id="path1890"
         style="fill:#b8e8f6;fill-opacity:1;fill-rule:nonzero;stroke:none" /><path
         d="m -14.850157,137.51951 c 0,-3.6129 -0.537,-6.1711 -5.221,-7.1489 -4.171,-0.8722 -8.159,-3.0582 -10.084,-3.4871 -3.507,-0.78 -7.701,-2.189 -11.881,-2.189 -7.699,0 -11.262,1.0629 -16.066,3.4359 -1.311,0.6449 -6.502,2.407 -7.47,3.1723 -2.171,1.7207 -2.392,3.8168 -2.392,5.9328 0,3.4801 0.912,5.5121 5.061,7.5461 3.495,1.714 8.186,1.4879 10.125,1.95 3.658,0.8679 6.031,1.8238 10.454,1.8238 7.005,0 10.873,0.1992 15.581,-1.809 0.78,-0.3308 4.085,-2.6867 5.502,-3.584 3.046,-1.9289 6.391,-3.098 6.391,-5.6429"
         id="path1892"
         style="fill:#ffffff;fill-opacity:1;fill-rule:nonzero;stroke:none" /><path
         d="m -63.829157,118.83551 c -0.228,0 -0.415,0.259 -0.415,0.5801 0,0.3199 0.187,0.5808 0.415,0.5808 0.231,0 0.416,-0.2609 0.416,-0.5808 0,-0.3211 -0.185,-0.5801 -0.416,-0.5801"
         id="path1894"
         style="fill:#d28954;fill-opacity:1;fill-rule:nonzero;stroke:none" /><path
         d="m -42.490157,114.85031 c -0.11,0 -0.209,0.0371 -0.274,0.1153 -0.15,0.1738 -0.072,0.4847 0.172,0.6929 0.136,0.116 0.295,0.1758 0.435,0.1758 0.111,0 0.21,-0.0379 0.276,-0.1156 0.149,-0.1731 0.071,-0.4844 -0.172,-0.691 -0.137,-0.1172 -0.296,-0.1774 -0.437,-0.1774"
         id="path1896"
         style="fill:#d28954;fill-opacity:1;fill-rule:nonzero;stroke:none" /><path
         d="m -60.301157,118.00741 c -0.391,0 -0.705,0.0722 -0.705,0.1621 0,0.0879 0.314,0.1609 0.705,0.1609 0.388,0 0.705,-0.073 0.705,-0.1609 0,-0.0899 -0.317,-0.1621 -0.705,-0.1621"
         id="path1898"
         style="fill:#d28954;fill-opacity:1;fill-rule:nonzero;stroke:none" /><path
         d="m -55.447157,116.21871 c -0.32,0 -0.581,0.1547 -0.581,0.3457 0,0.1902 0.261,0.3461 0.581,0.3461 0.322,0 0.582,-0.1559 0.582,-0.3461 0,-0.191 -0.26,-0.3457 -0.582,-0.3457"
         id="path1900"
         style="fill:#d28954;fill-opacity:1;fill-rule:nonzero;stroke:none" /><path
         d="m -51.088157,115.01631 c -0.117,0 -0.209,0.2692 -0.209,0.6024 0,0.3308 0.092,0.6 0.209,0.6 0.114,0 0.207,-0.2692 0.207,-0.6 0,-0.3332 -0.093,-0.6024 -0.207,-0.6024"
         id="path1902"
         style="fill:#d28954;fill-opacity:1;fill-rule:nonzero;stroke:none" /><path
         d="m -46.692157,114.51871 c -0.802,0 -1.45,0.2457 -1.45,0.5488 0,0.3051 0.648,0.5512 1.45,0.5512 0.804,0 1.453,-0.2461 1.453,-0.5512 0,-0.3031 -0.649,-0.5488 -1.453,-0.5488"
         id="path1904"
         style="fill:#d28954;fill-opacity:1;fill-rule:nonzero;stroke:none" /><path
         d="m -39.429157,114.79371 c -0.137,0 -0.249,0.1238 -0.249,0.2738 0,0.152 0.112,0.277 0.249,0.277 0.137,0 0.249,-0.125 0.249,-0.277 0,-0.15 -0.112,-0.2738 -0.249,-0.2738"
         id="path1906"
         style="fill:#d28954;fill-opacity:1;fill-rule:nonzero;stroke:none" /><path
         d="m -52.583157,115.61871 c -0.252,0 -0.457,0.2887 -0.457,0.6449 0,0.3559 0.205,0.6469 0.457,0.6469 0.252,0 0.457,-0.291 0.457,-0.6469 0,-0.3562 -0.205,-0.6449 -0.457,-0.6449"
         id="path1908"
         style="fill:#d28954;fill-opacity:1;fill-rule:nonzero;stroke:none" /><path
         d="m -35.980157,115.18671 c -0.211,0 -0.382,0.0789 -0.439,0.2226 -0.09,0.2262 0.13,0.5254 0.491,0.6703 0.131,0.052 0.262,0.0778 0.381,0.0778 0.21,0 0.38,-0.0789 0.438,-0.2227 0.091,-0.2242 -0.13,-0.5254 -0.492,-0.6711 -0.13,-0.0519 -0.261,-0.0769 -0.379,-0.0769"
         id="path1910"
         style="fill:#d28954;fill-opacity:1;fill-rule:nonzero;stroke:none" /><path
         d="m -17.244157,121.23741 c -0.063,0 -0.104,0.0121 -0.115,0.0391 -0.034,0.0828 0.233,0.268 0.595,0.4129 0.244,0.098 0.469,0.1531 0.6,0.1531 0.063,0 0.104,-0.0129 0.115,-0.0398 0.033,-0.0821 -0.233,-0.2684 -0.595,-0.4133 -0.244,-0.0981 -0.469,-0.152 -0.6,-0.152"
         id="path1912"
         style="fill:#d28954;fill-opacity:1;fill-rule:nonzero;stroke:none" /><path
         d="m -24.817157,117.33671 c -0.128,0 -0.226,0.041 -0.258,0.1187 -0.053,0.1332 0.111,0.3231 0.364,0.425 0.105,0.0422 0.21,0.0633 0.3,0.0633 0.127,0 0.225,-0.041 0.256,-0.1184 0.055,-0.1347 -0.109,-0.3238 -0.363,-0.4269 -0.105,-0.041 -0.209,-0.0617 -0.299,-0.0617"
         id="path1914"
         style="fill:#d28954;fill-opacity:1;fill-rule:nonzero;stroke:none" /><path
         d="m -30.962157,115.87061 c -0.166,0 -0.3,0.059 -0.344,0.1707 -0.071,0.1762 0.112,0.4172 0.41,0.5352 0.112,0.0449 0.224,0.0672 0.324,0.0672 0.166,0 0.299,-0.0602 0.344,-0.1703 0.071,-0.1778 -0.113,-0.418 -0.411,-0.5379 -0.112,-0.0442 -0.223,-0.0649 -0.323,-0.0649"
         id="path1916"
         style="fill:#d28954;fill-opacity:1;fill-rule:nonzero;stroke:none" /><path
         d="m -27.882157,116.42061 c -0.207,0 -0.43,0.1789 -0.54,0.4539 -0.132,0.3309 -0.051,0.6758 0.183,0.7692 0.04,0.0156 0.082,0.0238 0.125,0.0238 0.206,0 0.429,-0.1789 0.539,-0.4539 0.133,-0.3312 0.052,-0.675 -0.182,-0.7691 -0.041,-0.016 -0.083,-0.0239 -0.125,-0.0239"
         id="path1918"
         style="fill:#d28954;fill-opacity:1;fill-rule:nonzero;stroke:none" /><path
         d="m -69.187157,122.14251 c -0.163,0 -0.373,0.1949 -0.505,0.4828 -0.15,0.3332 -0.139,0.666 0.028,0.7434 0.023,0.01 0.048,0.0156 0.074,0.0156 0.162,0 0.373,-0.1957 0.504,-0.484 0.151,-0.334 0.139,-0.666 -0.028,-0.7429 -0.023,-0.01 -0.047,-0.0149 -0.073,-0.0149"
         id="path1920"
         style="fill:#d28954;fill-opacity:1;fill-rule:nonzero;stroke:none" /><path
         d="m -66.899157,120.41171 c -0.184,0 -0.332,0.1457 -0.332,0.3277 0,0.1801 0.148,0.3281 0.332,0.3281 0.184,0 0.331,-0.148 0.331,-0.3281 0,-0.182 -0.147,-0.3277 -0.331,-0.3277"
         id="path1922"
         style="fill:#d28954;fill-opacity:1;fill-rule:nonzero;stroke:none" /><path
         d="m -15.040157,122.92851 c -0.107,0 -0.225,0.0281 -0.337,0.0851 -0.285,0.1469 -0.431,0.4309 -0.327,0.634 0.063,0.1238 0.204,0.1898 0.368,0.1898 0.107,0 0.225,-0.0277 0.337,-0.0859 0.287,-0.1469 0.433,-0.4309 0.328,-0.6352 -0.064,-0.1226 -0.204,-0.1878 -0.369,-0.1878"
         id="path1924"
         style="fill:#d28954;fill-opacity:1;fill-rule:nonzero;stroke:none" /><path
         d="m -21.760157,118.60461 c -0.022,0 -0.045,0 -0.068,8e-4 -0.364,0.018 -0.655,0.1813 -0.645,0.3641 0.007,0.1711 0.275,0.3 0.608,0.3 0.023,0 0.046,0 0.07,-0.002 0.368,-0.016 0.657,-0.1789 0.647,-0.3629 -0.008,-0.1711 -0.275,-0.3 -0.612,-0.3"
         id="path1926"
         style="fill:#d28954;fill-opacity:1;fill-rule:nonzero;stroke:none" /><path
         d="m -18.875157,119.89251 c -0.05,0 -0.101,0.011 -0.149,0.0352 -0.161,0.0828 -0.224,0.2847 -0.14,0.4468 0.059,0.1149 0.176,0.1809 0.296,0.1809 0.05,0 0.101,-0.0117 0.149,-0.0367 0.161,-0.082 0.222,-0.2813 0.139,-0.4453 -0.058,-0.1149 -0.175,-0.1809 -0.295,-0.1809"
         id="path1928"
         style="fill:#d28954;fill-opacity:1;fill-rule:nonzero;stroke:none" /><path
         d="m -54.850157,147.34641 c -0.384,-1.4027 -1.902,-2.2801 -3.015,-3.0668 -1.158,-0.8172 -2.204,-1.6222 -3.012,-2.8 -1.075,-1.566 -2.068,-3.1722 -3.329,-4.6011 -1.138,-1.2918 -2.679,-2.1668 -3.612,-3.6372 -1.246,-1.9679 0.331,-3.666 2.342,-3.4519 2.188,0.234 4.299,1.4121 6.22,2.4191 3.928,2.0578 7.672,4.4539 11.466,6.7481 3.232,1.9508 6.914,3.6969 9.668,6.3211 0.238,0.2269 2.638,2.6109 2.65,2.5797 0.316,-0.8231 -1.61,-2.1321 -2.118,-2.5489 -1.986,-1.632 -4.11,-2.8582 -5.661,-4.964 -1.103,-1.4942 -1.958,-3.109 -2.694,-4.8071 -0.726,-1.6769 -1.146,-3.5211 -1.965,-5.148 -0.883,-1.7559 -3.081,-4.7629 -0.898,-6.459 1.644,-1.2789 4.204,0.0859 5.721,0.934 2.66,1.4859 4.603,3.8223 6.843,5.834 1.507,1.3519 3.169,2.5043 4.637,3.9019 1.498,1.4274 2.305,3.3821 3.95,4.6473 1.297,0.9937 2.728,1.709 3.842,2.9301 0.784,0.8617 2.284,2.2136 2.349,0.2597 0.075,-2.3589 -1.232,-4.9359 -2.143,-7.0461 -0.8,-1.8476 -1.618,-3.6617 -2.173,-5.6046 -0.29,-1.0153 -0.494,-2.2313 0.108,-3.168 0.489,-0.7613 1.708,-0.0563 1.215,0.7117 -0.666,1.0402 0.285,2.9352 0.66,3.9711 0.294,0.8078 0.619,1.5922 0.966,2.3801 0.983,2.223 1.986,4.475 2.536,6.8519 0.284,1.2301 0.625,4.145 -1.279,4.42 -1.18,0.1699 -1.986,-0.4801 -2.783,-1.286 -1.346,-1.3691 -2.858,-2.3219 -4.376,-3.4871 -1.387,-1.0641 -2.019,-2.607 -3.169,-3.873 -1.472,-1.6188 -3.264,-2.8957 -4.948,-4.2789 -2.461,-2.0219 -4.385,-4.5168 -7.199,-6.0891 -0.988,-0.5527 -2.112,-1.0789 -3.264,-1.0918 -1.961,-0.018 -0.481,2.7867 -0.065,3.568 1.675,3.139 2.485,6.623 4.314,9.7019 1.53,2.5762 3.668,4.0141 5.966,5.7918 1.212,0.9371 3.931,2.8344 2.83,4.716 -1.285,2.1922 -4.262,-1.7918 -5.028,-2.5238 -1.411,-1.3441 -3.245,-2.3621 -4.909,-3.3609 -1.884,-1.1301 -3.775,-2.25 -5.651,-3.3922 -1.023,-0.6207 -16.186,-10.2489 -16.927,-7.7789 -0.426,1.4218 2.44,3.141 3.262,3.9761 1.299,1.3188 2.314,2.9028 3.333,4.4348 0.942,1.4172 1.952,2.318 3.334,3.2941 1.113,0.786 2.228,1.593 2.981,2.75 0.185,0.2829 0.295,0.6258 0.382,0.9469 0.242,0.8781 -1.117,1.2492 -1.357,0.375"
         id="path1930"
         style="fill:#211d1e;fill-opacity:1;fill-rule:nonzero;stroke:none" /><path
         d="m -36.680157,139.08671 -0.107,0.2757 0.883,0.3422 0.108,-0.275 -0.884,-0.3429"
         id="path1932"
         style="fill:#211d1e;fill-opacity:1;fill-rule:nonzero;stroke:none" /><path
         d="m -34.039157,128.02771 -0.106,0.2738 0.885,0.3422 0.107,-0.2731 -0.886,-0.3429"
         id="path1934"
         style="fill:#211d1e;fill-opacity:1;fill-rule:nonzero;stroke:none" /><path
         d="m -43.854157,146.44061 -0.155,-0.25 -0.806,0.5 0.156,0.2507 0.805,-0.5007"
         id="path1936"
         style="fill:#211d1e;fill-opacity:1;fill-rule:nonzero;stroke:none" /><path
         d="m -30.295157,140.81561 -0.526,0.1769 0.135,0.4012 0.525,-0.1762 -0.134,-0.4019"
         id="path1938"
         style="fill:#211d1e;fill-opacity:1;fill-rule:nonzero;stroke:none" /><path
         d="m -43.643157,129.49841 -0.525,0.1769 0.134,0.4 0.526,-0.1758 -0.135,-0.4011"
         id="path1940"
         style="fill:#211d1e;fill-opacity:1;fill-rule:nonzero;stroke:none" /><path
         d="m -29.043157,133.57531 -0.345,0.0653 0.153,0.8039 0.346,-0.066 -0.154,-0.8032"
         id="path1942"
         style="fill:#211d1e;fill-opacity:1;fill-rule:nonzero;stroke:none" /><path
         d="m -56.938157,137.22061 -0.347,0.0668 0.154,0.802 0.345,-0.066 -0.152,-0.8028"
         id="path1944"
         style="fill:#211d1e;fill-opacity:1;fill-rule:nonzero;stroke:none" /><path
         d="m -26.281157,136.59761 -1.121,-0.4883 -0.116,0.2633 1.123,0.4879 0.114,-0.2629"
         id="path1946"
         style="fill:#211d1e;fill-opacity:1;fill-rule:nonzero;stroke:none" /><path
         d="m -50.471157,145.64451 -1.122,-0.4891 -0.115,0.2633 1.123,0.4879 0.114,-0.2621"
         id="path1948"
         style="fill:#211d1e;fill-opacity:1;fill-rule:nonzero;stroke:none" /><path
         d="m -41.604157,133.98431 -1.121,-0.4887 -0.115,0.2629 1.122,0.4899 0.114,-0.2641"
         id="path1950"
         style="fill:#211d1e;fill-opacity:1;fill-rule:nonzero;stroke:none" /><path
         d="m -18.475157,133.87141 -0.567,0.284 0.86,1.7152 0.566,-0.2863 -0.859,-1.7129"
         id="path1952"
         style="fill:#211d1e;fill-opacity:1;fill-rule:nonzero;stroke:none" /><path
         d="m -39.333157,134.82961 -0.356,0.525 1.59,1.075 0.355,-0.5269 -1.589,-1.0731"
         id="path1954"
         style="fill:#211d1e;fill-opacity:1;fill-rule:nonzero;stroke:none" /><path
         d="m -20.566157,132.03551 -0.231,-0.1602 -0.711,1.0321 0.231,0.1589 0.711,-1.0308"
         id="path1956"
         style="fill:#211d1e;fill-opacity:1;fill-rule:nonzero;stroke:none" /><path
         d="m -47.704157,143.11951 -1.033,-0.2129 -0.141,0.6898 1.033,0.2133 0.141,-0.6902"
         id="path1958"
         style="fill:#211d1e;fill-opacity:1;fill-rule:nonzero;stroke:none" /><path
         d="m -51.188157,140.45271 -0.322,0.2629 0.519,0.639 0.323,-0.2609 -0.52,-0.641"
         id="path1960"
         style="fill:#211d1e;fill-opacity:1;fill-rule:nonzero;stroke:none" /><path
         d="m -60.750157,135.82261 -1.256,-1.075 -0.314,0.3668 1.257,1.0742 0.313,-0.366"
         id="path1962"
         style="fill:#211d1e;fill-opacity:1;fill-rule:nonzero;stroke:none" /><path
         d="m -49.924157,133.89641 -0.811,0.241 0.345,1.161 0.81,-0.2418 -0.344,-1.1602"
         id="path1964"
         style="fill:#211d1e;fill-opacity:1;fill-rule:nonzero;stroke:none" /><path
         d="m -55.130157,141.50541 -0.512,-0.275 -0.453,0.841 0.511,0.2762 0.454,-0.8422"
         id="path1966"
         style="fill:#211d1e;fill-opacity:1;fill-rule:nonzero;stroke:none" /><path
         d="m -55.612157,129.62531 -0.513,-0.275 -0.454,0.841 0.512,0.275 0.455,-0.841"
         id="path1968"
         style="fill:#211d1e;fill-opacity:1;fill-rule:nonzero;stroke:none" /><path
         d="m -32.188157,143.80541 -0.513,-0.275 -0.452,0.8422 0.512,0.275 0.453,-0.8422"
         id="path1970"
         style="fill:#211d1e;fill-opacity:1;fill-rule:nonzero;stroke:none" /><path
         d="m -62.515157,143.12061 -0.307,0.1707 0.448,0.7981 0.307,-0.1719 -0.448,-0.7969"
         id="path1972"
         style="fill:#211d1e;fill-opacity:1;fill-rule:nonzero;stroke:none" /></g></g></svg>