<svg id="Layer_1" enable-background="new 0 0 55 55" viewBox="0 0 55 55" xmlns="http://www.w3.org/2000/svg"><g id="_x38_8"><g><g><path d="m37.7830276 45.615303c-11.7373047.0226135-21.1110744-9.011322-24.5574646-13.8005028-2.6833296-3.7158394-2.6756001-7.9741039-7.0568762-12.1891727-2.4169452-2.2976551-3.3270106-4.5952196-2.1633401-6.8779411-.7161047 1.85009 1.239502 3.9526768 5.0141692 6.6232262 1.8051958 6.6989155 6.3648462 11.9827385 13.7202196 16.6078243 8.3847313 5.8334694 15.8754044 7.7948265 23.5738983 4.6169739 1.9842224-.8205528 4.4170418-4.4611549 5.1630173-6.3558655.0597335.3580551.7979232 11.3475342-13.6936235 11.3754577z" fill="#8fbd26"></path></g><g><path d="m50.9283524 38.1967049c-1.1158028 3.277092-4.2823334 7.398613-13.1485596 7.4186783-11.7311325.0201225-21.1100407-9.0069122-24.5580063-13.8019276-2.7087975-3.7641029-2.6926088-8.0414219-7.0568042-12.1835041-2.4125395-2.3020382-3.3273423-4.6040163-2.1612296-6.8859301-.2111223.5529308-.2111223 1.1560497 0 1.779294.6202903 3.220705 3.5965314 4.0984192 5.5790701 7.9313583 2.1974239 4.1455593 2.114543 5.6081676 4.0611477 8.3133545 3.4480267 4.784893 12.8168106 13.822052 24.5580673 13.8019257 7.9514237-.0201225 11.3089523-3.3273392 12.7263146-6.373249z" fill="#6d9415"></path></g><g><g><path d="m5.0571933 11.3900557c-2.5006759 2.0311193-1.0906622 4.7844439 3.6832423 8.1590796 1.7973423 6.6986408 6.4466066 12.3373299 13.8004999 16.9708881 8.3778152 5.8322792 16.4469337 7.5669098 24.1465874 4.3970032 3.3237762-1.3683853 5.4287949-4.9035187 4.6134682-8.4042625-.5599442-2.4042015-2.1356506-4.9412899-4.6557999-7.6019478-4.9382019-4.723341-11.4378738-8.0173874-19.3952999-9.9773884l-11.0497265-3.8697357c-3.9756613-2.4585601-7.6650038-2.1042405-11.1429715.3263635z" fill="#a0cf31"></path></g><g><path d="m38.8933334 40.9900322c-4.857563 0-10.0728188-1.9159279-15.5000648-5.6945992-12.1118174-7.63377-13.068285-16.1003017-13.3517513-16.6532669-.1003695-.0958805-4.6435318-3.0547981-4.7096834-4.9952507-.0050993-.148612-.0182123-.5434532.6658392-1.0985613 3.1002398-2.1574936 6.1748152-2.2204552 9.4179096-.2156334 15.7924576 5.5823412 10.0312443 3.5458593 11.3411217 4.0088758 7.8902683 1.9501667 14.1887836 5.1824741 18.8569431 9.6473846 2.3020287 2.4331532 3.7444382 4.7592201 4.2339821 6.8623676.6243134 2.6793861-.978363 5.5540047-3.7284088 6.6860771-2.3406372.9637909-4.7723351 1.4526062-7.2251587 1.4526062-.0007287.0000002-.0007287.0000002-.0007287.0000002z" fill="#ff7b00"></path></g><g><path d="m24.0823555 34.3053284c-6.8747044-4.3346081-11.1445198-9.5242577-12.7358227-15.4555664l-.253273-.9409389c-.2126856-.1884346-4.0084004-2.6084156-4.5363421-4.2344761.4349666-.5045614 2.3667455-1.5913029 4.2712884-1.5913029 2.1810541 0 4.0384102 1.3504601 4.2020807 1.4298162l11.3815937 3.9861097.0554657.0137444c7.6409035 1.8882618 13.8019257 5.0335636 18.312252 9.3480453 2.0988312 2.220068 3.4594421 4.4008694 3.8928528 6.2640991.4918213 2.110611-.8030128 4.3876152-3.0122833 5.2966537-7.4985886 3.0893289-14.8676529.5557557-21.5778122-4.1161841z" fill="#fc9038"></path></g><g><path d="m16.9461384 16.7983608c7.5345535 1.5158272 23.2971325 5.8453827 27.271265 15.5162029.362915.8831253-.076725 1.8795319-.9802933 2.1880531-2.318203.7915535-7.6620674.8864594-17.7589054-7.0275173-14.4641971-11.3371448-11.8817186-11.3506336-8.5320663-10.6767387z" fill="#f60"></path></g><g><path d="m43.7710457 34.1958694c0-.1809349-.0401878-.3819962-.1206245-.5629311-3.9707108-9.6704044-19.7328663-14.0029869-27.2721653-15.5108471-.6333065-.1306858-1.2364264-.231184-1.6988583-.2412472-1.0655527-1.6084213.4925575-1.4374866 2.2617893-1.0856762 7.5393009 1.5179214 23.3014584 5.8505039 27.2721691 15.5209103.2914963.6835557.090435 1.4374848-.4423103 1.8797913z" fill="#ff5300"></path></g></g><g><g><g><path d="m20.5863838 18.8986473c0 .6522942-.5381279 1.1904221-1.1904697 1.1904221-.6604557 0-1.1904202-.5381279-1.1904202-1.1904221 0-.6604538.5299644-1.1904697 1.1904202-1.1904697.6523418 0 1.1904697.5300159 1.1904697 1.1904697z" fill="#1f2021"></path></g><g><path d="m19.0919037 18.3209133c0 .6522923-.5381279 1.1904202-1.1904697 1.1904202-.6604557 0-1.1904221-.5381279-1.1904221-1.1904202 0-.6604557.5299664-1.1904716 1.1904221-1.1904716.6523418 0 1.1904697.5300159 1.1904697 1.1904716z" fill="#333"></path></g><g><path d="m19.336935 19.3709373c0 .6522942-.5381279 1.1904221-1.1904697 1.1904221-.6604557 0-1.1904221-.5381279-1.1904221-1.1904221 0-.6604538.5299664-1.1904697 1.1904221-1.1904697.6523418 0 1.1904697.530016 1.1904697 1.1904697z" fill="#292a2b"></path></g></g><g><path d="m22.6727791 19.6030483c0 .6522923-.5381279 1.1904202-1.1904697 1.1904202-.6604538 0-1.1904202-.5381279-1.1904202-1.1904202 0-.6604538.5299664-1.1904697 1.1904202-1.1904697.6523418 0 1.1904697.5300159 1.1904697 1.1904697z" fill="#333"></path></g><g><path d="m21.2451973 19.5423565c0 .6522923-.5381279 1.1904202-1.1904716 1.1904202-.6604538 0-1.1904202-.5381279-1.1904202-1.1904202 0-.6604557.5299664-1.1904716 1.1904202-1.1904716.6523437-.0000001 1.1904716.5300159 1.1904716 1.1904716z" fill="#333"></path></g><g><path d="m20.5863838 20.5613842c0 .6522923-.5381279 1.1904202-1.1904697 1.1904202-.6604557 0-1.1904202-.5381279-1.1904202-1.1904202 0-.6604557.5299644-1.1904716 1.1904202-1.1904716.6523418 0 1.1904697.5300159 1.1904697 1.1904716z" fill="#1f2021"></path></g><g><path d="m22.4356422 20.3192635c0 .6522923-.5381279 1.1904202-1.1904697 1.1904202-.6604557 0-1.1904221-.5381279-1.1904221-1.1904202 0-.6604557.5299664-1.1904716 1.1904221-1.1904716.6523418-.0000001 1.1904697.5300159 1.1904697 1.1904716z" fill="#292a2b"></path></g></g><g><g><g><path d="m22.1411457 20.9672089c0 .6522923.5381279 1.1904202 1.1904716 1.1904202.6604538 0 1.1904202-.5381279 1.1904202-1.1904202 0-.6604557-.5299664-1.1904716-1.1904202-1.1904716-.6523437-.0000001-1.1904716.5300159-1.1904716 1.1904716z" fill="#1f2021"></path></g><g><path d="m23.6356277 20.389473c0 .6522942.5381279 1.1904221 1.1904697 1.1904221.6604538 0 1.1904202-.5381279 1.1904202-1.1904221 0-.6604538-.5299664-1.1904697-1.1904202-1.1904697-.6523418-.0000001-1.1904697.5300159-1.1904697 1.1904697z" fill="#333"></path></g><g><path d="m23.3905964 21.4394989c0 .6522923.5381279 1.1904202 1.1904697 1.1904202.6604538 0 1.1904202-.5381279 1.1904202-1.1904202 0-.6604557-.5299664-1.1904716-1.1904202-1.1904716-.6523418 0-1.1904697.5300159-1.1904697 1.1904716z" fill="#292a2b"></path></g></g><g><path d="m20.0547504 21.6716099c0 .6522923.5381279 1.1904202 1.1904716 1.1904202.6604538 0 1.1904202-.5381279 1.1904202-1.1904202 0-.6604557-.5299664-1.1904716-1.1904202-1.1904716-.6523437-.0000001-1.1904716.5300159-1.1904716 1.1904716z" fill="#333"></path></g><g><path d="m21.4823341 21.6109161c0 .6522923.5381279 1.1904202 1.1904697 1.1904202.6604557 0 1.1904221-.5381279 1.1904221-1.1904202 0-.6604538-.5299664-1.1904697-1.1904221-1.1904697-.6523418 0-1.1904697.5300159-1.1904697 1.1904697z" fill="#333"></path></g><g><path d="m22.1411457 22.6299438c0 .6522923.5381279 1.1904202 1.1904716 1.1904202.6604538 0 1.1904202-.5381279 1.1904202-1.1904202 0-.6604538-.5299664-1.1904697-1.1904202-1.1904697-.6523437 0-1.1904716.530016-1.1904716 1.1904697z" fill="#1f2021"></path></g><g><path d="m20.2918892 22.3878231c0 .6522942.5381279 1.1904202 1.1904697 1.1904202.6604538 0 1.1904202-.538126 1.1904202-1.1904202 0-.6604538-.5299664-1.1904697-1.1904202-1.1904697-.6523418 0-1.1904697.5300159-1.1904697 1.1904697z" fill="#292a2b"></path></g></g><g><g><g><path d="m26.9110069 24.0769539c0 .6522942-.5381279 1.1904221-1.1904716 1.1904221-.6604538 0-1.1904202-.5381279-1.1904202-1.1904221 0-.6604538.5299664-1.1904697 1.1904202-1.1904697.6523437-.0000001 1.1904716.5300159 1.1904716 1.1904697z" fill="#1f2021"></path></g><g><path d="m25.4165268 23.4992199c0 .6522923-.5381279 1.1904202-1.1904716 1.1904202-.6604538 0-1.1904202-.5381279-1.1904202-1.1904202 0-.6604557.5299664-1.1904716 1.1904202-1.1904716.6523437-.0000001 1.1904716.5300159 1.1904716 1.1904716z" fill="#333"></path></g><g><path d="m25.6615582 24.5492439c0 .6522923-.5381279 1.1904202-1.1904716 1.1904202-.6604538 0-1.1904202-.5381279-1.1904202-1.1904202 0-.6604538.5299664-1.1904697 1.1904202-1.1904697.6523437 0 1.1904716.5300159 1.1904716 1.1904697z" fill="#292a2b"></path></g></g><g><path d="m28.9974022 24.7813549c0 .6522923-.5381279 1.1904202-1.1904716 1.1904202-.6604538 0-1.1904202-.5381279-1.1904202-1.1904202 0-.6604538.5299664-1.1904697 1.1904202-1.1904697.6523437 0 1.1904716.5300159 1.1904716 1.1904697z" fill="#333"></path></g><g><path d="m27.5698185 24.7206631c0 .6522923-.5381279 1.1904202-1.1904697 1.1904202-.6604538 0-1.1904202-.5381279-1.1904202-1.1904202 0-.6604557.5299664-1.1904716 1.1904202-1.1904716.6523418-.0000001 1.1904697.5300159 1.1904697 1.1904716z" fill="#333"></path></g><g><path d="m26.9110069 25.7396908c0 .6522923-.5381279 1.1904202-1.1904716 1.1904202-.6604538 0-1.1904202-.5381279-1.1904202-1.1904202 0-.6604557.5299664-1.1904716 1.1904202-1.1904716.6523437-.0000001 1.1904716.5300159 1.1904716 1.1904716z" fill="#1f2021"></path></g><g><path d="m28.7602654 25.49757c0 .6522923-.5381279 1.1904202-1.1904716 1.1904202-.6604538 0-1.1904202-.5381279-1.1904202-1.1904202 0-.6604557.5299664-1.1904716 1.1904202-1.1904716.6523437 0 1.1904716.5300159 1.1904716 1.1904716z" fill="#292a2b"></path></g></g><g><g><g><path d="m29.3713398 22.2493439c0 .6522942-.5381279 1.1904221-1.1904697 1.1904221-.6604557 0-1.1904221-.5381279-1.1904221-1.1904221 0-.6604538.5299664-1.1904697 1.1904221-1.1904697.6523418-.0000001 1.1904697.5300159 1.1904697 1.1904697z" fill="#1f2021"></path></g><g><path d="m27.8768597 21.6716099c0 .6522923-.5381279 1.1904202-1.1904716 1.1904202-.6604538 0-1.1904202-.5381279-1.1904202-1.1904202 0-.6604557.5299664-1.1904716 1.1904202-1.1904716.6523437-.0000001 1.1904716.5300159 1.1904716 1.1904716z" fill="#333"></path></g><g><path d="m28.121891 22.7216339c0 .6522923-.5381279 1.1904202-1.1904716 1.1904202-.6604538 0-1.1904202-.5381279-1.1904202-1.1904202 0-.6604538.5299664-1.1904697 1.1904202-1.1904697.6523437 0 1.1904716.5300159 1.1904716 1.1904697z" fill="#292a2b"></path></g></g><g><path d="m31.4577351 22.9537449c0 .6522923-.5381279 1.1904202-1.1904697 1.1904202-.6604557 0-1.1904221-.5381279-1.1904221-1.1904202 0-.6604538.5299664-1.1904697 1.1904221-1.1904697.6523418-.0000001 1.1904697.5300159 1.1904697 1.1904697z" fill="#333"></path></g><g><path d="m30.0301514 22.8930511c0 .6522942-.5381279 1.1904221-1.1904697 1.1904221-.6604538 0-1.1904202-.5381279-1.1904202-1.1904221 0-.6604538.5299664-1.1904697 1.1904202-1.1904697.6523418 0 1.1904697.530016 1.1904697 1.1904697z" fill="#333"></path></g><g><path d="m29.3713398 23.9120789c0 .6522942-.5381279 1.1904221-1.1904697 1.1904221-.6604557 0-1.1904221-.5381279-1.1904221-1.1904221 0-.6604538.5299664-1.1904697 1.1904221-1.1904697.6523418-.0000001 1.1904697.5300159 1.1904697 1.1904697z" fill="#1f2021"></path></g><g><path d="m31.2205982 23.66996c0 .6522923-.5381279 1.1904202-1.1904716 1.1904202-.6604538 0-1.1904202-.5381279-1.1904202-1.1904202 0-.6604557.5299664-1.1904716 1.1904202-1.1904716.6523437 0 1.1904716.5300159 1.1904716 1.1904716z" fill="#292a2b"></path></g></g><g><g><g><path d="m30.9261017 24.3179054c0 .6522923.5381279 1.1904202 1.1904716 1.1904202.6604538 0 1.1904182-.5381279 1.1904182-1.1904202 0-.6604557-.5299644-1.1904716-1.1904182-1.1904716-.6523437 0-1.1904716.5300159-1.1904716 1.1904716z" fill="#1f2021"></path></g><g><path d="m32.4205818 23.7401695c0 .6522923.5381279 1.1904202 1.1904716 1.1904202.6604538 0 1.1904221-.5381279 1.1904221-1.1904202 0-.6604538-.5299683-1.1904697-1.1904221-1.1904697-.6523437 0-1.1904716.5300159-1.1904716 1.1904697z" fill="#333"></path></g><g><path d="m32.1755524 24.7901936c0 .6522942.5381279 1.1904221 1.1904678 1.1904221.6604576 0 1.1904221-.5381279 1.1904221-1.1904221 0-.6604538-.5299644-1.1904697-1.1904221-1.1904697-.6523399-.0000001-1.1904678.5300159-1.1904678 1.1904697z" fill="#292a2b"></path></g></g><g><path d="m28.8397064 25.0223045c0 .6522942.5381279 1.1904221 1.1904697 1.1904221.6604557 0 1.1904221-.5381279 1.1904221-1.1904221 0-.6604538-.5299664-1.1904697-1.1904221-1.1904697-.6523418 0-1.1904697.5300159-1.1904697 1.1904697z" fill="#333"></path></g><g><path d="m30.2672901 24.9616127c0 .6522923.5381279 1.1904202 1.1904697 1.1904202.6604538 0 1.1904221-.5381279 1.1904221-1.1904202 0-.6604557-.5299683-1.1904716-1.1904221-1.1904716-.6523418 0-1.1904697.5300159-1.1904697 1.1904716z" fill="#333"></path></g><g><path d="m30.9261017 25.9806404c0 .6522923.5381279 1.1904202 1.1904716 1.1904202.6604538 0 1.1904182-.5381279 1.1904182-1.1904202 0-.6604557-.5299644-1.1904716-1.1904182-1.1904716-.6523437 0-1.1904716.5300159-1.1904716 1.1904716z" fill="#1f2021"></path></g><g><path d="m29.0768433 25.7385197c0 .6522923.5381279 1.1904202 1.1904716 1.1904202.6604538 0 1.1904202-.5381279 1.1904202-1.1904202 0-.6604538-.5299664-1.1904697-1.1904202-1.1904697-.6523437-.0000001-1.1904716.5300159-1.1904716 1.1904697z" fill="#292a2b"></path></g></g><g><path d="m24.0063305 19.7767639c0 .6522923-.5381279 1.1904202-1.1904716 1.1904202-.6604538 0-1.1904202-.5381279-1.1904202-1.1904202 0-.6604557.5299664-1.1904716 1.1904202-1.1904716.6523437 0 1.1904716.5300159 1.1904716 1.1904716z" fill="#1f2021"></path></g><g><g><g><path d="m28.9974022 26.1005573c0 .6522942.5381279 1.1904221 1.1904697 1.1904221.6604557 0 1.1904221-.5381279 1.1904221-1.1904221 0-.6604538-.5299664-1.1904697-1.1904221-1.1904697-.6523418 0-1.1904697.5300159-1.1904697 1.1904697z" fill="#1f2021"></path></g><g><path d="m30.4918823 25.5228233c0 .6522923.5381279 1.1904202 1.1904716 1.1904202.6604538 0 1.1904182-.5381279 1.1904182-1.1904202 0-.6604557-.5299644-1.1904716-1.1904182-1.1904716-.6523437 0-1.1904716.5300159-1.1904716 1.1904716z" fill="#151516"></path></g><g><path d="m30.246851 26.5728474c0 .6522923.5381279 1.1904202 1.1904697 1.1904202.6604538 0 1.1904221-.5381279 1.1904221-1.1904202 0-.6604538-.5299683-1.1904697-1.1904221-1.1904697-.6523418-.0000001-1.1904697.5300159-1.1904697 1.1904697z" fill="#292a2b"></path></g></g><g><path d="m26.9110069 26.8049583c0 .6522923.5381279 1.1904202 1.1904697 1.1904202.6604557 0 1.1904221-.5381279 1.1904221-1.1904202 0-.6604538-.5299664-1.1904697-1.1904221-1.1904697-.6523418 0-1.1904697.5300159-1.1904697 1.1904697z" fill="#333"></path></g><g><path d="m28.3385887 26.7442665c0 .6522923.5381279 1.1904202 1.1904716 1.1904202.6604538 0 1.1904202-.5381279 1.1904202-1.1904202 0-.6604557-.5299664-1.1904716-1.1904202-1.1904716-.6523437 0-1.1904716.5300159-1.1904716 1.1904716z" fill="#333"></path></g><g><path d="m28.9974022 27.7632923c0 .6522942.5381279 1.1904221 1.1904697 1.1904221.6604557 0 1.1904221-.5381279 1.1904221-1.1904221 0-.6604538-.5299664-1.1904697-1.1904221-1.1904697-.6523418 0-1.1904697.5300159-1.1904697 1.1904697z" fill="#1f2021"></path></g><g><path d="m27.1481438 27.5211735c0 .6522923.5381279 1.1904202 1.1904697 1.1904202.6604557 0 1.1904221-.5381279 1.1904221-1.1904202 0-.6604557-.5299664-1.1904716-1.1904221-1.1904716-.6523418-.0000001-1.1904697.5300159-1.1904697 1.1904716z" fill="#292a2b"></path></g></g><g><g><g><path d="m33.7672615 29.2103043c0 .6522923-.5381279 1.1904202-1.1904716 1.1904202-.6604519 0-1.1904182-.5381279-1.1904182-1.1904202 0-.6604557.5299664-1.1904716 1.1904182-1.1904716.6523437-.0000001 1.1904716.5300159 1.1904716 1.1904716z" fill="#1f2021"></path></g><g><path d="m32.2727814 28.6325684c0 .6522923-.5381279 1.1904202-1.1904697 1.1904202-.6604557 0-1.1904221-.5381279-1.1904221-1.1904202 0-.6604538.5299664-1.1904697 1.1904221-1.1904697.6523418-.0000001 1.1904697.5300159 1.1904697 1.1904697z" fill="#333"></path></g><g><path d="m32.5178146 29.6825943c0 .6522923-.5381298 1.1904202-1.1904716 1.1904202-.6604557 0-1.1904221-.5381279-1.1904221-1.1904202 0-.6604557.5299664-1.1904716 1.1904221-1.1904716.6523418 0 1.1904716.5300159 1.1904716 1.1904716z" fill="#292a2b"></path></g></g><g><path d="m35.8536568 29.9147053c0 .6522923-.5381279 1.1904202-1.1904716 1.1904202-.6604538 0-1.1904182-.5381279-1.1904182-1.1904202 0-.6604557.5299644-1.1904716 1.1904182-1.1904716.6523437-.0000001 1.1904716.5300159 1.1904716 1.1904716z" fill="#333"></path></g><g><path d="m34.426075 29.8540115c0 .6522923-.5381279 1.1904202-1.1904716 1.1904202-.6604538 0-1.1904182-.5381279-1.1904182-1.1904202 0-.6604538.5299644-1.1904697 1.1904182-1.1904697.6523437 0 1.1904716.5300159 1.1904716 1.1904697z" fill="#333"></path></g><g><path d="m33.7672615 30.8730392c0 .6522923-.5381279 1.1904221-1.1904716 1.1904221-.6604519 0-1.1904182-.5381298-1.1904182-1.1904221 0-.6604538.5299664-1.1904697 1.1904182-1.1904697.6523437 0 1.1904716.5300159 1.1904716 1.1904697z" fill="#1f2021"></path></g><g><path d="m35.6165199 30.6309185c0 .6522923-.5381279 1.1904202-1.1904716 1.1904202-.6604538 0-1.1904182-.5381279-1.1904182-1.1904202 0-.6604538.5299644-1.1904697 1.1904182-1.1904697.6523437 0 1.1904716.5300159 1.1904716 1.1904697z" fill="#292a2b"></path></g></g><g><g><g><path d="m36.2275963 27.3826942c0 .6522923-.5381279 1.1904202-1.1904716 1.1904202-.6604538 0-1.1904221-.5381279-1.1904221-1.1904202 0-.6604557.5299683-1.1904716 1.1904221-1.1904716.6523437 0 1.1904716.5300159 1.1904716 1.1904716z" fill="#1f2021"></path></g><g><path d="m34.7331161 26.8049583c0 .6522923-.5381279 1.1904202-1.1904716 1.1904202-.6604538 0-1.1904221-.5381279-1.1904221-1.1904202 0-.6604538.5299683-1.1904697 1.1904221-1.1904697.6523438 0 1.1904716.5300159 1.1904716 1.1904697z" fill="#333"></path></g><g><path d="m34.9781456 27.8549824c0 .6522942-.5381279 1.1904221-1.1904716 1.1904221-.6604538 0-1.1904182-.5381279-1.1904182-1.1904221 0-.6604538.5299644-1.1904697 1.1904182-1.1904697.6523437-.0000001 1.1904716.5300159 1.1904716 1.1904697z" fill="#292a2b"></path></g></g><g><path d="m38.3139915 28.0870934c0 .6522942-.5381279 1.1904221-1.1904716 1.1904221-.6604538 0-1.1904221-.5381279-1.1904221-1.1904221 0-.6604538.5299683-1.1904697 1.1904221-1.1904697.6523437-.0000001 1.1904716.5300159 1.1904716 1.1904697z" fill="#333"></path></g><g><path d="m36.8864059 28.0264015c0 .6522923-.5381279 1.1904202-1.1904678 1.1904202-.6604538 0-1.1904221-.5381279-1.1904221-1.1904202 0-.6604557.5299683-1.1904716 1.1904221-1.1904716.6523399 0 1.1904678.5300159 1.1904678 1.1904716z" fill="#333"></path></g><g><path d="m36.2275963 29.0454292c0 .6522923-.5381279 1.1904202-1.1904716 1.1904202-.6604538 0-1.1904221-.5381279-1.1904221-1.1904202 0-.6604557.5299683-1.1904716 1.1904221-1.1904716.6523437 0 1.1904716.5300159 1.1904716 1.1904716z" fill="#1f2021"></path></g><g><path d="m38.0768547 28.8033085c0 .6522923-.5381279 1.1904202-1.1904716 1.1904202-.6604538 0-1.1904221-.5381279-1.1904221-1.1904202 0-.6604538.5299683-1.1904697 1.1904221-1.1904697.6523437-.0000001 1.1904716.5300159 1.1904716 1.1904697z" fill="#292a2b"></path></g></g><g><g><g><path d="m37.7823563 29.4512539c0 .6522923.5381279 1.1904202 1.1904716 1.1904202.6604538 0 1.1904221-.5381279 1.1904221-1.1904202 0-.6604538-.5299683-1.1904697-1.1904221-1.1904697-.6523437-.0000001-1.1904716.5300159-1.1904716 1.1904697z" fill="#1f2021"></path></g><g><path d="m39.2768364 28.873518c0 .6522942.5381279 1.1904221 1.1904716 1.1904221.6604538 0 1.1904221-.5381279 1.1904221-1.1904221 0-.6604538-.5299683-1.1904697-1.1904221-1.1904697-.6523437-.0000001-1.1904716.5300159-1.1904716 1.1904697z" fill="#333"></path></g><g><path d="m39.0318069 29.9235439c0 .6522923.5381279 1.1904202 1.1904716 1.1904202.6604538 0 1.1904182-.5381279 1.1904182-1.1904202 0-.6604538-.5299644-1.1904697-1.1904182-1.1904697-.6523437 0-1.1904716.5300159-1.1904716 1.1904697z" fill="#292a2b"></path></g></g><g><path d="m35.695961 30.1556549c0 .6522923.5381279 1.1904202 1.1904716 1.1904202.6604538 0 1.1904221-.5381279 1.1904221-1.1904202 0-.6604557-.5299683-1.1904716-1.1904221-1.1904716-.6523437 0-1.1904716.5300159-1.1904716 1.1904716z" fill="#333"></path></g><g><path d="m35.7587891 26.3307266c0 .6522942.5381279 1.1904221 1.1904716 1.1904221.6604538 0 1.1904182-.5381279 1.1904182-1.1904221 0-.6604538-.5299644-1.1904697-1.1904182-1.1904697-.6523437 0-1.1904716.5300159-1.1904716 1.1904697z" fill="#333"></path></g><g><path d="m37.1235466 30.0949612c0 .6522942.5381279 1.1904221 1.1904678 1.1904221.6604538 0 1.1904221-.5381279 1.1904221-1.1904221 0-.6604538-.5299683-1.1904697-1.1904221-1.1904697-.6523399-.0000001-1.1904678.5300159-1.1904678 1.1904697z" fill="#333"></path></g><g><path d="m37.7823563 31.1139889c0 .6522942.5381279 1.1904202 1.1904716 1.1904202.6604538 0 1.1904221-.538126 1.1904221-1.1904202 0-.6604538-.5299683-1.1904697-1.1904221-1.1904697-.6523437-.0000001-1.1904716.5300159-1.1904716 1.1904697z" fill="#1f2021"></path></g><g><path d="m35.9330978 30.8718681c0 .6522942.5381279 1.1904221 1.1904716 1.1904221.6604538 0 1.1904221-.5381279 1.1904221-1.1904221 0-.6604538-.5299683-1.1904697-1.1904221-1.1904697-.6523437 0-1.1904716.5300159-1.1904716 1.1904697z" fill="#292a2b"></path></g><g><path d="m39.7655754 31.1139889c0 .6522942.5381279 1.1904202 1.1904716 1.1904202.6604538 0 1.1904221-.538126 1.1904221-1.1904202 0-.6604538-.5299683-1.1904697-1.1904221-1.1904697-.6523437-.0000001-1.1904716.5300159-1.1904716 1.1904697z" fill="#292a2b"></path></g></g><g><path d="m33.3118362 26.9534187c0 .6522942-.5381279 1.1904221-1.1904716 1.1904221-.6604538 0-1.1904202-.5381279-1.1904202-1.1904221 0-.6604538.5299664-1.1904697 1.1904202-1.1904697.6523437 0 1.1904716.5300159 1.1904716 1.1904697z" fill="#1f2021"></path></g><g><path d="m36.2961426 25.7385197c0 .6522923-.5381279 1.1904202-1.1904716 1.1904202-.6604538 0-1.1904182-.5381279-1.1904182-1.1904202 0-.6604538.5299644-1.1904697 1.1904182-1.1904697.6523437-.0000001 1.1904716.5300159 1.1904716 1.1904697z" fill="#1f2021"></path></g><g><path d="m26.6864128 22.6299438c0 .6522923-.5381279 1.1904202-1.1904697 1.1904202-.6604538 0-1.1904202-.5381279-1.1904202-1.1904202 0-.6604538.5299664-1.1904697 1.1904202-1.1904697.6523418 0 1.1904697.530016 1.1904697 1.1904697z" fill="#1f2021"></path></g><g><path d="m34.426075 31.5158501c0 .6522942.5381279 1.1904221 1.1904716 1.1904221.6604538 0 1.1904182-.5381279 1.1904182-1.1904221 0-.6604538-.5299644-1.1904697-1.1904182-1.1904697-.6523437-.0000001-1.1904716.5300159-1.1904716 1.1904697z" fill="#1f2021"></path></g><g><path d="m36.8864059 32.4111443c0 .6522903.5381279 1.1904182 1.1904716 1.1904182.6604538 0 1.1904221-.5381279 1.1904221-1.1904182 0-.6604557-.5299683-1.1904716-1.1904221-1.1904716-.6523437-.0000001-1.1904716.5300159-1.1904716 1.1904716z" fill="#333"></path></g><g><path d="m38.8216286 32.5365448c0 .6522942.5381279 1.1904221 1.1904716 1.1904221.6604538 0 1.1904221-.5381279 1.1904221-1.1904221 0-.6604538-.5299683-1.1904697-1.1904221-1.1904697-.6523437 0-1.1904716.5300159-1.1904716 1.1904697z" fill="#1f2021"></path></g></g><g><g><path d="m18.8670006 26.2138042c-1.1917477 0-2.1559944.9642448-2.1559944 2.1559925 0-1.1919422-.9638453-2.1559925-2.1559811-2.1559925.5948229 0 1.1353788-.2420998 1.5256805-.6303139.3882008-.3902893.6303005-.9308453.6303005-1.5256615 0 .5948162.2421131 1.1353722.630312 1.5256615.3902912.3882142.9308586.6303139 1.5256825.6303139z" fill="#fff"></path></g></g></g></svg>