<svg id="Flat" viewBox="0 0 64 64" xmlns="http://www.w3.org/2000/svg"><path d="m25 17h-3v-.69a23.07 23.07 0 0 1 5.347-14.769 1.5 1.5 0 0 1 2.112-.192 1.5 1.5 0 0 1 .192 2.112l-.016.02a20 20 0 0 0 -4.635 12.803z" fill="#9d6b61"></path><path d="m39.85 17.363a22.006 22.006 0 0 1 -5.95-6.663 8.991 8.991 0 0 0 -15.806 0 22.006 22.006 0 0 1 -5.947 6.659c-6.295 4.925-11.147 12.783-11.147 21.641 0 14.912 11.193 23 25 23s25-8.088 25-23c0-8.858-4.852-16.716-11.15-21.637z" fill="#c3f54b"></path><path d="m16.035 19.754a27.005 27.005 0 0 0 -10.035 20.478c0 13.657 9.434 21.268 21.3 21.743 13.205-.495 23.7-8.536 23.7-22.975 0-8.858-4.852-16.716-11.15-21.637a24.148 24.148 0 0 1 -4.856-4.928 7.953 7.953 0 0 0 -6.494-3.435 8.04 8.04 0 0 0 -7.113 4.452 20.512 20.512 0 0 1 -5.352 6.302z" fill="#b4eb3c"></path><path d="m15 39a24 24 0 0 0 48 0z" fill="#c3f54b"></path><path d="m17 39a22 22 0 0 0 44 0z" fill="#fffaf8"></path><path d="m39 39-7.851 13.6a3.013 3.013 0 0 0 1.633 4.348 18.885 18.885 0 0 0 12.436 0 3.013 3.013 0 0 0 1.633-4.348z" fill="#ffdc32"></path><path d="m57.65 42.626a3.018 3.018 0 0 0 -2.94-3.626h-15.71l7.846 13.59a3.015 3.015 0 0 0 4.6.745 19.067 19.067 0 0 0 4-4.842 19 19 0 0 0 2.204-5.867z" fill="#ffeb50"></path><path d="m20.35 42.626a3.018 3.018 0 0 1 2.94-3.626h15.71l-7.846 13.59a3.015 3.015 0 0 1 -4.6.745 19.067 19.067 0 0 1 -4-4.842 19 19 0 0 1 -2.204-5.867z" fill="#ffeb50"></path><g fill="#a0da28"><circle cx="35" cy="27" r="1"></circle><circle cx="41" cy="33" r="1"></circle><circle cx="20" cy="22" r="1"></circle><circle cx="10" cy="47" r="1"></circle><circle cx="27" cy="31" r="1"></circle><circle cx="29" cy="16" r="1"></circle><circle cx="13" cy="32" r="1"></circle></g></svg>