<svg id="Garnet" enable-background="new 0 0 450 450" viewBox="0 0 450 450" xmlns="http://www.w3.org/2000/svg"><g><path d="m237.7 104.7c80.1-5.9 149.5-1.8 168.8 82.8 22.5 98.6-68.2 150.4-157 140.3-153.3-17.3-122.1-214.9-11.8-223.1" fill="#e1143f"></path><path d="m301.3 103.6c187.1 17.1 111.6 281.2-72.3 213.2 136.5 4.5 162.5-163.7 72.3-213.2" fill="#b30d31"></path><path d="m228.7 134.6c2.5-11.7-1.7-21.4 8.3-26.6-17.1-4.1-28.9-9.3-28.4-13.9.5-4.9 14.9-8.8 38.1-1.9-2.9-44.5-10.7-46.2 19.5-10.2 26.4-38.1 24.7-35.2 24.7 4.9 8.2-5.6 26-16.4 21.5 2.4-31.4 14.2-23.2 20.7-14.4 49-35.8-25.1-32.7-29.6-69.3-3.7" fill="#ab744d"></path><path d="m82 210.9c-103.8 159.9 168.1 268.1 227.5 91.6-51.3-15.8-198.1-91.6-227.5-91.6" fill="#e1143f"></path><path d="m82 210.9c-91 118.2 143 248.8 228.3 90.3-46.2-14.7-203-92.4-228.3-90.3" fill="#eecb87"></path><path d="m51.2 244.7c-11.4 30.4-24.8-1.6 3.4-11.8-10.2-7.6-4.2-14.8 4.6-24.1 9 .7 13.8 2.1 22.7 2.1-12.8 22.3-8.8 32.6-30.7 33.8" fill="#ab744d"></path><path d="m299.1 240c-33.6 0-33.1-59.4.4-59.4 33.5.1 33.1 59.4-.4 59.4" fill="#f74f66"></path><g fill="#e1143f"><path d="m170.5 221.1c2.3 31.5-26.3 27.3-29.3 17.1-2.9-9.5-3.3-17.6 1.2-21.2 6.8-5.4 27.1-9.5 28.1 4.1"></path><path d="m202.9 228.2c2.3 31.5-26.3 27.3-29.3 17.1-2.9-9.5-3.3-17.6 1.2-21.2 6.8-5.4 27.1-9.5 28.1 4.1"></path><path d="m256.2 327.1c-5 11.1-13.4 14.8-19.8 13.9-1 24-25.4 24.5-29.1 11.6-6.7 13.3-24 8.7-26.4.8-.1-.4-5 9.1-15.4 7.6-15.1-2.1-13.8-20.7-15.4-18.1-5.3 8.8-36.5 7.8-28.7-19.8-9.6 15.9-36.6-7.5-23-28.3-18.9-3-15.9-34.9-3.8-36.8-4.3-4.4-5.3-17.9.2-22.3 3.7-3 11.8-3.5 18.3-3 1.7-6.2 8-14.4 11.9-16.9 1.9-1.2 8.4 2.3 17.6 4.6 37.3 9.2 119.1 37.8 119.2 39.2.7 9.6-2.9 15.4-6.3 19.2 11.8 0 14.4 8.9 13 18.5 27.3 5.7 6.1 38.8-12.3 29.8"></path></g><path d="m264.9 88.6c6.7 0 12 4.7 12 10.4 0 5.8-5.4 10.4-12 10.4-6.7 0-12-4.7-12-10.4 0-5.8 5.4-10.4 12-10.4" fill="#eecb87"></path><path d="m58.6 283.2c23.4 118.3 173.2 141.7 235.4 46.8-69 72.8-193.3 67.2-235.4-46.8m3.5-42.7c3.8-9 9.1-17.7 13.7-26.4-5.4-.1-10.2-.5-16.5-1-3.6 4-6.3 8.6-6.7 14.1 2.3 1.7 11.8 6.6 4.8 8.8-18.9 6-17.4 27-7.7 7.1.5-1.2 1.6-2.1 3-2.1zm170.6 95.5c-.8-10.3-23.9-6.6-24.5 3.6-1.5 25.4 26.4 22.5 24.5-3.6zm-13.6-12.5c.8-2.3 2.3-6.4 1.3-8.8-8.3-21-43.5 11.8-18.3 19.8 2.3-6.9 10.4-9.8 17-11zm20.7 13.9c34.3-4.4-4-49.2-12.6-14.2 8.5 1 12.2 6 12.6 14.2zm-62.6-12.8c7.3-3.3 17.2-21 2.2-24.4-28.3-6.3-20.7 32.7-2.2 24.4zm-36.9-108.6c-.1-49.7 30.7-94.2 77.3-110.6-29.8-10.8-2.9-23.2 24.5-16.3-.5-39-5.1-49.8 22.9-11.7 21.1-30.2 28.3-37.1 28.3 4.5 25-14.9 32.2 2.1 7.9 18 145 10.4 158.2 204.3.7 230-93.3 140.3-280.5 35.1-242.4-82.4l-4.3.2c-8.4 17.2-24.9 14.7-18.8-.7 2.8-7.1 5.2-13.3 12.5-15.7-7.3-5.4 4-25.9 9.4-25.4 19.5 2.9 36.9-2.2 58.2 11.4 7.4-8 14.6-6.8 23.8-1.3zm91.2 86.8c15.7-25.8-15.3-28.7-17.8-21.1-8.2 24.2 13.7 27.8 17.8 21.1zm-105.3 17.7c-8.4 24.8 17.9 34.7 22.8 9.7 2-10.2-19.4-19.6-22.8-9.7zm30.8 11.9c-8.4 24.8 17.9 34.7 22.8 9.7 1.9-9.2-20.1-17.5-22.8-9.7zm26.3 20.3c3.7 6.2 15.4 5.1 19.5-1.4-.9-3.5-1.5-6.7-1.6-9.7-8.1-2-14-7.8-13.8-16.4-1.6 2-3.3 3.5-5.1 4.6 7.3 7.2 5.2 14.6 1 22.9zm22.2-67.6c-1.2-9.6-27.1-10.1-24.2 8.4 6.2 1.5 12.1 5.1 13 11.8 3.3-2.5 8.7-3.1 12.7-3.1-2.2-4.2-3-9.9-1.5-17.1zm-57.4-48.7c1.8 5.9 12.9 6.1 17.5 2.2 4.2-3.6 7.5-17.1 3.8-21.5-4.1-5.2-17.3-1.3-21.3 1.8-3.9 3.2-1.2 13.6 0 17.5zm36.1 32.6c18-4.2 17.1-30-6.4-25.5-5 1-7.3 11.4-8.1 15.5-1.2 6 8.6 11.4 14.5 10zm-23 26.6c3.4-2.5 8.9-3 13-2.9-.7-6.7.3-12.6 6.5-16.3-4.8-.3-11.5-6-15-9.3-18.2-.8-14.5 24.5-4.5 28.5zm-43.7-28.9c.5-4.5 2-11.1 5.2-14.4-6.7-4-13.3-9-13.5-17.4-19.3 1.3-15.4 13.6-12.6 22.4 7.3-.3 16 4.2 20.9 9.4zm22.5 13.8c-3.3-9.8-24.8-.4-22.8 9.7 4.8 24.6 31.3 15.5 22.8-9.7zm-30.1 7.9c-.1-4.2 1.2-7 4-9.8.2-2.4.9-3.9-.7-6.2-3.3-4.2-15-10.9-20-7-15.5 11.6 9.8 38.9 16.7 23zm15.6 22.6c-8-1.5-11-7.6-13.7-14.6-3 2.1-6.8 2.9-10.5 2.8-8.4 22.5 12.8 28.5 17.7 21.3 1.1-4.1 2.6-7.4 6.5-9.5zm23.2-17.5c-.7 7.5-4.9 13.7-12 16.4 14.3 3.2 20.1 17.8 18.1 11-1.7-5.8-.3-14.9 1.9-19.7-3.2-1.7-6.3-4.4-8-7.7zm-20.5-36.9c-2.9 2.2-4.2 11.1-3.9 15 7.9-3.4 17.9-3.7 21.8 5.5 10.3-19.9-14.2-23.2-17.9-20.5zm17.7-12.1c-.4 9.6 8.3 20.3 17.8 16.7.6-3.8.9-11.1 2.4-14.6-6.4 2.9-14.6 2.2-20.2-2.1zm-5.3-9.1c-1-3.8-1.7-7.9-1.4-11.9-23.7-16.1-37.5 23.7.1 26.3-.6-3.2-.4-11.8 1.3-14.4zm119 90.2c12.6 2.6 25.6-19.3 10.6-24.2-1.6 5.8-5.1 10.8-10.7 13.3 1.8 3.7 1.5 7.1.1 10.9zm11.7-31.2c26 8.3 6.9 44-14.6 37.7-3.7 6.6-9.4 12-17.3 12.4-2.4 17.7-21.7 26.3-33.3 13.8-6.9 7.1-19.5 7.4-26.7.6-9.6 10.1-28.6 2.6-31-11.8-11.2 11.3-32.2.9-31.1-17.8-19.8 5.8-28.6-13.8-23-31.5-3.5-1.3-6.5-3.6-8.6-6.7-5.4-7.9-4.6-26.6 4.2-32-7.9-17.8 1.9-30.9 20.3-31.2.5-1.6 1.3-3.2 2.1-4.7-11.7-7.4-14.3-8.7-28.7-8.9-16.6 25.2-25.3 48.8-18.2 69 37 105.7 179.4 120.7 239.9 20.9-11.4-3.6-22.7-7.5-33.9-11.7 0 .6 0 1.2-.1 1.9zm-36.3-36.4c-12.4 9.9 15.5 37.9 24.3 10.3 2.9-9.1-7.1-19.9-24.3-10.3zm8.3 27.9c1.4 6.2-1.9 13.5-4.9 18.7 5.3.1 11.4 1.5 15.9 4.5 11.7-4.6 15.7-25.7 2.7-26.5-1.3 0-7.1 4-13.7 3.3zm-44.1-43.5c10.8-6.5 1.4-32.4-18.7-16.4-2.7 2.1-2.2 7.3-1.8 10.3 6.7-.3 15.2 1.9 20.5 6.1zm4.9 7.1c2.6 9.1-9.2 14-7.1 21.3 2.1 6.8 28.8 6.7 26.9-19.8-.6-8.4-14.5-7.4-19.8-1.5zm67.4-156c-7.8-6.7-20.1 2.9-12.5 9.4 7.8 6.7 20.1-2.9 12.5-9.4zm-3-8.9c11.3 2.2 17 15.4 7.5 23.6-14.7 12.7-36.2-7.3-21.6-20 1.9-1.7 4.4-2.9 7.1-3.5-24.8-33.5-12.5-30.7-12.5 9-.1 2.3-2.2 4-4.5 3.3-6.9-2.1-25-6-31.7-2 2.7 7.8 21.4 7.3 27.2 8.7 3.1.8 3.7 5 .8 6.5-6.1 3.1-14.4 17.2-8.4 18.1 28.6-19.8 30.9-17.2 57.8 2.3-8.7-25-7.6-30.6 18-42.4 3.1-2.4-.5-4.9-2.2-4.5-4.3.9-10.4 4.8-14.3 7.4-2.3 1.5-5.4-.1-5.4-2.9.1-38.6 3.5-34.3-17.8-3.6zm25.7 22c-4.8 8.2 13.1 46.2.5 36-14.3-10.1-27.7-25.9-45.2-16.7 3.5 16.7-1.4 32.2-6.4 3.8-34.6 22.1-16.5-14.6-11.6-20.7-47 9-82.4 54.7-84.2 102.3 10.1-5.1 28.7-6.6 30.2 8.4 17-11.1 36.8-4.9 31.8 19 11.1-2.2 21.2 1 21.6 13.8 18.7-14.4 43 .1 30.8 24 4.3 1.2 7.6 4 8.9 8.3 12.8 4.8 26 9.5 39.1 13.5 2.3.7 4.4 2.3 3.9 5.2l-8.4 19c144.7-27.6 130.4-205.1-3.5-215.3-1.6 5.9 6.5 11.4 10.3 16.7 6.6 14.6-18.4-6.9-17.8-17.3z" fill="#1c1c1c"></path></g></svg>