<?xml version="1.0" encoding="iso-8859-1"?>
<!-- Uploaded to: SVG Repo, www.svgrepo.com, Generator: SVG Repo Mixer Tools -->
<svg height="800px" width="800px" version="1.1" id="Layer_1" xmlns="http://www.w3.org/2000/svg" xmlns:xlink="http://www.w3.org/1999/xlink" 
	 viewBox="0 0 511.985 511.985" xml:space="preserve">
<path style="fill:#965353;" d="M289.615,86.871c-65.42-8.125-214.894-1.969-269.283,88.123
	c-21.125,35.015-29.695,80.233-6.461,121.529c48.14,85.561,320.759,35.546,352.336-53.921
	C381.316,199.791,370.347,96.887,289.615,86.871z"/>
<g style="opacity:0.1;">
	<path d="M35.238,296.523c-23.234-41.296-14.664-86.514,6.461-121.529c41.788-69.217,139.7-88.889,212.503-90.607
		c-73.647-1.765-187.824,14.344-233.87,90.607c-21.125,35.015-29.695,80.233-6.461,121.529
		c18.578,33.015,70.584,45.843,129.271,43.999C93.502,338.897,51.518,325.46,35.238,296.523z"/>
</g>
<g>
	<path style="fill:#7F4545;" d="M74.721,228.415c0,5.906-4.781,10.688-10.679,10.688c-5.898,0-10.68-4.781-10.68-10.688
		s4.781-10.687,10.68-10.687C69.94,217.728,74.721,222.509,74.721,228.415z"/>
	<path style="fill:#7F4545;" d="M277.693,164.323c0,5.891-4.78,10.671-10.679,10.671s-10.68-4.781-10.68-10.671
		c0-5.906,4.781-10.687,10.68-10.687S277.693,158.417,277.693,164.323z"/>
	<path style="fill:#7F4545;" d="M213.601,228.415c0,5.906-4.781,10.688-10.679,10.688s-10.688-4.781-10.688-10.688
		s4.789-10.687,10.688-10.687C208.82,217.728,213.601,222.509,213.601,228.415z"/>
	<path style="fill:#7F4545;" d="M117.454,281.836c-4.812,0-8.882,3.172-10.218,7.562c-4.258,13.938-3.781,33.858-2.281,50.093
		c7.023,0.641,14.25,1.031,21.625,1.156c-1.578-15.422-2.273-33.89,1.078-44.937c0.312-1.016,0.484-2.078,0.484-3.203
		C128.142,286.617,123.353,281.836,117.454,281.836z"/>
	<path style="fill:#7F4545;" d="M175.922,142.979c0.016,5.891,4.797,10.656,10.679,10.656c5.898,0,10.688-4.781,10.688-10.688
		c0,0,0-0.016,0-0.031l0,0c-0.055-16.156,9.726-42.233,16.429-57.671c-7.851,0.516-15.898,1.234-24.046,2.219
		c-0.781,2-1.586,4.078-2.391,6.234c-7.57,20.312-11.39,36.874-11.359,49.233c0,0.016,0,0.016,0,0.016v0.016V142.979
		L175.922,142.979z"/>
</g>
<path style="fill:#A85D5D;" d="M405.159,153.511c-98.904,5-152.48,90.014-170.926,128.138
	c-13.648,28.203-26.742,48.687-21.109,79.014c5.633,30.328,50.562,53.343,79.459,62.03c17.905,5.375,112.575,15.812,164.903-28.874
	c54.311-46.406,54.498-117.514,54.498-160.247S504.048,148.495,405.159,153.511z"/>
<g>
	<path style="fill:#965353;" d="M362.427,367.287c0,5.906-4.781,10.688-10.688,10.688c-5.891,0-10.688-4.781-10.688-10.688
		c0-5.891,4.797-10.672,10.688-10.672C357.645,356.615,362.427,361.396,362.427,367.287z"/>
	<path style="fill:#965353;" d="M341.052,249.774c0,5.906-4.781,10.687-10.672,10.687c-5.906,0-10.688-4.781-10.688-10.687
		c0-5.891,4.781-10.672,10.688-10.672C336.27,239.102,341.052,243.884,341.052,249.774z"/>
	<path style="fill:#965353;" d="M426.518,292.508c0,5.906-4.781,10.688-10.688,10.688c-5.891,0-10.672-4.781-10.672-10.688
		c0-5.891,4.781-10.672,10.672-10.672C421.737,281.836,426.518,286.617,426.518,292.508z"/>
	<path style="fill:#965353;" d="M251.108,404.271c8.867-5.016,18.742-12.219,23.522-21.297c0.047-0.078,0.094-0.172,0.141-0.25
		c0.016-0.047,0.047-0.094,0.078-0.141h-0.016c0.75-1.453,1.172-3.094,1.172-4.844c0-5.891-4.78-10.672-10.679-10.672
		c-4.156,0-7.75,2.375-9.516,5.844h-0.008c-3.141,6.172-14.617,13.047-24.047,17.203
		C237.491,395.318,244.124,400.053,251.108,404.271z"/>
	<path style="fill:#965353;" d="M492.845,172.869c-8.531,5.515-21.702,12.421-34.624,12.828v0.016
		c-0.952,0.031-1.921,0.188-2.874,0.484c-5.625,1.781-8.734,7.781-6.953,13.406c1.469,4.672,5.859,7.594,10.53,7.453l0,0
		c17.672-0.578,34.358-8.891,46.327-16.781C502.423,183.869,498.438,177.978,492.845,172.869z"/>
</g>
<path style="opacity:0.1;fill:#FFFFFF;enable-background:new    ;" d="M409.472,153.323c74.639,3.188,81.154,41.562,81.154,80.248
	c0,42.733-0.188,113.841-54.514,160.247c-28.641,24.468-69.983,32.405-104.467,33.702c37.233,1.375,90.936-3.906,125.842-33.702
	c54.311-46.406,54.498-117.514,54.498-160.247C511.985,191.463,504.282,149.745,409.472,153.323z"/>
</svg>