<?xml version="1.0" encoding="iso-8859-1"?>
<!-- Uploaded to: SVG Repo, www.svgrepo.com, Generator: SVG Repo Mixer Tools -->
<svg height="800px" width="800px" version="1.1" id="Layer_1" xmlns="http://www.w3.org/2000/svg" xmlns:xlink="http://www.w3.org/1999/xlink" 
	 viewBox="0 0 512.256 512.256" xml:space="preserve">
<path style="fill:#F4511E;" d="M193.6,476.078c60.4,0,121.2,0,181.6,0c39.2,0,74-35.2,77.2-74.4c6.8-81.2,13.2-162.4,19.6-240.8
	c2-22-6.8-45.2-22-62.4c35.6,11.2,60.8,50,58,86c-6.4,78.4-13.2,160.4-19.6,241.6c-3.2,39.2-38,74.8-77.2,74.8
	c-60.4,0-121.2,0-181.6,0c-21.6,0-42.4-11.6-56.8-27.6C179.6,474.878,186.4,476.078,193.6,476.078z"/>
<path style="fill:#FFCC80;" d="M379.6,105.278c-1.2-4-2.8-8-4.8-12.4c-2.8-16.4-10.4-32-22-44.8l1.2-1.6
	c-10.8-11.2-24.4-19.2-39.2-22.4c-81.2-16-165.2-16-246.4,0c-36.4,7.6-64,45.2-64.4,81.2c0,2.4,0,4.8,0.4,6.8
	c5.6,66.8,12,147.2,19.6,240c2.8,35.6,31.6,67.2,66,72.8l0,0c0.4,0.4,5.2,1.2,5.6,1.6c1.6,0,3.6,1.2,5.2,1.2c17.6,0,35.2,0,52.8,0
	c16.8,0,33.6,0,50.8,0c26,0,52,0,78,0c39.2,0,73.6-34.8,77.2-74c4-47.2,5.6-100.4,9.2-148l2.4-3.2c2.4-30,4-60.8,6.4-90.4
	c0-1.2-0.4-2.4-0.8-3.2L379.6,105.278z M192,339.678L192,339.678L192,339.678L192,339.678z M248,86.078l7.6,7.6
	c0,4.4-3.6,7.6-7.6,7.6s-7.6-3.6-7.6-7.6S244,86.078,248,86.078z M212,212.078l7.6,7.6c0,4-3.2,7.6-7.6,7.6c-4.4,0-7.6-3.6-7.6-7.6
	S207.6,212.078,212,212.078z M172,83.678L172,83.678L172,83.678L172,83.678z M104,168.478l7.6,7.6c0,4.4-3.6,7.6-7.6,7.6
	s-7.6-3.6-7.6-7.6C96.4,171.678,99.6,168.478,104,168.478z M96,264.078L96,264.078L96,264.078L96,264.078z M96,312.478l7.6,7.6
	c0,4.4-3.6,7.6-7.6,7.6s-7.6-3.6-7.6-7.6C88.4,315.678,91.6,312.478,96,312.478z M284,256.078L284,256.078L284,256.078L284,256.078z
	 M246.8,296.478l8.4,7.6c0,4.4-3.6,7.6-7.6,7.6c-4.4,0-7.6-3.2-7.6-7.2c0-0.4,0,0,0-0.4c0.4-2.4,2-5.6,4-6.8l0.4-0.8
	C245.6,296.478,246.4,296.478,246.8,296.478z"/>
<g>
	<path style="fill:#F4511E;" d="M248,311.678c-4.4,0-7.6-3.2-7.6-7.6c0-0.4,0-0.8,0-1.2l4-5.6c1.2-0.4,2.4-0.8,3.6-0.8l7.6,7.6
		C255.6,308.078,252,311.678,248,311.678z"/>
	<path style="fill:#F4511E;" d="M255.6,94.078c0,4.4-3.6,7.6-7.6,7.6s-7.6-3.6-7.6-7.6c0-4.4,3.6-7.6,7.6-7.6L255.6,94.078z"/>
	<path style="fill:#F4511E;" d="M204.4,219.678c0-4.4,3.6-7.6,7.6-7.6l7.6,7.6c0,4-3.6,7.6-7.6,7.6
		C207.6,227.278,204.4,224.078,204.4,219.678z"/>
	<path style="fill:#F4511E;" d="M446,94.078l-0.8,1.2c-10.8-11.2-24.4-19.6-39.6-22.8c-1.2-0.4-1.6-0.4-5.6-0.8l0,0
		c16,15.2,25.2,35.6,26,55.6l0.4-0.4c0.8,3.6,1.6,8,1.2,9.6c-6.4,78.4-13.2,160-19.6,240.8c-3.2,39.2-38,74.8-77.2,74.8
		c-48,0-96.4,0-144.4,0c-12.4,0-24.8,0-37.2,0c-3.2,0-6.8-1.2-10-2c7.6,8,16.8,14.4,26.8,18.8l0,0c0,0,0.8,0.4,1.6,0.8
		c1.6,0.8,3.2,1.2,4.8,2c6.8,2.4,13.6,4.4,20.8,4.4c60.4,0,121.2,0,181.6,0c39.2,0,73.6-35.2,77.2-74.4
		c6.8-81.2,13.2-162.8,19.6-241.6C473.6,138.078,461.2,111.278,446,94.078z"/>
	<path style="fill:#F4511E;" d="M96.4,176.078c0-4,3.6-7.6,7.6-7.6l7.6,7.6c0,4.4-3.6,7.6-7.6,7.6
		C99.6,183.678,96.4,180.078,96.4,176.078z"/>
	<path style="fill:#F4511E;" d="M96,312.478l7.6,7.6c0,4.4-3.6,7.6-7.6,7.6s-7.6-3.6-7.6-7.6C88.4,315.678,91.6,312.478,96,312.478z
		"/>
	<path style="fill:#F4511E;" d="M428,127.278L428,127.278c-0.8-20-10-39.2-24.4-55.2l0,0l-2.8,3.6l2.8-4c-10.8-11.6-24.8-20-40-23.2
		c-2.8-0.4-6-1.2-8.8-1.6v0.4c14.4,14.8,23.6,34.8,25.2,54.8l-3.2,4l0,0l0,0c0,2.4,1.6,4.8,1.6,6.8c-2.4,29.6-4,65.2-6.4,95.2
		l0.4-0.8c-4,48.4-8,97.6-12,146.4c-3.2,39.2-38,74.8-77.2,74.8c-26,0-52,0-78,0c-16.8,0-38-1.2-54.8-1.2l-0.8,1.2
		c-16,0-32,0-47.6,0c-1.6,0-3.6-1.2-5.2-1.2c11.6,11.6,26.4,19.2,42.4,22l0.8-1.2l-0.4,1.2c0,0,0,0-0.4,0l0,0c0,0,0,0,0.4,0
		l-0.4,0.4c0.4,0.4,0.8,0.4,1.2,0.8c3.2,0.4,6.4,2,10,2c12.4,0,24.8,0,37.2,0c48,0,96.4,0,144.4,0c39.2,0,73.6-35.2,77.2-74.8
		c6.8-81.2,13.2-162.8,19.6-241.6C428,133.278,428,130.078,428,127.278z"/>
</g>
<path d="M410.8,504.078H229.2c-20.8,0-42.4-10.8-59.6-30c-1.6-1.6-1.2-4,0.4-5.6c1.6-1.6,4-1.2,5.6,0.4
	c15.6,17.2,35.2,27.2,53.6,27.2h181.6c36.4,0,70-32.4,73.2-71.2c2.8-35.6,6-71.6,8.8-107.6c3.6-45.2,7.2-90,11.2-134
	c2.8-34.8-22-71.6-55.2-82c-2-0.8-3.2-2.8-2.8-5.2c0.8-2,2.8-3.2,5.2-2.8c36.8,11.6,64,52,60.8,90.4c-3.6,44-7.2,88.8-11.2,134
	c-2.8,35.6-6,71.6-8.8,107.6C488.4,468.078,451.2,504.078,410.8,504.078z"/>
<path d="M375.2,480.078H193.6c-8,0-15.6-2.4-22-4.8c-12.8-4-24.8-12-34.8-22.4c-1.6-1.6-1.6-4,0-5.6s4-1.6,5.6,0
	c9.2,9.6,20.4,16.4,31.6,20.4c6.4,2,12.8,4.4,19.6,4.4h181.6c36.4,0,70-32.4,73.2-70.8c2.8-36,6-72.4,8.8-108.4
	c3.6-44.8,7.2-89.6,10.8-133.2c1.6-20.4-6-42.4-21.2-59.2c-11.2-12.8-25.2-21.2-40-24.4l-1.6-0.4c-0.8,0-1.6-0.4-2.4-0.4
	c-2-0.4-3.6-2.4-3.2-4.8c0.4-2,2.4-3.6,4.8-3.2l4,0.8c16.8,3.6,32,12.8,44.4,26.8c16.4,18.4,24.8,42.8,23.2,65.2
	c-3.6,43.6-7.2,88.4-10.8,133.2c-2.8,36-6,72.4-8.8,108.4C452.4,444.078,415.6,480.078,375.2,480.078z"/>
<path d="M330.8,456.078H149.2c-2.4,0-5.2-0.8-7.2-1.2c-1.2-0.4-2.4-0.4-3.2-0.8c-17.6-2.8-33.6-10.8-46-23.2c-1.6-1.6-1.6-4,0-5.6
	s4-1.6,5.6,0c11.2,11.2,25.6,18.4,41.6,21.2c1.2,0.4,2.8,0.4,4,0.8c2,0.4,3.6,0.8,5.2,0.8h181.6c36.4,0,70-32.4,73.2-70.8
	c3.2-40,6.4-80.4,10-120c3.2-40.8,6.8-81.6,10-121.2c0.4-2.8,0.4-5.2,0-8.4c-0.8-18.8-9.2-38.4-23.2-53.2c-1.6-1.6-1.6-4,0-5.6
	s4-1.6,5.6,0c15.2,16.4,24.4,37.6,25.6,58.4c0,3.2,0,6.4,0,9.2c-3.2,39.6-6.4,80.4-10,121.2c-3.2,40-6.4,80-10,120
	C408.4,420.078,371.2,456.078,330.8,456.078z"/>
<path d="M403.6,75.678c-1.2,0-2-0.4-2.8-1.2c-10.8-11.6-24-19.2-38-22c-2.4-0.4-4.8-0.8-7.2-1.6l-1.6-0.4c-2-0.4-3.6-2.4-3.2-4.8
	s2.4-3.6,4.8-3.2l1.6,0.4c2.4,0.4,5.2,0.8,7.6,1.6c15.6,3.2,30.4,11.6,42.4,24.4c1.6,1.6,1.6,4,0,5.6
	C405.6,75.278,404.4,75.678,403.6,75.678z"/>
<path d="M282.4,432.078H100.8c-1.6,0-3.2-0.4-4-0.8c-0.4,0-1.2-0.4-1.6-0.4c-38.4-2.8-72-37.6-75.2-77.6
	c-4.8-58.8-9.2-112.4-13.2-160.8l-6.4-79.2c-0.4-2.4-0.4-5.2-0.4-7.6c0.4-39.2,30.8-77.2,67.6-85.2c82.8-16.4,166-16.4,248,0
	c14.4,2.8,26.8,10.4,39.6,23.6c16.4,16.8,26.4,40.8,26.4,62.8l0,0c0.4,0.8,0,1.6,0,2.8c-1.2,14.4-2,30-3.2,45.2
	c-0.8,16-2,32.4-3.2,47.6c-2,24.4-4,49.2-6,74c-2,26-4,51.6-6.4,77.6C360,396.478,322.8,432.078,282.4,432.078z M192.4,16.078
	c-41.2,0-82,4-123.2,12c-33.2,6.8-60.8,41.6-61.2,77.2c0,2,0,4.4,0,6.8l6.4,79.2c4,48.4,8.4,102,13.2,160.8
	c2.8,36,33.6,67.6,68,70.4c1.2,0,2.4,0.4,3.6,0.8c0.4,0,1.2,0.4,1.6,0.4h181.6c36.4,0,69.6-32.4,72.8-70.8c2-25.6,4-51.6,6.4-77.6
	c2-24.8,4-49.6,6-74c1.2-15.2,2.4-31.6,3.2-47.6c0.8-15.2,2-30.8,3.2-45.6v-0.4c0-0.4,0-0.8,0-1.2l0,0c0-19.6-9.6-42-24-57.2
	c-11.6-12-22.8-18.8-35.2-21.2C274,20.078,233.2,16.078,192.4,16.078z"/>
<path d="M104,187.678c-6.4,0-11.6-5.2-11.6-11.6s5.2-11.6,11.6-11.6c2.4,0,4,1.6,4,4s-1.6,4-4,4c-2,0-3.6,1.6-3.6,3.6
	s1.6,3.6,3.6,3.6s3.6-1.6,3.6-3.6c0-2.4,1.6-4,4-4s4,1.6,4,4C115.6,182.478,110.4,187.678,104,187.678z"/>
<path d="M248,315.678c-6.4,0-11.6-5.2-11.6-11.6c0-0.4,0-1.2,0-1.6c0.4-3.6,2.8-6.8,6-8.8c1.6-0.8,3.6-1.2,5.2-1.2c2.4,0,4,1.6,4,4
	s-1.6,4-4,4c-0.4,0-1.2,0-1.6,0.4c-1.2,0.4-1.6,1.6-2,2.8v0.4c0,2,1.6,3.6,3.6,3.6s3.6-1.6,3.6-3.6c0-2.4,1.6-4,4-4s4,1.6,4,4
	C259.6,310.478,254.4,315.678,248,315.678z"/>
<path d="M212,231.278c-6.4,0-11.6-5.2-11.6-11.6s5.2-11.6,11.6-11.6c2.4,0,4,1.6,4,4s-1.6,4-4,4c-2,0-3.6,1.6-3.6,3.6
	s1.6,3.6,3.6,3.6s3.6-1.6,3.6-3.6c0-2.4,1.6-4,4-4s4,1.6,4,4C223.6,226.078,218.4,231.278,212,231.278z"/>
<path d="M248,105.678c-6.4,0-11.6-5.2-11.6-11.6s5.2-11.6,11.6-11.6c2.4,0,4,1.6,4,4s-1.6,4-4,4c-2,0-3.6,1.6-3.6,3.6
	s1.6,3.6,3.6,3.6s3.6-1.6,3.6-3.6c0-2.4,1.6-4,4-4s4,1.6,4,4C259.6,100.478,254.4,105.678,248,105.678z"/>
<path d="M96,331.678c-6.4,0-11.6-5.2-11.6-11.6s5.2-11.6,11.6-11.6c2.4,0,4,1.6,4,4s-1.6,4-4,4c-2,0-3.6,1.6-3.6,3.6
	s1.6,3.6,3.6,3.6s3.6-1.6,3.6-3.6c0-2.4,1.6-4,4-4s4,1.6,4,4C107.6,326.478,102.4,331.678,96,331.678z"/>
<path d="M172,87.678c-2.4,0-4-1.6-4-4s1.6-4,4-4l0,0c2.4,0,4,1.6,4,4S174,87.678,172,87.678z"/>
<path d="M322,174.078c-1.2,0-2-0.4-2.8-1.2c-0.8-0.8-1.2-1.6-1.2-2.8c0-1.2,0.4-2,1.2-2.8c1.6-1.6,4-1.6,5.6,0
	c0.8,0.8,1.2,1.6,1.2,2.8c0,1.2-0.4,2-1.2,2.8C324,173.678,322.8,174.078,322,174.078z"/>
<path d="M210,150.078c-1.2,0-2-0.4-2.8-1.2c-0.8-0.8-1.2-1.6-1.2-2.8c0-1.2,0.4-2,1.2-2.8c1.6-1.6,4-1.6,5.6,0
	c0.8,0.8,1.2,1.6,1.2,2.8c0,1.2-0.4,2-1.2,2.8C212,149.678,210.8,150.078,210,150.078z"/>
<path d="M192,343.678c-2.4,0-4-1.6-4-4s1.6-4,4-4l0,0c2.4,0,4,1.6,4,4S194,343.678,192,343.678z"/>
<path d="M292,356.078L292,356.078c-2.4,0-4-1.6-4-4s1.6-4,4-4c1.6,0,3.2,0.8,3.6,2.4c0.4,0.4,0.4,1.2,0.4,1.6
	C296,354.078,294,356.078,292,356.078z"/>
<path d="M284,260.078c-2.4,0-4-2-4-4c0-2,1.6-4,4-4l0,0c2.4,0,4,1.6,4,4C288,258.478,286,260.078,284,260.078z"/>
<path d="M96,268.078c-2.4,0-4-1.6-4-4s1.6-4,4-4l0,0c2.4,0,4,1.6,4,4S98,268.078,96,268.078z"/>
<path d="M58,174.078c-1.2,0-2-0.4-2.8-1.2c-0.8-0.8-1.2-1.6-1.2-2.8c0-1.2,0.4-2,1.2-2.8c1.6-1.6,4-1.6,5.6,0
	c0.8,0.8,1.2,1.6,1.2,2.8c0,1.2-0.4,2-1.2,2.8C60,173.678,58.8,174.078,58,174.078z"/>
<path d="M100.4,104.078c-2.4,0-4-1.6-4-4c0-1.6,0.8-2.8,2-3.6c0.4-0.4,1.2-0.4,2-0.4c2.4,0,4,1.6,4,4l0,0
	C104.4,102.078,102.4,104.078,100.4,104.078z"/>
<path d="M378,109.678c-2,0-3.6-1.2-4-3.2c-3.6-17.2-15.2-34-31.2-45.6c-10-7.2-17.6-11.2-26.8-12.8c-65.6-12.4-132.4-15.2-198.8-7.6
	c-2,0.4-4-1.2-4.4-3.6c-0.4-2,1.2-4,3.6-4.4c67.2-7.6,134.8-5.2,201.2,7.6c13.2,2.8,22.4,8.8,30,14.4c17.6,12.8,30.4,31.6,34.4,50.4
	c0.4,2-0.8,4.4-3.2,4.8C378.4,109.678,378,109.678,378,109.678z"/>
<path d="M4,109.678L4,109.678c-2.4,0-4-1.6-4-4c0-0.4,0-0.8,0.4-1.2c8.4-32.4,34.8-58,66-64.4c2-0.4,4.4,0.8,4.8,3.2
	c0.4,2-0.8,4.4-3.2,4.8c-28,5.6-52.4,29.6-60,58.8c0,0.4,0,0.8-0.4,0.8C6.8,108.878,5.6,109.678,4,109.678z"/>
</svg>