<svg id="Layer_1" enable-background="new 0 0 74 74" viewBox="0 0 74 74" xmlns="http://www.w3.org/2000/svg"><g><g><path d="m13.89 24.88c3.74-2.97 8.93-2.93 13.66-3.6 4.16-.59 8.21-1.81 12.31-2.73 4.1-.91 8.36-1.52 12.51-.84s8.21 2.8 10.46 6.35c1.95 3.07 2.49 7.07 5.17 9.53.51.47 1.15 1.05.97 1.72-.22.8-1.32.82-2.14.94-2.48.35-3.94 2.85-5.56 4.76-3.25 3.83-8.22 5.87-13.2 6.55s-10.03.14-15.02-.4c-3.39-.37-6.78-.73-10.17-1.1-2.12-.23-4.31-.48-6.17-1.54-2.12-1.21-3.6-3.37-5.8-4.41-1.33-.63-2.86-.82-4.14-1.56-1.09-.64-2.28-2.21-1.54-3.48.67-1.15 2.14-2.03 2.99-3.1 1.87-2.36 3.26-5.18 5.67-7.09z" fill="#ea7754"></path><g fill="#d35639"><path d="m34.67 29.43c.19.32.21.64.25.96-.01.32-.01.65-.17.98-.19-.32-.21-.64-.25-.96 0-.32 0-.65.17-.98z"></path><path d="m38.46 22.57c.19.32.21.64.25.96-.01.32-.01.65-.17.98-.19-.32-.21-.64-.25-.96.01-.33.01-.65.17-.98z"></path><path d="m45.48 34.67c.19.32.21.64.25.96-.01.32-.01.65-.17.98-.19-.32-.21-.64-.25-.96.01-.32.01-.65.17-.98z"></path><path d="m55.14 34.01c.19.32.21.64.25.96-.01.32-.01.65-.17.98-.19-.32-.21-.64-.25-.96 0-.32 0-.65.17-.98z"></path><path d="m58.62 38.91c.19.32.21.64.25.96-.01.32-.01.65-.17.98-.19-.32-.21-.64-.25-.96.01-.33.01-.65.17-.98z"></path><path d="m60.78 30.09c.19.32.21.64.25.96-.01.32-.01.65-.17.98-.19-.32-.21-.64-.25-.96.01-.32.01-.65.17-.98z"></path><path d="m30.84 22.21c.19.32.21.64.25.96-.01.32-.01.65-.17.98-.19-.32-.21-.64-.25-.96.01-.33.01-.65.17-.98z"></path><path d="m51.26 39.88c.19.32.21.64.25.96-.01.32-.01.65-.17.98-.19-.32-.21-.64-.25-.96.01-.33.01-.65.17-.98z"></path><path d="m47.39 44.74c.19.32.21.64.25.96-.01.32-.01.65-.17.98-.19-.32-.21-.64-.25-.96.01-.32.01-.65.17-.98z"></path><path d="m55.1 23.84c.19.32.21.64.25.96-.01.32-.01.65-.17.98-.19-.32-.21-.64-.25-.96.01-.33.01-.65.17-.98z"></path><path d="m50.54 18.34c.19.32.21.64.25.96-.01.32-.01.65-.17.98-.19-.32-.21-.64-.25-.96.01-.32.01-.65.17-.98z"></path><path d="m30.81 41.04c.19.32.21.64.25.96-.01.32-.01.65-.17.98-.19-.32-.21-.64-.25-.96 0-.32 0-.65.17-.98z"></path><path d="m35.65 44.14c.19.32.21.64.25.96-.01.32-.01.65-.17.98-.19-.32-.21-.64-.25-.96.01-.33.01-.65.17-.98z"></path><path d="m24.42 32.07c.19.32.21.64.25.96-.01.32-.01.65-.17.98-.19-.32-.21-.64-.25-.96.01-.33.01-.65.17-.98z"></path><path d="m23.39 24.51c.19.32.21.64.25.96-.01.32-.01.65-.17.98-.19-.32-.21-.64-.25-.96.01-.33.01-.65.17-.98z"></path><path d="m19.9 39.57c.19.32.21.64.25.96-.01.32-.01.65-.17.98-.19-.32-.21-.64-.25-.96.01-.33.01-.65.17-.98z"></path><path d="m12.55 36.62c.19.32.21.64.25.96-.01.32-.01.65-.17.98-.19-.32-.21-.64-.25-.96.01-.33.01-.65.17-.98z"></path><path d="m15.2 28.46c.19.32.21.64.25.96-.01.32-.01.65-.17.98-.19-.32-.21-.64-.25-.96 0-.33.01-.65.17-.98z"></path><path d="m28.83 27.49c.19.32.21.64.25.96-.01.32-.01.65-.17.98-.19-.32-.21-.64-.25-.96.01-.33.01-.65.17-.98z"></path><path d="m28.8 34.01c.19.54.23 1.08.27 1.62 0 .55.01 1.09-.15 1.64-.2-.54-.23-1.08-.27-1.62.01-.54 0-1.09.15-1.64z"></path><path d="m24.29 38.75c.19.54.23 1.08.27 1.62 0 .55.01 1.09-.15 1.64-.2-.54-.23-1.08-.27-1.62.01-.55 0-1.09.15-1.64z"></path><path d="m44.96 21.55c.19.54.23 1.08.27 1.62 0 .55.01 1.09-.15 1.64-.2-.54-.23-1.08-.27-1.62.01-.55 0-1.09.15-1.64z"></path><path d="m19.87 28.46c.19.54.23 1.08.27 1.62 0 .55.01 1.09-.15 1.64-.2-.54-.23-1.08-.27-1.62.01-.54 0-1.09.15-1.64z"></path><path d="m16.57 34.32c.19.54.23 1.08.27 1.62 0 .55.01 1.09-.15 1.64-.2-.54-.23-1.08-.27-1.62 0-.54-.01-1.09.15-1.64z"></path><path d="m40.71 30.09c.19.54.23 1.08.27 1.62 0 .55.01 1.09-.15 1.64-.2-.54-.23-1.08-.27-1.62 0-.54-.01-1.09.15-1.64z"></path><path d="m49.89 28.11c.19.54.23 1.08.27 1.62 0 .55.01 1.09-.15 1.64-.2-.54-.23-1.08-.27-1.62 0-.55 0-1.09.15-1.64z"></path><path d="m36.94 37.28c.19.54.23 1.08.27 1.62 0 .55.01 1.09-.15 1.64-.2-.54-.23-1.08-.27-1.62 0-.55 0-1.09.15-1.64z"></path><path d="m42.12 41.35c.19.54.23 1.08.27 1.62 0 .55.01 1.09-.15 1.64-.2-.54-.23-1.08-.27-1.62.01-.54 0-1.09.15-1.64z"></path></g><path d="m67.62 34.68h-.01c-2.78.39-4.45 2.53-5.95 4.41-.3.39-.58.75-.89 1.1-2.76 3.26-7.2 5.46-12.54 6.18-1.55.22-3.17.31-4.97.31-3.38 0-6.82-.37-10.15-.73l-10.52-1.14c-2-.2-4.06-.43-5.7-1.36-.86-.48-1.62-1.2-2.46-1.95-1.08-.98-2.2-1.99-3.64-2.68-.74-.34-1.47-.56-2.17-.77-.73-.23-1.43-.46-1.99-.77-.59-.35-.99-1.03-.97-1.22.24-.42.76-.87 1.27-1.33.3.11.61.2.93.3.71.21 1.43.44 2.16.77 1.45.7 2.56 1.71 3.66 2.68.82.75 1.6 1.47 2.44 1.94 1.64.94 3.72 1.17 5.71 1.38l10.51 1.13c3.33.37 6.77.73 10.15.73 1.8 0 3.42-.1 4.97-.31 5.34-.73 9.8-2.91 12.56-6.17.3-.35.59-.74.89-1.1 1.26-1.59 2.63-3.37 4.71-4.1.54.96 1.18 1.88 2 2.7z" opacity=".1"></path><g fill="#fff"><path d="m64.17 26.7c-3.07.79-5.94 2.02-8.28 4.11-1.82 1.62-3.74 3.88-6.12 3.39-1.62-.32-3.05-1.92-4.62-1.42-1.52.49-1.77 2.51-2.8 3.74-.91 1.1-2.43 1.52-3.86 1.48-1.42-.02-2.82-.4-4.22-.64-4.23-.69-8.7.08-12.43 2.19-2.12 1.2-4.01 2.8-5.51 4.71-1.92-1.21-3.36-3.17-5.41-4.15-1.33-.64-2.87-.83-4.15-1.57-1.08-.64-2.28-2.21-1.53-3.47.66-1.15 2.14-2.02 2.98-3.1 1.87-2.38 3.27-5.19 5.68-7.1 3.73-2.97 8.92-2.93 13.66-3.59 4.15-.59 8.2-1.82 12.29-2.73 4.12-.91 8.36-1.52 12.51-.84 4.15.69 8.21 2.8 10.47 6.36.53.83.95 1.72 1.34 2.63z" opacity=".1"></path><path d="m60.98 21.83c-5.75 1.4-11.84 1.43-17.57-.05-1.33-.34-2.75-.76-4.03-.29-1.92.71-2.66 3.04-4.27 4.32-1.64 1.32-3.9 1.35-5.97 1.53-2.09.19-4.44.76-5.45 2.6-.71 1.28-.59 2.95-1.45 4.15-1.06 1.45-3.09 1.65-4.84 1.92-3.09.51-6.05 1.67-8.67 3.34-.69-.2-1.35-.44-1.97-.79-1.08-.64-2.28-2.21-1.53-3.47.66-1.15 2.14-2.02 2.98-3.1 1.87-2.38 3.27-5.19 5.68-7.1 3.73-2.97 8.92-2.93 13.66-3.59 4.15-.59 8.2-1.82 12.29-2.73 4.12-.91 8.36-1.52 12.51-.84 3.2.51 6.32 1.87 8.63 4.1z" opacity=".1"></path></g></g><g><path d="m34.82 55.47c2.8.91 5.87.63 8.66-.31 3.81-1.29 7.28-3.87 9.37-7.44s2.69-8.15 1.25-12.06-7.2-7.01-11.19-7.32c-3.46-.27-4.66 1.47-7.41 3.68-2.62 2.11-4.88 4.79-6.23 7.95-1.18 2.78-3.07 5.04-1.85 7.96 1.15 2.74 4.69 6.66 7.4 7.54z" fill="#d35639"></path><path d="m33.21 52.82c2.65.82 5.55.57 8.19-.28 3.6-1.17 6.88-3.5 8.86-6.73s2.55-7.37 1.18-10.9c-1.36-3.53-4.76-6.29-8.53-6.57-3.28-.25-6.46 1.28-9.06 3.28-2.48 1.91-4.62 4.33-5.89 7.19-1.12 2.52-1.86 6.15-.71 8.79 1.09 2.47 3.4 4.43 5.96 5.22z" fill="#d35639"></path><path d="m42.21 28.51c.23 0 .46.01.68.03 3.61.27 6.97 2.86 8.35 6.44 1.29 3.33.84 7.44-1.17 10.72-1.88 3.06-4.98 5.42-8.75 6.64-1.59.52-3.17.78-4.68.78-1.19 0-2.33-.17-3.38-.49-2.55-.79-4.79-2.75-5.82-5.12-1.14-2.61-.39-6.17.71-8.62 1.16-2.61 3.17-5.06 5.82-7.11 1.94-1.49 4.93-3.27 8.24-3.27" fill="#f4ce89"></path><path d="m49.77 42.6c-1.04 1.62-3.45 1.82-4.69 3.3-1.04 1.23-1.03 3.11-2.04 4.37-.94 1.18-2.58 1.54-4.09 1.61-1.98.11-3.98-.17-5.97-.19-.97-.01-1.96.03-2.91.21-1.12-1.26-2.08-2.66-2.59-3.84-.03-.04-.04-.08-.06-.12-.07-.11-.11-.22-.17-.33-1.15-2.64-.4-6.27.71-8.8 1.28-2.86 3.41-5.27 5.9-7.19 2.25-1.75 4.95-3.12 7.77-3.29.43-.03.85-.01 1.28.01.24.01.47.04.71.08.24.03.47.08.69.14 2.76.57 5.97 2.21 8.01 4.37-1.15 1.12-2.01 2.57-2.15 4.16-.16 1.87.6 3.92-.4 5.51z" fill="#fff" opacity=".1"></path><path d="m49.76 30.84c-.25.29-.5.57-.76.83-1.35 1.39-3.05 2.5-4.95 2.83-1.22.22-2.53.11-3.65.64-1.23.58-2.03 1.82-2.64 3.04-.61 1.23-1.14 2.54-2.11 3.5-1.29 1.26-3.15 1.71-4.93 1.97-1.36.19-2.76.33-4.05.74.03-1.94.58-3.98 1.29-5.59 1.28-2.86 3.41-5.27 5.9-7.19 2.25-1.75 4.95-3.12 7.77-3.29.43-.03.85-.01 1.28.01.24.01.47.04.71.08.24.03.47.08.69.14 1.77.37 3.73 1.18 5.45 2.29z" fill="#fff" opacity=".1"></path><path d="m41.92 29.1h.02c-.07 0-.14-.01-.22 0z" opacity=".1"></path><path d="m52.17 47.41c-1.97 3.36-5.24 5.8-8.85 7.02-2.64.89-5.52 1.17-8.17.31-2.51-.82-5.79-4.44-6.92-7.02-.03-.03-.04-.07-.06-.11-.07-.11-.11-.21-.17-.32-.43-1-.58-2.15-.53-3.33.04.8.19 1.58.5 2.29.06.11.08.21.15.31.01.04.03.07.04.11 1.08 2.43 4.16 5.84 6.54 6.6 2.5.82 5.23.56 7.71-.28 3.4-1.15 6.49-3.45 8.35-6.63 1.87-3.18 2.4-7.26 1.11-10.73-1.14-3.09-5.31-5.63-8.71-6.33-.21-.06-.42-.1-.62-.12-.2-.04-.4-.07-.6-.08.28-.01.55-.01.84.01.24.01.46.03.68.07.22.03.44.08.65.14 3.61.75 8.05 3.43 9.24 6.7 1.37 3.68.81 8.01-1.18 11.39z" opacity=".1"></path></g><g><path d="m23.08 56.02c2.8.91 5.87.63 8.66-.31 3.81-1.29 7.28-3.87 9.37-7.44s2.69-8.15 1.25-12.06-7.2-7.01-11.19-7.32c-3.46-.27-4.66 1.47-7.41 3.68-2.62 2.11-4.88 4.79-6.23 7.95-1.18 2.78-3.07 5.04-1.85 7.96 1.15 2.73 4.7 6.66 7.4 7.54z" fill="#d35639"></path><path d="m21.48 53.37c2.65.82 5.55.57 8.19-.28 3.6-1.17 6.88-3.5 8.86-6.73s2.55-7.37 1.18-10.9c-1.36-3.53-4.76-6.29-8.53-6.57-3.28-.25-6.46 1.28-9.06 3.28-2.48 1.91-4.62 4.33-5.89 7.19-1.12 2.52-1.86 6.15-.71 8.79 1.09 2.46 3.4 4.42 5.96 5.22z" fill="#d35639"></path><path d="m30.48 29.06c.23 0 .46.01.68.03 3.61.27 6.97 2.86 8.35 6.44 1.29 3.33.84 7.44-1.17 10.72-1.88 3.06-4.98 5.42-8.75 6.64-1.59.52-3.17.78-4.68.78-1.19 0-2.33-.17-3.38-.49-2.55-.79-4.79-2.75-5.82-5.12-1.14-2.61-.39-6.17.71-8.62 1.16-2.61 3.17-5.06 5.82-7.11 1.94-1.5 4.93-3.27 8.24-3.27" fill="#f4ce89"></path><path d="m38.04 43.14c-1.04 1.62-3.45 1.82-4.69 3.3-1.04 1.23-1.03 3.11-2.04 4.37-.94 1.18-2.58 1.54-4.09 1.61-1.98.11-3.98-.17-5.97-.19-.97-.01-1.96.03-2.91.21-1.12-1.26-2.08-2.66-2.59-3.84-.03-.04-.04-.08-.06-.12-.07-.11-.11-.22-.17-.33-1.15-2.64-.4-6.27.71-8.8 1.28-2.86 3.41-5.27 5.9-7.19 2.25-1.75 4.95-3.12 7.77-3.29.43-.03.85-.01 1.28.01.24.01.47.04.71.08.24.03.47.08.69.14 2.76.57 5.97 2.21 8.01 4.37-1.15 1.12-2.01 2.57-2.15 4.16-.17 1.88.6 3.93-.4 5.51z" fill="#fff" opacity=".1"></path><path d="m38.02 31.39c-.25.29-.5.57-.76.83-1.35 1.39-3.05 2.5-4.95 2.83-1.22.22-2.53.11-3.65.64-1.23.58-2.03 1.82-2.64 3.04-.61 1.23-1.14 2.54-2.11 3.5-1.29 1.26-3.15 1.71-4.93 1.97-1.36.19-2.76.33-4.05.74.03-1.94.58-3.98 1.29-5.59 1.28-2.86 3.41-5.27 5.9-7.19 2.25-1.75 4.95-3.12 7.77-3.29.43-.03.85-.01 1.28.01.24.01.47.04.71.08.24.03.47.08.69.14 1.78.36 3.73 1.18 5.45 2.29z" fill="#fff" opacity=".1"></path><path d="m30.19 29.64h.02c-.07 0-.14-.01-.22 0z" opacity=".1"></path><path d="m40.44 47.95c-1.97 3.36-5.24 5.8-8.85 7.02-2.64.89-5.52 1.17-8.17.31-2.51-.82-5.79-4.44-6.92-7.02-.03-.03-.04-.07-.06-.11-.07-.11-.11-.21-.17-.32-.43-1-.58-2.15-.53-3.33.04.8.19 1.58.5 2.29.06.11.08.21.15.31.01.04.03.07.04.11 1.08 2.43 4.16 5.84 6.54 6.6 2.5.82 5.23.56 7.71-.28 3.4-1.15 6.49-3.45 8.35-6.63 1.87-3.18 2.4-7.26 1.11-10.73-1.14-3.09-5.31-5.63-8.71-6.33-.21-.06-.42-.1-.62-.12-.2-.04-.4-.07-.6-.08.28-.01.55-.01.84.01.24.01.46.03.68.07.22.03.44.08.65.14 3.61.75 8.05 3.43 9.24 6.7 1.37 3.68.8 8.01-1.18 11.39z" opacity=".1"></path></g></g></svg>