<svg id="zucchini" enable-background="new 0 0 450 450" viewBox="0 0 450 450" xmlns="http://www.w3.org/2000/svg"><g clip-rule="evenodd" fill-rule="evenodd"><path d="m288.889 297.086c4.508 14.384 12.666 27.05 28.768 36.067 0-9.017-4.294-19.107-4.294-28.339 5.797 7.299 19.751 18.034 25.548 25.333 1.932-4.294 0-10.734 1.932-15.028 5.367 4.294 10.734 8.373 16.316 12.666 0-3.006 0-6.011 0-9.232 12.022-1.073 20.395 0 32.632-1.073-7.085-3.435-13.955-7.729-17.604-12.237 3.864-2.576 7.729-5.367 11.593-8.158-9.661-.859-19.107-1.717-28.768-2.576 2.791-2.147 5.582-4.508 8.373-6.655-13.955-.859-23.401-.429-32.847-8.587 1.932-8.587 22.327-1.717 32.847 0 0-1.717 0-3.435 0-4.938 8.802 1.503 21.469.644 30.271 2.362-3.435-7.085-10.52-11.378-13.74-18.248 7.943-3.006 19.322-4.508 27.265-7.514-1.503-3.65-6.441-8.587-7.943-12.237 6.655-3.435 19.107-10.734 25.762-14.169-14.169-6.226-23.615-4.938-31.344-2.362-.429-3.435-4.723-6.87-5.152-10.305-64.621 27.05-99.615 17.604-99.615 85.23z" fill="#83b03a"></path><path d="m224.913 142.512c8.373 1.288 16.745 2.576 25.118 3.864-29.841-55.174 9.876-7.729 9.876-15.672 0-21.683-9.661-31.988 7.085-21.469 19.107-33.491 21.469-45.513 18.892.859 20.395-11.378 12.237 2.147 3.006 25.333 8.158-2.147 16.101-4.294 24.259-6.441-3.006 6.011-19.751 44.44-19.966 44.44-35.208 5.368-42.937-12.451-68.27-30.914z" fill="#96c745"></path><path d="m213.964 157.755c83.298 8.373 101.976-15.028 134.178-6.441-10.734 38.429-68.055 94.676-98.326 118.077 9.876-1.503-139.116 22.542-176.257.429-37.141-21.898-58.824-73.208-28.553-104.123 40.576-41.433 118.722-16.315 168.958-7.942z" fill="#b1cf75"></path><path d="m73.56 269.821c-25.977-15.243-44.225-44.869-42.722-71.92 60.971 2.362 155.432-12.881 238.301-29.627-38.215 61.4-111.423 151.354-195.579 101.547z" fill="#aac96d"></path><path d="m348.572 149.597c38.214 11.808 58.394 62.474 21.898 89.524-14.169 10.52-64.835 21.683-120.653 30.271 30.7-23.616 89.309-81.367 98.755-119.795z" fill="#aac96d"></path><path d="m372.187 163.766c15.243 17.175 21.254 34.779 15.243 51.954 17.39-5.367 14.169-7.729 22.327-24.474 20.825-42.508-28.553-34.779-37.57-27.48z" fill="#7a993d"></path><path d="m389.792 202.409c13.096-7.299 18.034-8.587 21.039-13.311 2.576-6.011 5.367-14.169 3.22-20.825-12.237 2.576-18.892 3.435-30.915 10.52 3.435 6.871 5.797 12.453 6.656 23.616z" fill="#698731"></path><path d="m311.646 146.591c-27.48 1.503-49.807 21.469-86.733 41.005-27.05 10.305-101.976 12.881-141.692 51.095-29.197 28.124-41.864 88.45 10.09 121.083 71.49 45.084 229.714-61.615 266.21-156.935 13.31-34.35-16.746-58.18-47.875-56.248z" fill="#cee89d"></path><path d="m71.628 340.452c5.367 7.085 12.452 13.74 21.683 19.322 71.49 45.084 229.714-61.615 266.21-156.935 7.514-19.322 1.288-35.208-11.164-45.084-33.705 98.111-173.466 187.635-276.729 182.697z" fill="#bdd987"></path><path d="m80.644 295.153c6.226-1.932 13.525 4.079 16.531 13.955 3.006 9.661.429 19.107-5.797 21.254-6.011 1.932-13.311-4.294-16.316-13.955s-.429-19.107 5.582-21.254z" fill="#cfbf78"></path><path d="m321.522 146.806c15.243-7.085 16.316-15.672 31.129-8.802 19.966 6.441 15.028 34.994 10.09 51.31 0-21.04-20.395-38.644-41.219-42.508z" fill="#8ead4f"></path><path d="m352.436 137.789c20.18 6.87 16.101 30.271 10.305 51.525 0-11.164-6.87-21.898-15.028-29.841z" fill="#79983a"></path><path d="m33.628 184.805c4.079.215 7.299 7.085 6.655 14.813-.429 7.943-4.079 13.955-8.373 13.525s-7.299-7.085-6.87-14.813c.43-7.943 4.295-13.954 8.588-13.525z" fill="#cfbf78"></path><path d="m40.498 198.116c0 4.723-2.362 15.672-8.587 15.028-6.011-.644-7.085-10.949-6.655-15.457 4.723.214 9.875.429 15.242.429z" fill="#b6a55b"></path><path d="m103.616 239.12c13.74-9.231 29.197-11.808 34.135-5.797 5.152 6.226-2.147 18.678-16.101 28.124-13.955 9.231-29.197 11.808-34.35 5.582-4.938-6.011 2.361-18.462 16.316-27.909z" fill="#e0f5b9"></path></g></svg>